<?xml version="1.0" encoding="UTF-8"?><svg id="b" xmlns="http://www.w3.org/2000/svg" viewBox="0 0 71.67 222.76"><defs><style>.d{fill:none;stroke:#fff;stroke-miterlimit:10;}.e{fill:#f93d6e;stroke-width:0px;}</style></defs><g id="c"><path class="d" d="m38.08,95.12c9.42,20.98,2.71,38.49-6.13,58.11-9.74,21.64-11.68,46.75-2.32,69.33"/><path class="e" d="m34.24,85.83c-.69,1.45-2.3,4.95-3.63,7.86-.42.92.48,1.85,1.43,1.5,1.46-.53,3.38-.58,5.8.69,4.53,2.39,7.69,1,9.11.03.5-.34.63-1.02.29-1.53l-6.04-9.21c-.23-.35-.63-.54-1.05-.5l-5.01.53c-.39.04-.72.28-.89.63Z"/><ellipse class="e" cx="35.83" cy="44.29" rx="35.83" ry="44.29"/></g></svg>