<?xml version="1.0" encoding="UTF-8"?><svg id="b" xmlns="http://www.w3.org/2000/svg" viewBox="0 0 71.71 220.69"><defs><style>.d{fill:none;stroke:#fff;stroke-miterlimit:10;}.e{fill:#5c67ea;}.e,.f{stroke-width:0px;}.f{fill:#8f92ff;}</style></defs><g id="c"><path class="d" d="m24.33,220.47c-10.18-20.63-4.1-38.37,4.01-58.29,8.95-21.98,9.98-47.14-.2-69.37"/><path class="e" d="m26.2,86.38c-.68,1.11-2.27,3.79-3.59,6.02-.42.7.19,1.54.95,1.35,1.18-.29,2.67-.14,4.4,1.11,3.26,2.36,5.84,1.54,7.03.89.42-.23.59-.77.38-1.21l-3.74-8.03c-.14-.3-.44-.5-.76-.5l-3.92-.05c-.3,0-.59.15-.75.42Z"/><ellipse class="f" cx="35.85" cy="44.28" rx="44.29" ry="35.83" transform="translate(-9.98 78.13) rotate(-87.45)"/></g></svg>