<?xml version="1.0" encoding="UTF-8"?><svg id="b" xmlns="http://www.w3.org/2000/svg" xmlns:xlink="http://www.w3.org/1999/xlink" viewBox="0 0 749.79 499.88">
  <defs>
    <style>
      .n,
      .m,
      .y,
      .f {
        stroke: #000;
        opacity: 0.5;
      }
      .f,
      .g,
      .h,
      .i,
      .j,
      .k,
      .l,
      .m,
      .n,
      .o {
        fill: none;
      }
      .f,
      .h,
      .j,
      .l,
      .m,
      .o {
        stroke-linecap: round;
        stroke-linejoin: round;
      }
      .p {
        fill: #80c1b9;
      }
      .p,
      .q,
      .r,
      .s,
      .u,
      .v,
      .k,
      .w,
      .x,
      .y,
      .z,
      .aa,
      .ab,
      .ac {
        stroke-width: 0px;
      }
      .q {
        fill: #ff548d;
      }
      .g,
      .i,
      .n {
        stroke-miterlimit: 10;
      }
      .g,
      .j {
        stroke: #fff;
      }
      .r {
        fill: #f7a5f9;
      }
      .h {
        stroke: #ff548d;
      }
      .i {
        stroke: #5c67ea;
      }
      .s {
        fill: #36776a;
      }
      .u {
        fill: #ffcd69;
      }
      .u {
        opacity: 0.67;
      }
      .v {
        fill: #423cc6;
      }
      .ad {
        clip-path: url(#e);
      }
      .w {
        fill: #f93d6e;
      }
      .l {
        stroke: #8f92ff;
      }
      .x {
        fill: #fce59d;
      }
      .z {
        fill: #af1545;
        opacity: 0.46;
      }
      .aa {
        fill: #c14c38;
      }
      .ab {
        fill: #5c67ea;
      }
      .ac {
        fill: #8f92ff;
      }
      .o {
        stroke: #423cc6;
      }
    </style>
    <clipPath id="e"><rect class="k" width="749.79" height="499.88" /></clipPath>
  </defs>
  <g id="d">
    <g class="ad">
      <path
        class="p"
        d="m-29.09,407.64c1.75-24.65,16.31-49.06,37.35-62.92.19-.12.43-.11.6.04l8.2,7.17c.36.31.92-.02.79-.48l-2.58-9.79.62-1.36c5.21-2.61,24.58-11.69,29-4.48,4.34,7.08-12.56,18.14-16.28,22.49-10.02,11.7-3.57,27.32.18,39.97,3.42,11.56,1.82,29.59-3.44,43.87-2.24,6.07-5.34,12.47-9.93,16.95-2.77,2.71-6.47,4.3-10.36,4.61-26.35,2.09-35.54-36.66-34.16-56.07Z" />
      <path class="n" d="m16.68,358.74s-22.09,17.55-21.32,65.74" />
      <path
        class="s"
        d="m87.22,515.65c12.98-1.35,26.8-11.8,35.62-26.79.08-.13.09-.31.02-.42l-3.11-5.79c-.14-.25.08-.65.31-.57l4.9,1.79.76-.45c1.76-3.71,7.96-17.5,4.54-20.6-3.36-3.05-10.4,8.99-12.95,11.66-6.86,7.17-14.5,2.66-20.81.05-5.76-2.38-15.27-1.16-23.11,2.64-3.33,1.61-6.9,3.85-9.58,7.12-1.62,1.98-2.73,4.61-3.19,7.37-3.09,18.71,16.4,25.05,26.61,23.99Z" />
      <path class="n" d="m116.52,481.96s-11.94,18.08-41,18.34" />
      <path
        class="p"
        d="m776.84,378.87c-6.02-26.45-25.68-50.44-50.48-61.87-.22-.1-.48-.04-.63.15l-7.55,9.19c-.33.4-.98.13-.93-.39l1.11-11.06-.89-1.37c-6.01-1.94-28.21-8.47-31.71.11-3.44,8.43,16.46,17.53,21.18,21.61,12.67,10.98,8.41,29.03,6.55,43.41-1.71,13.13,3.04,32.42,11.07,47.01,3.41,6.2,7.8,12.62,13.45,16.69,3.42,2.46,7.64,3.56,11.83,3.23,28.48-2.25,31.75-45.88,27.01-66.7Z" />
      <path class="n" d="m719.73,333.64s26.54,15.26,33.84,67.69" />
      <path
        class="s"
        d="m670.89,516.01c-14.08.76-30.6-8.21-42.54-22.97-.11-.13-.15-.32-.1-.46l2.35-6.81c.1-.3-.2-.69-.43-.56l-4.93,2.78-.88-.36c-2.5-3.73-11.45-17.62-8.32-21.57,3.07-3.88,12.62,7.98,15.8,10.43,8.53,6.6,15.93.4,22.23-3.51,5.75-3.57,16.11-3.88,25.12-1.1,3.83,1.18,8.02,2.99,11.43,6.09,2.06,1.87,3.7,4.54,4.65,7.45,6.46,19.77-13.28,30-24.37,30.59Z" />
      <path class="n" d="m633.92,484.48s15.8,17.57,46.86,12.88" />
      <path
        class="aa"
        d="m768.01,492.54c-13.84,22.65-33.82,36.38-59.35,42.06l-42.87-41.73-7.93-7.73h0l-19.95-19.43-28.78-28.02s43.57-62.73,107.05-74.75l14.36,35.89,10,25,4.61,11.53,22.86,57.16Z" />
      <path class="q" d="m730.54,398.84c-12.93,19.48-41.98,53.72-92.63,66.88l-28.78-28.02s67.23-8.64,107.05-74.75l14.36,35.89Z" />
      <path class="q" d="m745.15,435.37c-6.24,13.94-29.19,55.99-79.35,57.5l-7.93-7.73c10.09-1.61,60.12-11.97,82.67-61.3l4.61,11.53Z" />
      <polyline class="m" points="630.24 441.89 717.08 521.33 661.59 427.96 740.52 508.94 689.94 406.83 756.89 495.23 714.1 377.93" />
      <path class="j" d="m643.64,427.1s43.35-21.23,56.63-42.47" />
      <ellipse class="t" cx="630.24" cy="441.89" rx="3.85" ry="3.73" />
      <ellipse class="t" cx="661.59" cy="427.96" rx="3.79" ry="3.96" />
      <ellipse class="t" cx="689.94" cy="406.83" rx="3.82" ry="4" />
      <ellipse class="t" cx="714.1" cy="377.93" rx="3.83" ry="3.96" />
      <path
        class="v"
        d="m21.56,529.3c-23.62-7.02-41.02-21.98-52.82-44.08l25.31-50.15,4.69-9.28h0s11.78-23.35,11.78-23.35l16.99-33.67s66.8,24.28,94.29,79.81l-27.76,22.36-19.34,15.58-8.92,7.18-44.22,35.62Z" />
      <path class="ac" d="m94.04,470.92c-20.59-6.98-58.45-25.1-83.52-68.5l16.99-33.67s25.51,59.85,94.29,79.81l-27.76,22.36Z" />
      <path class="ab" d="m65.78,493.68c-13.93-2.22-57.05-12.72-71.73-58.62l4.69-9.28c4.11,8.9,26.54,52.44,75.96,60.72l-8.92,7.18Z" />
      <polyline class="m" points="29.45 389.29 -17.34 489.6 50.05 414.69 -.2 508.09 76.2 435.49 16.23 519.72 108.07 450.44" />
      <path class="j" d="m38.22,387.06s24.77,34.95,51.32,47.78" />
      <ellipse class="t" cx="29.45" cy="389.29" rx="3.42" ry="3.7" transform="translate(-106.77 23.42) rotate(-16.09)" />
      <ellipse class="t" cx="50.05" cy="414.69" rx="3.62" ry="3.64" transform="translate(-113 30.13) rotate(-16.09)" />
      <circle class="t" cx="76.2" cy="435.49" r="3.67" transform="translate(-117.74 38.19) rotate(-16.09)" />
      <ellipse class="t" cx="108.07" cy="450.44" rx="3.63" ry="3.68" transform="translate(-120.64 47.62) rotate(-16.09)" />
      <path
        class="x"
        d="m73.76,115.37l21.74,13.12c2.13,1.28,4.76-.51,4.37-2.97l-3.96-24.51c-.34-2.08-2.68-3.14-4.44-2.01l-17.78,11.39c-1.82,1.17-1.78,3.86.08,4.98Z" />
      <path class="h" d="m81.65,120.31c-1.13-1.81-1.19-5.09.6-6.55,3.56-2.9,7.96,2,11.78.05,2.57-1.31,3.98-3.98,2.67-6.75" />
      <path class="v" d="m137.53,57.39l23.48,1.24c2.3.12,3.69-2.49,2.3-4.33l-13.8-18.29c-1.17-1.55-3.55-1.4-4.51.29l-9.68,17.05c-.99,1.75.2,3.93,2.21,4.04Z" />
      <path class="l" d="m146.13,57.99c-1.7-.99-3.17-3.64-2.33-5.61,1.67-3.92,7.39-1.84,9.69-5.09,1.54-2.19,1.55-4.98-.72-6.68" />
      <path
        class="p"
        d="m125.96,74.54l8.29,24.92c.81,2.44-1.5,4.69-3.83,3.73l-23.18-9.57c-1.97-.81-2.52-3.42-1.04-4.94l14.89-15.35c1.53-1.57,4.16-.92,4.87,1.21Z" />
      <path
        class="q"
        d="m62.67,119.55l-5.68,25.6c-.55,2.5-3.69,3.2-5.19,1.15l-14.93-20.43c-1.27-1.73-.4-4.24,1.64-4.76l20.61-5.18c2.11-.53,4.03,1.42,3.54,3.61Z" />
      <path class="i" d="m155.06,10.1c.7,2.94-33.36,115.69-146.62,113.11" />
      <path
        class="q"
        d="m623.78,62.64l-8.28,24.92c-.81,2.44,1.43,4.67,3.71,3.7l22.7-9.67c1.93-.82,2.48-3.43,1.05-4.94l-14.42-15.25c-1.48-1.56-4.05-.9-4.76,1.23Z" />
      <path
        class="x"
        d="m650.25,90.98l-3.83,25.89c-.37,2.53,2.4,4.15,4.59,2.68l21.86-14.65c1.86-1.24,1.93-3.87.14-4.99l-18.02-11.24c-1.85-1.15-4.41.09-4.74,2.31Z" />
      <path class="h" d="m648.69,100.45c1.28-1.85,4.39-3.38,6.51-2.39,4.2,1.97,1.28,8.22,4.67,10.86,2.28,1.77,5.4,1.88,7.53-.58" />
      <path
        class="p"
        d="m690.18,113.58l5.53,25.6c.54,2.5,3.6,3.2,5.06,1.15l14.56-20.43c1.24-1.73.39-4.24-1.6-4.76l-20.09-5.18c-2.06-.53-3.93,1.42-3.45,3.61Z" />
      <path
        class="ac"
        d="m603.95,28.65l-13.22,19.45c-1.29,1.9.23,4.45,2.51,4.21l22.8-2.34c1.94-.2,3.03-2.31,2.08-4.01l-9.58-17.11c-.98-1.75-3.47-1.86-4.6-.2Z" />
      <path class="o" d="m598.99,35.7c1.73-.95,4.75-.82,6.01.91,2.49,3.46-2.26,7.28-.66,10.92,1.08,2.45,3.46,3.91,6.09,2.84" />
      <path class="i" d="m600.13,4.13c-.68,2.94,32.52,115.69,142.9,113.11" />
      <path
        class="s"
        d="m331.33,419.78l2.65-5.48c.05-.11.03-.24-.07-.32-6.03-5.32-13.69-10.27-23.4-13.97-.81-.31-1.68.32-1.5,1.1.59,2.47,1.94,7.28,4.53,12.92.05.11.18.19.32.18l5.29-.28c.33-.02.47.37.19.53l-4.14,2.32c-.14.08-.19.23-.12.37,2.43,4.67,5.7,9.7,10.05,14.35,10.42,11.11,22.84,15.09,27.83,16.31,1.04.25,2-.59,1.74-1.52-1.38-4.91-5.98-18.04-18.25-29.98-.13-.12-.34-.13-.47,0l-4.11,3.79c-.25.23-.67-.02-.53-.32Z" />
      <path
        class="s"
        d="m413.27,417.16l-2.62-5.43c-.05-.11-.03-.24.07-.32,5.97-5.27,13.55-10.16,23.16-13.82.8-.31,1.67.32,1.48,1.09-.59,2.45-1.92,7.21-4.49,12.79-.05.11-.18.19-.32.18l-5.23-.27c-.33-.02-.47.37-.19.53l4.1,2.3c.14.08.19.23.12.36-2.4,4.63-5.64,9.61-9.95,14.2-10.32,11-22.61,14.94-27.54,16.14-1.03.25-1.98-.58-1.72-1.51,1.36-4.86,5.92-17.85,18.07-29.67.12-.12.34-.12.47,0l4.06,3.75c.25.23.66-.02.52-.31Z" />
      <path
        class="p"
        d="m349.15,409.06l5.24-4.9c.11-.1.13-.25.06-.38-4.37-8.41-10.69-17.1-19.8-25.29-.76-.69-1.99-.36-2.11.57-.4,2.97-.96,8.83-.5,16.13,0,.15.12.28.27.33l5.93,1.94c.37.12.36.61-.02.67l-5.54.79c-.19.03-.31.18-.29.35.68,6.17,2.14,13.09,4.96,20.04,6.74,16.64,18.7,26.29,23.67,29.75,1.04.72,2.45.2,2.56-.94.57-5.98,1.09-22.37-7.34-40.71-.09-.19-.32-.28-.52-.21l-6.12,2.42c-.37.15-.73-.31-.45-.57Z" />
      <line class="n" x1="342.37" y1="398.67" x2="352.54" y2="434.06" />
      <path
        class="s"
        d="m375.09,405.3l9.03-4.05c.18-.08.29-.25.27-.43-1.2-11.43-4.7-23.85-11.94-36.61-.61-1.07-2.3-1.09-2.93-.04-2.01,3.38-5.67,10.13-8.8,18.94-.06.18,0,.38.17.49l6.43,4.29c.41.27.14.85-.36.78l-7.33-.92c-.24-.03-.48.1-.54.32-2.27,7.54-3.95,16.22-3.95,25.41,0,21.98,10.06,37.43,14.52,43.19.93,1.2,2.96,1.07,3.67-.25,3.74-6.89,12.69-26.13,11.44-50.68-.01-.25-.26-.44-.54-.42l-8.88.81c-.54.05-.75-.61-.27-.83Z" />
      <path class="n" d="m370.24,396.9s-6.46,44.33-.58,59.77" />
      <path
        class="p"
        d="m391.64,410.7l-4.97-4.74c-.1-.1-.12-.24-.05-.37,4.25-8,10.38-16.26,19.16-24.02.74-.65,1.91-.33,2.02.56.36,2.85.84,8.45.34,15.44-.01.14-.12.27-.27.32l-5.69,1.8c-.36.11-.35.58.01.64l5.29.81c.18.03.3.17.28.34-.71,5.9-2.17,12.5-4.92,19.13-6.6,15.86-18.12,24.98-22.9,28.24-1,.68-2.34.17-2.44-.92-.49-5.72-.84-21.41,7.38-38.87.08-.18.31-.27.5-.19l5.83,2.37c.35.14.7-.29.43-.54Z" />
      <line class="n" x1="398.99" y1="402.65" x2="390.59" y2="436.72" />
      <path
        class="q"
        d="m454.15,421.59c-5.2-13.75-64.95.93-80.44,27.96-1.15,2.01-4.32,1.96-5.38-.09-14.27-27.42-72.09-44.84-78.14-31.5-6.58,14.54,4.02,5.58,25.97,47.22.72,1.36,1.45,2.65,2.19,3.86,3.08,5.03,6.33,8.77,9.63,11.45,20.14,16.42,42.49-5.67,42.49-5.67l.02-.48c2.11,2.23,21.1,21.39,40.69,8.5,3.67-2.42,7.37-5.96,10.96-10.95,1.02-1.39,2.02-2.9,3.01-4.53,24.62-40.41,34.63-30.91,29-45.77Zm-102.03,41.23c-2.98,3.28-9.51,3.09-15.64-.11-1.13-.59-2.25-1.28-3.33-2.07-.95-.7-1.83-1.44-2.62-2.2-4.96-4.81-6.59-10.67-3.54-14.02,3.54-3.87,12.03-2.9,18.97,2.18,6.94,5.09,9.7,12.35,6.16,16.22Zm58.37-2.45c-2.23,2-4.72,3.51-7.17,4.47-4.5,1.77-8.9,1.69-11.46-.6-3.96-3.54-2.02-11.01,4.32-16.69,6.33-5.67,14.68-7.4,18.63-3.86,3.75,3.35,2.2,10.25-3.38,15.79-.3.3-.61.6-.94.89Z" />
      <circle class="t" cx="296.27" cy="423.2" r="2.57" />
      <circle class="t" cx="306.37" cy="421.96" r="2.57" />
      <circle class="t" cx="317.03" cy="423.62" r="2.57" />
      <circle class="t" cx="424.38" cy="426.4" r="2.57" />
      <circle class="t" cx="435.88" cy="424.94" r="2.57" />
      <circle class="t" cx="446.46" cy="425.1" r="2.57" />
      <circle class="u" cx="320.58" cy="457.45" r="4.15" />
      <circle class="u" cx="421.28" cy="459.61" r="4.15" />
      <path class="z" d="m336.48,462.71l-8.5,17.78c-3.3-2.68-6.55-6.42-9.63-11.45l12.18-10.6c.79.76,1.67,1.5,2.62,2.2,1.08.79,2.2,1.48,3.33,2.07Z" />
      <path class="z" d="m422.14,471.89c-3.59,4.99-7.29,8.53-10.96,10.95l-7.86-18c2.45-.96,4.94-2.47,7.17-4.47.33-.29.64-.59.94-.89l10.71,12.41Z" />
      <path
        class="r"
        d="m245.45,470.51l-.16.07c-2.54,1.14-5.12,2.02-7.66,2.6h0c-7.22,1.7-14.2,1.14-19.74-1.83-.88-.48-1.74-1.02-2.55-1.62-.87-.64-1.69-1.35-2.45-2.14-.06-.06-.12-.1-.15-.17-.7-.73-1.33-1.51-1.9-2.33-4.15-5.9-5.02-13.83-2.92-22.05.2-.82.44-1.65.71-2.48.59-1.88,1.34-3.75,2.25-5.6.36-.76.75-1.51,1.16-2.26.72-1.31,1.52-2.59,2.38-3.86.89-1.29,1.85-2.56,2.88-3.81,1.03-1.26,2.15-2.49,3.35-3.68.22-.23.45-.45.67-.67.93-.91,1.88-1.77,2.86-2.59.93-.79,1.89-1.54,2.85-2.23,2.03-1.48,4.12-2.8,6.23-3.91,4.05-2.14,8.21-3.6,12.23-4.33,1.74-.32,3.46-.5,5.15-.54,6.96-.2,13.29,1.92,17.79,6.53,4.37,4.49,6.32,10.65,6.03,17.4-.03.8-.09,1.6-.18,2.42-.56,4.97-2.3,10.18-5.12,15.19-.1.17-.2.35-.3.53-1.74,3.07-3.92,6.07-6.47,8.89-.75.84-1.54,1.65-2.37,2.45-.13.12-.25.24-.39.36-.11.1-.22.21-.33.31-2.35,2.21-4.81,4.14-7.35,5.79-2.12,1.38-4.28,2.58-6.46,3.56Z" />
      <path
        class="r"
        d="m156.91,524.93h0c-1.27-1.24-1.3-3.3-.05-4.57l71.92-73.65c1.24-1.27,3.3-1.3,4.57-.05h0c1.27,1.24,1.3,3.3.05,4.57l-71.92,73.65c-1.24,1.27-3.3,1.3-4.57.05Z" />
      <path
        class="w"
        d="m245.44,470.51l-.16.07c-2.54,1.14-5.12,2.02-7.66,2.6h0c-13.02-7.58-23.01-17.56-29.72-30.14.2-.82.44-1.65.71-2.48.59-1.88,1.34-3.75,2.25-5.6,8.94,13.12,20.66,24.88,34.6,35.55Z" />
      <path
        class="w"
        d="m251.91,466.95c-15.84-10.64-28.5-23.25-37.53-38.11.89-1.29,1.85-2.56,2.88-3.81,1.03-1.26,2.15-2.49,3.35-3.68,10.13,15.66,22.99,28.96,38.65,39.81-2.35,2.21-4.81,4.14-7.35,5.79Z" />
      <path
        class="w"
        d="m231.34,420.68c-2.71,1.21-5.89.05-7.19-2.59.93-.79,1.89-1.54,2.85-2.23,2.03-1.48,4.12-2.8,6.23-3.91.37.41.68.89.92,1.43,1.24,2.79-.02,6.06-2.8,7.3Z" />
      <circle class="w" cx="241.21" cy="428.81" r="3.52" />
      <circle class="w" cx="252.21" cy="440.22" r="3.62" />
      <path class="w" d="m262.35,458.04c-.95-.56-1.75-1.41-2.23-2.5-1.24-2.79.02-6.06,2.8-7.3,2.05-.91,4.34-.49,5.9.91-1.74,3.07-3.92,6.07-6.47,8.89Z" />
      <path
        class="w"
        d="m274.25,433.43c-9.17,1.06-18.36-3.84-22.32-12.72-1.98-4.45-2.34-9.21-1.33-13.63,6.96-.2,13.29,1.92,17.79,6.53,4.37,4.49,6.32,10.65,6.03,17.4-.03.8-.09,1.6-.18,2.42Z" />
      <path class="m" d="m208.34,459.89s2.61,7.49,9.98,11.28" />
      <path
        class="ac"
        d="m187.47,417.67v.18c.01,2.79-.24,5.5-.74,8.06h0c-1.39,7.3-4.74,13.44-9.71,17.3-.8.61-1.64,1.17-2.52,1.67-.94.53-1.92.99-2.95,1.37-.08.03-.14.07-.22.07-.95.34-1.92.6-2.9.79-7.08,1.39-14.68-1.04-21.33-6.3-.67-.52-1.33-1.07-1.98-1.66-1.48-1.3-2.88-2.75-4.2-4.33-.55-.64-1.07-1.3-1.59-1.98-.9-1.19-1.75-2.44-2.56-3.74-.82-1.34-1.59-2.73-2.31-4.18-.73-1.45-1.4-2.98-2-4.56-.12-.29-.23-.59-.34-.88-.45-1.22-.85-2.44-1.2-3.67-.34-1.17-.64-2.35-.88-3.51-.53-2.46-.88-4.9-1.04-7.28-.31-4.57.05-8.96,1.02-12.93.42-1.72.95-3.37,1.6-4.93,2.65-6.44,7.16-11.36,13.2-13.6,5.88-2.16,12.3-1.44,18.35,1.57.72.35,1.43.73,2.14,1.15,4.31,2.53,8.36,6.24,11.79,10.86.12.16.24.33.36.49,2.1,2.84,3.95,6.05,5.49,9.53.46,1.03.88,2.08,1.28,3.16.06.17.12.33.17.5.05.14.1.29.15.43,1.06,3.04,1.82,6.08,2.3,9.07.4,2.5.61,4.96.62,7.35Z" />
      <path
        class="ac"
        d="m201.16,520.7h0c-1.65.66-3.54-.16-4.2-1.81l-38.02-95.66c-.66-1.65.16-3.54,1.81-4.2h0c1.65-.66,3.54.16,4.2,1.81l38.02,95.66c.66,1.65-.16,3.54-1.81,4.2Z" />
      <path
        class="ab"
        d="m187.47,417.68v.17c.01,2.79-.24,5.5-.74,8.06h0c-12.22,8.82-25.41,13.89-39.63,14.9-.67-.52-1.33-1.07-1.98-1.66-1.48-1.3-2.88-2.75-4.2-4.33,15.62-2.83,31.13-8.75,46.55-17.14Z" />
      <path
        class="ab"
        d="m186.85,410.32c-16.17,10.14-32.83,16.58-50.08,18.78-.82-1.34-1.59-2.73-2.31-4.18-.73-1.45-1.4-2.98-2-4.56,18.43-2.88,35.81-9.22,52.09-19.11,1.06,3.04,1.82,6.08,2.3,9.07Z" />
      <path
        class="ab"
        d="m136.21,410.29c0,2.97-2.35,5.4-5.29,5.52-.34-1.17-.64-2.35-.88-3.51-.53-2.46-.88-4.9-1.04-7.28.53-.17,1.09-.26,1.68-.26,3.05,0,5.53,2.48,5.53,5.53Z" />
      <circle class="ab" cx="147.65" cy="404.58" r="3.52" />
      <circle class="ab" cx="162.55" cy="399.17" r="3.62" />
      <path class="ab" d="m182.95,397.16c-.9.64-2,1.02-3.19,1.02-3.05,0-5.53-2.48-5.53-5.53,0-2.24,1.32-4.16,3.23-5.02,2.1,2.84,3.95,6.05,5.49,9.53Z" />
      <path
        class="ab"
        d="m165.31,376.28c-2.76,8.81-10.98,15.21-20.7,15.21-4.87,0-9.37-1.61-12.99-4.33,2.65-6.44,7.16-11.36,13.2-13.6,5.88-2.16,12.3-1.44,18.35,1.57.72.35,1.43.73,2.14,1.15Z" />
      <path class="m" d="m168.43,447.11s7.82-1.32,12.79-7.95" />
      <path
        class="ac"
        d="m588.98,440.41l-.14.11c-2.23,1.68-4.55,3.1-6.9,4.23h0c-6.67,3.25-13.6,4.24-19.66,2.56-.97-.28-1.92-.61-2.85-1.02-.99-.44-1.94-.95-2.86-1.55-.07-.05-.14-.07-.19-.13-.84-.56-1.63-1.18-2.37-1.85-5.35-4.84-7.94-12.39-7.7-20.86.02-.85.06-1.71.15-2.58.16-1.96.48-3.95.96-5.96.18-.82.4-1.63.64-2.46.42-1.43.91-2.86,1.47-4.29.58-1.46,1.24-2.91,1.97-4.35.73-1.45,1.55-2.9,2.46-4.33.16-.27.34-.54.5-.8.71-1.09,1.45-2.14,2.22-3.16.73-.97,1.5-1.92,2.29-2.8,1.65-1.9,3.4-3.64,5.21-5.19,3.48-2.98,7.21-5.32,10.97-6.91,1.63-.69,3.27-1.25,4.91-1.67,6.75-1.73,13.39-1.05,18.79,2.45,5.25,3.42,8.51,9,9.71,15.65.15.79.27,1.58.36,2.4.55,4.97,0,10.43-1.65,15.94-.06.19-.12.39-.18.58-1.02,3.38-2.49,6.78-4.36,10.1-.55.98-1.14,1.95-1.77,2.92-.1.15-.19.29-.3.44-.08.12-.17.25-.25.38-1.8,2.67-3.78,5.09-5.89,7.27-1.76,1.82-3.61,3.45-5.52,4.89Z" />
      <path
        class="ac"
        d="m514.59,512.99h0c-1.51-.93-1.99-2.93-1.06-4.45l53.94-87.68c.93-1.52,2.93-1.99,4.45-1.06h0c1.52.93,1.99,2.93,1.06,4.45l-53.94,87.68c-.93,1.52-2.93,1.99-4.45,1.06Z" />
      <path
        class="ab"
        d="m588.97,440.42l-.14.1c-2.23,1.68-4.55,3.1-6.9,4.23h0c-14.37-4.52-26.32-12.06-35.63-22.85.02-.85.06-1.71.15-2.58.16-1.96.48-3.95.96-5.96,11.61,10.83,25.63,19.72,41.57,27.06Z" />
      <path
        class="ab"
        d="m594.5,435.52c-17.79-6.9-32.92-16.41-45-28.91.58-1.46,1.24-2.91,1.97-4.35.73-1.45,1.55-2.9,2.46-4.33,13.33,13.05,28.8,23.19,46.47,30.32-1.8,2.67-3.78,5.09-5.89,7.27Z" />
      <path
        class="ab"
        d="m564.25,394.91c-2.38,1.78-5.73,1.35-7.59-.94.73-.97,1.5-1.92,2.29-2.8,1.65-1.9,3.4-3.64,5.21-5.19.45.32.86.72,1.21,1.19,1.82,2.44,1.32,5.92-1.13,7.74Z" />
      <circle class="ab" cx="575.67" cy="400.67" r="3.52" />
      <circle class="ab" cx="588.91" cy="409.37" r="3.62" />
      <path
        class="ab"
        d="m602.72,424.52c-1.05-.34-2.01-.99-2.73-1.95-1.82-2.44-1.32-5.92,1.13-7.74,1.8-1.34,4.12-1.43,5.96-.41-1.02,3.38-2.49,6.78-4.36,10.1Z" />
      <path
        class="ab"
        d="m608.91,397.9c-8.71,3.06-18.76.29-24.57-7.5-2.91-3.9-4.31-8.47-4.3-13,6.75-1.73,13.39-1.05,18.79,2.45,5.25,3.42,8.51,9,9.71,15.65.15.79.27,1.58.36,2.4Z" />
      <path class="m" d="m551.07,439.25s4.73,6.36,12.9,7.78" />
      <path
        class="r"
        d="m531.43,430.88l.06.17c.92,2.63,1.57,5.28,1.94,7.86h0c1.07,7.35-.09,14.25-3.52,19.52-.56.84-1.17,1.64-1.84,2.4-.71.81-1.49,1.56-2.34,2.26-.07.05-.11.11-.18.14-.79.63-1.62,1.19-2.48,1.7-6.24,3.63-14.21,3.82-22.22,1.02-.8-.27-1.61-.58-2.41-.92-1.82-.74-3.62-1.66-5.39-2.72-.73-.42-1.44-.88-2.15-1.35-1.24-.83-2.45-1.73-3.64-2.7-1.21-1-2.4-2.06-3.55-3.19-1.16-1.13-2.3-2.36-3.38-3.66-.21-.23-.41-.48-.61-.72-.82-1.01-1.6-2.03-2.33-3.08-.7-.99-1.37-2.01-1.98-3.03-1.31-2.15-2.43-4.34-3.36-6.54-1.79-4.22-2.88-8.48-3.26-12.55-.17-1.76-.2-3.5-.1-5.18.4-6.95,3.05-13.08,8.03-17.17,4.85-3.96,11.15-5.38,17.85-4.52.79.1,1.59.22,2.4.39,4.9.98,9.94,3.16,14.69,6.41.17.11.33.23.5.35,2.91,2,5.71,4.43,8.3,7.21.77.82,1.51,1.68,2.24,2.57.11.14.22.27.32.42.09.12.19.24.28.36,2,2.53,3.71,5.15,5.14,7.82,1.2,2.23,2.2,4.49,2.99,6.74Z" />
      <path
        class="r"
        d="m578.07,523.76h0c-1.35,1.16-3.4,1.01-4.56-.34l-67.22-77.96c-1.16-1.35-1.01-3.4.34-4.56h0c1.35-1.16,3.4-1.01,4.56.34l67.22,77.96c1.16,1.35,1.01,3.4-.34,4.56Z" />
      <path
        class="w"
        d="m531.44,430.89l.06.16c.92,2.63,1.57,5.28,1.94,7.86h0c-8.67,12.33-19.47,21.43-32.58,27.04-.8-.27-1.61-.58-2.41-.92-1.82-.74-3.62-1.66-5.39-2.72,13.84-7.79,26.56-18.45,38.38-31.42Z" />
      <path
        class="w"
        d="m528.44,424.13c-11.96,14.87-25.61,26.4-41.18,34.13-1.21-1-2.4-2.06-3.55-3.19-1.16-1.13-2.3-2.36-3.38-3.66,16.47-8.75,30.82-20.42,42.98-35.1,2,2.53,3.71,5.15,5.14,7.82Z" />
      <path
        class="w"
        d="m480.58,440.67c.97,2.81-.45,5.87-3.19,6.95-.7-.99-1.37-2.01-1.98-3.03-1.31-2.15-2.43-4.34-3.36-6.54.45-.33.94-.6,1.5-.8,2.88-1,6.04.53,7.03,3.42Z" />
      <circle class="w" cx="489.52" cy="431.53" r="3.52" />
      <circle class="w" cx="501.83" cy="421.55" r="3.62" />
      <path class="w" d="m520.45,412.97c-.64.9-1.56,1.62-2.68,2.01-2.88,1-6.04-.53-7.03-3.42-.73-2.12-.11-4.36,1.41-5.8,2.91,2,5.71,4.43,8.3,7.21Z" />
      <path
        class="w"
        d="m496.95,399.01c.27,9.23-5.4,17.96-14.59,21.14-4.6,1.59-9.38,1.54-13.69.16.4-6.95,3.05-13.08,8.03-17.17,4.85-3.96,11.15-5.38,17.85-4.52.79.1,1.59.22,2.4.39Z" />
      <path class="m" d="m521.37,466.08s7.57-3.29,10.89-12.33" />
      <path
        class="w"
        d="m660.23,228.9c-.45.96-1.51,3.26-2.39,5.17-.28.6.32,1.21.94.99.96-.35,2.23-.38,3.81.46,2.98,1.57,5.06.66,5.99.02.33-.22.41-.67.19-1.01l-3.97-6.06c-.15-.23-.42-.36-.69-.33l-3.29.35c-.25.03-.48.18-.59.41Z" />
      <path class="g" d="m662.54,235.53s-7.4,36.99,36.99,34.53,28.77-35.35,13.98-27.13c-14.8,8.22-8.22,26.31,13.98,32.88s51.79-1.64,53.43-23.02" />
      <ellipse class="w" cx="661.17" cy="185.33" rx="35.83" ry="44.29" />
      <path class="g" d="m640.15,318.89c13.92,27.14,45.85,37.42,71.7,21.25,12.08-7.55,22.99-17.67,36.72-21.46,25.67-7.1,52.8,11.37,50.11,39.17" />
      <path
        class="ab"
        d="m637.76,320.58c.16,1.07.56,3.63.9,5.76.11.67.96.85,1.36.31.62-.84,1.68-1.59,3.5-1.78,3.43-.36,4.68-2.32,5.11-3.39.15-.38-.03-.81-.41-.97l-6.82-2.9c-.26-.11-.56-.07-.77.11l-2.61,2.17c-.2.17-.3.42-.26.68Z" />
      <ellipse class="ac" cx="613.39" cy="284.87" rx="35.83" ry="44.29" transform="translate(-60.26 344.86) rotate(-30)" />
      <path class="g" d="m56.56,239.49c-4.57,22.54-20.23,32.86-38.83,43.66-20.52,11.91-36.73,31.19-42.28,55" />
      <path
        class="w"
        d="m52.38,239.81c-.69,1.45-2.3,4.95-3.63,7.86-.42.92.48,1.85,1.43,1.5,1.46-.53,3.38-.58,5.8.69,4.53,2.39,7.69,1,9.11.03.5-.34.63-1.02.29-1.53l-6.04-9.21c-.23-.35-.63-.54-1.05-.5l-5.01.53c-.39.04-.72.28-.89.63Z" />
      <ellipse class="w" cx="53.98" cy="198.27" rx="35.83" ry="44.29" />
      <path class="g" d="m98.98,304.1c-14.36,17.97-33.01,19.99-54.49,21.09-23.7,1.22-46.92,10.96-62.74,29.61" />
      <path
        class="ab"
        d="m90.72,306.5c-1.01.83-3.39,2.83-5.37,4.5-.62.53-.33,1.52.45,1.59,1.21.11,2.57.74,3.79,2.5,2.3,3.31,5,3.38,6.34,3.16.47-.08.81-.53.76-1.02l-.88-8.82c-.03-.33-.25-.61-.55-.73l-3.68-1.34c-.28-.1-.6-.05-.85.15Z" />
      <ellipse class="ac" cx="113.7" cy="269.94" rx="44.29" ry="35.83" transform="translate(-179.16 275.29) rotate(-68.2)" />
      <circle class="y" cx="236.88" cy="364.83" r="5.11" />
      <circle class="y" cx="261.38" cy="360.8" r="5.11" />
      <path class="n" d="m241.38,364.07s-7.77-25.56-8.18-26.79" />
      <line class="n" x1="257.07" y1="329.66" x2="265.93" y2="359.83" />
      <polygon class="y" points="233.19 337.28 236.06 346.28 260.19 339.32 257.33 329.51 233.19 337.28" />
      <circle class="y" cx="477.91" cy="351.83" r="3.09" />
      <circle class="y" cx="488.66" cy="362.28" r="3.09" />
      <path class="n" d="m479.9,353.74s9.62-12.95,10.07-13.59" />
      <line class="n" x1="502.24" y1="349.01" x2="490.77" y2="364.13" />
      <polygon class="y" points="489.97 340.15 486.63 344.77 498.67 353.99 502.4 349.07 489.97 340.15" />
      <path
        class="f"
        d="m123.57,166.22c-1.05-.31-2.24-.29-3.37.17-7.21,2.91-2.67,14.25,2.97,16.28,1.53.55,3.54.29,4.37-1.12,3.42-5.79-16.52-14.91-17.05-2.39" />
      <path class="f" d="m135.51,336.1c-1.05-.31-2.24-.29-3.37.17-7.21,2.91-2.67,14.25,2.97,16.28,1.53.55,3.54.29,4.37-1.12,3.42-5.79-16.52-14.91-17.05-2.39" />
      <path class="f" d="m613.97,135.46c.16-1.09-.01-2.25-.62-3.32-3.85-6.75-14.48-.74-15.74,5.13-.34,1.59.19,3.54,1.69,4.18,6.2,2.61,12.56-18.37.08-17.22" />
      <path class="f" d="m631.46,362.46c.16-1.09-.01-2.25-.62-3.32-3.85-6.75-14.48-.74-15.74,5.13-.34,1.59.19,3.54,1.69,4.18,6.2,2.61,12.56-18.37.08-17.22" />
    </g>
  </g>
</svg>
