<?xml version="1.0" encoding="UTF-8"?><svg xmlns="http://www.w3.org/2000/svg" xmlns:xlink="http://www.w3.org/1999/xlink" viewBox="0 0 100.91 200"><defs><style>.cx{fill:url(#ct);}.cx,.cy,.cz,.da,.db,.dc,.dd,.de,.df,.dg,.dh,.di,.dj,.dk,.dl,.dm,.dn,.do,.dp,.dq,.dr,.ds,.dt,.du,.dv,.dw,.dx,.dy,.dz,.ea,.eb,.ec,.ed,.ee,.ef,.eg,.eh,.ei,.ej,.ek,.el,.em,.en,.eo,.ep,.eq,.er,.es,.et,.eu,.ev,.ew,.ex,.ey,.ez,.fa,.fb,.fc,.fd,.fe,.ff,.fg,.fh,.fi,.fj,.fk,.fl,.fm,.fn,.fo,.fp,.fq,.fr,.fs,.ft,.fu,.fv,.fw,.fx,.fy,.fz,.ga,.gb,.gc,.gd,.ge,.gf,.gg,.gh,.gi,.gj,.gk,.gl,.gm,.gn,.go,.gp,.gq{stroke-width:0px;}.cy{fill:url(#ao);}.cz{fill:url(#bh);}.da{fill:url(#bb);}.db{fill:url(#v);}.dc{fill:url(#cr);}.dd{fill:url(#w);}.de{fill:url(#c);}.df{fill:url(#cb);}.dg{fill:url(#by);}.dh{fill:url(#cv);}.di{fill:url(#bo);}.dj{fill:url(#s);}.dk{fill:url(#ag);}.dl{fill:url(#br);}.dm{fill:url(#y);}.dn{fill:url(#bk);}.do{fill:url(#ca);}.dp{fill:url(#bi);}.dq{fill:url(#ad);}.dr{fill:url(#cf);}.ds{fill:url(#co);}.dt{fill:url(#e);}.du{fill:url(#bn);}.dv{fill:url(#an);}.dw{fill:url(#cl);}.dx{fill:url(#g);}.dy{fill:url(#ar);}.dz{fill:url(#i);}.ea{fill:url(#bu);}.eb{fill:url(#ah);}.ec{fill:url(#au);}.ed{fill:url(#cn);}.ee{fill:url(#l);}.ef{fill:url(#cq);}.eg{fill:url(#at);}.eh{fill:url(#bz);}.ei{fill:url(#q);}.ej{fill:url(#cp);}.ek{fill:url(#t);}.el{fill:url(#ay);}.em{fill:url(#ch);}.en{fill:url(#av);}.eo{fill:url(#bj);}.ep{fill:url(#u);}.eq{fill:url(#as);}.er{fill:url(#az);}.es{fill:url(#n);}.et{fill:url(#bv);}.eu{fill:url(#bl);}.ev{fill:url(#bt);}.ew{fill:url(#cd);}.ex{fill:url(#z);}.ey{fill:url(#ci);}.ez{fill:url(#cg);}.fa{fill:url(#bf);}.fb{fill:url(#bp);}.fc{fill:url(#bx);}.fd{fill:url(#j);}.fe{fill:url(#bm);}.ff{fill:url(#bc);}.fg{fill:url(#bw);}.fh{fill:url(#al);}.fi{fill:url(#cu);}.fj{fill:url(#aw);}.fk{fill:url(#d);}.fl{fill:url(#af);}.fm{fill:url(#aq);}.fn{fill:url(#aj);}.fo{fill:url(#am);}.fp{fill:url(#ap);}.fq{fill:url(#bd);}.fr{fill:url(#f);}.fs{fill:url(#ba);}.ft{fill:url(#ax);}.fu{fill:url(#ce);}.fv{fill:url(#bq);}.fw{fill:url(#m);}.fx{fill:url(#cw);}.fy{fill:url(#cs);}.fz{fill:url(#ab);}.ga{fill:url(#ai);}.gb{fill:url(#cm);}.gc{fill:url(#ck);}.gd{fill:url(#r);}.ge{fill:url(#cj);}.gf{fill:url(#ak);}.gg{fill:url(#ae);}.gh{fill:url(#aa);}.gi{fill:url(#bg);}.gj{fill:url(#bs);}.gk{fill:url(#be);}.gl{fill:url(#k);}.gm{fill:url(#cc);}.gn{fill:url(#p);}.go{fill:url(#ac);}.gp{fill:url(#x);}.gq{fill:url(#o);}</style><linearGradient id="c" x1="25.74" y1="130.92" x2="65.25" y2="130.92" gradientUnits="userSpaceOnUse"><stop offset="0" stop-color="#faf86f"/><stop offset=".52" stop-color="#fdb814"/><stop offset="1" stop-color="#f85821"/></linearGradient><linearGradient id="d" x1="14.83" y1="149.98" x2="61.88" y2="149.98" gradientUnits="userSpaceOnUse"><stop offset="0" stop-color="#86c440"/><stop offset="1" stop-color="#137238"/></linearGradient><linearGradient id="e" x1="70.09" y1="50.7" x2="102.59" y2="52.7" xlink:href="#c"/><linearGradient id="f" x1="-13.57" y1="48.81" x2="118.43" y2="180.81" gradientUnits="userSpaceOnUse"><stop offset="0" stop-color="#d9f3fb"/><stop offset=".31" stop-color="#36c2ef"/><stop offset="1" stop-color="#1f4e93"/></linearGradient><linearGradient id="g" x1="43.99" y1="50" x2="70.57" y2="50" gradientUnits="userSpaceOnUse"><stop offset="0" stop-color="#f2c1ea"/><stop offset=".48" stop-color="#e55e98"/><stop offset="1" stop-color="#b60f70"/></linearGradient><radialGradient id="i" cx="-580.79" cy="412.62" fx="-580.79" fy="412.62" r="26.09" gradientTransform="translate(520.85 674.42) rotate(14.83) scale(1 -1)" gradientUnits="userSpaceOnUse"><stop offset="0" stop-color="#f0f6a7"/><stop offset=".48" stop-color="#93b12e"/><stop offset="1" stop-color="#98ac46"/></radialGradient><linearGradient id="j" x1="-6.58" y1="150.01" x2="-3.84" y2="150.01" gradientTransform="translate(83.75 34.13) rotate(-171.54) scale(.78 -.72) skewX(4.93)" gradientUnits="userSpaceOnUse"><stop offset="0" stop-color="#f0f6a7"/><stop offset=".48" stop-color="#93b12e"/><stop offset="1" stop-color="#98ac46"/></linearGradient><linearGradient id="k" x1="-6.73" y1="153.49" x2="-4.17" y2="153.49" xlink:href="#j"/><linearGradient id="l" x1="531.91" y1="54.81" x2="534.38" y2="54.81" gradientTransform="translate(-363.4 138.26) rotate(5.91) scale(.79 -.72) skewX(4.49)" xlink:href="#j"/><linearGradient id="m" x1="-6.85" y1="156.08" x2="-4.3" y2="156.08" xlink:href="#j"/><linearGradient id="n" x1="531.91" y1="52.21" x2="534.38" y2="52.21" gradientTransform="translate(-363.4 138.26) rotate(5.91) scale(.79 -.72) skewX(4.49)" xlink:href="#j"/><linearGradient id="o" x1="-6.98" y1="158.66" x2="-4.42" y2="158.66" xlink:href="#j"/><linearGradient id="p" x1="531.91" y1="49.63" x2="534.38" y2="49.63" gradientTransform="translate(-363.4 138.26) rotate(5.91) scale(.79 -.72) skewX(4.49)" xlink:href="#j"/><linearGradient id="q" x1="530.01" y1="37.73" x2="533.81" y2="37.73" gradientTransform="translate(-363.4 138.26) rotate(5.91) scale(.79 -.72) skewX(4.49)" xlink:href="#j"/><linearGradient id="r" x1="-7.11" y1="161.25" x2="-4.55" y2="161.25" xlink:href="#j"/><linearGradient id="s" x1="531.91" y1="47.04" x2="534.39" y2="47.04" gradientTransform="translate(-363.4 138.26) rotate(5.91) scale(.79 -.72) skewX(4.49)" xlink:href="#j"/><linearGradient id="t" x1="531.45" y1="43.56" x2="534.39" y2="43.56" gradientTransform="translate(-363.4 138.26) rotate(5.91) scale(.79 -.72) skewX(4.49)" xlink:href="#j"/><linearGradient id="u" x1="-6.83" y1="166.53" x2="-4.28" y2="166.53" xlink:href="#j"/><linearGradient id="v" x1="22.68" y1="202.14" x2="25.87" y2="202.14" gradientTransform="translate(-41.62 -33.77) rotate(142.12) scale(1 -1)" xlink:href="#j"/><linearGradient id="w" x1="23.78" y1="202.06" x2="26.09" y2="202.06" gradientTransform="translate(-41.62 -33.77) rotate(142.12) scale(1 -1)" xlink:href="#j"/><linearGradient id="x" x1="132.33" y1="153.67" x2="135.47" y2="153.67" gradientTransform="translate(-42.94 -34.82) rotate(10.85)" xlink:href="#j"/><linearGradient id="y" x1="-1.01" y1="153.59" x2="1.48" y2="153.59" gradientTransform="translate(89.34 -9.42) rotate(-169.15) scale(1 -1)" xlink:href="#j"/><radialGradient id="z" cx="-57.11" cy="110.3" fx="-57.11" fy="110.3" r="7.08" gradientTransform="translate(79.02 -13.55) rotate(-7.98) scale(1 .91)" gradientUnits="userSpaceOnUse"><stop offset="0" stop-color="#feecef"/><stop offset=".47" stop-color="#f3637c"/><stop offset="1" stop-color="#bf0019"/></radialGradient><radialGradient id="aa" cx="459.99" cy="1076.21" fx="459.99" fy="1076.21" r="1.4" gradientTransform="translate(728.36 791.55) rotate(159.85) scale(.89 .84)" xlink:href="#z"/><radialGradient id="ab" cx="42.25" cy="477.66" fx="42.25" fy="477.66" r="28.88" gradientTransform="translate(228.17 495.23) rotate(159.85)" xlink:href="#z"/><linearGradient id="ac" x1="35.04" y1="75.65" x2="39.46" y2="75.65" gradientTransform="translate(-17.46 50.52) rotate(-21.29) scale(.78 .72) skewX(4.94)" gradientUnits="userSpaceOnUse"><stop offset="0" stop-color="#f3637c"/><stop offset="1" stop-color="#bf0019"/></linearGradient><linearGradient id="ad" x1="34.8" y1="81.25" x2="38.92" y2="81.25" xlink:href="#ac"/><linearGradient id="ae" x1="491.46" y1="129.03" x2="495.44" y2="129.03" gradientTransform="translate(440.76 52.56) rotate(161.27) scale(.79 .72) skewX(4.49)" xlink:href="#ac"/><linearGradient id="af" x1="34.6" y1="85.42" x2="38.71" y2="85.42" xlink:href="#ac"/><linearGradient id="ag" x1="491.46" y1="124.86" x2="495.44" y2="124.86" gradientTransform="translate(440.76 52.56) rotate(161.27) scale(.79 .72) skewX(4.49)" xlink:href="#ac"/><linearGradient id="ah" x1="34.4" y1="89.57" x2="38.51" y2="89.57" xlink:href="#ac"/><linearGradient id="ai" x1="491.46" y1="120.7" x2="495.44" y2="120.7" gradientTransform="translate(440.76 52.56) rotate(161.27) scale(.79 .72) skewX(4.49)" xlink:href="#ac"/><linearGradient id="aj" x1="488.41" y1="101.54" x2="494.51" y2="101.54" gradientTransform="translate(440.76 52.56) rotate(161.27) scale(.79 .72) skewX(4.49)" xlink:href="#ac"/><linearGradient id="ak" x1="34.19" y1="93.74" x2="38.3" y2="93.74" xlink:href="#ac"/><linearGradient id="al" x1="491.46" y1="116.54" x2="495.44" y2="116.54" gradientTransform="translate(440.76 52.56) rotate(161.27) scale(.79 .72) skewX(4.49)" xlink:href="#ac"/><linearGradient id="am" x1="490.71" y1="110.93" x2="495.45" y2="110.93" gradientTransform="translate(440.76 52.56) rotate(161.27) scale(.79 .72) skewX(4.49)" xlink:href="#ac"/><linearGradient id="an" x1="34.63" y1="102.24" x2="38.74" y2="102.24" xlink:href="#ac"/><linearGradient id="ao" x1="1.35" y1="144.6" x2="6.47" y2="144.6" gradientTransform="translate(89.57 -43.14) rotate(25.05)" xlink:href="#ac"/><linearGradient id="ap" x1="3.11" y1="144.46" x2="6.83" y2="144.46" gradientTransform="translate(89.57 -43.14) rotate(25.05)" xlink:href="#ac"/><linearGradient id="aq" x1="99.51" y1="101.93" x2="104.56" y2="101.93" gradientTransform="translate(90.45 -45.1) rotate(156.32) scale(1 -1)" xlink:href="#ac"/><linearGradient id="ar" x1="30.76" y1="102.6" x2="34.75" y2="102.6" gradientTransform="translate(-34.12 8.72) rotate(-23.68)" xlink:href="#ac"/><radialGradient id="as" cx="-15.68" cy="111.58" fx="-15.68" fy="111.58" r="7.9" gradientTransform="translate(144.04 20.37) rotate(41.07) scale(1 .91)" gradientUnits="userSpaceOnUse"><stop offset="0" stop-color="#f2c1ea"/><stop offset=".48" stop-color="#e55e98"/><stop offset="1" stop-color="#b60f70"/></radialGradient><radialGradient id="at" cx="414.28" cy="1066.03" fx="414.28" fy="1066.03" r="1.56" gradientTransform="translate(-38.95 1038.69) rotate(-151.1) scale(.89 .84)" xlink:href="#as"/><radialGradient id="au" cx="1.6" cy="471.94" fx="1.6" fy="471.94" r="32.27" gradientTransform="translate(-142.9 466.34) rotate(-151.11)" xlink:href="#as"/><linearGradient id="av" x1="85.47" y1="91.43" x2="90.41" y2="91.43" gradientTransform="translate(32.35 -12.05) rotate(27.75) scale(.78 .72) skewX(4.93)" gradientUnits="userSpaceOnUse"><stop offset="0" stop-color="#e55e98"/><stop offset="1" stop-color="#960f70"/></linearGradient><linearGradient id="aw" x1="85.21" y1="97.69" x2="89.8" y2="97.69" xlink:href="#av"/><linearGradient id="ax" x1="440.77" y1="115.31" x2="445.22" y2="115.31" gradientTransform="translate(331.74 335.75) rotate(-149.68) scale(.79 .72) skewX(4.49)" xlink:href="#av"/><linearGradient id="ay" x1="84.98" y1="102.34" x2="89.57" y2="102.34" xlink:href="#av"/><linearGradient id="az" x1="440.77" y1="110.64" x2="445.22" y2="110.64" gradientTransform="translate(331.74 335.75) rotate(-149.68) scale(.79 .72) skewX(4.49)" xlink:href="#av"/><linearGradient id="ba" x1="84.75" y1="106.98" x2="89.35" y2="106.98" xlink:href="#av"/><linearGradient id="bb" x1="440.77" y1="106" x2="445.22" y2="106" gradientTransform="translate(331.74 335.75) rotate(-149.68) scale(.79 .72) skewX(4.49)" xlink:href="#av"/><linearGradient id="bc" x1="437.36" y1="84.59" x2="444.18" y2="84.59" gradientTransform="translate(331.74 335.75) rotate(-149.68) scale(.79 .72) skewX(4.49)" xlink:href="#av"/><linearGradient id="bd" x1="84.53" y1="111.64" x2="89.12" y2="111.64" xlink:href="#av"/><linearGradient id="be" x1="440.77" y1="101.34" x2="445.22" y2="101.34" gradientTransform="translate(331.74 335.75) rotate(-149.68) scale(.79 .72) skewX(4.49)" xlink:href="#av"/><linearGradient id="bf" x1="439.93" y1="95.08" x2="445.22" y2="95.08" gradientTransform="translate(331.74 335.75) rotate(-149.68) scale(.79 .72) skewX(4.49)" xlink:href="#av"/><linearGradient id="bg" x1="85.02" y1="121.13" x2="89.6" y2="121.13" xlink:href="#av"/><linearGradient id="bh" x1="36.78" y1="122.84" x2="42.5" y2="122.84" gradientTransform="translate(173.08 7.93) rotate(74.1)" xlink:href="#av"/><linearGradient id="bi" x1="38.75" y1="122.68" x2="42.9" y2="122.68" gradientTransform="translate(173.08 7.93) rotate(74.1)" xlink:href="#av"/><linearGradient id="bj" x1="58.19" y1="115.02" x2="63.83" y2="115.02" gradientTransform="translate(174.89 6.82) rotate(-154.63) scale(1 -1)" xlink:href="#av"/><linearGradient id="bk" x1="71.01" y1="114.12" x2="75.48" y2="114.12" gradientTransform="translate(52.32 -50.4) rotate(25.37)" xlink:href="#av"/><radialGradient id="bl" cx=".37" cy="190.21" fx=".37" fy="190.21" r="11.96" gradientTransform="translate(126.63 -19.19) rotate(12.89) scale(1 .91)" gradientUnits="userSpaceOnUse"><stop offset="0" stop-color="#fff"/><stop offset=".07" stop-color="#fffbdf"/><stop offset=".22" stop-color="#fff190"/><stop offset=".43" stop-color="#ffe112"/><stop offset=".47" stop-color="#ffdf00"/><stop offset="1" stop-color="#d98634"/></radialGradient><radialGradient id="bm" cx="413.75" cy="984.49" fx="413.75" fy="984.49" r="2.36" gradientTransform="translate(446.64 965.85) rotate(-179.29) scale(.89 .84)" xlink:href="#bl"/><radialGradient id="bn" cx="6.49" cy="419.39" fx="6.49" fy="419.39" r="38.39" gradientTransform="translate(84.24 510.29) rotate(-179.29)" xlink:href="#bl"/><linearGradient id="bo" x1="74.22" y1="187.52" x2="81.68" y2="187.52" gradientTransform="translate(13.27 5.77) rotate(-.43) scale(.78 .72) skewX(4.93)" gradientUnits="userSpaceOnUse"><stop offset="0" stop-color="#ffdf00"/><stop offset="1" stop-color="#d98634"/></linearGradient><linearGradient id="bp" x1="73.81" y1="196.99" x2="80.77" y2="196.99" xlink:href="#bo"/><linearGradient id="bq" x1="444.63" y1="17.63" x2="451.37" y2="17.63" gradientTransform="translate(441.16 171.55) rotate(-177.87) scale(.79 .72) skewX(4.49)" xlink:href="#bo"/><linearGradient id="br" x1="73.47" y1="204.03" x2="80.42" y2="204.03" xlink:href="#bo"/><linearGradient id="bs" x1="444.63" y1="10.57" x2="451.36" y2="10.57" gradientTransform="translate(441.16 171.55) rotate(-177.87) scale(.79 .72) skewX(4.49)" xlink:href="#bo"/><linearGradient id="bt" x1="73.13" y1="211.05" x2="80.08" y2="211.05" xlink:href="#bo"/><linearGradient id="bu" x1="444.64" y1="3.55" x2="451.36" y2="3.55" gradientTransform="translate(441.16 171.55) rotate(-177.87) scale(.79 .72) skewX(4.49)" xlink:href="#bo"/><linearGradient id="bv" x1="439.47" y1="-28.84" x2="449.79" y2="-28.84" gradientTransform="translate(441.16 171.55) rotate(-177.87) scale(.79 .72) skewX(4.49)" xlink:href="#bo"/><linearGradient id="bw" x1="72.78" y1="218.1" x2="79.73" y2="218.1" xlink:href="#bo"/><linearGradient id="bx" x1="444.64" y1="-3.5" x2="451.36" y2="-3.5" gradientTransform="translate(441.16 171.55) rotate(-177.87) scale(.79 .72) skewX(4.49)" xlink:href="#bo"/><linearGradient id="by" x1="443.37" y1="-12.97" x2="451.37" y2="-12.97" gradientTransform="translate(441.16 171.55) rotate(-177.87) scale(.79 .72) skewX(4.49)" xlink:href="#bo"/><linearGradient id="bz" x1="73.52" y1="232.46" x2="80.46" y2="232.46" xlink:href="#bo"/><linearGradient id="ca" x1="83.38" y1="172.34" x2="92.04" y2="172.34" gradientTransform="translate(146.62 -42.73) rotate(45.92)" xlink:href="#bo"/><linearGradient id="cb" x1="86.36" y1="172.11" x2="92.64" y2="172.11" gradientTransform="translate(146.62 -42.73) rotate(45.92)" xlink:href="#bo"/><linearGradient id="cc" x1="59.02" y1="185.72" x2="67.56" y2="185.72" gradientTransform="translate(147.68 -45.21) rotate(177.19) scale(1 -1)" xlink:href="#bo"/><linearGradient id="cd" x1="67.84" y1="185.02" x2="74.59" y2="185.02" gradientTransform="translate(11.85 -37.97) rotate(-2.81)" xlink:href="#bo"/><radialGradient id="ce" cx="-58.33" cy="94.31" fx="-58.33" fy="94.31" r="6.38" gradientTransform="translate(108.72 -37.18) rotate(-1.56) scale(1 .91)" gradientUnits="userSpaceOnUse"><stop offset="0" stop-color="#daf4fc"/><stop offset=".31" stop-color="#36c3f0"/><stop offset="1" stop-color="#1f4e94"/></radialGradient><radialGradient id="cf" cx="458.74" cy="1091.83" fx="458.74" fy="1091.83" r="1.26" gradientTransform="translate(664.43 834.56) rotate(166.26) scale(.89 .84)" xlink:href="#ce"/><radialGradient id="cg" cx="40.66" cy="487.49" fx="40.66" fy="487.49" r="26.03" gradientTransform="translate(200.09 483.8) rotate(166.27)" xlink:href="#ce"/><linearGradient id="ch" x1="66.05" y1="16.11" x2="70.2" y2="16.11" gradientTransform="translate(-4.65 43.77) rotate(-9.86) scale(.78 .72) skewX(4.93)" gradientUnits="userSpaceOnUse"><stop offset="0" stop-color="#8feeff"/><stop offset="1" stop-color="#397dff"/></linearGradient><linearGradient id="ci" x1="65.82" y1="21.37" x2="69.69" y2="21.37" xlink:href="#ch"/><linearGradient id="cj" x1="464.11" y1="190.71" x2="467.84" y2="190.71" gradientTransform="translate(444.52 136.9) rotate(172.7) scale(.79 .72) skewX(4.49)" xlink:href="#ch"/><linearGradient id="ck" x1="65.63" y1="25.28" x2="69.5" y2="25.28" xlink:href="#ch"/><linearGradient id="cl" x1="464.11" y1="186.79" x2="467.84" y2="186.79" gradientTransform="translate(444.52 136.9) rotate(172.7) scale(.79 .72) skewX(4.49)" xlink:href="#ch"/><linearGradient id="cm" x1="65.44" y1="29.19" x2="69.31" y2="29.19" xlink:href="#ch"/><linearGradient id="cn" x1="464.11" y1="182.88" x2="467.85" y2="182.88" gradientTransform="translate(444.52 136.9) rotate(172.7) scale(.79 .72) skewX(4.49)" xlink:href="#ch"/><linearGradient id="co" x1="461.24" y1="164.89" x2="466.97" y2="164.89" gradientTransform="translate(444.52 136.9) rotate(172.7) scale(.79 .72) skewX(4.49)" xlink:href="#ch"/><linearGradient id="cp" x1="65.25" y1="33.1" x2="69.12" y2="33.1" xlink:href="#ch"/><linearGradient id="cq" x1="464.11" y1="178.97" x2="467.85" y2="178.97" gradientTransform="translate(444.52 136.9) rotate(172.7) scale(.79 .72) skewX(4.49)" xlink:href="#ch"/><linearGradient id="cr" x1="463.41" y1="173.71" x2="467.85" y2="173.71" gradientTransform="translate(444.52 136.9) rotate(172.7) scale(.79 .72) skewX(4.49)" xlink:href="#ch"/><linearGradient id="cs" x1="65.66" y1="41.08" x2="69.52" y2="41.08" xlink:href="#ch"/><linearGradient id="ct" x1="-16.32" y1="99.31" x2="-11.51" y2="99.31" gradientTransform="translate(118.87 -25.77) rotate(36.48)" xlink:href="#ch"/><linearGradient id="cu" x1="-14.67" y1="99.18" x2="-11.18" y2="99.18" gradientTransform="translate(118.87 -25.77) rotate(36.48)" xlink:href="#ch"/><linearGradient id="cv" x1="77.69" y1="58.68" x2="82.43" y2="58.68" gradientTransform="translate(120.05 -27.66) rotate(167.75) scale(1 -1)" xlink:href="#ch"/><linearGradient id="cw" x1="52.16" y1="58.72" x2="55.91" y2="58.72" gradientTransform="translate(-11.85 .86) rotate(-12.25)" xlink:href="#ch"/></defs><g id="b"><path class="de" d="m79.74,61.83s1.67,11.67-17.33,37c-19,25.33-37.03,101.17,3.48,101.17H15.31s-5.43-28.02,34.07-85.53c0,0,25.36-33.3,30.36-52.64Z"/><path class="fk" d="m15.31,200c-2.09-12.99.75-43.83,46.57-100.03,0,0-44.46,67.04-28.45,100.03H15.31"/><path class="dt" d="m87.27,0c28.57,50.95-24.34,102.01-24.34,102.01C107.93,52.79,88.42,10.77,80.22,0h7.05Z"/><path class="fr" d="m71.42,81.02C46.82,121.86,7.31,145.57,0,200h20.97c-7.83-34.59,24.46-73.82,52.91-118.03,24.24-37.66,10.11-68.64,1.35-81.97h-14.07c10.91,13.66,31.3,46.06,10.25,81.02Z"/><path class="dx" d="m48.86,0c16.05,16.02,36.56,49.36,5.78,99.99,0,0,35.5-58.92-10.65-99.99h4.87Z"/></g><g id="h"><path class="dz" d="m73.2,131.71c1.41-5.31-1.24-10.62-5.92-11.85-4.68-1.24-9.61,2.06-11.01,7.37-1.41,5.31.96,11.92,5.64,13.16,4.68,1.24,9.89-3.36,11.29-8.67Z"/><path class="fd" d="m61.72,139.04l-.81.72s-.22.35.29.69c.51.34.82.59.96.98.13.37.1.78-.27,1.11.24-.2.52-.34.66-.63.05-.12.21-.52.02-.88-.19-.36-.44-.5-.74-.77-.31-.28-.89-.53-.11-1.23Z"/><path class="gl" d="m61.97,144.04c-.08-.02-.14-.24-.67-.52-.12-.07-.5-.25-.92-.39l.12-.64c.05.04.13.06.19.08.19.07.39.13.56.22.76.38.98.74,1.01.81l-.07.36c-.06.06-.15.11-.23.08Z"/><path class="ee" d="m61.96,142.87c-.28.08-.57.1-.85.14-.25.03-.49.08-.74.12l.13-.71c.1-.02.2-.03.28-.04.22-.03.45-.03.67-.07.3-.06.6-.13.85-.3.11-.07.22-.16.3-.26l-.16.82c-.12.15-.3.25-.49.3Z"/><path class="fw" d="m61.61,145.88c-.07-.02-.14-.24-.67-.52-.12-.07-.5-.26-.92-.39l.12-.64c.05.04.13.06.19.08.19.08.38.13.56.22.76.38.98.74,1.01.8l-.07.36c-.06.06-.15.11-.23.08Z"/><path class="es" d="m61.61,144.71c-.27.08-.56.1-.85.14-.24.03-.49.08-.74.12l.14-.71c.09-.03.2-.04.28-.04.22-.02.45-.03.67-.07.29-.06.6-.14.85-.3.11-.07.22-.16.3-.26l-.16.82c-.12.15-.3.25-.5.3Z"/><path class="gq" d="m61.26,147.72c-.07-.02-.14-.24-.67-.52-.12-.06-.5-.26-.92-.39l.12-.64c.05.04.13.06.19.08.19.07.39.13.56.22.76.38.98.74,1.01.81l-.07.36c-.06.06-.15.11-.23.08Z"/><path class="gn" d="m61.26,146.55c-.27.08-.56.1-.85.14-.25.03-.49.08-.74.12l.13-.71c.1-.02.21-.03.29-.04.22-.02.45-.03.67-.07.3-.06.6-.13.85-.3.11-.07.22-.15.29-.25l-.15.81c-.12.15-.3.25-.5.31Z"/><path class="ei" d="m56.5,155.48l.19-1s.19-.35.81-.21c.62.15,1.04.22,1.49.08.42-.13.78-.4.87-.86-.04.29,0,.57-.19.84-.08.11-.36.46-.8.54-.45.08-.72-.01-1.16-.06-.44-.05-1.02-.3-1.21.66Z"/><path class="gd" d="m60.91,149.57c-.07-.02-.14-.24-.67-.52-.13-.06-.5-.25-.92-.39l.12-.64s.13.06.19.08c.19.07.39.12.57.21.76.38.98.74,1.01.81l-.07.36c-.06.06-.15.11-.23.09Z"/><path class="dj" d="m60.91,148.4c-.28.08-.57.1-.85.14-.25.03-.49.07-.74.11l.13-.71c.1-.02.2-.03.28-.04.22-.02.45-.03.67-.07.3-.06.6-.13.85-.3.11-.07.22-.16.29-.26l-.16.82c-.12.15-.3.25-.49.31Z"/><path class="ek" d="m59.72,150.64c-.58.16-1.28.99-1.35,1.09l.1-.52.07-.37s.47-.61,1.11-.76c.93-.21,1.57-.97,1.57-.97l-.14.77c-.44.44-.75.6-1.35.76Z"/><path class="ep" d="m59.76,154.17s.15-.36-.04-.9c-.19-.55-1.27-1.3-1.37-1.47,0,0,0,0,0,0l.18-.92s0-.03,0-.03c-.04.22-.05.29.66.8.41.3.69.8.84,1.17l-.26,1.35s0,0,0,.02Z"/><path class="db" d="m61.15,140.08s1.64-1.32,2.99-.71c0,0,1.9.97.27,2.74,0,0-.27-.02-.23-.17.1-.41.46-1.28-.41-1.6-1.2-.45-2.25.07-2.25.07,0,0-.59.27-.37-.33Z"/><path class="dd" d="m61.18,139.87s2.27,2.42,3.57,1.79c0,0-.61,1.11-1.63.9-1.02-.21-1.87-1.54-2.17-2.55l.23-.14Z"/><path class="gp" d="m61.31,139.8s-2.06-.42-2.99.75c0,0-1.01,1.62.64,2.5,0,0,.33-.02.25-.2-.15-.33-.69-1-.12-1.61.87-.95,2.01-1.03,2.01-1.03,0,0,.68.03.21-.41Z"/><path class="dm" d="m61.19,139.63s-1.1,3.19-2.54,3.22c0,0,1.04.87,2.03.09.82-.66.98-2.25.78-3.29l-.27-.02Z"/><path class="ex" d="m34.6,87.68s-.5.16-.66.84c-.16.68.06,1.74-.54,2.21,0,0,1.87.75,3.17-.44,0,0-.95-.78-.99-1.41,0,0-.18-1.5-.99-1.2Z"/><path class="gh" d="m34.07,87.71c-.16-.42-.04-.85.25-.96.29-.11.65.15.81.57.16.42.05.86-.24.96-.29.11-.65-.15-.81-.58Z"/><path class="fz" d="m15.8,75.71c-2.93-8,.39-16.57,7.44-19.15,7.04-2.58,15.13,1.8,18.06,9.8,2.94,8,.23,18.54-6.81,21.12-7.04,2.58-15.75-3.77-18.69-11.76Z"/><path class="go" d="m33.85,86.39l1.53.85s.46.47-.21,1.18c-.67.72-1.08,1.21-1.15,1.89-.07.64.13,1.26.83,1.64-.45-.23-.95-.34-1.27-.75-.13-.17-.52-.74-.34-1.37.17-.64.51-.93.89-1.48.38-.54,1.21-1.15-.27-1.97Z"/><path class="dq" d="m35.26,94.32c.11-.06.13-.43.86-1.06.17-.15.69-.58,1.31-.94l-.42-.96c-.07.08-.19.14-.27.2-.27.18-.56.34-.81.54-1.06.86-1.27,1.5-1.3,1.63l.24.54c.12.07.27.11.39.05Z"/><path class="gg" d="m34.85,92.48c.46.03.93-.04,1.38-.08.4-.04.8-.06,1.2-.08l-.47-1.07c-.16,0-.33.02-.46.04-.36.04-.72.12-1.08.13-.49.02-.98,0-1.44-.16-.2-.07-.4-.17-.56-.3l.54,1.22c.24.2.56.28.89.3Z"/><path class="fl" d="m36.47,97.09c.11-.05.13-.43.86-1.05.17-.15.69-.58,1.31-.94l-.42-.96c-.07.08-.18.14-.26.2-.27.18-.56.34-.81.54-1.05.86-1.28,1.51-1.3,1.63l.24.54c.12.07.27.11.39.05Z"/><path class="dk" d="m36.06,95.25c.46.03.92-.04,1.38-.08.4-.04.8-.06,1.2-.07l-.46-1.07c-.16,0-.33.02-.46.03-.36.04-.71.12-1.08.13-.48.01-.98,0-1.44-.17-.2-.07-.4-.17-.56-.3l.54,1.22c.24.2.56.28.89.3Z"/><path class="eb" d="m37.67,99.85c.11-.06.13-.43.86-1.06.17-.14.69-.58,1.31-.94l-.42-.96c-.07.08-.19.14-.26.2-.27.18-.56.34-.81.54-1.06.86-1.28,1.51-1.3,1.63l.24.54c.12.07.27.11.39.05Z"/><path class="ga" d="m37.26,98.01c.46.03.93-.04,1.38-.08.4-.04.8-.06,1.2-.08l-.47-1.07c-.16,0-.33.02-.46.03-.36.04-.71.12-1.08.13-.49.01-.98,0-1.44-.16-.2-.07-.39-.17-.55-.3l.53,1.22c.25.2.56.28.89.3Z"/><path class="fn" d="m47.92,110.33l-.65-1.49s-.43-.49-1.35-.04c-.92.45-1.55.71-2.3.65-.71-.06-1.37-.35-1.67-1.03.17.44.2.89.59,1.25.16.15.72.59,1.46.56.73-.03,1.12-.27,1.8-.5.67-.23,1.5-.84,2.13.61Z"/><path class="gf" d="m38.88,102.62c.11-.06.13-.43.86-1.06.17-.15.69-.58,1.31-.94l-.42-.96c-.07.08-.18.14-.26.2-.27.18-.56.33-.81.54-1.05.86-1.27,1.51-1.3,1.63l.24.54c.12.07.27.12.39.05Z"/><path class="fh" d="m38.47,100.79c.46.02.92-.04,1.38-.08.4-.04.8-.06,1.2-.08l-.47-1.07c-.16,0-.33.02-.46.04-.36.04-.71.11-1.07.13-.49.02-.99,0-1.44-.16-.2-.07-.4-.17-.55-.3l.53,1.23c.25.19.56.28.89.3Z"/><path class="fo" d="m41.15,103.88c.97.04,2.36,1.1,2.51,1.22l-.34-.78-.25-.55s-.95-.79-2.01-.79c-1.55,0-2.8-.96-2.8-.96l.5,1.15c.84.53,1.39.67,2.38.7Z"/><path class="dv" d="m42.34,109.44s-.37-.5-.26-1.43c.11-.92,1.53-2.49,1.62-2.8,0,0,0,0,0-.01l-.6-1.38s-.03-.04-.03-.04c.14.33.19.44-.75,1.49-.54.61-.79,1.49-.91,2.13l.9,2.02s0,.02.02.02Z"/><path class="cy" d="m35.12,87.81s-3.05-1.48-4.95-.04c0,0-2.63,2.19.56,4.39,0,0,.42-.12.3-.36-.3-.61-1.18-1.85.07-2.66,1.73-1.13,3.56-.69,3.56-.69,0,0,1.02.22.46-.65Z"/><path class="fp" d="m35,87.5s-2.71,4.62-4.96,4.08c0,0,1.35,1.52,2.88.83,1.53-.7,2.39-3.09,2.49-4.77l-.41-.14Z"/><path class="fm" d="m34.78,87.44s3.08-1.4,4.96.1c0,0,2.17,2.18-.12,4.16,0,0-.52.09-.46-.22.12-.57.72-1.81-.38-2.58-1.71-1.18-3.53-.9-3.53-.9,0,0-1.06.3-.48-.56Z"/><path class="dy" d="m34.9,87.12s2.87,4.62,5.14,4.14c0,0-1.33,1.74-3.15.87-1.52-.73-2.33-3.19-2.4-4.89l.41-.12Z"/><path class="eq" d="m69.33,80.65s-.5-.3-1.2.06c-.7.36-1.43,1.32-2.26,1.17,0,0,.74,2.12,2.7,2.35,0,0-.04-1.37.47-1.87,0,0,1.13-1.25.29-1.71Z"/><path class="eg" d="m68.92,80.22c.24-.44.69-.66.99-.5.3.17.35.66.11,1.1-.24.44-.69.67-.99.5-.3-.17-.35-.66-.11-1.1Z"/><path class="ec" d="m65.67,56.01c4.6-8.33,14.27-11.8,21.61-7.75,7.34,4.05,9.56,14.09,4.96,22.42-4.6,8.33-15.47,13.77-22.81,9.72-7.33-4.05-8.36-16.05-3.76-24.38Z"/><path class="en" d="m69.87,79.07l.41,1.92s-.05.73-1.15.69c-1.1-.04-1.82-.02-2.44.41-.59.41-.97,1.04-.78,1.9-.14-.55-.41-1.05-.3-1.62.05-.23.24-.97.9-1.29.66-.32,1.16-.25,1.9-.33.74-.08,1.86.18,1.46-1.67Z"/><path class="fj" d="m64.21,86.06c.13.05.46-.2,1.52-.05.25.04,1,.16,1.75.42l.5-1.06c-.12,0-.25-.05-.36-.08-.35-.09-.69-.23-1.05-.29-1.5-.26-2.2.03-2.32.09l-.29.6c.03.15.1.31.24.36Z"/><path class="ft" d="m65.46,84.37c.32.41.71.75,1.08,1.11.32.31.64.63.95.96l.56-1.18c-.11-.14-.26-.26-.37-.36-.3-.27-.62-.52-.9-.81-.37-.4-.72-.83-.92-1.34-.09-.22-.15-.46-.16-.69l-.64,1.35c.01.35.17.68.39.97Z"/><path class="el" d="m62.76,89.11c.12.05.46-.2,1.52-.04.25.04,1,.16,1.75.42l.5-1.06c-.12,0-.25-.05-.36-.08-.35-.09-.69-.22-1.04-.28-1.5-.26-2.21.03-2.32.09l-.29.6c.03.15.1.31.25.36Z"/><path class="er" d="m64.01,87.42c.32.41.71.75,1.08,1.1.32.31.64.63.94.96l.56-1.18c-.11-.14-.26-.27-.37-.37-.3-.27-.62-.52-.9-.81-.37-.4-.72-.83-.91-1.34-.09-.23-.15-.46-.16-.69l-.64,1.35c.01.35.17.68.39.97Z"/><path class="fs" d="m61.31,92.15c.13.05.46-.2,1.53-.05.25.04.99.16,1.75.42l.5-1.06c-.12,0-.26-.05-.36-.08-.35-.09-.7-.22-1.05-.28-1.5-.26-2.21.03-2.32.09l-.28.6c.03.15.1.31.24.36Z"/><path class="da" d="m62.56,90.46c.31.41.71.75,1.08,1.11.33.31.64.63.95.96l.56-1.18c-.12-.14-.26-.26-.37-.36-.3-.27-.62-.52-.9-.81-.37-.4-.72-.83-.92-1.34-.09-.22-.15-.46-.15-.68l-.64,1.35c.01.35.17.68.4.97Z"/><path class="ff" d="m59.97,108.47l.78-1.65s.1-.72-.96-1.17c-1.06-.45-1.74-.78-2.24-1.46-.47-.65-.71-1.42-.35-2.17-.24.46-.61.82-.62,1.41,0,.25.04,1.04.6,1.64.56.6,1.05.75,1.74,1.15.69.4,1.81.65,1.05,2.24Z"/><path class="fq" d="m59.86,95.2c.13.05.46-.2,1.52-.05.25.04,1,.16,1.75.42l.5-1.06c-.12,0-.25-.05-.36-.08-.35-.09-.69-.23-1.05-.29-1.5-.26-2.2.03-2.32.09l-.28.6c.03.15.1.31.24.36Z"/><path class="gk" d="m61.11,93.51c.32.41.71.75,1.08,1.1.32.31.63.63.94.95l.56-1.18c-.11-.14-.26-.26-.37-.36-.29-.27-.62-.52-.89-.81-.37-.4-.72-.83-.92-1.34-.09-.22-.15-.46-.15-.69l-.64,1.35c.02.35.17.68.39.97Z"/><path class="fa" d="m60.46,98.03c.68.85.8,2.79.8,3.01l.41-.85.29-.61s-.03-1.38-.81-2.27c-1.13-1.3-1.24-3.07-1.24-3.07l-.6,1.27c.17,1.09.45,1.66,1.15,2.53Z"/><path class="gi" d="m56.64,103.11s.15-.68,1.01-1.26c.86-.58,3.22-.53,3.55-.68,0,0,0,0,.01,0l.72-1.52s.02-.05.02-.05c-.17.37-.23.48-1.8.46-.91,0-1.83.42-2.46.79l-1.05,2.24s0,.02,0,.03Z"/><path class="cz" d="m69.6,81.18s-.98-3.65-3.59-4.21c0,0-3.78-.61-3.3,3.69,0,0,.41.26.52,0,.3-.7.69-2.35,2.29-1.89,2.22.63,3.19,2.5,3.19,2.5,0,0,.56,1.02.88-.09Z"/><path class="dp" d="m69.78,80.85s-5.88,1.1-7.08-1.2c0,0-.3,2.25,1.41,3.04,1.71.78,4.36-.25,5.85-1.39l-.18-.44Z"/><path class="eo" d="m69.67,80.62s3.44,1.57,3.54,4.26c0,0-.25,3.43-3.59,2.95,0,0-.46-.37-.15-.55.57-.32,2.06-.72,1.89-2.21-.25-2.31-1.82-3.63-1.82-3.63,0,0-1.02-.67.12-.81Z"/><path class="dn" d="m70.02,80.49s-1.79,5.8.27,7.37c0,0-2.44.16-3.04-2.02-.5-1.82.98-4.3,2.36-5.61l.4.25Z"/><path class="eu" d="m89.23,138.92s-.89-.04-1.55.93c-.67.98-.96,2.79-2.18,3.17,0,0,2.5,2.3,5.28,1.21,0,0-1.03-1.8-.71-2.82,0,0,.61-2.48-.84-2.49Z"/><path class="fe" d="m88.37,138.65c0-.76.44-1.37.96-1.37.53,0,.94.63.93,1.39,0,.76-.44,1.38-.97,1.37-.52,0-.94-.63-.93-1.4Z"/><path class="du" d="m66.74,108.69c.18-14.39,10.6-25.93,23.27-25.77,3.96.05,7.66,1.23,10.89,3.27,0,16.82,0,26.02,0,47.97-3.47,2.76-7.49,4.41-11.73,4.36-12.67-.16-22.61-15.43-22.43-29.83Z"/><path class="di" d="m88.83,136.43l1.91,2.26s.45,1.01-1.05,1.74c-1.49.73-2.44,1.27-2.95,2.29-.49.96-.55,2.07.31,3.09-.57-.63-1.29-1.1-1.55-1.95-.11-.34-.37-1.47.28-2.37.65-.9,1.37-1.16,2.29-1.8.93-.63,2.6-1.08.75-3.27Z"/><path class="fb" d="m86.27,149.8c.21-.03.47-.6,2-1.15.36-.13,1.44-.5,2.63-.7l-.09-1.77c-.16.09-.38.11-.54.15-.53.13-1.09.2-1.6.37-2.19.73-2.92,1.61-3.03,1.79l.04,1c.15.18.36.34.58.31Z"/><path class="fv" d="m86.73,146.65c.71.32,1.49.5,2.23.7.65.19,1.3.38,1.94.6l-.1-1.97c-.25-.1-.53-.16-.75-.22-.59-.15-1.2-.25-1.78-.44-.78-.27-1.55-.59-2.18-1.13-.27-.24-.52-.51-.7-.81l.11,2.26c.27.46.71.78,1.22,1.01Z"/><path class="dl" d="m86.52,154.89c.2-.02.46-.59,1.99-1.14.36-.13,1.44-.5,2.63-.7l-.09-1.77c-.15.09-.37.11-.54.15-.53.13-1.08.19-1.6.37-2.19.73-2.92,1.61-3.03,1.79l.05,1c.14.18.35.34.58.3Z"/><path class="gj" d="m86.97,151.75c.71.32,1.48.49,2.23.7.65.19,1.3.39,1.94.6l-.09-1.97c-.25-.11-.54-.17-.75-.23-.59-.15-1.2-.24-1.78-.44-.77-.27-1.55-.59-2.17-1.13-.28-.24-.53-.51-.7-.81l.11,2.26c.26.46.71.78,1.22,1.01Z"/><path class="ev" d="m86.76,159.98c.21-.03.47-.6,2-1.15.36-.13,1.44-.49,2.63-.69l-.09-1.77c-.16.09-.38.11-.54.16-.53.13-1.08.2-1.6.37-2.19.73-2.92,1.61-3.03,1.78l.05,1c.15.18.36.34.58.31Z"/><path class="ea" d="m87.22,156.83c.71.33,1.49.5,2.23.71.65.18,1.3.39,1.94.6l-.1-1.97c-.25-.11-.53-.17-.75-.22-.59-.15-1.2-.25-1.78-.44-.78-.27-1.55-.59-2.18-1.13-.28-.24-.52-.5-.69-.8l.1,2.25c.27.46.72.78,1.22,1.01Z"/><path class="et" d="m96.63,182.7l-.13-2.75s-.39-1.04-2.12-.88c-1.73.16-2.88.2-4.03-.35-1.09-.52-1.96-1.38-2.02-2.63,0,.79-.22,1.53.19,2.32.17.33.79,1.36,1.96,1.76,1.18.4,1.94.25,3.15.29,1.2.04,2.87-.43,3,2.24Z"/><path class="fg" d="m87.01,165.09c.21-.03.47-.6,2-1.15.36-.13,1.45-.5,2.63-.7l-.09-1.77c-.15.09-.37.11-.54.15-.53.13-1.08.19-1.61.37-2.18.73-2.91,1.61-3.03,1.79l.05,1c.14.18.36.34.58.31Z"/><path class="fc" d="m87.46,161.94c.72.32,1.48.49,2.23.7.65.18,1.3.39,1.94.6l-.1-1.97c-.25-.1-.53-.17-.75-.22-.59-.15-1.19-.25-1.77-.45-.78-.27-1.56-.59-2.18-1.13-.27-.23-.52-.5-.7-.8l.11,2.26c.27.45.71.78,1.22,1.02Z"/><path class="dg" d="m89.82,168.44c1.51.64,3.06,3.15,3.23,3.45l-.06-1.43-.06-1.02s-1.03-1.82-2.7-2.45c-2.44-.93-3.85-3.21-3.85-3.21l.1,2.12c1.01,1.33,1.79,1.89,3.34,2.55Z"/><path class="eh" d="m88.35,177.93s-.28-1.01.45-2.41c.73-1.39,3.92-3.01,4.24-3.45,0,0,0-.01.01-.01l-.12-2.54c0-.05-.01-.08-.01-.08.03.61.04.81-2.07,1.9-1.21.64-2.14,1.88-2.71,2.82l.2,3.73s0,.03.02.05Z"/><path class="do" d="m89.97,139.44s-3.92-4.17-7.79-3.04c0,0-5.47,1.88-1.76,7.27,0,0,.73.06.69-.38-.1-1.14-.76-3.63,1.71-4.16,3.41-.74,6.04,1.06,6.04,1.06,0,0,1.48.96,1.11-.74Z"/><path class="df" d="m89.98,138.87s-7.05,5.66-10.3,3.46c0,0,1.21,3.21,4.05,3.04,2.83-.18,5.63-3.45,6.81-6.03l-.56-.46Z"/><path class="gm" d="m89.66,138.64s5.71-.36,7.77,3.15c0,0,2.12,4.75-2.68,6.5,0,0-.88-.16-.59-.62.53-.83,2.23-2.43.95-4.3-1.99-2.9-5.03-3.54-5.03-3.54,0,0-1.85-.17-.41-1.17Z"/><path class="ew" d="m90.03,138.22s1.75,9.01,5.63,9.64c0,0-3.15,1.96-5.5-.53-1.96-2.08-1.77-6.44-.85-9.16l.72.05Z"/><path class="fu" d="m51.75,44.56s-.46.09-.68.69c-.21.59-.12,1.57-.7,1.93,0,0,1.6.86,2.89-.08,0,0-.77-.8-.74-1.36,0,0-.01-1.36-.76-1.17Z"/><path class="dr" d="m51.27,44.53c-.1-.39.04-.77.32-.84.27-.07.57.2.67.59.1.4-.05.77-.32.84-.27.07-.57-.2-.67-.6Z"/><path class="ez" d="m36.11,31.94c-1.82-7.46,2.02-14.81,8.59-16.41,6.57-1.61,13.37,3.14,15.19,10.6,1.82,7.46-1.66,16.63-8.23,18.23-6.57,1.6-13.73-4.96-15.55-12.42Z"/><path class="em" d="m51.02,43.3l1.25,1.07s.34.52-.41,1.05c-.75.54-1.22.92-1.41,1.52-.18.57-.11,1.19.45,1.67-.37-.3-.81-.49-1.02-.92-.09-.18-.34-.78-.06-1.33.27-.55.64-.76,1.09-1.19.45-.43,1.33-.83.12-1.86Z"/><path class="ey" d="m50.83,50.85c.12-.03.2-.37.99-.81.19-.11.75-.41,1.38-.62l-.21-.96c-.08.06-.2.1-.28.13-.28.12-.58.21-.84.35-1.13.6-1.45,1.15-1.5,1.25l.12.54c.1.08.23.15.35.12Z"/><path class="ge" d="m50.8,49.09c.42.11.86.14,1.29.18.38.04.75.09,1.12.15l-.23-1.07c-.15-.03-.31-.04-.43-.05-.34-.03-.68-.03-1.01-.08-.45-.08-.91-.18-1.3-.42-.17-.1-.33-.23-.45-.38l.27,1.23c.19.23.46.36.76.44Z"/><path class="gc" d="m51.43,53.63c.11-.03.2-.37.99-.81.19-.1.74-.4,1.38-.62l-.21-.96c-.08.06-.19.1-.28.13-.28.12-.58.21-.84.35-1.13.6-1.45,1.15-1.5,1.26l.11.54c.1.09.23.15.35.11Z"/><path class="dw" d="m51.4,51.86c.42.11.86.14,1.29.18.37.04.75.09,1.12.15l-.23-1.07c-.15-.04-.31-.04-.43-.05-.34-.03-.68-.03-1.01-.08-.45-.08-.9-.18-1.3-.42-.17-.11-.33-.23-.46-.38l.27,1.23c.19.23.46.37.76.44Z"/><path class="gb" d="m52.03,56.4c.11-.04.2-.37.99-.81.19-.1.75-.4,1.38-.62l-.21-.96c-.08.06-.2.1-.28.13-.28.12-.58.21-.84.35-1.13.6-1.45,1.15-1.5,1.25l.12.54c.1.08.23.15.35.12Z"/><path class="ed" d="m51.99,54.63c.42.11.86.14,1.29.18.37.04.75.09,1.12.15l-.23-1.07c-.15-.03-.31-.04-.43-.05-.34-.03-.68-.03-1.01-.08-.45-.08-.91-.18-1.3-.42-.17-.1-.33-.23-.45-.38l.26,1.23c.19.23.46.36.76.44Z"/><path class="ds" d="m59.51,67.95l-.32-1.5s-.31-.53-1.24-.29c-.94.25-1.56.37-2.24.17-.65-.19-1.2-.58-1.35-1.26.08.43.02.86.31,1.26.12.17.56.67,1.24.79.68.11,1.08-.04,1.75-.13.66-.09,1.54-.49,1.85.95Z"/><path class="ej" d="m52.63,59.17c.11-.04.2-.37.99-.81.19-.1.75-.41,1.38-.62l-.21-.96c-.08.06-.2.09-.28.13-.28.12-.58.2-.84.35-1.13.6-1.45,1.15-1.5,1.26l.12.54c.1.09.23.16.35.12Z"/><path class="ef" d="m52.59,57.41c.42.11.86.13,1.29.18.37.04.75.09,1.12.15l-.23-1.07c-.15-.04-.31-.04-.43-.05-.33-.03-.68-.03-1.01-.08-.45-.08-.91-.18-1.3-.42-.17-.1-.33-.23-.45-.38l.26,1.23c.19.22.46.37.76.45Z"/><path class="dc" d="m54.47,60.75c.89.21,1.96,1.45,2.08,1.6l-.17-.78-.12-.55s-.73-.91-1.7-1.1c-1.42-.29-2.4-1.4-2.4-1.4l.25,1.15c.67.64,1.16.87,2.06,1.09Z"/><path class="fy" d="m54.53,66.09s-.24-.53.03-1.36c.27-.83,1.87-2.01,2.01-2.28,0,0,0,0,0,0l-.3-1.38s-.02-.05-.02-.05c.07.33.09.44-.96,1.23-.61.46-1,1.23-1.23,1.79l.45,2.03s0,.02.01.02Z"/><path class="cx" d="m51.92,44.84s-2.53-1.93-4.55-.96c0,0-2.83,1.53-.3,4.15,0,0,.41-.03.34-.27-.16-.62-.74-1.92.56-2.44,1.8-.72,3.41.03,3.41.03,0,0,.9.39.54-.51Z"/><path class="fi" d="m51.87,44.53s-3.35,3.75-5.33,2.83c0,0,.96,1.65,2.5,1.3,1.54-.36,2.77-2.4,3.18-3.93l-.35-.2Z"/><path class="dh" d="m51.67,44.43s3.1-.72,4.54,1.02c0,0,1.59,2.41-.88,3.81,0,0-.5-.01-.38-.29.21-.5,1-1.53.13-2.44-1.35-1.41-3.08-1.48-3.08-1.48,0,0-1.03.08-.33-.61Z"/><path class="fx" d="m51.84,44.16s1.78,4.78,3.96,4.77c0,0-1.55,1.36-3.06.21-1.27-.96-1.55-3.37-1.3-4.94l.4-.04Z"/></g></svg>