<?xml version="1.0" encoding="UTF-8"?><svg xmlns="http://www.w3.org/2000/svg" viewBox="0 0 1184.77 782.64"><defs><style>.g{opacity:.1;}.g,.h,.i,.j,.k,.l,.m{stroke-width:0px;}.g,.i,.j,.k,.l,.m{fill:#fff;mix-blend-mode:lighten;}.n{isolation:isolate;}.h{fill:none;}.i{opacity:.2;}.j{opacity:.4;}.k{opacity:.5;}.m{opacity:.3;}</style></defs><g class="n"><g id="b"><g id="c"><g id="d"><polygon class="j" points="1004.52 666.36 1025.6 641.15 1057.97 646.8 1069.26 677.66 1048.18 702.87 1015.81 697.22 1004.52 666.36"/><rect class="h" x="749.44" y="714.06" width="53.89" height="62.23" transform="translate(-179.11 250.11) rotate(-16.44)"/><polygon class="k" points="746.14 737.88 767.58 715.33 797.83 722.63 806.63 752.47 785.19 775.01 754.94 767.72 746.14 737.88"/><polygon class="m" points="465.46 747.06 477.63 720.85 506.42 718.29 523.03 741.94 510.85 768.15 482.06 770.71 465.46 747.06"/><polygon class="j" points="66.52 699.79 89.62 665.94 130.49 669.02 148.26 705.95 125.16 739.81 84.28 736.73 66.52 699.79"/><rect class="h" x="12.72" y="291.01" width="61.94" height="71.52" transform="translate(-141.41 53.95) rotate(-26.54)"/><polygon class="g" points="7.99 324.62 27.71 294.78 63.4 296.94 79.38 328.93 59.66 358.76 23.97 356.61 7.99 324.62"/><rect class="h" x="223.04" y="269.7" width="47.49" height="54.84" transform="translate(-48.02 47.57) rotate(-10.04)"/><polygon class="i" points="221.01 287.76 242.01 270.12 267.78 279.48 272.56 306.48 251.57 324.12 225.79 314.76 221.01 287.76"/><rect class="h" x="421.93" y="211.68" width="70.46" height="81.36" transform="translate(-64.47 228.25) rotate(-26.25)"/><polygon class="g" points="416.57 249.7 439.17 215.88 479.76 218.54 497.75 255.02 475.15 288.84 434.56 286.18 416.57 249.7"/><rect class="h" x="641.15" y="241.75" width="37.2" height="42.95" transform="translate(-49.74 228.78) rotate(-18.97)"/><polygon class="m" points="638.67 259.12 652.77 242.91 673.85 247.02 680.83 267.33 666.73 283.53 645.65 279.43 638.67 259.12"/><rect class="h" x="773.34" y="234.66" width="55.62" height="64.23" transform="translate(-12.32 493.21) rotate(-33.97)"/><polygon class="l" points="769.11 269 783.2 240.15 815.24 237.92 833.18 264.55 819.09 293.41 787.06 295.63 769.11 269"/><rect class="h" x="940.62" y="281.77" width="46.01" height="53.13" transform="translate(-40.97 428.47) rotate(-24.56)"/><polygon class="k" points="937.18 305.82 952.58 284.17 979.02 286.69 990.07 310.85 974.66 332.5 948.22 329.98 937.18 305.82"/><rect class="h" x="1008.32" y="317.23" width="62.31" height="71.95" transform="translate(-57.37 306.34) rotate(-16.32)"/><polygon class="m" points="1004.52 344.69 1029.36 318.67 1064.31 327.18 1074.42 361.71 1049.58 387.72 1014.63 379.22 1004.52 344.69"/><rect class="h" x="1058.57" y="463.64" width="55.78" height="64.41" transform="translate(-86.72 719.22) rotate(-35.31)"/><polygon class="k" points="1054.4 498.82 1067.85 469.56 1099.92 466.58 1118.53 492.86 1105.08 522.12 1073.01 525.11 1054.4 498.82"/><rect class="h" x="823.12" y="516.25" width="70.21" height="81.07" transform="translate(-117.12 248.13) rotate(-15.41)"/><polygon class="g" points="819 546.57 847.45 517.7 886.68 527.91 897.45 566.99 869 595.86 829.77 585.65 819 546.57"/><rect class="h" x="533.59" y="483.11" width="46.04" height="53.16" transform="translate(-91.91 123.65) rotate(-11.72)"/><polygon class="m" points="531.37 501.35 551.21 483.66 576.45 492 581.84 518.03 562 535.71 536.77 527.37 531.37 501.35"/><rect class="h" x="415.67" y="519.27" width="50.97" height="58.86" transform="translate(-194.29 245.55) rotate(-25.7)"/><polygon class="k" points="411.81 546.49 428.4 522.18 457.74 524.39 470.51 550.91 453.92 575.22 424.57 573.01 411.81 546.49"/><rect class="h" x="299.79" y="471.07" width="40.75" height="47.05" transform="translate(-181.79 186.09) rotate(-25.51)"/><polygon class="m" points="296.71 492.76 310.04 473.37 333.49 475.21 343.62 496.44 330.3 515.83 306.84 513.99 296.71 492.76"/><rect class="h" x="1102.46" y="155.48" width="67.03" height="77.4" transform="translate(65.84 621.92) rotate(-31.49)"/><polygon class="m" points="1097.29 195.19 1115.77 161.18 1154.45 160.17 1174.67 193.18 1156.19 227.18 1117.5 228.19 1097.29 195.19"/><rect class="h" x="966.53" y="170.79" width="38.2" height="44.11" transform="translate(-4.2 362.8) rotate(-20.81)"/><polygon class="l" points="963.86 189.32 977.79 172.23 999.56 175.75 1007.4 196.36 993.47 213.46 971.7 209.93 963.86 189.32"/><rect class="h" x="882.77" y="176.88" width="52.63" height="60.77" transform="translate(-21.85 259.76) rotate(-16.07)"/><polygon class="l" points="879.59 199.95 900.67 178.07 930.17 185.38 938.58 214.58 917.5 236.46 888.01 229.15 879.59 199.95"/><rect class="h" x="727.69" y="134.63" width="54.23" height="62.62" transform="translate(-6.2 300.6) rotate(-22.43)"/><polygon class="l" points="723.77 161.82 742.86 137 773.89 141.12 785.84 170.06 766.75 194.88 735.72 190.76 723.77 161.82"/><rect class="h" x="627.38" y="177.76" width="72.53" height="83.75" transform="translate(-30.52 137.21) rotate(-11.54)"/><polygon class="l" points="623.93 206.38 655.27 178.61 694.99 191.87 703.37 232.9 672.02 260.67 632.3 247.41 623.93 206.38"/><rect class="h" x="527.85" y="146.88" width="73.63" height="85.02" transform="translate(-30.9 185.6) rotate(-18.18)"/><polygon class="l" points="523.06 180.69 551.4 149.01 593.01 157.72 606.27 198.11 577.93 229.78 536.32 221.07 523.06 180.69"/><rect class="h" x="257.95" y="181.44" width="60.15" height="69.46" transform="translate(-71.97 206.81) rotate(-35.4)"/><polygon class="k" points="253.45 219.44 267.9 187.86 302.48 184.59 322.6 212.9 308.14 244.47 273.57 247.74 253.45 219.44"/><rect class="h" x="38.05" y="161.71" width="42.07" height="48.58" transform="translate(-65.23 35.55) rotate(-21.94)"/><polygon class="m" points="35.03 182.6 50.01 163.47 74.05 166.88 83.13 189.41 68.16 208.53 44.11 205.13 35.03 182.6"/></g><g id="e"><rect class="h" x="718.81" y="48.12" width="53.89" height="62.23" transform="translate(8.05 214.23) rotate(-16.43)"/><polygon class="k" points="715.51 71.94 736.95 49.39 767.2 56.69 776 86.53 754.56 109.08 724.31 101.78 715.51 71.94"/><polygon class="m" points="434.83 81.12 447.01 54.92 475.79 52.36 492.4 76.01 480.22 102.21 451.44 104.77 434.83 81.12"/><polygon class="j" points="35.89 33.86 58.99 0 99.86 3.08 117.63 40.01 94.53 73.87 53.66 70.79 35.89 33.86"/><rect class="h" x="297.11" y="37.77" width="50.97" height="58.86" transform="translate(2.76 146.53) rotate(-25.7)"/><polygon class="k" points="293.25 64.99 309.84 40.68 339.18 42.89 351.94 69.41 335.36 93.72 306.01 91.51 293.25 64.99"/></g><g id="f"><polygon class="m" points="546.89 315.61 571.73 289.6 606.69 298.1 616.8 332.63 591.95 358.65 557 350.14 546.89 315.61"/><polygon class="m" points="752.05 431.07 773.13 405.86 805.5 411.51 816.8 442.37 795.72 467.58 763.35 461.93 752.05 431.07"/><polygon class="m" points="308.25 340.54 330.85 306.72 371.44 309.38 389.43 345.86 366.83 379.68 326.24 377.02 308.25 340.54"/></g></g></g></g></svg>