<?xml version="1.0" encoding="UTF-8"?><svg xmlns="http://www.w3.org/2000/svg" viewBox="0 0 77.33 46.27"><defs><style>.d{isolation:isolate;}.e{fill:#5fdae6;mix-blend-mode:multiply;stroke-width:0px;}</style></defs><g class="d"><g id="b"><g id="c"><path class="e" d="m21.87,16.32c-1-.94-2.48-2.14-4.25-2.96-.1-.23-.64-1.42-1.51-1.96-.97-.6-4.59.43-6.43,1.37-1.19.61-1.9,1.47-2.25,1.99-.94.68-1.72,1.39-2.28,1.95-1.11-1.04-3-2.52-5.02-2.94,0,0-.67,2.8,1.07,4.13-1.73,1.33-1.07,4.13-1.07,4.13,2.11-.44,4.07-2.04,5.16-3.07,1.6,1.57,4.77,4.14,8.43,4.14.01,0,.03,0,.04,0-.03.02-.07.04-.09.05-.52.25-3.1.12-3.87-.1-.77-.22-1.1.25-1.1.25.35.55-.25.72-.37,1.02-.12.3.17.72.17.72,3.15.02,5.22-1.5,5.87-1.8.1-.04.21-.12.33-.21,3.05-.37,5.67-2.39,7.18-3.82.83-.79.83-2.11,0-2.89Z"/><path class="e" d="m30.72,30.19c-.7-.66-1.74-1.51-2.99-2.08-.07-.16-.45-1-1.07-1.38-.68-.42-3.23.3-4.52.96-.84.43-1.34,1.03-1.59,1.4-.66.48-1.21.98-1.6,1.37-.78-.73-2.11-1.77-3.53-2.07,0,0-.47,1.97.75,2.9-1.22.94-.75,2.9-.75,2.9,1.48-.31,2.86-1.43,3.63-2.16,1.12,1.1,3.36,2.91,5.93,2.91.01,0,.02,0,.03,0-.02.01-.05.03-.07.04-.37.18-2.18.09-2.72-.07-.54-.16-.77.18-.77.18.25.39-.18.51-.26.72-.09.21.12.51.12.51,2.21.02,3.67-1.05,4.13-1.27.07-.03.15-.08.23-.15,2.14-.26,3.99-1.68,5.05-2.69.58-.55.58-1.48,0-2.03Z"/><path class="e" d="m76.76,28.81c-.91-.86-2.26-1.95-3.87-2.69-.09-.21-.59-1.29-1.38-1.78-.88-.55-4.19.39-5.85,1.24-1.09.55-1.73,1.34-2.05,1.82-.86.62-1.57,1.27-2.08,1.78-1.01-.94-2.73-2.3-4.57-2.68,0,0-.61,2.55.97,3.76-1.58,1.21-.97,3.76-.97,3.76,1.92-.4,3.71-1.86,4.7-2.8,1.46,1.43,4.35,3.77,7.68,3.77.01,0,.03,0,.04,0-.03.02-.06.03-.08.05-.48.23-2.82.11-3.53-.09-.71-.2-1,.23-1,.23.32.5-.23.66-.34.93-.11.27.16.66.16.66,2.87.02,4.76-1.37,5.35-1.64.09-.04.19-.11.3-.19,2.78-.34,5.17-2.18,6.54-3.48.76-.72.76-1.92,0-2.63Z"/><path class="e" d="m53.21,37.68c-.98-.93-2.44-2.11-4.18-2.91-.1-.23-.63-1.39-1.49-1.93-.95-.59-4.53.43-6.33,1.34-1.18.6-1.87,1.44-2.22,1.96-.93.67-1.7,1.37-2.25,1.92-1.1-1.02-2.95-2.49-4.95-2.9,0,0-.66,2.76,1.05,4.07-1.71,1.31-1.05,4.07-1.05,4.07,2.08-.43,4.01-2.01,5.08-3.03,1.57,1.55,4.7,4.08,8.3,4.08.01,0,.03,0,.04,0-.03.02-.06.04-.09.05-.52.25-3.05.12-3.81-.1-.76-.22-1.08.25-1.08.25.34.54-.25.71-.37,1.01s.17.71.17.71c3.1.02,5.14-1.48,5.78-1.77.1-.04.21-.12.32-.21,3-.37,5.59-2.36,7.07-3.76.82-.77.82-2.08,0-2.85Z"/><path class="e" d="m42.43,5.26c-1.03-.97-2.56-2.21-4.39-3.06-.1-.24-.66-1.46-1.56-2.02-1-.62-4.75.45-6.64,1.41-1.23.63-1.97,1.52-2.33,2.06-.97.7-1.78,1.44-2.36,2.01-1.15-1.07-3.1-2.61-5.19-3.04,0,0-.69,2.89,1.1,4.27-1.79,1.38-1.1,4.27-1.1,4.27,2.18-.45,4.2-2.1,5.33-3.18,1.65,1.62,4.93,4.28,8.7,4.28.01,0,.03,0,.04,0-.03.02-.07.04-.1.05-.54.26-3.2.13-4-.1s-1.14.26-1.14.26c.36.57-.26.75-.39,1.06-.13.31.18.75.18.75,3.25.03,5.39-1.55,6.06-1.86.1-.05.22-.12.34-.22,3.15-.39,5.86-2.47,7.42-3.95.86-.81.86-2.18,0-2.99Z"/><path class="e" d="m56.69,19.13c-1.01-.96-2.52-2.17-4.31-3-.1-.23-.65-1.44-1.54-1.98-.98-.61-4.66.44-6.52,1.39-1.21.62-1.93,1.49-2.29,2.02-.96.69-1.75,1.41-2.31,1.98-1.13-1.05-3.04-2.56-5.1-2.99,0,0-.68,2.84,1.08,4.19-1.76,1.35-1.08,4.19-1.08,4.19,2.14-.45,4.13-2.07,5.24-3.12,1.62,1.59,4.84,4.2,8.55,4.2.01,0,.03,0,.04,0-.03.02-.07.04-.09.05-.53.25-3.14.13-3.93-.1s-1.12.25-1.12.25c.35.56-.25.73-.38,1.04s.18.74.18.74c3.19.03,5.3-1.52,5.96-1.82.1-.05.21-.12.33-.21,3.09-.38,5.76-2.43,7.29-3.88.84-.8.84-2.14,0-2.93Z"/></g></g></g></svg>