<?xml version="1.0" encoding="UTF-8"?><svg xmlns="http://www.w3.org/2000/svg" viewBox="0 0 87 102.15"><defs><style>.d{isolation:isolate;}.e{fill:#5fdae6;mix-blend-mode:multiply;stroke-width:0px;}</style></defs><g class="d"><g id="b"><g id="c"><path class="e" d="m54.44,49.42c-.23-1.58-1.13-2.75-1.93-3.78-.09-.12-.19-.24-.28-.36-1.22-1.61-1.34-3.71-.37-6.61,1.36-4.05-.1-7.97-3.91-10.47-1.15-.76-3.15-2.32-3.68-4.34-.39-1.47-.23-3.29-.07-5.04,0-.04,0-.08.01-.12.59-.55,1.02-1.03,1.27-1.34.93-1.19-1.85-1.32-3.31-3.17-1.45-1.85-.51-16.62-13.07-13.84-12.56,2.78-4.85,15.96-5.25,17.94-.4,1.98-2.38,4.1-2.38,4.1.64,1.53,2.17,2.22,4.1,2.4.92,2.27.12,4.66-.79,7.37-.11.32-.22.65-.32.97-.55,1.7-1.03,3.95.14,6.37.83,1.72,2.13,2.76,3.38,3.77.4.32.78.63,1.15.96,1.32,1.18,1.4,2.01,1.3,2.65-.1.66-.5,1.34-.91,2.05-.34.57-.68,1.17-.94,1.84-1.76,4.56,2.41,7.93,5.32,9.95-.02.38.11.78.39,1.08.29.31.67.46,1.06.46.36,0,.71-.13.99-.39.47-.44.74-1.01.77-1.64.02-.5-.22-.98-.64-1.27l-.09-.06c-3.27-2.22-6.12-4.43-5.09-7.09.18-.45.45-.92.74-1.42.51-.88,1.09-1.87,1.28-3.08.3-1.93-.43-3.65-2.23-5.26-.42-.38-.85-.73-1.27-1.06-1.1-.88-2.04-1.64-2.59-2.77-.59-1.21-.58-2.39,0-4.21.1-.32.21-.63.31-.95.86-2.59,1.81-5.44,1.07-8.33.79-.08,1.59-.19,2.4-.34-.47,1.17-.93,2.38-1.01,3.84-.13,2.56.55,5.23,1.95,7.74.3.54.65,1.05.98,1.55.73,1.1,1.42,2.14,1.56,3.25.09.66-.13,1.39-.38,2.23-.22.75-.47,1.6-.52,2.51-.09,1.91.05,4.41,1.9,6.75.47.59.92,1.08,1.36,1.54.9.96,1.61,1.72,2.05,2.99.6,1.7.52,3.05.19,4.8-.38,2.03.07,6.26,2.88,7.27.16.06.33.09.49.09.6,0,1.15-.37,1.37-.96.27-.76-.12-1.59-.87-1.86-.8-.29-1.28-2.6-1.01-4,.4-2.13.5-4.01-.31-6.31-.65-1.84-1.68-2.94-2.67-4.01-.4-.43-.81-.87-1.2-1.36-1.01-1.27-1.38-2.67-1.28-4.82.03-.56.21-1.17.4-1.82.3-1.01.64-2.16.47-3.43-.23-1.78-1.19-3.22-2.03-4.48-.31-.47-.61-.92-.86-1.37-1.14-2.02-1.69-4.15-1.58-6.16.05-1.05.43-1.99.87-3.09.05-.12.14-.3.23-.48.17-.36.37-.75.51-1.17.47-.11.92-.23,1.36-.34.14-.04.29-.08.43-.12-.29,1.51-.51,3.24-.23,4.86.37,2.16,1.85,4.16,3.04,5.77.15.21.3.41.44.61.21.29.42.57.64.85.86,1.14,1.68,2.21,1.92,3.43.18.92.02,2.17-.5,3.82-1.52,4.81.43,8.08,2.55,10.64,1.1,1.33,1.86,2.81,2.28,4.4.17.66.2,1.38.22,2.15.03.89.06,1.82.32,2.79.17.65.76,1.09,1.41,1.09.12,0,.25-.02.37-.05.78-.2,1.24-1,1.04-1.78-.17-.66-.2-1.38-.22-2.15-.03-.89-.06-1.81-.32-2.78-.52-2-1.48-3.86-2.85-5.52-2.38-2.88-2.93-5.03-2.02-7.91.43-1.35.95-3.37.58-5.25-.37-1.89-1.48-3.35-2.46-4.64-.2-.27-.41-.53-.6-.8-.15-.2-.3-.41-.46-.63-1.06-1.43-2.26-3.06-2.52-4.54-.29-1.68.2-3.81.55-5.38.02-.08.03-.16.03-.25.56-.28,1.09-.58,1.59-.89-.04,1.2.02,2.42.33,3.57.75,2.8,3.07,4.82,4.9,6.03,1.57,1.03,4.01,3.34,2.75,7.12-1.28,3.84-1.02,6.88.81,9.29.1.13.19.25.29.38.63.82,1.23,1.59,1.35,2.42.05.31-.03.7-.11,1.14-.1.5-.2,1.07-.17,1.71.04.78.68,1.38,1.45,1.38.03,0,.05,0,.08,0,.8-.04,1.42-.73,1.38-1.53-.01-.28.05-.62.12-1.01.12-.61.25-1.31.13-2.11Z"/><path class="e" d="m31.93,83.21c-.22-1.53-1.1-2.66-1.87-3.66-.09-.12-.18-.23-.27-.35-1.18-1.56-1.29-3.59-.36-6.4,1.31-3.93-.1-7.72-3.78-10.15-1.11-.73-3.05-2.25-3.57-4.21-.38-1.42-.22-3.18-.07-4.89,0-.04,0-.08.01-.12.57-.53.99-.99,1.23-1.3.9-1.15-1.79-1.28-3.2-3.07s-.49-16.1-12.66-13.41c-12.17,2.69-4.7,15.46-5.08,17.38s-2.31,3.97-2.31,3.97c.62,1.49,2.1,2.15,3.98,2.33.89,2.2.12,4.51-.76,7.14-.1.31-.21.63-.31.94-.53,1.64-1,3.83.14,6.17.81,1.66,2.06,2.67,3.28,3.65.39.31.76.61,1.11.93,1.28,1.15,1.35,1.94,1.26,2.57-.1.64-.48,1.29-.89,1.99-.32.56-.66,1.13-.91,1.78-1.7,4.42,2.34,7.68,5.15,9.64-.02.37.1.75.38,1.05.28.3.65.45,1.03.45.35,0,.69-.13.96-.38.46-.43.72-.98.74-1.59.02-.49-.21-.95-.62-1.23l-.09-.06c-3.17-2.15-5.93-4.29-4.93-6.86.17-.44.43-.89.72-1.37.5-.85,1.06-1.81,1.24-2.98.29-1.87-.42-3.53-2.16-5.1-.41-.37-.83-.7-1.23-1.03-1.06-.85-1.98-1.59-2.51-2.69-.57-1.17-.57-2.31,0-4.08.1-.31.2-.61.3-.92.84-2.51,1.76-5.27,1.04-8.07.76-.07,1.54-.19,2.33-.33-.45,1.13-.9,2.3-.97,3.72-.12,2.48.53,5.07,1.89,7.49.29.52.63,1.02.95,1.5.71,1.06,1.37,2.07,1.52,3.15.08.64-.13,1.34-.37,2.16-.21.73-.46,1.55-.5,2.43-.09,1.85.04,4.27,1.84,6.54.45.57.89,1.04,1.31,1.5.87.93,1.56,1.67,1.99,2.9.58,1.64.51,2.95.19,4.65-.37,1.97.07,6.06,2.79,7.05.16.06.32.08.48.08.58,0,1.12-.36,1.32-.93.26-.73-.11-1.54-.85-1.8-.77-.28-1.24-2.51-.98-3.88.39-2.06.48-3.89-.3-6.11-.63-1.78-1.62-2.85-2.59-3.88-.39-.41-.78-.84-1.16-1.32-.97-1.23-1.33-2.59-1.24-4.67.03-.54.2-1.13.39-1.76.29-.98.62-2.09.46-3.32-.23-1.73-1.15-3.12-1.96-4.34-.3-.46-.59-.89-.84-1.33-1.1-1.96-1.63-4.02-1.53-5.97.05-1.02.42-1.93.85-2.99.05-.12.13-.29.22-.47.17-.34.36-.73.49-1.13.45-.11.89-.22,1.31-.33.14-.04.28-.07.41-.11-.29,1.47-.49,3.14-.22,4.71.36,2.09,1.8,4.03,2.95,5.59.15.2.29.4.43.59.2.28.41.55.62.83.84,1.1,1.63,2.14,1.86,3.33.18.9.02,2.1-.49,3.7-1.47,4.66.42,7.83,2.47,10.3,1.06,1.29,1.8,2.72,2.21,4.26.17.64.19,1.34.22,2.08.03.87.06,1.76.31,2.7.17.63.74,1.05,1.36,1.05.12,0,.24-.02.36-.05.75-.2,1.2-.97,1.01-1.72-.17-.64-.19-1.34-.22-2.08-.03-.86-.06-1.75-.31-2.69-.5-1.94-1.43-3.74-2.76-5.35-2.31-2.79-2.84-4.87-1.95-7.66.41-1.31.92-3.26.57-5.09-.36-1.83-1.43-3.24-2.38-4.49-.2-.26-.39-.52-.58-.78-.14-.2-.29-.4-.45-.61-1.03-1.39-2.19-2.96-2.44-4.4-.28-1.62.19-3.7.54-5.21.02-.08.03-.16.03-.24.55-.27,1.06-.56,1.54-.86-.04,1.16.02,2.34.32,3.46.72,2.72,2.98,4.67,4.74,5.84,1.52,1,3.89,3.23,2.66,6.9-1.24,3.72-.99,6.66.78,9,.09.12.19.25.28.37.61.79,1.19,1.54,1.31,2.34.04.3-.03.68-.11,1.11-.09.49-.2,1.04-.17,1.66.04.75.66,1.34,1.41,1.34.02,0,.05,0,.07,0,.78-.04,1.37-.7,1.33-1.48-.01-.28.05-.6.12-.98.11-.6.24-1.27.13-2.04Z"/><path class="e" d="m86.96,76.83c-.2-1.37-.98-2.38-1.67-3.27-.08-.1-.16-.21-.24-.31-1.06-1.39-1.16-3.21-.32-5.73,1.18-3.51-.09-6.91-3.39-9.08-.99-.65-2.73-2.01-3.2-3.77-.34-1.27-.2-2.85-.06-4.37,0-.04,0-.07,0-.1.51-.48.89-.89,1.1-1.16.8-1.03-1.61-1.15-2.87-2.75-1.26-1.61-.44-14.41-11.33-12s-4.2,13.84-4.55,15.56c-.34,1.72-2.06,3.56-2.06,3.56.55,1.33,1.88,1.92,3.56,2.08.8,1.97.1,4.04-.68,6.39-.09.28-.19.56-.28.85-.48,1.47-.89,3.43.12,5.53.72,1.49,1.85,2.39,2.93,3.27.35.28.68.55,1,.83,1.14,1.03,1.21,1.74,1.12,2.3-.09.57-.43,1.16-.79,1.78-.29.5-.59,1.01-.82,1.6-1.53,3.96,2.09,6.88,4.61,8.63-.02.33.09.67.34.94.25.27.58.4.92.4.31,0,.62-.11.86-.34.41-.38.64-.88.66-1.42.02-.44-.19-.85-.55-1.1l-.08-.05c-2.84-1.92-5.31-3.84-4.42-6.15.15-.39.39-.8.64-1.23.44-.76.95-1.62,1.11-2.67.26-1.67-.38-3.16-1.93-4.56-.37-.33-.74-.63-1.1-.92-.95-.77-1.77-1.43-2.25-2.41-.51-1.05-.51-2.07,0-3.65.09-.27.18-.55.27-.82.75-2.24,1.57-4.72.93-7.23.68-.07,1.38-.17,2.08-.29-.41,1.01-.81,2.06-.87,3.33-.11,2.22.47,4.54,1.69,6.71.26.47.56.91.85,1.35.63.95,1.23,1.85,1.36,2.82.07.57-.11,1.2-.33,1.93-.19.65-.41,1.39-.45,2.18-.08,1.66.04,3.82,1.65,5.86.4.51.8.93,1.18,1.34.78.83,1.39,1.49,1.78,2.6.52,1.47.45,2.64.17,4.17-.33,1.76.06,5.43,2.5,6.31.14.05.29.08.43.08.52,0,1-.32,1.19-.83.24-.66-.1-1.38-.76-1.62-.69-.25-1.11-2.25-.88-3.47.35-1.84.43-3.48-.27-5.47-.56-1.6-1.45-2.55-2.31-3.48-.35-.37-.7-.75-1.04-1.18-.87-1.11-1.19-2.32-1.11-4.18.02-.48.18-1.02.35-1.58.26-.88.55-1.87.41-2.98-.2-1.55-1.03-2.79-1.76-3.89-.27-.41-.53-.8-.75-1.19-.99-1.75-1.46-3.6-1.37-5.35.05-.91.38-1.73.76-2.68.04-.11.12-.26.2-.42.15-.31.32-.65.44-1.01.4-.1.8-.2,1.18-.29.12-.03.25-.07.37-.1-.26,1.31-.44,2.81-.2,4.21.32,1.87,1.61,3.61,2.64,5,.13.18.26.35.39.53.18.25.37.49.56.74.75.99,1.46,1.92,1.67,2.98.16.8.01,1.88-.44,3.31-1.32,4.17.38,7.01,2.21,9.23.95,1.15,1.62,2.44,1.97,3.82.15.57.17,1.2.19,1.86.03.77.05,1.58.28,2.42.15.57.66.94,1.22.94.11,0,.21-.01.32-.04.67-.18,1.08-.87.9-1.54-.15-.57-.17-1.2-.19-1.87-.03-.77-.05-1.57-.27-2.41-.45-1.74-1.28-3.35-2.47-4.79-2.06-2.5-2.54-4.36-1.75-6.86.37-1.17.83-2.92.51-4.56-.32-1.64-1.28-2.9-2.13-4.02-.18-.23-.35-.46-.52-.7-.13-.18-.26-.36-.4-.54-.92-1.24-1.96-2.65-2.18-3.93-.25-1.45.17-3.31.48-4.66.02-.07.02-.14.03-.21.49-.24.95-.5,1.38-.77-.03,1.04.02,2.1.29,3.09.65,2.43,2.67,4.18,4.25,5.23,1.36.9,3.48,2.89,2.38,6.18-1.11,3.33-.88,5.97.7,8.05.08.11.17.22.25.33.55.71,1.07,1.38,1.17,2.1.04.27-.02.61-.1.99-.08.44-.18.93-.15,1.48.04.67.59,1.2,1.26,1.2.02,0,.04,0,.07,0,.7-.04,1.23-.63,1.19-1.33-.01-.25.04-.54.11-.88.1-.53.22-1.14.12-1.83Z"/></g></g></g></svg>