<?xml version="1.0" encoding="UTF-8"?><svg xmlns="http://www.w3.org/2000/svg" xmlns:xlink="http://www.w3.org/1999/xlink" viewBox="0 0 750 500"><defs><style>.aa{fill:url(#v);}.aa,.ab,.ac,.ad,.ae,.af,.ag,.ah,.ai,.aj,.ak,.al,.am,.an,.ao,.ap,.aq,.ar,.as,.at,.au,.av,.aw,.ax,.ay,.az,.ba,.bb,.bc,.bd,.be,.bf,.bg,.bh,.bi,.bj,.bk,.bl{stroke-width:0px;}.ab{fill:url(#o);}.ab,.af,.ah,.ao,.ar,.aw,.ay,.bb,.bi,.bk{mix-blend-mode:screen;}.ab,.ag,.an,.at,.ba{opacity:.3;}.ac{fill:#4971aa;}.ad{fill:#aa497d;}.bm{stroke:#62883f;stroke-linecap:round;stroke-linejoin:round;stroke-width:.79px;}.bm,.aq{fill:none;}.ae{fill:url(#y);}.af{fill:url(#f);}.ag{fill:url(#u);}.ag,.am,.an,.at,.ba,.bd,.be,.bn{mix-blend-mode:multiply;}.ah{fill:#61b6e5;}.ah,.ao,.aw,.bd{opacity:.5;}.ai{fill:url(#i);}.bo{isolation:isolate;}.aj{fill:url(#l);}.ak{fill:#3a2f53;}.al{fill:#60dce8;}.am,.bg{fill:#5fdae6;}.an{fill:url(#s);}.ao,.au{fill:#5d91a3;}.ap{fill:url(#t);}.ar{fill:url(#e);}.as{fill:url(#n);}.at,.az{fill:#e261a5;}.av{fill:url(#j);}.aw{fill:#e561c4;}.ax{fill:#6196e2;}.bp{clip-path:url(#q);}.ay{fill:url(#p);}.ba{fill:url(#w);}.bb{fill:url(#z);opacity:.2;}.bc{fill:url(#m);}.bd,.be,.bl{fill:#efeed9;}.be{opacity:.6;}.bf{fill:url(#r);}.bh{fill:url(#k);}.bi{fill:url(#g);}.bj{fill:url(#x);}.bk{fill:url(#d);}</style><linearGradient id="d" x1="375" y1="236.64" x2="375" y2="81.76" gradientUnits="userSpaceOnUse"><stop offset="0" stop-color="#000"/><stop offset="1" stop-color="#60dce8"/></linearGradient><linearGradient id="e" y1="148.69" y2="-36.01" xlink:href="#d"/><linearGradient id="f" y1="456.52" y2="85.15" xlink:href="#d"/><linearGradient id="g" y1="460.08" y2="119.12" xlink:href="#d"/><linearGradient id="i" x1="600.84" y1="346.17" x2="615.09" y2="444.92" gradientUnits="userSpaceOnUse"><stop offset="0" stop-color="#83b554"/><stop offset="1" stop-color="#52b554"/></linearGradient><linearGradient id="j" x1="634.21" y1="325.33" x2="633.96" y2="444.58" xlink:href="#i"/><linearGradient id="k" x1="675.52" y1="342.15" x2="652.77" y2="433.4" xlink:href="#i"/><linearGradient id="l" x1="180.62" y1="290.93" x2="180.62" y2="429.89" gradientUnits="userSpaceOnUse"><stop offset="0" stop-color="#e56197"/><stop offset=".99" stop-color="#d13797"/></linearGradient><linearGradient id="m" x1="477.17" y1="372.22" x2="471.5" y2="453.89" gradientUnits="userSpaceOnUse"><stop offset="0" stop-color="#975da5"/><stop offset="1" stop-color="#745da5"/></linearGradient><linearGradient id="n" x1="68.84" y1="246.66" x2="-9.85" y2="417.97" xlink:href="#i"/><linearGradient id="o" x1="31.2" y1="267.71" x2="20.8" y2="417.6" xlink:href="#i"/><linearGradient id="p" y1="326.59" x2="375" y2="-251.45" xlink:href="#d"/><clipPath id="q"><rect class="aq" width="750" height="500"/></clipPath><linearGradient id="r" x1="136.53" y1="449.51" x2="-14.09" y2="506.2" xlink:href="#m"/><linearGradient id="s" x1="136.21" y1="448.66" x2="-14.4" y2="505.35" xlink:href="#m"/><linearGradient id="t" x1="88.48" y1="327.48" x2="-19.9" y2="510.89" xlink:href="#m"/><linearGradient id="u" x1="87.64" y1="327.82" x2="-20.34" y2="510.55" xlink:href="#m"/><linearGradient id="v" x1="113.66" y1="396.53" x2="-1.94" y2="493.24" xlink:href="#m"/><linearGradient id="w" x1="110.55" y1="392.64" x2="-4.11" y2="488.56" xlink:href="#m"/><linearGradient id="x" x1="36.32" y1="337.13" x2="-18.15" y2="517.76" xlink:href="#m"/><linearGradient id="y" x1="698.44" y1="346.11" x2="698.44" y2="524.98" xlink:href="#m"/><linearGradient id="z" x1="699.12" y1="366.66" x2="699.12" y2="523.05" xlink:href="#m"/></defs><g class="bo"><g id="b"><g id="c"><rect class="al" width="750" height="500"/><path class="bk" d="m750,170.71c-34.68-3.32-79.89,10.52-93,11.29-17,1-81,0-167-20s-148,26-239,38-98-51-142-78c-37.68-23.12-93.68-.05-109,7.06v64.71c24.17-19.1,65.39-46.09,96-36.77,46,14,79,76,128,94s143-33,206-56,90,22,153,34,79-11,115-33c17.61-10.76,36.89-10.99,52-8.42v-16.87Z"/><path class="ar" d="m750,156.84c-6.02-.72-12.35-1.59-19-2.64-75-11.89-141-58.23-120-69.31s97,24.61,135,19.27c1.35-.19,2.68-.41,4-.64v-47.31c-8.57,1.25-19.54,1.31-34-1.26-60-10.66-47-26.66-21-32.4,17.64-3.89,26.51-14.01,21.36-22.56h-20.98c-1.46,3.56-7.43,7.2-23.38,9.84-52,8.61-86,20.5-98,9.43-6.8-6.28-12.32-13.87-15.82-19.27h-19.58c3.76,5.86,4.62,16.06-33.6,17.22-54,1.64-154-12.3-220,1.64s-94,33.63-163,20.91C57,27.8,41.69,15.83,0,17.57v8.62c9.06-1.54,26.78-1.69,58,7.85,51,15.58,78,37.32,137,25.02,59-12.3,101-39.37,156-34.04,55,5.33,96,38.96,46,47.57-50,8.61-128,41.42-193,22.97s-107-28.71-147-19.27c-32.25,7.6-38.5,21.07-57,22.57v4.89c7.37-.6,17.53-1.98,31-4.9,34-7.38,64-27.07,107-6.15,43,20.91,77,56.59,154,49.62,77-6.97,165-44.29,237-29.53,56.56,11.6,120.53,53.31,221,57.54v-13.48Z"/><path class="af" d="m750,255.46c-21.81-18.73-48.47-34.46-93-34.46-110,0-135,83-286,83s-119-84-230-132c-65.71-28.41-113.19-9.52-141,10.63v317.37h750v-244.54Z"/><path class="bi" d="m750,374.84c-111.63-28.35-98.42-189.24-217.42-189.24-130.49,0-154.49,155.99-250.49,155.99s-104.99-76.5-197.99-112.49c-33.47-12.95-61.69-8.81-84.1,1.79v269.11h750v-125.16Z"/></g><g id="h"><g class="bn"><path class="bg" d="m748.64,207c.08.03.16.05.25.08.33-.03.67-.05,1.02-.08h-1.27Z"/><path class="bg" d="m750,206.99s-.06,0-.09,0h.09Z"/><path class="bg" d="m750,207.43c-.37-.11-.74-.23-1.11-.35-.48.04-.94.07-1.37.1-2.53,6.6-12.27,7.49-16.59,12.77-3.6,4.39-6.34,14.98-1.15,19.05-7.16,5.7-14.12-4.9-18.02,3.83-9.69,1.69-11.14,3.27-17.44,7.15-2.41,1.48-10.87,6.46-13.63,8.98-8.3,7.55-.03,22.19-9.38,28.1-3.69,2.33-17.51,2.81-21.74,3,.61-.03-10.55.7-9.5.17-3.13,1.57-3.2,3.36-5.43,4.77-4.1,2.6-8.2,8.01-14.89,10.02-7.07,2.13-17.3-1.76-16.52,7.81-17.09.46-3.59,8.54-3.63,14,6.74.95,9.78,5.1,7.7,10.07-12.39-2.09-6.6,5.59-10.59,10.04-3.87,4.32-11.62,5.44-18.61,7.06-4.36,1.01-11.67,3.18-15.43,3.84-4.21.74-8.52,2.08-12.92.73-6.25-1.92-7.58-9.39-16.6-11.46-1.2.92-1.75,1.28-2.98,2.05-7.49-9.15-11.61-2.57-17.7,1.75-3.63,2.57-1.93,3.05-7.71,6.08-4.49,2.35-10.9.89-14.44,4.78-6.36,6.97,4.42,7.43-9.07,14-7.18,3.5-23.42,3.53-23.14,11-20.01,3.27-3.82,13.75-18.72,16.4,5.69,8.46,3.46,7.09-5.75,12.93-4.08,2.59-8.11,3.91-11.67,7.74-2.05,2.2,3.07,4.22.11,6.56-5.08,4.02-44.6,5.46-27.75,14.31-10.99,5.74-16.69,6.76-16.64,15.27-.02-3.09,5.09,11.06,3.01,8.49,3.37,4.17,5.33,4.97,10.82,7.45,29.52,13.37,70.04,7.37,101.89,3.83,46.29-5.15,92.26-11.42,138.28-6.91,17.74,1.74,36.18,1.16,54.01,1.13,20.06-.03,43.12,2.78,64.31,2.03V207.43Z"/></g><path class="am" d="m48.79,262.26c-.47.87-1.26,1.64-2.36,2.26,1.54-.74,2.22-1.5,2.36-2.26Zm130.41,121.08c-.05-1.99,5-3.82,4.11-6.62-13,3.11-23.1-8.51-12.25-14.13-5.05-1.55-4.6-1.65-6.24-4.16-14.24.94-8.86-3.55-16.35-6.85-8.12-3.58-17.03.66-26.41-.16,1.53-8.74-20.14-11.16-19.67-19.15.13-2.17,7.46-3.06,5.88-7.15-1.56-4.03-5.93-5.37-13.26-4.53.56-1.34-.93-3.31-.38-4.65-15.72.27-16.62-2.9-19.51-10.34-4.19-10.8-6.48-7.96-23.21-7.58,3.84-8.48-19.56-4.67-16.01-12.17,3.45-.12,12-4.85,12.19-6.92.42-4.42-6.77-5.93-5.31-10.94.36-1.22,1.45-2.12,2.64-2.98-.9.39-1.93.71-3.12.95,1.33-.35,2.4-.71,3.28-1.06,1.25-.89,2.56-1.77,3.25-2.93.04-2.3-4.32-4.76-4.58-7.72-.27-3.11,4-4.13,3.84-6.85-.16-2.8-4.12-4.57-5.46-6.87-1.01-1.72-.7-4.72-1.97-6.54-1.78-2.56-4.95-3.55-7.15-5.87-6.55-6.92-2.72-5.95-17.3-6.14-.16-3.83,4.16-9.27-4.9-10.97-.16-3.07,5.18-6.35,7.22-9.15,1.06-1.46,3.7-6.63,3.69-8.9,0-2.37-5.33-7.95-7.4-9.23-3.01-1.87-14.81-.03-7.57-5.35-2.48-.73-4.79-1.92-7.24-2.76v261.57c11.54-2.42,22.56-5.93,34.64-7.52,38.66-5.09,88.41,11.98,122.27-6.55,7.09-3.88,6.41-8.78,11.85-12.63,4.8-3.39,11.23-2.99,13.55-7.26,1.68-3.09-2.37-5.92-2.38-8.44-.01-2.39,3.45-4.19,3.45-6.39,0-1.21-4.13-3.23-4.18-5.08Zm-129.91-122.77c-.05.52-.22.98-.48,1.41,0,.1-.01.19-.03.28.28-.53.46-1.09.5-1.69Zm-3.88,4.45c.36-.16.7-.32,1.02-.49-.26.13-.54.25-.86.38-.05.04-.11.08-.16.12ZM0,168.84v.13c.41-.32.8-.64,1.23-.97l-1.23.84Z"/><path class="ax" d="m58.28,392.67s-10.68-47.24-13.97-65.31c-3.29-18.07,25.06-16.02,25.06-4.93,0,10.27-2.05,71.88-2.05,71.88l-9.04-1.64Z"/><path class="ah" d="m61.14,326.12c-3.53-1.07-6.83-2.26-10.58-2.02-2.21.15-4.35.44-6.49.86.02.76.08,1.54.24,2.39.15.82.31,1.69.49,2.62.73-.06,1.44-.11,2.12-.15,7.51-.36,12.89,4.91,19.84,6.73.81.21,1.57.34,2.31.41.08-3.2.15-6.09.21-8.5-2.47-.23-6.01-1.7-8.14-2.35Zm-6.93,48.3c.39,1.77.77,3.46,1.12,5.05,3.57.1,6.78.88,10.18,2.27.77.31,1.49.65,2.19.96.07-2.22.15-4.68.23-7.3-2.91-.46-5.86-1.23-8.72-1.25-1.57,0-3.28.06-5,.27Zm2.19-30.32c-3.27-1.16-6.05-2-9.17-2.07.23,1.1.46,2.22.7,3.36,1.39.16,2.75.51,4.13,1.13,2.41,1.09,4.6,2.76,7.07,3.69,3.32,1.25,6.15,1.17,9.56.58.07-2.27.13-4.51.19-6.67-.57.16-1.15.32-1.72.47-3.77.95-7.12.8-10.76-.49Zm4.14,15.63c-3.1-.27-6.34-.24-9.5.22.32,1.46.63,2.91.95,4.34.15-.01.3-.04.45-.05,5.59-.4,10.44,3.28,15.73,3.79.08-2.43.15-4.93.23-7.45-2.6.1-5.18-.63-7.85-.86Z"/><ellipse class="ac" cx="56.91" cy="319.82" rx="8.08" ry="3.7"/><path class="ax" d="m73.55,396.52s2.24-66.75,3.43-75.65,18.85-7.33,23.64-.15c4.79,7.18-21.55,76.65-21.55,76.65l-5.52-.85Z"/><path class="ac" d="m97.68,322.68c-.41,2-4.29,2.9-8.66,2-4.37-.9-7.58-3.24-7.17-5.24.41-2,4.29-2.9,8.66-2s7.58,3.24,7.17,5.24Z"/><path class="ah" d="m75.11,355.09c-.1,2.34-.19,4.69-.29,7.03,1.86.73,3.88.95,6.28.87,3.69-.13,6.99-1.67,10.63-1.97.05,0,.11,0,.16-.01.82-2.5,1.62-5.01,2.39-7.49-5.12.1-9.66,2.56-14.78,2.65-1.66.03-3.07-.44-4.4-1.07Zm26.05-32.45c-4.1.88-7.97,2.79-12.03,3.9-3.25.89-6.5.9-9.27-1.07-1.04-.74-2.07-1.48-3.12-2.2-.13,1.52-.26,3.51-.4,5.85,2.94,2.2,5.53,3.56,9.7,3.53,5.05-.03,9.47-2.71,14.33-3.73.11-.02.21-.04.32-.07.42-2.59.6-4.71.46-6.22Zm-14.67,16.31c-2.95,1.1-5.71,2.12-8.93,1.59-.63-.1-1.22-.29-1.78-.52-.1,2.1-.2,4.29-.3,6.55,4.16,1.31,8.48.38,12.71-1.09,2.99-1.04,6.25-2.71,9.24-2.61.67-2.43,1.28-4.76,1.81-6.94-4.55-.36-8.41,1.4-12.74,3.02Zm-12.07,33.46c-.12,3.22-.24,6.28-.34,9.08.31.27.64.52.99.73,2.97,1.82,6.09,1.5,9.23.88.93-2.6,1.94-5.46,2.98-8.47-2.16.55-4.39,1.4-6.46,1.38-2.25-.02-4.31-1.86-6.42-3.61Zm-.5,13.54c-.07,2.07-.14,3.9-.19,5.44,2.37.48,4.63,1.3,6.65,2.51.58-1.56,1.32-3.58,2.19-5.96-1.83-.85-3.72-1.5-5.69-1.74-.93-.12-1.92-.2-2.95-.24Z"/><path class="ax" d="m87.98,397.66s10.54-41.04,15.46-58.5c4.92-17.45,22.84-6.2,24.19,1.53,1.95,11.19-34.01,59.69-34.01,59.69l-5.63-2.73Z"/><path class="ac" d="m124.85,340.54c-.89,1.84-4.87,1.74-8.88-.21s-6.54-5.02-5.65-6.86c.89-1.84,4.87-1.74,8.88.21,4.01,1.95,6.54,5.02,5.65,6.86Z"/><path class="ah" d="m96.26,382.24c-1.59.31-3.13.95-4.67,1.47-.57,2.18-1.09,4.19-1.55,5.97,1.72-.24,3.41-.78,5.12-1.13,1.84-.37,4.89-.93,7.3-.57,1.27-1.83,2.62-3.79,4-5.85-3.28-1.1-6.89-.53-10.21.11Zm23.65-39.43c-2.51.07-4.96.31-7.43.86-3.04.68-5.48,1.06-7.55-1.86-.56-.79-1.1-1.51-1.64-2.14-.51,1.82-1.08,3.88-1.69,6.11.89,1.6,1.96,2.64,3.92,3.29,4.73,1.55,9.29-.52,14.04-.51,2.08,0,4.23-.16,6.11.71.87-2.11,1.49-4,1.8-5.59-2.35-.8-4.93-.93-7.57-.85Zm-21.61,26.27c-1.08.27-2.16.83-3.25,1.33-.72,2.75-1.42,5.44-2.09,8,1.01-.11,2.01-.32,2.95-.65,2.01-.71,3.56-1.89,5.74-2.04,2.13-.14,4.74-.16,6.76.46.51.16,1.05.37,1.6.61,1.15-1.76,2.31-3.55,3.44-5.35-2.77-1.52-5.9-2.43-8.89-2.6-2.1-.12-4.21-.28-6.27.23Zm6.05-13.73c-.72.17-2.22.78-2.98.63-.97-.18-1.61-.83-2.08-1.62-.71,2.64-1.43,5.38-2.16,8.13,4.11,2.13,9.14-.54,13.41-.22,2.92.22,4.57,2.09,5.91,4.34,1.53-2.52,2.98-5.01,4.31-7.41-2.33-2.58-5.18-4.28-8.96-4.57-2.57-.2-4.97.13-7.45.73Z"/><path class="am" d="m407.88,440.8c-7.09-2.69-13.29-10.27-18.58-20.02.02-.08.04-.16.05-.25,5.63-3.38,7.75-10.36,9.47-16.07.19-.63.38-1.26.57-1.86.33-1.05-.26-2.18-1.31-2.5-1.05-.33-2.18.26-2.5,1.31-.19.62-.38,1.25-.58,1.9-.84,2.78-1.73,5.73-3.02,8.29.92-3.67,1.19-7.53,1.34-11.27.04-1.1-.81-2.04-1.92-2.08-1.1-.05-2.04.81-2.08,1.92-.19,4.62-.54,9.4-2.23,13.54-.93-4.2-.85-8.94.31-14.2.24-1.08-.44-2.15-1.52-2.38-1.08-.24-2.15.44-2.38,1.52-.56,2.56-.9,5.02-1.01,7.37-2-5.01-3.81-10.2-5.44-15.33.16-.2.29-.41.36-.67.01-.05.03-.09.05-.14,7.77-4.55,13.58-9.55,19.29-16.6.7-.86.56-2.12-.3-2.81-.86-.7-2.12-.56-2.81.29-.47.59-.95,1.14-1.43,1.69.29-.49.56-.97.81-1.46.5-.98.11-2.19-.88-2.69-.98-.5-2.19-.11-2.69.88-1.5,2.96-4.07,6.16-6.84,9.02,1.23-3.08,2.05-6.4,1.69-10.31-.1-1.1-1.07-1.91-2.18-1.81-1.1.1-1.91,1.08-1.81,2.18.35,3.78-.71,6.99-2.15,10.16.22-2.67.06-5.32-.56-7.7-.28-1.07-1.37-1.71-2.44-1.43-1.07.28-1.71,1.37-1.43,2.44.67,2.58.7,5.56.2,8.47-2.57-9.22-4.48-17.61-5.73-23.57.2-.12.41-.26.61-.38,6.17-3.77,12-7.33,13.12-16.42.13-1.1-.65-2.09-1.74-2.23-1.1-.13-2.09.65-2.23,1.74-.45,3.65-1.79,6.13-3.79,8.17.83-2.15,1.36-4.53,1.56-7.15.09-1.1-.74-2.06-1.84-2.15-1.1-.08-2.06.74-2.15,1.84-.27,3.46-1.34,7.9-4.63,11.19-.07-.35-.13-.68-.19-.98-.11-4.95.58-9.02,2.11-12.32.46-1,.02-2.19-.98-2.65-1-.46-2.19-.02-2.65.98-1.36,2.96-2.14,6.38-2.38,10.32-.14.15-.26.32-.34.5-1.09-2.82-1.63-5.65-1.53-8.35.04-1.1-.82-2.03-1.92-2.08-1.09-.08-2.03.82-2.08,1.92-.17,4.34,1,8.92,3.32,13.29-1.24-.75-2.19-1.72-3.01-3.49-.76-1.66-1.05-3.24-1.39-5.07-.08-.43-.16-.87-.25-1.31-.21-1.08-1.26-1.79-2.35-1.58-1.08.21-1.79,1.26-1.58,2.35.08.43.16.85.24,1.26.37,2.01.71,3.91,1.69,6.02,2.08,4.51,5.13,5.72,8.36,7.01.7.28,1.43.58,2.18.91.71,3.4,1.62,7.51,2.73,12.09-.6.34-1.02.99-1.02,1.73,0,.36.02.79.07,1.27-.1,0-.21-.01-.32,0-1.1.11-1.9,1.09-1.8,2.19.37,3.82,2,7.12,3.91,10.1-3.16-2.29-5.8-5.78-7.17-9.18-.41-1.02-1.58-1.52-2.6-1.11-1.02.41-1.52,1.58-1.11,2.6,1.1,2.74,2.92,5.55,5.19,7.95-1.11-.26-2.22-.63-3.34-1.14-1.01-.46-2.19-.02-2.65.99s-.02,2.19.99,2.65c3.51,1.6,6.85,2.05,10.19,2.05.23,0,.46,0,.7-.01,1.6.83,3.29,1.42,5.02,1.67.92,2.89,1.91,5.81,2.95,8.71-.13,0-.27,0-.4.02-1.09.17-1.84,1.18-1.68,2.28.87,5.76,3.29,9.76,6.37,13.58-2.88-1.04-5.4-2.48-7.52-4.32-.32-.28-.69-.7-1.08-1.14-.71-.81-1.44-1.64-2.35-2.17-.96-.56-2.18-.23-2.74.72-.56.95-.23,2.18.72,2.74.35.21.89.82,1.36,1.36.46.52.93,1.06,1.46,1.52,2.32,2.02,5.03,3.63,8.1,4.82-3.24.35-6.3.13-9.36-1.54-.27-.15-.81-.52-1.32-.87-2.2-1.52-3.5-2.36-4.84-2.01-1.07.28-1.71,1.37-1.43,2.44.23.87,1,1.46,1.86,1.5.49.22,1.55.96,2.15,1.37.65.45,1.22.84,1.67,1.09,2.96,1.62,5.9,2.17,8.81,2.17,3.17,0,6.3-.65,9.37-1.3l.23-.05c.11-.02.21-.06.31-.1,5.77,10.55,12.64,18.88,20.65,21.92.23.09.47.13.71.13.81,0,1.57-.49,1.87-1.29.39-1.03-.13-2.19-1.16-2.58Z"/><path class="az" d="m585.83,441.2s10.68-47.24,13.97-65.31c3.29-18.07-25.06-16.02-25.06-4.93,0,10.27,2.05,71.88,2.05,71.88l9.04-1.64Z"/><path class="aw" d="m574.83,377c.05,2.41.12,5.3.21,8.5.74-.07,1.5-.2,2.31-.41,6.95-1.82,12.33-7.09,19.84-6.73.68.03,1.4.08,2.12.15.18-.93.34-1.81.49-2.62.15-.84.22-1.63.24-2.39-2.13-.41-4.28-.71-6.49-.86-3.75-.25-7.04.94-10.58,2.01-2.13.65-5.67,2.12-8.14,2.35Zm10.07,45.68c-2.86.01-5.81.79-8.72,1.25.08,2.62.16,5.07.23,7.3.7-.31,1.42-.64,2.19-.96,3.4-1.39,6.61-2.17,10.18-2.27.35-1.59.73-3.28,1.12-5.05-1.72-.21-3.43-.27-5-.27Zm-7.95-29.56c-.58-.15-1.15-.3-1.72-.47.06,2.16.13,4.4.19,6.67,3.41.59,6.24.67,9.56-.58,2.47-.93,4.67-2.6,7.07-3.69,1.38-.62,2.73-.98,4.13-1.13.24-1.14.47-2.26.7-3.36-3.12.07-5.9.92-9.17,2.07-3.64,1.29-6.98,1.44-10.76.49Zm-1.24,16c.08,2.52.15,5.02.23,7.45,5.29-.51,10.14-4.19,15.73-3.79.15.01.3.04.45.05.31-1.43.63-2.89.95-4.34-3.16-.46-6.4-.5-9.5-.22-2.68.24-5.25.96-7.85.86Z"/><ellipse class="ad" cx="587.2" cy="368.36" rx="8.08" ry="3.7"/><path class="az" d="m570.55,445.06s-2.24-66.75-3.43-75.65-18.85-7.33-23.64-.15c-4.79,7.18,21.55,76.65,21.55,76.65l5.52-.85Z"/><path class="ad" d="m546.43,371.21c.41,2,4.29,2.9,8.66,2,4.37-.9,7.58-3.24,7.17-5.24-.41-2-4.29-2.9-8.66-2-4.37.9-7.58,3.24-7.17,5.24Z"/><path class="aw" d="m564.61,404.69c-5.12-.09-9.66-2.55-14.78-2.65.77,2.48,1.57,4.99,2.39,7.49.05,0,.11,0,.16.01,3.64.3,6.94,1.84,10.63,1.97,2.4.08,4.41-.13,6.28-.87-.09-2.34-.19-4.69-.29-7.03-1.33.63-2.74,1.1-4.4,1.07Zm-21.2-27.3c.11.02.21.04.32.07,4.86,1.02,9.28,3.7,14.33,3.73,4.18.03,6.76-1.33,9.7-3.53-.14-2.34-.27-4.33-.4-5.85-1.05.72-2.08,1.46-3.12,2.2-2.77,1.97-6.01,1.95-9.27,1.07-4.06-1.11-7.92-3.02-12.03-3.9-.14,1.5.04,3.63.46,6.22Zm1.47,7.08c.52,2.18,1.13,4.51,1.81,6.94,2.99-.1,6.26,1.57,9.24,2.61,4.23,1.47,8.55,2.39,12.71,1.09-.1-2.25-.2-4.45-.3-6.55-.56.24-1.15.42-1.78.52-3.22.53-5.99-.49-8.93-1.59-4.34-1.62-8.19-3.38-12.74-3.02Zm18.4,40.08c-2.06.02-4.3-.83-6.46-1.38,1.05,3.01,2.05,5.86,2.98,8.47,3.14.62,6.26.95,9.23-.88.36-.22.68-.47.99-.73-.1-2.8-.22-5.86-.34-9.08-2.11,1.74-4.17,3.59-6.42,3.61Zm3.97,10.18c-1.97.25-3.87.89-5.69,1.74.86,2.38,1.61,4.4,2.19,5.96,2.02-1.21,4.28-2.03,6.65-2.51-.05-1.54-.12-3.37-.19-5.44-1.03.04-2.02.13-2.95.24Z"/><path class="az" d="m556.13,446.19s-10.54-41.04-15.46-58.5c-4.92-17.45-22.84-6.2-24.19,1.53-1.95,11.19,34.01,59.69,34.01,59.69l5.63-2.73Z"/><path class="ad" d="m519.26,389.07c.89,1.84,4.87,1.74,8.88-.21,4.01-1.95,6.54-5.02,5.65-6.86-.89-1.84-4.87-1.74-8.88.21-4.01,1.95-6.54,5.02-5.65,6.86Z"/><path class="aw" d="m537.64,430.65c1.39,2.06,2.73,4.02,4,5.85,2.41-.36,5.46.2,7.3.57,1.71.35,3.4.89,5.12,1.13-.46-1.78-.98-3.79-1.55-5.97-1.55-.52-3.08-1.16-4.67-1.47-3.32-.65-6.93-1.21-10.21-.11Zm-21.01-38.47c.31,1.59.93,3.48,1.8,5.59,1.88-.87,4.03-.7,6.11-.71,4.76,0,9.31,2.06,14.04.51,1.96-.64,3.03-1.69,3.92-3.29-.61-2.23-1.17-4.28-1.69-6.1-.54.64-1.07,1.35-1.64,2.14-2.08,2.92-4.51,2.53-7.55,1.86-2.46-.55-4.91-.79-7.43-.86-2.64-.08-5.22.05-7.57.85Zm22.91,25.19c-2.98.17-6.11,1.08-8.89,2.6,1.14,1.8,2.29,3.59,3.44,5.35.55-.24,1.09-.45,1.6-.61,2.02-.63,4.63-.61,6.76-.46,2.18.15,3.73,1.32,5.74,2.04.95.34,1.94.55,2.95.65-.67-2.56-1.37-5.25-2.09-8-1.09-.5-2.17-1.06-3.25-1.33-2.06-.51-4.17-.35-6.27-.23Zm-7.24-14.23c-3.78.3-6.63,2-8.96,4.57,1.33,2.4,2.79,4.89,4.31,7.41,1.35-2.25,2.99-4.12,5.91-4.34,4.27-.32,9.3,2.36,13.41.22-.73-2.76-1.45-5.49-2.16-8.13-.48.79-1.11,1.44-2.08,1.62-.76.14-2.26-.46-2.98-.63-2.49-.6-4.89-.93-7.45-.73Z"/><path class="am" d="m240.57,290.11s-.07.02-.11.03c-1.33.44-2.18,2.14-3.55,5.04-.36.77-.74,1.57-.98,1.97-3.22,5.32-8.02,7.75-13.64,9.78,3.91-4.11,6.74-8.62,8.39-13.47.28-.82.46-1.73.63-2.61.21-1.05.42-2.14.76-2.74.48-.85.18-1.93-.66-2.41-.85-.48-1.93-.18-2.41.67-.62,1.1-.89,2.47-1.15,3.81-.16.8-.3,1.55-.51,2.15-1.52,4.46-4.17,8.63-7.87,12.45.03-.39.06-.76.09-1.12,1.21-6.97,1.61-13.54-1.41-21.18-.36-.91-1.4-1.35-2.29-.99-.91.36-1.35,1.39-.99,2.29,1.94,4.91,2.31,9.31,1.95,13.83-.27.3-.45.68-.47,1.11,0,.09-.08,1.7-.29,4.49-.03.16-.05.31-.08.47-1.77-6.64-5.56-13.14-11.34-19.42-.66-.72-1.78-.76-2.5-.1-.72.66-.76,1.78-.1,2.5,5.67,6.16,9.27,12.5,10.76,18.91-5.89-3.68-10.11-9.78-13.94-15.79-.52-.82-1.62-1.07-2.44-.54-.82.52-1.07,1.62-.54,2.44,3.82,6,8.04,12.1,13.96,16.18-5.64-1.51-10.69-6.21-15.27-10.49-.66-.61-1.3-1.21-1.93-1.79-.72-.66-1.84-.61-2.5.11-.66.72-.61,1.84.11,2.5.62.57,1.26,1.17,1.91,1.77,5.8,5.42,12.94,12.08,21.58,11.94.25.58.79.98,1.43,1.05-.16,1.53-.35,3.15-.55,4.87-.29.38-.41.88-.28,1.38.03.1.05.21.07.32-.6,4.79-1.38,10.21-2.38,16.02-2.8-4.63-4.47-10.07-4.45-14.96,0-.91-.73-1.64-1.63-1.65-.91,0-1.64.73-1.65,1.63-.03,5.42,1.8,11.44,4.86,16.56-.66-.8-1.34-1.59-2-2.37-4.17-4.87-8.12-9.48-9.2-16.32-.14-.89-.98-1.51-1.88-1.36-.89.14-1.51.98-1.36,1.87,1.1,6.99,4.81,11.89,8.67,16.45-6.09-3.24-12.7-7.73-16.68-12.27-.6-.68-1.63-.75-2.31-.15-.68.6-.75,1.63-.15,2.31,3.76,4.3,9.68,8.51,15.44,11.8-6.16-2.68-11.82-6.02-17.7-10.4-.73-.54-1.75-.39-2.29.33-.54.73-.39,1.75.33,2.29,9.68,7.22,18.8,11.74,30.37,15.04-.65,3.25-1.37,6.58-2.16,9.95-.05.06-.11.12-.15.19-3.13,4.84-5.07,10.99-5.88,18.67-2.3-5.84-3.03-11.71-2.06-16.97.16-.89-.43-1.75-1.32-1.91-.89-.16-1.74.43-1.91,1.32-1.18,6.45-.09,13.66,3.06,20.69-3.13-1.84-5.25-3.44-6.49-7.6-.73-2.45-.81-4.65-.91-7.19-.02-.58-.04-1.17-.08-1.77-.05-.9-.82-1.6-1.72-1.55-.9.04-1.6.82-1.55,1.72.03.59.05,1.16.07,1.73.1,2.65.2,5.15,1.04,8,1.77,5.95,5.22,7.93,9.22,10.22.34.2.7.4,1.05.61-2.32,6.47-4.98,12.81-8.02,18.77-.44.87-.1,1.93.77,2.38.44.22.93.25,1.36.1.42-.14.8-.44,1.01-.87,3.04-5.96,5.7-12.28,8.03-18.74.18,0,.35-.02.52-.08.34-.11.64-.34.85-.66.08-.13.14-.27.19-.41.74-.32,1.49-.65,2.21-.96,8.99-3.86,16.76-7.19,19.82-18.49.24-.87-.28-1.77-1.15-2.01-.88-.24-1.77.28-2.01,1.15-1.89,6.99-5.9,10.46-11.15,13.22,2.84-3.36,4.88-7.66,6.03-12.79.2-.88-.36-1.76-1.24-1.96-.88-.2-1.76.36-1.96,1.24-1.14,5.08-3.79,11.54-9.91,15.37,3.26-10.02,5.77-20.18,7.7-29.71.01,0,.02,0,.03,0,.29-.08.57-.17.86-.26,2.53-.84,4.81-2.31,6.84-4.16,1.36-.32,2.71-.68,4.04-1.12,3.17-1.06,6.23-2.57,9.19-4.95.71-.57.82-1.6.25-2.31-.57-.71-1.6-.82-2.31-.25-2.3,1.85-4.69,3.11-7.18,4.04,3.05-4.38,5.04-9.63,5.68-14.38.12-.9-.51-1.72-1.41-1.84-.9-.12-1.72.51-1.84,1.41-.77,5.72-3.73,12.15-8.02,16.4-.41.09-.83.17-1.25.26,1.95-5.16,3.63-10.81,2.72-16.74-.14-.89-.97-1.51-1.87-1.37-.65.1-1.16.59-1.33,1.19-.05-.58-.11-1.12-.19-1.63.39-3.07.71-5.89.97-8.41l.28-.09c.43-.14.85-.28,1.28-.42,7.32-2.45,14.15-5.04,18.59-12.36.34-.55.72-1.36,1.16-2.3.47-.99,1.31-2.79,1.75-3.31.72-.38,1.11-1.22.88-2.04-.26-.94-1.24-1.49-2.18-1.23Zm-22.38,35c0-.07,0-.15,0-.22,0,.07,0,.15,0,.22Z"/><path class="am" d="m305.11,346.85s-.06-.01-.08-.01c-1.04-.15-2.18.71-4.07,2.21-.5.4-1.02.81-1.32,1-3.95,2.5-7.99,2.54-12.45,2.03,4.01-1.46,7.41-3.55,10.14-6.26.46-.46.89-1.01,1.3-1.55.49-.64,1-1.3,1.43-1.59.61-.41.77-1.24.36-1.84-.41-.61-1.24-.77-1.84-.36-.79.53-1.43,1.37-2.05,2.18-.37.48-.72.94-1.06,1.28-2.51,2.5-5.69,4.42-9.45,5.75.15-.25.29-.49.43-.72,3.15-4.29,5.61-8.57,6.13-14.73.06-.73-.49-1.38-1.21-1.44-.73-.06-1.37.48-1.44,1.21-.33,3.95-1.55,7.04-3.31,9.96-.28.11-.53.31-.68.59-.03.06-.62,1.12-1.7,2.93-.07.1-.14.19-.21.29,1.03-5.06.65-10.7-1.14-16.86-.2-.71-.94-1.11-1.65-.9-.7.2-1.11.94-.9,1.65,1.76,6.04,2.06,11.51.92,16.33-2.73-4.44-3.54-9.96-4.1-15.29-.08-.73-.73-1.26-1.46-1.18-.73.08-1.26.73-1.18,1.46.57,5.31,1.37,10.83,3.99,15.55-3.29-2.9-5.12-7.75-6.77-12.16-.24-.63-.47-1.25-.7-1.85-.26-.68-1.03-1.03-1.72-.76-.68.26-1.03,1.03-.76,1.72.23.59.46,1.21.69,1.83,2.1,5.59,4.67,12.45,10.53,15.25-.02.47.2.93.61,1.19-.62.97-1.29,2.01-2,3.09-.32.16-.57.46-.65.84-.02.08-.04.16-.06.24-2.01,3.02-4.34,6.41-6.95,9.99-.34-4.05.36-8.27,2.01-11.56.31-.61.06-1.35-.55-1.65-.61-.31-1.35-.06-1.65.55-1.83,3.64-2.61,8.3-2.26,12.77-.18-.76-.37-1.52-.56-2.26-1.18-4.68-2.3-9.09-.74-14.06.2-.65-.16-1.34-.81-1.54-.65-.2-1.34.16-1.54.81-1.59,5.07-.73,9.61.34,13.97-3.01-4.22-5.97-9.44-7.13-13.83-.17-.66-.85-1.05-1.51-.88-.66.17-1.05.85-.88,1.51,1.09,4.15,3.67,8.96,6.45,13.1-3.25-3.86-5.94-8-8.43-12.92-.31-.61-1.05-.85-1.66-.54-.61.31-.85,1.05-.54,1.66,4.1,8.1,8.73,14.18,15.41,20.27-1.52,1.97-3.12,3.97-4.78,5.98-.06.02-.11.04-.16.08-3.72,2.21-7.08,5.7-10.2,10.6.41-4.7,1.87-8.89,4.28-12.11.41-.55.3-1.32-.25-1.72-.54-.41-1.32-.3-1.72.25-2.95,3.94-4.63,9.16-4.86,14.94-1.49-2.28-2.38-4.07-1.82-7.28.33-1.89,1.01-3.4,1.79-5.14.18-.4.36-.8.54-1.21.27-.62-.01-1.35-.64-1.62-.62-.27-1.35.01-1.62.64-.18.41-.35.8-.53,1.19-.82,1.82-1.59,3.53-1.97,5.73-.8,4.59.86,7.08,2.79,9.96.17.25.33.51.5.76-3.73,3.58-7.63,6.96-11.67,9.95-.59.44-.71,1.27-.28,1.86.22.3.54.48.88.52.33.05.68-.03.97-.25,4.04-3,7.94-6.36,11.67-9.93.12.06.24.1.37.12.26.04.54-.01.79-.16.1-.06.18-.13.26-.21.61.03,1.22.06,1.81.09,7.34.41,13.68.76,19.51-5.82.45-.51.4-1.29-.1-1.74-.51-.45-1.29-.4-1.74.1-3.61,4.07-7.46,5.07-11.92,5.17,3.03-1.31,5.84-3.52,8.33-6.59.43-.53.35-1.3-.18-1.73-.53-.43-1.3-.35-1.73.18-2.46,3.04-6.4,6.5-11.8,7.03,5.54-5.65,10.63-11.66,15.11-17.42,0,0,.02,0,.02,0,.22.04.44.08.66.11,1.98.28,4.01.05,6-.51,1.02.24,2.05.45,3.09.59,2.48.35,5.05.35,7.83-.26.66-.15,1.08-.8.94-1.47-.15-.66-.8-1.08-1.47-.94-2.17.48-4.19.53-6.18.32,3.51-1.93,6.61-4.8,8.62-7.78.38-.56.23-1.33-.33-1.71-.56-.38-1.33-.23-1.71.33-2.43,3.59-6.57,6.93-10.87,8.35-.31-.08-.62-.16-.92-.24,3.03-2.82,6.05-6.06,7.43-10.36.21-.65-.15-1.34-.8-1.55-.48-.15-.98,0-1.29.36.16-.4.3-.79.42-1.16,1.29-1.94,2.44-3.73,3.46-5.33l.22.03c.34.05.67.09,1,.14,5.75.8,11.21,1.34,16.64-2.1.41-.26.94-.68,1.55-1.16.64-.51,1.82-1.44,2.28-1.64.61-.01,1.16-.45,1.28-1.08.14-.72-.34-1.42-1.06-1.55Zm-26.75,16.08s.05-.1.07-.15c-.02.05-.05.1-.07.15Z"/><path class="ai" d="m628.6,438.01c4.04-2.23,4.27-8.27,1.95-12.25s-6.36-6.59-9.81-9.66c-3.45-3.07-6.57-7.27-6.02-11.85.51-4.22,3.98-7.43,5.62-11.35,2.28-5.45.8-11.83-2.09-16.99-2.89-5.15-7.06-9.45-10.62-14.16-3.57-4.71-6.64-10.16-6.74-16.07-.1-5.91,3.64-12.19,9.44-13.29-8.47,2.48-16.61,7.2-21.44,14.59-4.82,7.39-5.65,17.73-.53,24.92,2.3,3.23,5.57,5.62,8.28,8.51,2.71,2.89,4.96,6.68,4.41,10.61-.87,6.27-8.22,9.85-9.75,15.99-1.36,5.44,2.42,10.97,7.06,14.12s10.17,4.72,15.01,7.56c4.84,2.83,9.23,7.64,8.96,13.24"/><path class="av" d="m640.33,437.71c-11.8-4.63-19.01-18.66-15.92-30.95,1.48-5.89,5.02-11.59,3.99-17.57-1.74-10.11-15.81-16.45-13.77-26.51,1.28-6.31,8.47-9.61,11.29-15.4,2.19-4.5,1.44-9.85.2-14.7-1.24-4.85-2.94-9.74-2.48-14.72.46-4.98,3.89-10.16,8.87-10.61-2.21,6.57,3,13.13,7.89,18.05,4.88,4.92,10.27,11.22,8.45,17.91-2.26,8.28-14.22,11.17-15.86,19.59-1.3,6.68,4.67,12.36,10.09,16.47,5.42,4.11,11.52,9.54,10.58,16.28-.81,5.79-6.45,9.39-10.96,13.12s-8.53,10.2-5.28,15.07c1.71,2.55,4.93,3.69,6.87,6.07s1.02,7.3-2.02,6.82"/><path class="bh" d="m639.47,434.64c-5.65-4.1-4.57-13.23-.28-18.72,4.29-5.5,10.76-8.8,15.92-13.5,5.16-4.7,9.1-12.21,6.15-18.53-3-6.42-12.03-9.16-13.29-16.14-.88-4.91,2.7-9.54,6.75-12.45,4.05-2.91,8.81-4.91,12.22-8.55,6.47-6.91,5.76-19.23-1.46-25.34,6.96.88,13.34,5.42,16.47,11.69s2.9,14.11-.59,20.19c-3.28,5.72-9.39,10.62-8.91,17.19.61,8.19,11.23,12.77,12.12,20.94.61,5.67-3.85,10.69-8.74,13.64-4.89,2.95-10.51,4.71-14.89,8.37-4.38,3.66-7.17,10.3-4.1,15.11-7.51.49-14.69,4.65-18.85,10.92"/><path class="bm" d="m596.54,344.24s-8.4,12.08-.79,22.32,19.17,20.22,12.87,32.3c-6.3,12.08-6.04,19.17,13.92,30.99"/><path class="bm" d="m628.65,315.09s-.53,14.44,5.51,20.75c6.04,6.3-2.63,14.71-6.3,21.8-3.68,7.09-6.04,17.59,2.63,24.95,8.67,7.35,8.93,17.33,4.99,23.37-3.94,6.04-8.93,14.71-1.58,22.32"/><path class="bm" d="m674.72,329.79s5.25,11.29,0,18.12-16.28,9.72-14.97,18.91c1.31,9.19,19.96,21.8,13.13,28.62-6.83,6.83-18.65,12.61-23.37,19.96-4.73,7.35-3.15,14.44-3.15,14.44"/><path class="bl" d="m750,452.01c-6.5-3.42-13.65-6.41-21.21-8.88-28.54-9.33-62.05-12.12-94.73-12.14-85.14-.05-171.71,17.37-253.92,4.38-69.87-11.04-127.04-42.9-198.11-50.91-43.55-4.9-89.15-.26-130.07,9.76-18.1,4.43-35.37,9.88-51.97,16.01v89.77h750v-47.99Z"/><path class="be" d="m681.26,474.8c-38.84-8.34-80-7.81-120.32-5.91-40.32,1.89-80.83,5.08-120.99,1.83-52.9-4.28-102.98-19.52-152.22-34.66-49.24-15.13-99.25-30.47-152.12-34.95-46.85-3.97-96.99,1.66-135.6,21.35v77.54h744.41c-17.9-11.79-40.14-20.26-63.14-25.2Z"/><path class="bd" d="m244.46,453.22c-40.87-14.93-83.53-28.31-128.66-32.37-39.69-3.57-81.84.8-115.8,16.19v62.96h357.25c-36.48-17.04-74.15-32.66-112.78-46.78Z"/><path class="aj" d="m260.44,358.15c-.08-.93-.31-1.66-.52-2.14-.2-.48-.37-.73-.37-.73-.03-.04-.07-.1-.11-.15-1.49-1.96-4.28-2.34-6.24-.86-4.11,3.11-3.95,8.65-8.54,11.74-4.34,2.93-8.84,2.49-13.53.98-.86-.26-1.72-.52-2.58-.77,0-1.3,4.69-4.53,5.76-5.91,3.78-4.86,6.6-10.68,6.9-16.92.16-3.36-1.06-17.12-6.81-15.33-3.87,1.2-2.12,7.06-2.29,10-.28,4.64-1.34,10.61-4.16,14.4-2.21-2.52-3.63-6.04-3.63-9.38.2-1.71.91-3.37,2-4.7,1.17-1.42,3.07-1.96,3.66-3.8.7-2.2-.52-4.56-2.72-5.26s-4.56.52-5.26,2.72c0,0-.26.82-.27.85-1.24,3.9-1.73,8.04-1.34,12.11.37,3.94,2.95,7.8,2.93,11.58-.03.65-.15,1.14-.29,1.49-.2.18-.42.36-.67.55-5.68,4.33-12.14,7.89-17.51,12.58-1.43,1.25-2.81,2.66-4.08,4.22-2.13-5.72-2.43-10.07.22-15.73,2.7-5.77,5.2-11.4,5.95-17.8.93-7.9-1.16-16.33-7.08-21.92-.33-.33-.62-.59-.87-.79-.49-.42-.75-.64-.75-.64-.2-.17-.44-.33-.68-.46-1.8-.95-4.03-.26-4.98,1.54-.69,1.32-.62,2.93.44,4.02.64.67,1.48,1.11,2.25,1.62,3.95,2.61,6.27,7.41,6.15,12.11-.15,5.77-4.05,8.28-6.87,12.75-2.07,3.28-3.49,6.97-4.11,10.8-.89,5.52-.12,11.29,2.15,16.4,2.45,5.5,3.38,9.82,1.38,15.77-.75,2.24-2.08,4.36-4.08,5.63-3.94,2.5-9.29,1.83-13.54,3.82,2.2-5.35,5.76-9.96,7.57-15.5,3.01-9.19-.46-18.58-.79-27.87-.23-6.71,2.34-12.98,4.12-19.34,1.27-4.53,2.05-9.01,2.06-13.72-.05-2.39-.32-4.68-.71-6.88.6-.51,1.34-1.17,2.16-1.99,1.1-1.1,2.36-2.54,3.38-4.44,3.67-6.89-.86-14.41,1.3-21.11.05-.14.08-.28.11-.43.38-1.99-.92-3.92-2.91-4.3-1.99-.38-3.92.92-4.3,2.91,0,0-.03.16-.09.47-.05.3-.16.75-.21,1.31-.46,4.46,1.63,8.23,2.2,12.64.44,3.42.48,8.49-2.46,10.85-.23-.36-.27-.7-.39-1.11-1.61-5.59-4-10.91-6.5-16.14-1.69-3.54-6.2-9.43-6.2-13.41v-.05c-.2-.6-.53-1.16-1.02-1.63-1.51-1.45-3.91-1.4-5.36.11-1.45,1.51-1.4,3.91.11,5.36,10.51,10.09,17.55,28.38,12.7,42.76-.58,1.71-1.22,3.45-1.94,5.07-2.93-2.91-6.12-5.93-8.64-9.22-4-5.22-2.77-9.22-2.65-15.16.03-1.74-.54-3.66-2.03-4.57-3.37-2.05-5.17,2.36-5.31,4.83-.05.61-.1,1.36-.09,2.21.12,8.09,4.59,15.82,11.43,20.14,2.86,1.81,6.22,3.34,5.3,7.09-.66,2.69-2.52,5.03-3.25,7.7-2.55,9.32.48,17.9.56,27.24.09,9.15-5.05,18.17-7.76,26.73-1.34-1.48-2.26-3.67-3.07-5.53-1.08-2.44-2.07-5.24-3.04-8.28-.98-3.07-1.92-6.4-3.18-9.92.21-.75.43-1.58.63-2.49.37-1.5.67-3.23.9-5.12.82-6.65.12-13.36-.38-20-.4-5.33.05-10.67-.61-15.99-1.29-10.44-6.02-20.37-14.56-26.78-.43-.32-.93-.56-1.49-.67-2.03-.43-4.03.88-4.46,2.91-.43,2.03.87,4.03,2.9,4.46,6.19,1.32,10.82,7.75,10.56,13.97-.14,3.36-1.5,6.52-2.57,9.71-1.69,5.04-1.53,9.79.62,14.66,2.33,5.28,6.94,12.11,5.6,18.12-2.46-5.56-5.94-9.2-10.86-12.82-4.71-3.47-9.81-7.16-11.72-12.7-1.65-4.78-.59-10.03-1.13-15.05-.98-9.05-7.72-17.22-16.42-19.9-1.47-.45-3.32-.65-4.29.54-.99,1.23-.29,3.15.93,4.16,1.22,1,2.8,1.42,4.19,2.16,4.32,2.31,6.28,7.5,6.75,12.37.47,4.87-.19,9.83.57,14.67,1.36,8.74,7.5,16.45,15.48,20.28-12.24-.99-23.81-8.28-29.98-18.9-1.04-1.79-2.39-3.94-4.46-3.82-1.63.1-2.83,1.77-2.89,3.4-.09,2.63,2.15,5.18,3.7,7.12,4.7,5.87,10.9,10.43,17.63,13.72,3.47,1.69,7.11,3.05,10.84,4.06,5.4,1.47,10.82,1.87,14.22,6.91,1.74,2.58,2.69,5.59,3.57,8.57,1.42,4.83,3.14,9.69,5.38,14.2.61,1.24,1.46,2.48,1.85,3.77-5.39.5-16.6-3.44-18.44-9.16-.47-1.48-.5-3.05-.71-4.59-.59-4.36-3.1-10.51-7.25-12.7-.61-.32-1.5-.21-1.8.4-.26.53,0,1.16.27,1.69,1.52,3.06,3.05,6.13,4.57,9.19-2.65-3.47-6.55-5.82-10.66-7.29-4.11-1.47-8.46-2.14-12.77-2.8-1.55-.24-3.16-.47-4.68-.07s-2.93,1.63-3.04,3.2c-.14,2.01,1.88,3.58,3.87,3.9,3.06.49,6.17-.55,9.26-.03,3.49.59,6.7,2.51,9.29,4.85,3.78,3.41,6.6,7.74,10.01,11.52,5.33,5.91,12.22,8.33,19.84,9.84,4.2.86,8.41,1.29,12.19,3.4,2.82,1.57,7.65,3.48,8.8-1.05,0,0,.11-.42.11-.43.95-5.08,4.61-5.6,8.77-5.89,4.39-.3,8.69-2.06,11.97-5,5.69-5.1,4.89-11.77,7.79-18.2,2.19-4.86,6.72-8.21,11.03-11.09,3.48-2.32,5.68-3.78,10.12-2.67,2.42.6,4.7,1.65,7.1,2.32,8.82,2.46,19.89-.84,24.74-8.89.8-1.34,1.39-2.66,1.77-3.87.35-1.23.42-2.36.33-3.29Z"/><path class="au" d="m189.07,438.05s3.53-6.76,2.44-10.58-11.14-8.82-11.14-8.82c0,0-24.44-8.82-37.48-6.47-13.04,2.35-15.75,17.05-15.75,17.05,0,0,0,10.58,4.89,12.34,4.89,1.76,21.46,3.53,33.68,3.82s19.28-2.35,23.36-7.35Z"/><path class="ao" d="m191.51,427.47c-1.09-3.82-11.14-8.82-11.14-8.82,0,0-24.44-8.82-37.48-6.47-5.87,1.06-9.65,4.63-12.03,8.22,3.51-1.29,9.73-3.03,17.29-2.77,11.83.41,26.52,6.12,30.6,9.38,3.34,2.68,5.59,9.46,5.17,15.19,2.09-1.12,3.78-2.51,5.14-4.17,0,0,3.53-6.76,2.44-10.58Z"/><path class="au" d="m540.07,453.67c-.99,0-1.91.93-1.84,1.93.07,1.04.88,1.84,1.93,1.84.99,0,1.91-.93,1.84-1.93-.07-1.04-.88-1.84-1.93-1.84Z"/><path class="au" d="m516.34,468.32c-.12-.31-.37-.59-.68-.73-.21-.1-.44-.13-.67-.11-.79.1-1.2.69-1.25,1.77.23.97,1.34,1.32,2.04.63.03-.02.05-.03.09-.05.19-.14.33-.31.43-.52.14-.31.15-.67.03-.99Z"/><path class="au" d="m512.37,454.89c-1.75,0-1.83,2.72-.07,2.72s1.83-2.72.07-2.72Z"/><path class="au" d="m481.12,455.03c-2.52,0-2.78,3.93-.24,3.93s2.78-3.93.24-3.93Z"/><path class="au" d="m604.88,443.07c-.51,0-.87.59-.82,1.05.07.55.54.81,1.05.81s.87-.59.82-1.05c-.07-.55-.54-.81-1.05-.81Z"/><path class="au" d="m571.52,474.14c-.51,0-.87.59-.81,1.05.07.55.54.81,1.05.81s.87-.59.81-1.05c-.07-.55-.54-.81-1.05-.81Z"/><path class="au" d="m618.05,456.23c-1.42,0-1.53,2.2-.11,2.2s1.53-2.2.11-2.2Z"/><path class="au" d="m581.68,449.6c-.95,0-.99,1.48-.04,1.48s.99-1.48.04-1.48Z"/><path class="au" d="m532.19,485.88c-.62-.76-1.71-.94-2.61-.57-.93.37-1.45,1.26-1.4,2.24.07,1.25,1.24,1.95,2.37,1.95,1.93,0,2.59-2.45,1.64-3.62Z"/><path class="au" d="m606.27,484.94c-.75,0-1.36.73-1.33,1.46.04.78.7,1.33,1.46,1.33s1.36-.73,1.33-1.46c-.04-.78-.7-1.33-1.46-1.33Z"/><path class="au" d="m231.43,404.41c-2.49,0-1.99,3.84.47,3.84s1.99-3.84-.47-3.84Z"/><path class="au" d="m213.29,424.42c-.26-.28-.69-.35-1.03-.17-.19.1-.35.29-.41.5-.03.09-.02.7.06.66-.35.17.7.52.94.44.13-.05.29-.18.38-.27.33-.31.4-.79.06-1.15Z"/><path class="au" d="m239.23,431.89c-.69,0-1.23.73-1.18,1.38.06.74.68,1.18,1.38,1.18s1.23-.73,1.18-1.38c-.06-.74-.68-1.18-1.38-1.18Z"/><path class="au" d="m288.49,425.25c-1.09,0-2.2.74-2.24,1.93-.03,1.06.76,2.24,1.93,2.24,1.09,0,2.2-.74,2.24-1.93.03-1.06-.76-2.24-1.93-2.24Z"/><path class="au" d="m292.41,453.19c-.8,0-1.51.58-1.55,1.4-.04.77.6,1.55,1.4,1.55s1.51-.58,1.55-1.4c.04-.77-.6-1.55-1.4-1.55Z"/><path class="au" d="m264.89,444.85c.03-.64-.51-1.28-1.17-1.28-.29.72-.58,1.45-.87,2.17.47.61,1.35.37,1.75-.15-.02,0-.02.01-.04.02.19-.21.33-.49.34-.77Z"/><path class="au" d="m203.55,463.73c-2.48,0-2.93,3.87-.42,3.87s2.93-3.87.42-3.87Z"/><path class="au" d="m255.69,467.16c-.45.53-.39,1.36.14,1.82.64.55,1.63.32,2.01-.43.65-1.3-1.2-2.49-2.14-1.39Z"/><path class="au" d="m280.77,482.93c-1.38,0-1.6,2.15-.21,2.15s1.6-2.15.21-2.15Z"/><path class="au" d="m155.21,475.57c-2.48,0-2.93,3.87-.42,3.87s2.93-3.87.42-3.87Z"/><path class="bc" d="m523.86,422.22c-.08-.34-.28-.63-.65-.8-.62-.28-1.33.02-1.94.32-9.42,4.64-18.83,9.28-28.25,13.92,5.45-6.51,9.76-13.96,12.69-21.93.49-1.33.95-2.78.57-4.14s-1.95-2.48-3.23-1.86c-.9.44-1.28,1.49-1.58,2.44-1.18,3.75-2.36,7.51-3.53,11.26-1.72-6.02-.9-12.72,2.23-18.14.43-.74.91-1.49,1.02-2.34.12-.85-.25-1.84-1.06-2.13-1.28-.45-2.37,1.04-2.87,2.3-1.71,4.34-2.6,9-2.62,13.66-.01,3.35.41,6.74-.22,10.02-.9,4.63-3.86,8.66-7.46,11.71s-7.83,5.24-12.02,7.41c5.46-7.74,5.35-18.2,9.91-26.5,2.58-4.69,6.54-8.46,9.62-12.84,2.29-3.26,4.09-6.86,5.33-10.64.28-.85.25-2.16-.65-2.23-.52-.04-.92.44-1.22.88-4.28,6.22-8.56,12.44-12.85,18.66.02-5.23.04-10.45.06-15.68,0-1.77-.04-3.65-1.33-5.02-.63-.68-1.61-1.09-2.51-.86-1.65.43-2.09,2.53-2.21,4.23-.78,10.84-2.01,21.55-3.08,32.35-4.08-8.77-5.34-18.61-5.28-28.28.01-1.8-.56-4.25-2.35-4.16-1.27.06-1.98,1.47-2.36,2.68-2.21,7.16-1.98,15.05.64,22.07,1.65,4.41,4.2,8.47,5.46,13.01s.93,9.96-2.48,13.2c-6.78-9.84-11.4-21.17-13.44-32.95-.51-2.93-.84-6.03.24-8.8,1.33-3.4,4.52-5.64,7.12-8.21,3.29-3.25,5.81-7.27,7.29-11.65.4-1.17.35-2.97-.88-3.1-.68-.07-1.24.48-1.69.99-4.22,4.75-8.44,9.5-12.66,14.25,1.12-6.39,2.24-12.78,3.37-19.17.3-1.71.47-3.79-.91-4.85-1.22-.94-3.11-.45-4.17.67-1.06,1.12-1.5,2.68-1.86,4.18-2.84,11.77-3.22,24.12-1.13,36.04-4.93-7.6-7.95-16.44-8.7-25.47-.1-1.14-.17-2.33-.74-3.33-.57-1-1.8-1.72-2.87-1.31-1.15.45-1.51,1.87-1.66,3.09-1.21,10.17,1.91,20.79,8.45,28.69,4.26,5.14,10.19,9.83,10.67,16.49-9.5-3.5-17.61-10.64-22.28-19.62-1-1.92-1.88-3.96-3.47-5.42-1.09-1-3.85-2.41-5.19-1.08-1.21,1.2-.09,3.91.31,5.24,1.24,4.08,3.26,7.91,5.85,11.3,5.11,6.67,12.51,11.65,20.76,13.41,2.23.47,4.57.76,6.49,1.98,2.99,1.91,4.22,5.56,5.91,8.69,1.34,2.47,3.5,4.95,6.31,4.94,1.29,0,2.5-.56,3.64-1.17,4.08-2.19,7.69-5.34,12.1-6.77,3.17-1.03,6.55-1.11,9.85-1.58,10.38-1.48,20.12-7.09,26.62-15.33.59-.75,1.07-1.89.88-2.7Z"/><path class="as" d="m74.16,367.52c-12.56-24.36-65.6,9.9-65.6,9.9,0,0,86.73-71.2,57.82-89.4-21.64-13.62-44.47,17.44-54.59,33.93,13.17-24.03,43.85-86.04,12.84-91.21-11.1-1.85-19,8.9-24.63,25.16v161.3c24.07-7.96,84.25-30.11,74.16-49.68Z"/><path class="ab" d="m0,389.57v19.15c23.74-10.18,60.89-28.07,54-37.72-6.66-9.32-35.48,6.77-54,18.57Zm20-139.24c-5.88-2.14-13.27,7.74-20,20.33v54.94c12.55-28.05,29.79-71.71,20-75.27Zm32,50c-11.45-3.95-34.84,21.11-52,42.76v28.13c23.34-22.36,66.3-65.95,52-70.88Z"/><path class="ay" d="m251.06,0L0,367.69v132.31h93.99L287.32,0h-36.26Zm96.81,0l-118.6,500h216.09L380.85,0h-32.98Zm125.07,0h-37.2l190.41,500h123.85v-63.78L472.94,0Z"/><g class="bp"><path class="bf" d="m6.87,496.72s.02-.02.07-.06c.02-.02.06-.04.09-.07.02-.01.04-.03.06-.05.03-.02.05-.04.01-.02-.12-.02-.61.38-.08-.11.63-.62,1.66-1.65,2.98-2.9,2.64-2.53,6.54-6.06,11.47-9.96,2.49-1.93,5.2-4,8.18-6.05,17.85-12.24,37.99-21.11,59.08-25.98,10.81-2.5,50.69-13.22,51.05,6.84.18,10.15-6.95,10.65-14.71,10.47-10.41-.25-20.82.38-31.12,1.9-22.95,3.39-45.31,10.91-64.84,23.41-4.85,3.18-8.72,6.09-11.38,8.21-1.34,1.06-2.35,1.91-3.13,2.55-.17.14-1.21,1.01-1.71,1.31-.24.15-.36.23-.36.23-2.6,1.66-6.06.9-7.72-1.7-1.57-2.46-.98-5.68,1.29-7.43l.76-.58Z"/><path class="an" d="m4.93,503.47l.76-.58s.02-.02.07-.06c.02-.02.06-.04.09-.07.02-.01.04-.03.06-.05.03-.02.05-.04.01-.02-.12-.02-.61.38-.08-.11.63-.62,1.66-1.65,2.98-2.9,2.64-2.53,6.54-6.06,11.47-9.96,2.49-1.93,5.2-4,8.18-6.05,17.85-12.24,37.99-21.11,59.08-25.98,10.78-2.49,50.51-13.17,51.04,6.71.8-1.48,1.23-3.44,1.18-6.03-.36-20.06-40.24-9.34-51.05-6.84-21.09,4.87-41.23,13.74-59.08,25.98-2.98,2.04-5.69,4.12-8.18,6.05-4.94,3.91-8.83,7.43-11.47,9.96-1.32,1.26-2.35,2.28-2.98,2.9-.53.49-.04.09.08.11.04-.01.02,0-.01.02-.02.02-.04.03-.06.05-.04.03-.07.05-.09.07-.05.04-.07.06-.07.06l-.76.58c-2.03,1.57-2.72,4.32-1.71,6.64.17-.17.34-.33.53-.48Z"/><path class="ak" d="m134.26,465.77c-1.68-.02-3.01-3.23-2.96-7.16.05-3.93,1.46-7.1,3.14-7.08s3.01,3.23,2.96,7.16c-.05,3.93-1.46,7.1-3.14,7.08Z"/><path class="ap" d="m-2.53,494.95s.06-.7.18-2.02c.12-1.29.33-3.15.61-5.52,5.82-48.53,22.25-103.77,59.93-137.37,7.11-6.34,21.33-19.67,29.65-7.67,5.63,8.14-2.39,15.01-8.71,19.81-26.32,19.99-41.05,46.72-52.48,76.99-.81,2.33-1.61,4.63-2.36,6.91-1.47,4.57-2.85,9.01-4.01,13.27-1.2,4.25-2.2,8.3-3.11,12.05-.87,3.76-1.64,7.21-2.24,10.28-.63,3.07-1.1,5.75-1.49,7.96-.37,2.2-.64,3.94-.81,5.1-.16,1.14-.24,1.75-.24,1.75l-.03.19c-.57,4.1-4.36,6.97-8.46,6.4-3.98-.55-6.79-4.15-6.44-8.11Z"/><path class="ag" d="m3.05,494.37s.06-.7.18-2.02c.12-1.29.33-3.15.61-5.52,5.82-48.53,22.25-103.77,59.93-137.37,4.14-3.69,10.7-9.76,17.11-11.8-7.88-1.18-17.32,7.6-22.69,12.39C20.52,383.65,4.09,438.89-1.73,487.42c-.28,2.36-.49,4.22-.61,5.52-.12,1.32-.18,2.02-.18,2.02-.35,3.96,2.46,7.56,6.44,8.11,1.63.23,3.2-.1,4.55-.81-3.42-.98-5.73-4.28-5.41-7.89Z"/><path class="aa" d="m8.1,505.69s.02-.17.05-.49c.04-.34.09-.83.17-1.48.15-1.24.39-3.03.78-5.26,7.26-41.96,31.29-78.94,65.95-103.39.46-.29.91-.58,1.37-.87,9.18-5.79,36.84-25.75,44-8.9,5.74,13.5-11.35,16.05-19.8,19.86-10.44,4.71-20.28,10.73-29.27,17.84-20.42,16.14-35.56,37.4-44.76,61.68-2.47,6.64-4.09,12.33-5.04,16.31-.49,1.99-.8,3.55-1,4.59-.09.49-.16.87-.21,1.13-.04.27-.07.41-.07.41l-.02.14c-.55,3.34-3.7,5.6-7.03,5.05-3.19-.52-5.4-3.44-5.11-6.62Z"/><path class="ba" d="m8.5,503.74c7.26-41.96,31.29-78.94,65.95-103.39.46-.29.91-.58,1.37-.87,9.18-5.79,36.84-25.75,44-8.9.49,1.15.8,2.22.98,3.23,1.04-2.24,1.1-5.01-.39-8.51-7.16-16.85-34.82,3.11-44,8.9-.45.29-.91.58-1.37.87-34.66,24.45-58.69,61.43-65.95,103.39-.39,2.24-.63,4.02-.78,5.26-.07.65-.13,1.15-.17,1.48-.03.32-.05.49-.05.49-.02.23-.03.46-.02.69.12-.79.26-1.67.42-2.65Z"/><path class="bj" d="m-2.78,507.9s-.07-.78-.2-2.25c-.13-1.45-.29-3.57-.48-6.26-2.45-34.65-2.33-69.65,2.59-104.09,2.48-17.37,6.2-34.58,11.54-51.3,3.31-10.34,11.73-45.67,28.68-36.98,14.89,7.64-3.31,30.21-7.38,40.06-15.15,36.64-20.41,76.21-22.82,115.51-.32,5.16-.51,10.04-.67,14.55-.29,9.02-.33,16.54-.28,21.8.03,2.62.06,4.69.1,6.08.04,1.38.06,2.12.06,2.12v.1c.1,3.08-2.33,5.65-5.41,5.74-2.96.09-5.45-2.16-5.72-5.07Z"/><path class="ak" d="m42.7,315.63c-.65,1.56-4.11,1.6-7.74.09-3.63-1.51-6.05-3.99-5.41-5.55.65-1.56,4.11-1.6,7.74-.09,3.63,1.51,6.05,3.99,5.41,5.55Z"/><path class="ak" d="m87.46,350.9c-1.33,1.03-4.36-.64-6.78-3.75-2.41-3.1-3.29-6.46-1.96-7.49,1.33-1.03,4.36.64,6.78,3.75,2.41,3.1,3.29,6.46,1.96,7.49Z"/><path class="ak" d="m117.15,394.97c-1.6.53-3.9-2.06-5.14-5.79-1.24-3.73-.95-7.19.65-7.72,1.6-.53,3.9,2.06,5.14,5.79,1.24,3.73.95,7.19-.65,7.72Z"/><path class="az" d="m758.47,382.67s-.02-.01-.05-.04c-.02-.01-.04-.03-.06-.05-.01,0-.03-.02-.04-.03-.02-.01-.03-.03,0-.02.09-.02.43.26.06-.08-.44-.43-1.15-1.15-2.07-2.02-1.84-1.76-4.55-4.22-7.99-6.94-1.73-1.34-3.62-2.79-5.69-4.21-12.43-8.52-26.45-14.69-41.13-18.09-7.52-1.74-35.29-9.2-35.54,4.76-.13,7.07,4.84,7.42,10.24,7.29,7.24-.17,14.49.26,21.66,1.32,15.98,2.36,31.54,7.59,45.14,16.3,3.38,2.21,6.07,4.24,7.92,5.71.93.74,1.64,1.33,2.18,1.77.12.1.85.7,1.19.91.17.11.25.16.25.16,1.81,1.16,4.22.63,5.37-1.18,1.09-1.71.68-3.96-.9-5.17l-.53-.41Z"/><path class="at" d="m759.82,387.37l-.53-.41s-.02-.01-.05-.04c-.02-.01-.04-.03-.06-.05-.01,0-.03-.02-.04-.03-.02-.01-.03-.03,0-.02.09-.02.43.26.06-.08-.44-.43-1.15-1.15-2.07-2.02-1.84-1.76-4.55-4.22-7.99-6.94-1.73-1.34-3.62-2.79-5.69-4.21-12.43-8.52-26.45-14.69-41.13-18.09-7.51-1.73-35.16-9.17-35.53,4.67-.55-1.03-.85-2.4-.82-4.2.25-13.97,28.02-6.5,35.54-4.76,14.68,3.39,28.7,9.57,41.13,18.09,2.07,1.42,3.96,2.87,5.69,4.21,3.44,2.72,6.15,5.17,7.99,6.94.92.87,1.63,1.59,2.07,2.02.37.34.03.06-.06.08-.03,0-.01,0,0,.02.01.01.03.02.04.03.03.02.05.04.06.05.03.03.05.04.05.04l.53.41c1.42,1.09,1.89,3.01,1.19,4.62-.12-.12-.24-.23-.37-.33Z"/><path class="ad" d="m669.78,361.12c1.17-.02,2.09-2.25,2.06-4.98-.04-2.74-1.02-4.94-2.19-4.93-1.17.02-2.09,2.25-2.06,4.98.04,2.74,1.02,4.94,2.19,4.93Z"/><path class="az" d="m765.01,381.44s-.04-.49-.13-1.41c-.09-.9-.23-2.2-.43-3.84-4.05-33.78-15.49-72.24-41.72-95.63-4.95-4.41-14.85-13.7-20.64-5.34-3.92,5.66,1.66,10.45,6.06,13.79,18.32,13.91,28.58,32.52,36.54,53.6.57,1.62,1.12,3.22,1.65,4.81,1.03,3.18,1.98,6.27,2.79,9.23.83,2.96,1.53,5.78,2.16,8.39.61,2.61,1.14,5.02,1.56,7.16.44,2.14.77,4,1.04,5.54.26,1.53.45,2.74.56,3.55.11.79.17,1.22.17,1.22l.02.13c.4,2.86,3.03,4.85,5.89,4.45,2.77-.38,4.73-2.89,4.48-5.65Z"/><path class="at" d="m761.13,381.03s-.04-.49-.13-1.41c-.09-.9-.23-2.2-.43-3.84-4.05-33.78-15.49-72.24-41.72-95.63-2.88-2.57-7.45-6.8-11.91-8.22,5.49-.82,12.05,5.29,15.79,8.63,26.23,23.39,37.67,61.85,41.72,95.63.2,1.65.34,2.94.43,3.84.08.92.13,1.41.13,1.41.25,2.76-1.71,5.26-4.48,5.65-1.13.16-2.23-.07-3.17-.57,2.38-.68,3.99-2.98,3.77-5.49Z"/><path class="az" d="m757.61,388.91s-.01-.12-.03-.34c-.03-.23-.07-.58-.12-1.03-.11-.87-.27-2.11-.54-3.66-5.06-29.21-21.78-54.95-45.91-71.98-.32-.2-.64-.4-.95-.6-6.39-4.03-25.64-17.92-30.63-6.19-3.99,9.4,7.9,11.17,13.78,13.82,7.27,3.28,14.12,7.47,20.37,12.42,14.22,11.24,24.76,26.04,31.16,42.94,1.72,4.62,2.85,8.59,3.51,11.36.34,1.39.56,2.47.7,3.2.06.34.11.61.14.79.03.19.05.28.05.28l.02.1c.38,2.32,2.57,3.9,4.9,3.52,2.22-.36,3.76-2.4,3.56-4.61Z"/><path class="at" d="m757.33,387.55c-5.06-29.21-21.78-54.95-45.91-71.98-.32-.2-.64-.4-.95-.6-6.39-4.03-25.64-17.92-30.63-6.19-.34.8-.56,1.55-.68,2.25-.72-1.56-.76-3.48.27-5.93,4.99-11.73,24.24,2.16,30.63,6.19.31.2.63.4.95.6,24.13,17.02,40.85,42.77,45.91,71.98.27,1.56.44,2.8.54,3.66.05.45.09.8.12,1.03.02.23.03.34.03.34.01.16.02.32.01.48-.08-.55-.18-1.17-.3-1.84Z"/><path class="az" d="m765.19,390.45s.05-.54.14-1.56c.09-1.01.2-2.48.34-4.36,1.7-24.12,1.62-48.49-1.8-72.46-1.73-12.09-4.31-24.07-8.03-35.71-2.3-7.2-8.17-31.8-19.97-25.74-10.37,5.32,2.3,21.03,5.14,27.89,10.55,25.51,14.21,53.05,15.88,80.41.22,3.59.35,6.99.47,10.13.2,6.28.23,11.52.2,15.17-.02,1.83-.04,3.26-.07,4.23-.03.96-.04,1.47-.04,1.47v.07c-.07,2.14,1.62,3.93,3.76,4,2.06.06,3.8-1.51,3.98-3.53Z"/><path class="ad" d="m733.53,256.6c.45,1.08,2.86,1.11,5.39.06,2.53-1.05,4.21-2.78,3.76-3.86s-2.86-1.11-5.39-.06-4.21,2.78-3.76,3.86Z"/><path class="ad" d="m702.37,281.15c.93.72,3.04-.45,4.72-2.61,1.68-2.16,2.29-4.5,1.37-5.22s-3.04.45-4.72,2.61c-1.68,2.16-2.29,4.5-1.37,5.22Z"/><path class="ad" d="m681.7,311.83c1.11.37,2.72-1.44,3.58-4.03.86-2.6.66-5-.45-5.37-1.11-.37-2.72,1.44-3.58,4.03-.86,2.6-.66,5,.45,5.37Z"/><path class="ae" d="m667.49,509.67s-42.91-14.26-32.59-34.89c9.52-19.03,41.24,15.86,41.24,15.86,0,0-55.84-79.22-31.72-91.42,24.51-12.4,47.3,82.77,47.3,82.77,0,0-35.76-127.47-4.04-134.39,31.72-6.92,25.95,133.23,25.95,133.23,0,0-17.3-143.62,26.53-146.5,43.83-2.88,12.69,175.34,12.69,175.34h-85.36Z"/><path class="bb" d="m740.67,356.33c-24-1-28.33,135-28.33,135,0,0-10.33-124.33-20.33-111.67-10,12.67,3.67,120.33,3.67,120.33,0,0-34-80.33-36.67-68.33s28,73.33,28,73.33c0,0-37-29.67-40.67-21.67-2.82,6.15,17.99,20.17,27.77,26.33h70.28c3.48-28.23,17.55-152.45-3.72-153.33Z"/></g></g></g></g></svg>