<?xml version="1.0" encoding="UTF-8"?><svg xmlns="http://www.w3.org/2000/svg" xmlns:xlink="http://www.w3.org/1999/xlink" viewBox="0 0 751.82 500.66">
  <defs>
    <style>
      .o {
        fill: url(#e);
      }
      .o,
      .p,
      .q,
      .r,
      .s,
      .t,
      .u,
      .v,
      .w,
      .x,
      .y,
      .z,
      .aa {
        stroke-width: 0px;
      }
      .p {
        fill: url(#g);
      }
      .q {
        fill: url(#i);
      }
      .r {
        fill: url(#l);
      }
      .s {
        fill: url(#b);
      }
      .ab {
        fill: none;
        stroke: #fff;
        stroke-miterlimit: 10;
        stroke-width: 3px;
      }
      .t {
        fill: url(#n);
      }
      .u {
        fill: url(#h);
      }
      .v {
        fill: #fff;
      }
      .w {
        fill: url(#j);
      }
      .x {
        fill: url(#d);
      }
      .y {
        fill: url(#f);
      }
      .z {
        fill: url(#m);
      }
      .aa {
        fill: url(#k);
      }
    </style>
    <linearGradient id="b" x1="396.87" y1="-8.52" x2="359.02" y2="439.17" gradientUnits="userSpaceOnUse">
      <stop offset=".23" stop-color="#fff" />
      <stop offset="1" stop-color="#d4d4d4" />
    </linearGradient>
    <linearGradient
      id="d"
      x1="477.08"
      y1="40.83"
      x2="733.77"
      y2="40.83"
      gradientTransform="translate(28.57 218.49) rotate(-9.73)"
      gradientUnits="userSpaceOnUse">
      <stop offset="0" stop-color="#fff" stop-opacity="0" />
      <stop offset="1" stop-color="#fff" />
    </linearGradient>
    <linearGradient id="e" x1="570.62" y1="115.03" x2="43.61" y2="122.41" xlink:href="#b" />
    <linearGradient id="f" x1="276.95" y1="268.7" x2="359.24" y2="80.61" xlink:href="#b" />
    <linearGradient id="g" x1="270.39" y1="100.63" x2="730.69" y2="-178.76" xlink:href="#b" />
    <linearGradient id="h" x1="671.56" y1="-73.38" x2="491.87" y2="39.85" gradientTransform="matrix(1,0,0,1,0,0)" xlink:href="#d" />
    <linearGradient id="i" x1=".66" y1="54.98" x2="471.99" y2="54.98" xlink:href="#b" />
    <linearGradient id="j" x1="306.36" y1="163.92" x2="278.67" y2="120.85" gradientTransform="matrix(1,0,0,1,0,0)" xlink:href="#d" />
    <linearGradient id="k" x1=".66" y1="414.16" x2="750.66" y2="414.16" xlink:href="#b" />
    <linearGradient id="l" x1="441.85" y1="588.7" x2="385.88" y2="422.86" xlink:href="#b" />
    <linearGradient id="m" x1="616.16" y1="372.16" x2="677.42" y2="480.76" xlink:href="#b" />
    <linearGradient id="n" x1=".66" y1="445.36" x2="486.72" y2="445.36" gradientTransform="matrix(1,0,0,1,0,0)" xlink:href="#d" />
  </defs>
  <path
    class="x"
    d="m747.12,67.33c-21.38,18.88-54.32,37.25-78.22,52.76-47.76,31-102.83,49.79-149.28,82.72-4.41,3.12-9.27,8.04-7.33,13.08,1.32,3.43,5.23,4.97,8.74,6.04,39.64,12.09,82.44,11.62,122.33.92,20.18-5.42,38.74-13.78,57.2-23.4,6.01-3.13,34.25-15.78,46.55-23.17,1.06-.63,0-108.95,0-108.95Z" />
  <path
    class="o"
    d="m750.66.66H.66v233.08c64.41-31.69,137.38-46.11,208.96-40.18,72.56,6.02,142.11,31.83,214.3,41.34,85.75,11.3,177.52-2.3,247.84-52.67,30.11-21.57,55.25-48.94,78.9-77.61V.66Z" />
  <path
    class="ab"
    d="m.66,233.74c64.41-31.69,137.38-46.11,208.96-40.18,72.56,6.02,142.11,31.83,214.3,41.34,85.75,11.3,177.52-2.3,247.84-52.67,30.11-21.57,55.25-48.94,78.9-77.61" />
  <path
    class="y"
    d="m750.66.66H.66v72.28c1.02-1.1,2.05-2.19,3.12-3.25,28.56-28.32,72.95-35.98,112.42-28.23,39.47,7.74,74.96,28.84,108.05,51.7,33.09,22.86,64.94,48,101.12,65.56,67.35,32.67,278.98,118.48,422.69-71.49.63-.83,1.73-1.16,2.59-1.75V.66Z" />
  <path
    class="p"
    d="m750.66.66H.66v153.71c9.84-7.88,20.45-14.81,31.66-20.63,68.34-35.45,151.06-27.56,225.93-9.35,74.87,18.21,148.54,45.96,225.6,47.68,43.1.96,86.37-6.41,126.69-21.57,49.85-18.75,94.62-49.06,135.05-83.59,1.7-1.45,3.39-2.91,5.08-4.38V.66Z" />
  <path
    class="u"
    d="m32.32,133.74c13.93-7.43,28.72-13.34,44.04-17.38,7.64-2.06,15.39-3.74,23.21-5.06,7.82-1.29,15.69-2.23,23.6-2.86,31.65-2.36,63.49.26,94.71,5.5,62.61,10.61,122.35,32.38,183.96,45.26,15.38,3.33,30.88,5.96,46.47,7.82,15.58,1.83,31.27,2.92,46.94,2.73,7.84-.03,15.68-.41,23.49-1.01,7.82-.57,15.61-1.52,23.37-2.65,15.51-2.32,30.88-5.68,45.96-10.05,7.54-2.19,14.98-4.69,22.36-7.38,7.34-2.78,14.65-5.69,21.8-8.95,14.34-6.45,28.3-13.75,41.8-21.86,13.54-8.04,26.67-16.78,39.43-26.06,3.17-2.34,6.34-4.69,9.48-7.07,3.11-2.42,6.27-4.78,9.34-7.26,3.1-2.44,6.2-4.88,9.24-7.4,3.07-2.48,6.1-5.01,9.13-7.54-23.46,21.14-48.52,40.59-75.36,57.42-13.43,8.38-27.4,15.92-41.76,22.64-7.17,3.39-14.5,6.43-21.88,9.35-7.42,2.82-14.91,5.46-22.5,7.79-7.6,2.29-15.26,4.42-23,6.19-7.75,1.74-15.54,3.32-23.4,4.5-7.85,1.2-15.74,2.22-23.66,2.86-7.92.67-15.86,1.11-23.81,1.2-15.9.3-31.8-.81-47.57-2.61-15.77-1.84-31.44-4.46-46.93-7.78-15.5-3.31-30.86-7.13-46.15-11.19-15.28-4.09-30.49-8.36-45.68-12.63-15.19-4.28-30.38-8.51-45.66-12.36-7.63-1.99-15.29-3.77-22.97-5.49-7.68-1.72-15.39-3.31-23.13-4.71-30.93-5.66-62.47-8.68-93.89-6.84-7.85.45-15.68,1.2-23.47,2.29-7.79,1.12-15.52,2.62-23.17,4.48-3.83.91-7.61,2-11.4,3.09l-5.63,1.8c-1.88.6-3.71,1.31-5.58,1.95-7.41,2.68-14.68,5.77-21.76,9.26Z" />
  <path
    class="q"
    d="m.66.66v108.65c10.03-5.66,20.49-10.58,31.25-14.68,43.72-16.67,91.36-20.84,138.1-18.8,71.78,3.14,146.32,20.12,213.7-4.84,33.04-12.24,62.34-34.4,83.11-62.86,1.79-2.45,3.5-4.94,5.17-7.46H.66Z" />
  <path
    class="w"
    d="m.66,109.3c4.52-2.69,9.14-5.24,13.84-7.62,4.71-2.37,9.51-4.56,14.39-6.59,9.77-3.99,19.76-7.47,29.94-10.32,20.37-5.69,41.39-8.96,62.48-10.49,21.1-1.61,42.31-1.29,63.38,0,21.07,1.31,42.03,3.51,62.97,5.17,20.93,1.75,41.89,2.98,62.79,2.36,20.88-.56,41.74-3.19,61.75-9.04,10-2.93,19.75-6.69,29.12-11.26,9.36-4.6,18.33-10.02,26.81-16.13,17-12.19,31.84-27.42,43.85-44.72l-4.34,6.6c-1.46,2.19-3.06,4.29-4.59,6.44-3.24,4.16-6.57,8.26-10.15,12.14-7.13,7.79-14.89,15.05-23.3,21.5-8.42,6.44-17.39,12.16-26.8,17.09-9.42,4.9-19.33,8.88-29.47,12.07-1.26.42-2.54.8-3.82,1.15l-3.84,1.09c-2.57.67-5.15,1.31-7.74,1.93-5.19,1.14-10.41,2.16-15.66,2.93-10.5,1.6-21.09,2.55-31.68,2.94-21.19.77-42.34-.43-63.36-2.11-21.02-1.76-41.94-3.97-62.88-5.44-10.47-.75-20.93-1.28-31.41-1.43-10.47-.13-20.95.03-31.41.6-20.9,1.19-41.76,3.89-62.11,8.97-10.19,2.47-20.22,5.57-30.08,9.19-4.91,1.84-9.76,3.86-14.55,6.04-4.79,2.15-9.52,4.47-14.17,6.94Z" />
  <path
    class="aa"
    d="m750.66,328.11c-17.07-1.27-34.67.23-51.35,3.57-30.53,6.12-56.51,13.78-83.51,27.73-27.01,13.96-52.56,30.1-81.5,41.27-68.87,26.59-152.6,32.02-222.81,5.42-109.59-41.52-211.75-90.75-310.82-27.98v122.54h750v-172.55Z" />
  <path
    class="v"
    d="m311.48,406.1c-12.81-4.5-25.51-9.29-38.26-13.95-12.71-4.75-25.43-9.47-38.23-13.96-12.8-4.46-25.63-8.83-38.61-12.67-12.97-3.88-26.06-7.33-39.31-9.99-26.44-5.42-53.67-7.7-80.48-4.31-13.39,1.65-26.59,4.85-39.31,9.44-12.76,4.49-24.97,10.5-36.62,17.46,11.3-7.53,23.43-13.84,36.11-18.84,12.71-4.91,25.99-8.4,39.51-10.35,13.51-2.01,27.24-2.39,40.86-1.69,13.63.74,27.17,2.67,40.53,5.35,26.72,5.48,52.66,13.96,78.11,23.44,12.73,4.76,25.36,9.72,37.97,14.75l37.73,15.31Z" />
  <path
    class="r"
    d="m750.66,284.5c-38.22,1.82-76.06,9.86-109.47,28.08-78.35,42.71-125.25,136.63-211.27,160.38-47.8,13.2-98.8,1.57-145.9-13.95-47.1-15.51-93.81-35.1-143.31-38.08-44.9-2.7-90.56,8.89-128.73,32.68-4.16,2.59-7.89,5.3-11.31,8.11v38.92h750v-216.15Z" />
  <path
    class="z"
    d="m750.66,354.27c-34.52,7.39-68.46,17.22-98.35,35.62-47.21,29.05-93.5,83-108.27,110.76h72.84c11.31-16.56,26.38-41.75,36.7-51.15,32.01-29.18,62.42-42.09,97.08-43.69v-51.54Z" />
  <path
    class="t"
    d="m331.12,445.81c-52.92-23.38-81.23-36.09-122.77-43.22-66.13-11.35-147.09-13.83-207.69,20.55v72.56c38.61-19.69,80.26-33.68,123.23-39.52,28.23-3.84,56.96-4.12,85.2-.22,20.8,2.87,41.22,7.92,61.73,12.4,34.94,7.64,70.71,13.59,106.6,12.38,16.94-.57,43.65-1.47,59.55-6.62,22.77-7.38,54.17-27.77,49.23-26.46-54.74,14.46-115.11,15.81-155.08-1.85Z" />
</svg>
