<?xml version="1.0" encoding="UTF-8"?><svg id="b" xmlns="http://www.w3.org/2000/svg" xmlns:xlink="http://www.w3.org/1999/xlink" viewBox="0 0 283.65 227.35"><defs><style>.e,.f,.g,.h,.i,.j{stroke-width:0px;}.e,.f,.g,.i,.j{fill-rule:evenodd;}.f{fill:#f7f2a4;}.g{fill:#fe0709;}.h{fill:url(#d);}.i{fill:#282629;}.j{fill:#ff3309;}</style><radialGradient id="d" cx="89.26" cy="229.31" fx="89.26" fy="229.31" r="300.83" gradientUnits="userSpaceOnUse"><stop offset="0" stop-color="#ffc000"/><stop offset=".04" stop-color="#efa900"/><stop offset=".1" stop-color="#df9000"/><stop offset=".39" stop-color="#933a00"/><stop offset="1" stop-color="#400"/></radialGradient></defs><g id="c"><rect class="h" width="283.65" height="227.35"/><path class="f" d="m19.15,214.41c5.8-34.48,35.79-60.75,71.92-60.75s66.12,26.27,71.92,60.75H19.15Z"/><path class="e" d="m115.37.58h2.43c-4.55,1.78-10.95,1.78-10.95,1.78,3.65-.08,6.6-.98,8.52-1.78h0Zm8.66,0h3.83c.05.09.1.17.15.26,2.18,3.5,5.19,4.56,8.39,4.26,3.2-.3,10.92.91,10.92.91,0,0-2.26-2.08-2.51-5.42h.78c.25,1.54,1.21,2.08,1.21,2.08,0,0-.38-.72-.15-2.08h1.77c-.28,2.71.74,5.15,3.6,5.58,5.15.76,9.08,6.53,10.33,5.32,1.25-1.22,4.2-.68,4.2-.68,0,0,.9.38-.02.61-.92.23-1.91.53-1.19,1.6.73,1.06,3.41,3.12,3.88,2.51.47-.61,5.82-12.08,5.82-12.08l-.42-2.84h.36l.76,2.23,2.46-2.23h.72c-1.04,1.2-2.14,2.43-2.67,2.91-1.17,1.06-6.29,12.31-6.24,13.15.05.84,5.64-.46,5.64-.46,0,0-2.47,1.22-3.99,1.37-1.52.15-.72,1.37-.72,1.37l11.41-.46s1.86-1.37,3.81-.46c1.95.91,1.68-.3,2.78-1.37,1.09-1.06,3.11-2.28,3.11-2.28,0,0-2.55,3.95-4.4,5.02-1.86,1.06-3.33-.61-4.57.46-1.25,1.06-11.72.46-11.72.46l8.96,5.32s1.89-2.13,2.63-1.67c.75.46-.8,1.22-1.59,2.58-.8,1.37,3.37,4.26,4.57,4.86,1.02.52,2.66,2.01,4.1,4.12.16-.21.33-.43.49-.65.45,1.39.95,2.71,1.51,3.8.48.6.77.69,1.69,1.54,1.48,1.37,2.26.76,2.74-.15.48-.91.4-3.19.4-3.19l.64-1.06.52,2.89s1.87-1.52,3.85-1.67c1.98-.15,12.04-6.23,12.04-6.23l.9.3-11.13,6.38s.77-.46,8.34.61c7.57,1.06,10.97-6.23,10.97-6.23,0,0-1.64,4.26-5.05,6.23-3.4,1.98-11.89,1.06-14.62.91-2.73-.15-3.86,1.98-4.96,3.19-1.1,1.22.22,2.74,2.66,2.74s4.28-.76,6.15-2.58c1.88-1.82,3.39-1.52,6.12-1.52s4.49,2.28,8.26,3.34c3.77,1.06,5.9-4.26,5.9-4.26,0,0,.87,1.37-2.11,4.71-2.99,3.34-9.11-.3-12.26-1.82-3.15-1.52-6.45,2.28-6.65,3.95-.2,1.67,4.91,3.65,4.91,3.65,9.1.61,13.03-3.65,13.03-3.65,0,0-.83,1.35-2.98,2.73,3.29-.54,14.05-1.99,24.03.42,11.96,2.89,19.11,13.73,23.16,15.42,3.6,1.5,10.68,1.67,15.04,3.04v4.65c-4.51-.74-10.53-2.71-11.39-.71-1.03,2.41-7.19-1.2-8.52-5.06-1.33-3.85-1.55-12.77-20.76-14.93-15.07-1.7-20.38-2.36-21.97-2.57-.74.44-1.62.88-2.65,1.27-4.46,1.67-12.31-.15-12.31-.15l-.23,2.51s.89.76,2.03.68c1.14-.08.53.23,2.33.84,1.81.61,1.6,2.58,1.6,2.58l3.65-.15,1.86-1.37-1.11,1.6c5.25-.08,6.87,1.44,6.87,1.44-2.93-1.22-7.13-.61-7.13-.61.12.99,2.95,3.04,2.95,3.04-2.2-.23-4.02-2.96-4.02-2.96-1.22,0-2.6.61-2.6.61.79,4.26-2.34,7.3-2.34,7.3,1.73,3.19.3,5.32.3,5.32,1.01-3.34-1.68-4.86-1.68-4.86l-3.83,1.22c-.12,3.95-4.19,3.04-4.19,3.04,4.6-1.37,2.23-3.65,2.23-3.65-3.31-1.22-8.52.15-8.52.15,0,0,1.56-1.22,6.42-1.37,4.87-.15,3.81-.3,6.87-1.06,3.06-.76,3.31-3.95,2.93-6.54-.38-2.58-5.82-3.8-6.58-3.8s-3.28,3.19-3.48,4.56c-.19,1.37-2.2,2.43-2.16,1.22.04-1.22-1.64-1.22-1.64-1.22-1.6.04-3.12-.1-4.47-.32.75,1.79.89,4.06-.63,7.6-3.1,7.23-3.64,9.15-3.37,16.38.27,7.23-1.54,19.75,6.52,24.09q8.06,4.34,13.36,4.34c5.3,0,7.1,4.34,11.38,6.26,4.28,1.93,15.44-.96,18.22,2.89,2.78,3.85,8.96,6.74,8.96,6.74,0,0,7.65-14.45,11.06-15.9,3.41-1.44-8.15-1.45-4.08-8.67,4.07-7.23,1.26-10.12-3.19-6.26-4.45,3.85.65,6.62.65,6.62,0,0-1.69.24-2.6-1.81-.9-2.05-.88-2.77-.88-2.77,0,0-4.32-.6-4.25,1.2.07,1.81,2.56,3.01.58,4.82-1.98,1.81-3.5,4.22-1,5.54,2.49,1.32,2.92,3.01,2.92,3.01,0,0-1.04-1.57-2.94-2.29-1.91-.72-3.16-3.25-1.66-4.94,1.5-1.69,2.11-2.05,1.42-3.25s.19-2.29-2.24-1.69c-2.43.6-5.65-.48-8.82.84-3.17,1.32-5.32.72-8.19,4.22-2.87,3.49-5.97,6.62-9.96,3.01-3.99-3.61-3.67-6.14-6.32-6.14s-5.04-.72-5.04-.72c0,0,3.16-.96,5.66-.12,2.5.84,3.17,2.77,5.05,4.46,1.88,1.69,5.82,2.77,6.71,1.08.89-1.69,1.14-1.81-.42-2.05-1.56-.24-7.75-2.65-7.94-4.46-.19-1.81-3.62-3.73-3.62-3.73,0,0,2.87.6,4.25,3.01,1.38,2.41,6.74,4.21,8.69,3.61,1.94-.6,6.59-2.89,4.66-3.01-1.92-.12-4.1.12-4.64-1.93-.54-2.05-.4-2.89-3.77-2.77-3.37.12-4.97-3.01-7.62-3.01s-4.45-.24-4.45-.24c0,0,3.06-1.57,7.35-.24,4.3,1.32,2.95,1.93,6.79,2.41,3.84.48,4.37,2.89,4.37,2.89,0,0-.39-3.13-.94-5.06-.55-1.93-1.22-3.61-3.1-5.18-1.88-1.57-1.46-3.73-4.14-2.53-2.68,1.2-6.19,1.81-5.77-.24.42-2.05.94-3.25.94-3.25,0,0-1.02,2.05-.09,3.01.94.96,2.5.84,3.74-.36,1.24-1.2,3.3-1.69,4.58-.24,1.28,1.45,3.63,3.49,4.54,5.3.91,1.81.91,6.02,2.45,6.74,1.54.72,2.94,2.41,7.18,1.44,4.24-.96,5.87-3.01,6.19-1.57.32,1.45,1.29,1.32,2.67-.6,1.38-1.93,4.22-4.46,1.45-4.22-2.78.24-11.33.24-13.2-1.69-1.87-1.93-5.23-2.53-4.4-6.14.83-3.61,3.32-6.38,1.69-8.31-1.63-1.93-.89-2.65.16-1.2,1.04,1.44,2.68,3.13,1.13,6.5-1.54,3.37-2.89,4.09-.65,5.78,2.24,1.69,5.08,3.49,4.64,1.93-.44-1.57-3.16-3.13-1.65-5.3,1.51-2.17,1.94-4.46,1.94-4.46,0,0,1.41,1.08.02,3.37-1.39,2.29-.82,3.49.09,5.18.91,1.69-.44,2.65,2.93,2.65s8.05.48,5.55-.24c-2.51-.72-6.23-1.2-6.65-3.13-.43-1.93,4.76-2.29,3.49-3.97-1.28-1.69,2.92-.96,1.18.96-1.74,1.93-4.53,2.41-2.75,3.61,1.77,1.2,5.39,1.08,7.04,2.17,1.65,1.08,3.38-.36,3.33,1.32-.05,1.69-.44,2.65,1.01,2.65s2.75.6,3.16-.96c.41-1.57,1.42-3.25,1.99-2.29.57.96.43,1.69,3.69,1.32,3.26-.36,13.16-1.2,12.45,2.53-.71,3.73-9.04,8.67-7.4,10.12,1.64,1.45,7.68,5.18,9.79,2.89,2.11-2.29,4.79-3.25,4.79-3.25,0,0-2.91-3.49-1.7-3.61s1.98,2.17,3.55,2.17c.75,0,2.67-1.16,5.63-2.27v10.81c-3.46,1.5-6.77,3.8-8.87,7.6-5.08,9.15-10.55,14.93-7.26,17.83,3.29,2.89,6.28,15.9,10.8,9.63,2.28-3.16,3.94-6.08,5.34-8.25v28.25c-2.26,2.15-3.43,5.45-.5,12.29.16.37.33.75.5,1.15v36.77l-11.95.23s1.15-21.27-3.53-24.99c-4.68-3.72-7.26-6.38-7.1-11.7.16-5.32,1.12-13.71-3.54-17.96-4.66-4.25-12.48-9.57-16.58-14.89-4.1-5.32-22.87-10.64-30.76-12.81-7.89-2.17-14.2-9.84-19.74-10.08-5.53-.24-11.22-3.37-13.33-5.54-2.1-2.17-15.13.69-21.82-1.48-6.68-2.17-3.23-4.82-14.78-5.3-11.55-.48-14.83-3.61-18.68-3.61h-5.54l.59-3.61s-.8-5.54-2.95-6.26c-2.15-.72-8.36-2.41-9.87-8.43-1.51-6.02-10.35-8.67-10.35-8.67,0,0,6.73.48,10.64,6.99l2.11-6.26-1.64,6.62s.58,2.83,1.81,4.03c1.23,1.2,4.31,3.07,5.93,3.19,1.62.12,2.86.9,3.04-1.02.18-1.93,3.86-6.38,3.86-6.38l.23.54s-4.17,4.46-2.95,8.07c1.22,3.61,2.67,7.41,2.67,7.41,0,0,9.39.06,12.71,1.87,3.32,1.81,6.79,2.41,10.21.96,3.41-1.45,4.74-1.45,4.74-1.45,0,0-.37-12.04-.82-13.13s-4.35-3.61-5.71-6.5c-1.36-2.89-3.24-4.7-3.24-4.7,0,0,1.9.96,4.42,5.42,0,0,1.86,2.29,3.17,2.89,0,0,.65.48.61-.36-.04-.84-.71-4.7-.79-6.08-.08-1.39.1-5.54.1-5.54,0,0,.12,6.26.57,7.35.45,1.08.91,3.85,1,4.76.09.9,3.15-.66,3.15-.66l-.32.48s-1.77.78-2.03,1.63c-.27.84,1.86,14.57,1.86,14.57,0,0,5.48,1.93,6.45,1.93s10.17-5.78,10.44-7.11c.28-1.32-.37-3.85-1.19-4.7-.82-.84-.91-1.69-.76-2.89.16-1.2-.96,0-1.39-2.05-.42-2.05-.17-2.53-1.49-2.65-1.32-.12-10.67-1.69-10.67-1.69l-.09-.96,10.1.6s.97-4.46,2.95-6.02c1.97-1.57,4.65-2.41,5.09-5.18.44-2.77,0-3.85,2.11-6.26,2.12-2.41,3.85-4.09,3.72-7.71-.12-3.27-1.7-11.1.45-16.3-.42-.09-.8-.19-1.15-.3-.87-.26-1.97.19-3.13,1.02-2.53-.67-5.55-1.3-8.75-1.58.27-2.77-13.02-4.75-14.76-5.29-1.96-.61-7.14-.15-12.62.3-5.48.46-5.82,1.37-7.55,3.34-1.73,1.98-1.56,1.22-2.87,4.56-1.31,3.34-5.48,5.47-5.48,5.47,0,0,6.97-9.73,4.69-9.58-2.28.15-8.18,4.41-14.9,5.32-6.71.91-11.07-6.08-13.74-8.36-2.67-2.28-6.79-6.84-6.79-6.84,0,0-2.11-.46-6.47-2.28-4.35-1.82-13.8-1.06-13.8-1.06,0,0,8.71-1.52,13.08-.3,4.37,1.22,5.12,1.67,5.16.15.04-1.52-1.61-2.13-3.55-3.5-1.94-1.37-7.4-1.67-10.48-.3-3.08,1.37-2.27-.3-7.25-6.69-4.98-6.38-16.8-2.58-16.8-2.58,0,0,5.39-2.43,11-1.98,5.61.46,9.58,5.02,11.02,7.9,1.43,2.89,2.55,1.06,4.56,0,2.01-1.06,6.37.46,8.35.3,1.98-.15,5.61.46,7.44,5.62,1.83,5.17,11.16,13.45,13.7,14.9,2.54,1.44,7.19-1.52,8.75-2.96,1.56-1.44,6.73-1.52,9.17-1.9,2.44-.38,2.76-.84,3.57-2.66.81-1.82-5.94-4.79-8.57-5.62-2.64-.84-5.49.61-5.49.61,0,0,2.77-1.22,4.3-1.67,1.53-.46,12.12,3.88,14.21,5.4,2.08,1.52,2.49.76,4.69.68,2.21-.08,3.95-.08,9.11.15,5.16.23,6.35,1.14,11.57,1.82,5.22.68,3.7.99,9.17.76,5.48-.23,1.46-3.27-2.34-3.27s-6.3-.23-8.4-1.22c-2.1-.99-7.42-1.06-9.17-.76-1.76.3-2.8-.53-2.31-1.44.48-.91,1.69-3.34-7.19-3.65-8.88-.3-12.92-5.17-18.13-1.22-5.21,3.95-13.85,3.19-9.58,2.89,4.26-.3,9.08-3.88,9.08-3.88,0,0-2.75.61-7.9,2.36-5.14,1.75-11.33.23-8.44.3,2.89.08,8.85-1.14,11.7-2.36,2.85-1.22,7.36-2.13,14.92-.68,7.56,1.44,12.91.38,15.02.99,2.11.61,3.42,2.66,3.41-2.13-.01-4.79-8.09-6.76-8.09-6.76,0,0,3.38-1.29,6.36.84,2.98,2.13,2.9,10.03,3.38,3.88.48-6.16-7.02-9.27-7.02-9.27,0,0,2.75-.38,6.57,3.88,3.83,4.26,1.25,11.32-.19,13.75-1.44,2.43,5.44,1.22,10.45,1.22s8.75,2.13,11.66,1.52c2.91-.61,4.35,1.82,5.38,3.19,1.02,1.37,5.05-1.06,6-2.58.96-1.52-5.04-4.26-10.07-8.97-5.03-4.71-17.12-12.31-19.67-13.38-2.55-1.06-12.58-1.37-17.12-1.82-4.55-.46-6.46,2.74-11.42,5.93-4.96,3.19-.29,4.71-10.33,5.02-10.04.3-16.42,10.64-13.87,6.69,2.55-3.95,10.89-8.51,14.7-8.97,3.81-.46,5.73-3.65,10.7-7.3,4.97-3.65,4.99-4.41,4.99-4.41-1.45-1.01-2.57-3.31-3.24-4.97h0Zm159.62,36.02v9.37c-.83-.09-2.21-.08-4.6.06-8.2.48-13.05,1.45-12.96-1.69.09-3.13.11-3.85.11-3.85,0,0-1.54,3.37,2.05,4.09,3.59.72,10.12,0,10.12,0,0,0-8.12-2.41-9.02-4.58-.9-2.17-.87-3.37-.87-3.37,0,0,3.27,3.37,7.09,4.58,3.82,1.2,6.9,2.89,6.9,2.89,0,0,.76-9.63-2.3-12.04-2.37-1.86,1.6,1.17,3.47,4.54h0Zm0,92.23v.29c0-.1,0-.19,0-.29h0Zm-91.96-83.66c-2.26,3.66-3.62,7.28-2.72,8.93.68,1.26,1.65,2.32,2.42,3.54,2.56.37,5.18.43,6.17.34,1.83-.15,3.45-3.65,5.03-5.78,1.58-2.13-5.06-3.65-8.65-5.78-.72-.43-1.48-.85-2.25-1.26h0Z"/><path class="e" d="m175.83,212.02c-.08-.08-.17-.06-.28,0h-2.85c.27-.27.54-.64.77-1.19-.5.3-.74.92-.83,1.19h-.07c-.04-.22-.05-.7.49-1.16.23-.2.42-.34.57-.44.01-.04.03-.08.04-.13.08-.27.16-.6.24-.97-.15-.45-.39-.89-.77-.76-.73.25-.94,1.42-1.9.83-.45-.28-.95-.5-1.37-.53-.07.53-.29,2.13-.48,3.08v.08h-.67c.15-.92.29-1.94.36-2.84-.09.12-.16.28-.21.48-.27,1.18-.9,1.57-.9,1.57,0,0,.52-.62.61-1.49.04-.39.24-.77.53-1.04.02-.4.01-.75-.01-1.06-.17-1.89.38-2.7.72-3,.22-.19.54-.76.85-1.15-.57-.92-.79-1.7-2.26-2.34-1.74-.75-3.35-1.64-2.32-3.72,1.03-2.08,2.1-2.26,1.81-3.34-.29-1.09-.26-2.16-.26-2.16,0,0,.74,1.18.67,2.31-.07,1.13-.78,1.64-1.26,2.62-.48.98-.49,2.73.3,2.89.79.16.86.25.79-.42-.07-.67.23-3.5.94-3.8.71-.3,1.12-1.94,1.12-1.94,0,0,.07,1.25-.76,2.11-.83.86-.98,3.28-.52,4.01.46.72,1.9,2.35,1.74,1.55-.16-.8-.5-1.67.27-2.14s1.13-.52.71-1.89c-.42-1.37.68-2.41.39-3.5-.29-1.09-.39-1.86-.39-1.86,0,0,.97,1.06.91,2.99-.07,1.93-.46,1.45-.23,3.08.23,1.63-.7,2.15-.7,2.15,0,0,.25-.11.6-.28.17-.68.43-1.33.81-1.8.88-1.11,1.99-1.3,1.99-1.3,0,0-1.85.72-2.4,2.91.33-.17.68-.35.96-.53.72-.46,1.34-.94,1.77-1.9.43-.96,1.36-1.05.57-2.01-.79-.96-1.42-2.32-.54-2.4.88-.08,1.43-.01,1.43-.01,0,0-.95-.17-1.24.33-.29.5-.07,1.13.56,1.49.63.36,1.05,1.15.6,1.85-.45.7-1.02,1.92-1.66,2.51-.64.59-2.35,1.11-2.48,1.83-.04.25-.13.5-.2.8-.02.44-.03.79-.04,1.07.05.36.19.77.45,1.26.86,1.62,1.87,2.04,1.32,2.35-.48.27-.43.59.2.88.41-2.4.91-5.27,1.95-6.67.19-.53.44-1,1.02-1.2,1.08-1.2,1.6-1.59,1.6-1.59,0,0-.54.54-1.21,1.51.04,0,.07,0,.11,0,.21-.01.42-.01.62,0,0-.34.11-.37.11-.37,0,0-.03.14-.02.37.49.03.96.1,1.37.14l-.25-1.05s.16.42.37,1.06c.6.04,1.08-.02,1.38-.46.61-.9.98-.69.51-.08-.37.47-.76,1.11-1.66,1.26.14.46.29.98.43,1.5h0s0,0,0,0c.11.43.21.87.29,1.28.38,2.03.62,3,.62,3,0,0,.55-2.04.18-4.07l-.38-2.03s1,2.84.56,5.03c-.44,2.19-.28,3.54-.28,3.54l.77-.62s.14-.39.2-.06c.06.33.27,2.21-.03,2.52-.3.32-.74-.55-1.15.05-.23.34-.79,1.24-1.42,1.85h-4.14Zm-104.66-3.98c.32.43.59.79,1.03.62.78-.3.96.83,1.61.87.65.04,1.35,1.87,1.78,1.13.44-.74,1.83-3.05,2.18-3.92.35-.87,2.87-3.7,2.87-3.7l.96-.17s-.78,1.39.35,1.39c1.02,0,2.32.71,3.84.08.02-.07.04-.13.06-.19.21-.57.17-1.18-.36-1.77-.53-.59-1.71-1-1.31-2.71.03-.12.05-.24.07-.36-.12.03-.24.07-.34.11-1.26.52-1.87.65-1.87.65,0,0-1.22,1.31-2,1.96-.78.65-2.09,2.66-4,2.39l-.1-.02c.43-.45.82-.9,1.17-1.33.1-.02.19-.05.28-.1.74-.41,3.48-2.79,4.05-4.27.57-1.48,1.61-1.65,2.18-1.61.48.04,1.44-.26,2.07-.18-.16-.51-.33-.85-.33-.85,0,0,.24.34.46.87.07.02.14.04.19.07.57.3.87.83,1.31,0,.43-.83,1.61-2.13,3.22-2.26.39-.03.78-.01,1.14.03.05-.41.07-.93.28-1.16.29-.31.68-.42.22-.84-.46-.42-1.09-1.4-.9-2.46.19-1.05.9-1.91.9-1.91,0,0-1.27,1.96-.36,3.23.92,1.26,1.26,1.21.86,1.7-.3.37-.49,1.03-.51,1.52.28.05.53.12.74.19.05-.88.7-2.26.7-2.26,0,0-.5,1.39-.5,2.33.34.11.55.21.55.21,0,0-.21-.07-.55-.14,0,.07,0,.14.01.2.12.9.1,1.31.1,1.31,0,0,.63,1.01.91,1.62.07.16.2.36.34.59.33-.02.64-.03.93-.04-.3-.43-.53-.78-.53-.78l.05-.64s.76.74.95.02c.19-.73,1.01-1.53.64-2.82-.37-1.3-2.39-3.81-1.98-5.8.41-1.98.75-2.79.75-2.79,0,0-.91,3.17.22,5.44,1.13,2.28,1.49,2.25,1.49,2.25,0,0,1.21-1.17,1.96-1.51.75-.34,1.99-.96,1.94-1.87s.23-1.73.23-1.73c0,0-1.26-1.54-2.24-1.68-.98-.14-1.65.81-2.63.43-.98-.38-.79-.63-.79-.63,0,0,.27.55,1.2.44.93-.11,1.8-.47,1.8-.47l-2.44-.95s1.65.32,2.71.84c1.06.52,1.6.73,1.6.73,0,0-.4-1.18-1.46-1.71l-1.06-.52s1.81.4,2.35,1.56c.54,1.16,1.18,1.57,1.18,1.57l.3-.79s-.05-.25.12-.16c.17.09,1.05.67.96,1-.09.33-.74.31-.79.83-.05.53-.16,2.5-1.16,2.98-1,.48-1.58,1.76-1.94,1.66-.36-.1-.41.73-.63.67-.22-.06.03.58-.26.53-.29-.05-.21.24-.34.72-.13.47-.85,2.17-.6,2.56.1.16.23.4.37.61.44.02.71.04.85.05.52-.93,1.56-3.3,1.56-3.3v.18s-1.49,3.49-1.49,3.49c0,0,1.6-1.63,1.93-1.73.32-.09.75-.91,1.05-.92.3,0,.55-.84.24-.77-.32.06-.98.64-.98.64l-.23-.24s.97-.28,1.12-.6c.15-.32.27-.44.63-.34.36.1,1.47-.44,1.62-.91.15-.47.1-.6.42-.46.32.15,3.56-1.44,3.35-1.79-.2-.35-.91-.84-.31-.86.6-.02.76.5,1.4.14.64-.37,1.83-1.01,2.27-2.21.44-1.2.1-1.95-.95-2.95-1.05-1-3.38-3.9-4.49-3.78-1.11.12-2.84,1.45-3.87,1.06-1.03-.4-2.17-.4-2.17-.4,0,0,.53-.4,1.46-.09.93.31,1.48.28,1.96.05s1.75-.97,2.47-.95c.71.01,1.32.65,1.22.15-.1-.51-.57-1.23-1.41-1.45-.84-.22-1.14-.43-1.58-1.02-.44-.6-1.51-2.2-1.51-2.2,0,0,.12-.21.64.53.52.74,1.4,1.93,2.05,2.17.65.24,1.26-.02.77-.87-.49-.85-.76-2.54-.76-2.54l.32.38s.26,1.5.69,2.1c.44.6.55.86.33,1.23-.22.36,1.02.87.98,1.46-.04.59.5,1.27,1.11,1.67.61.4,1.78,1.61,2.19,2.08.41.47.85,1.3,1.12.72.28-.58.72-.88,1.48-1.94.76-1.05.95-.41,1.31-1.32.37-.92,1.33-2.52,1.33-2.52l.82.52s-1.82,3.22-2.64,3.6c-.82.38-1.06,1.93-1.55,2.88-.49.95-.82,3.49-2.05,4.06-1.23.57-1.94,1.22-2.45,1.56-.51.34-1.14,1.13-2.31,1.47-1.17.35-1.9,1.52-2.49,2.15-.59.62-1.17,1.24-1.54,1.5-.37.26-1.43,1.53-1.43,1.53,0,0-.28.58.3.44.58-.14,1.43.02,1.93.16.5.13,2.86-.19,3.44-2.55.57-2.36.72-2.92.72-2.92,0,0-.2,4.55-2.11,5.66-1.91,1.1-4.47-.3-3.88.4.59.7,1.67,2.48,2.19,2.08.53-.4,1.8-.47,1.62.2-.04.17-.01.29.06.39-.04-.17-.06-.27-.06-.27,0,0,.2.16.39.51.23.12.46.24.44.49-.01.33.56.86,1.07,1.47l-.94,1.83c.11.25.25.47.42.66.52.61,2.09,2.18,2.35,3.22.01.05.02.11.03.16h-.55c-.51-1.07-1.83-2.32-2.53-3.52l-.77,1.5s-.08-.07-.13-.1c-.46-.3.04-.83.04-.83,0,0-.7-.96-1.42-1.16-.73-.19-1.56-.42-1.89-.99-.33-.57-.11-1.16-.11-1.16l-.6-.16c-.16.25-.35.49-.59.68-1.48,1.24-1.83,2.33-1.83,2.33l1.26.13s.35-.17.28.11c-.07.28-.57,1.78-1.09,1.78s-.74-.96-1.52-.83c-.24.04-.69.13-1.23.19-.28.27-.6.56-.86.69-.55.27-.53.87-1.06,1.03-.17.05-.46.15-.78.29h-3.32c-.06-.17-.06-.37.05-.58.25-.5.05-1.3.3-2.22.1-.37.25-.79.36-1.15-.65-.32-1.23-.55-1.39-.81-.43-.08-.85-.27-1.13-.64-.08-.03-.13-.08-.13-.15,0-.35-.83.26-.87-.17-.01-.13-.06-.2-.14-.24-.05.36-.08.66-.06.83.07.53.86,3.16,1.47,4.34.14.27.26.54.36.8h-1.57.01s.04-.14.04-.14c0-.02-.01-.04-.02-.07-.04-.08-.11-.17-.19-.26-.14.22-.32.42-.32.42,0,0,.13-.25.24-.5-.16-.16-.35-.32-.53-.46-.37.04-.83.11-1.22.18.38.18.74.37.81.58.03.11.13.19.26.25h-3.89c-.84-.45-1.9-.94-1.9-.94,0,0-.96-.17-.52.61.06.1.11.21.15.33h-.91c-.04-.11-.1-.12-.21,0h-6.52v-.6s-.35-1.57-1.57-1.13c-1.22.44-3.22,1.04-3.57,0-.07-.22-.19-.36-.33-.47.43-.12.87-.25,1.34-.37,1.33-.36,2.52-.84,3.59-1.4h0Zm38.33,3.98c.1-.29.16-.6.16-.94,0-1.31.17-1.83.87-2.7.7-.87,2.61-3.05,2.61-3.05,0,0,.35.09-.52,1.13-.87,1.04-2.26,2.79-2.35,3.83-.09,1.04.52,1.83,1.57.78,1.04-1.04,3.39-2.09,3.39-2.09l-.43.61s-2.09.96-2.79,1.83c-.2.24-.36.44-.52.59h-1.99Zm-16.59-16.86c-.21-.04-.46-.08-.74-.11,0,.1.02.19.05.26.15.43.18.77.46.84.28.08.23-.09.23-.96v-.04h0Zm-1.28-.14c-.98-.02-2.1.19-2.81,1.06-1.48,1.83-1.26,2.31-2.13,1.92-.19-.08-.4-.15-.63-.19.06.32.09.66.06,1v.11c.19.01.38.03.56.04.05-.12.09-.25.13-.39,0,0-.04.16-.12.39.67.07,1.18.15,1.18.15,0,0-.53-.04-1.22-.04-.17.49-.48,1.21-.89,1.64-.66.69-.43.69-.43.69,0,0,.87.56,1.05,1.09,0,0,.14.04,1.05-.68.91-.71,1.59-.89,1.86-1.57.27-.68,1.51-1.96,2.36-2.21.85-.25-1.35.36-1.9,2.18-.55,1.83-.6.89-1.42,1.62-.83.74-1.5.91-1.64,1.77-.01.07-.02.15-.04.23,1.15-.84,2.7-2.6,4.43-3.77.27-.48.54-1.07.63-1.44.11-.47.1.42-.29,1.22.76-.47,1.55-.81,2.35-.9-.41-.8-1-1.73-1.51-2.1-.85-.62-.78-1.32-.66-1.67.02-.05.03-.11.04-.18h0Zm-5.75,2.76c-.56-.07-1.17-.04-1.64.08.15.22.27.57.26,1.11.08-.01.16-.02.24-.03l.2-.5s-.05.2-.13.49c.36-.03.75-.03,1.13-.01.04-.38.01-.77-.05-1.14h0Zm-1.76.11c-.17.05-.32.12-.42.19-.57.39-1.04.57-1.04,1s.22.3,1.48-.04c.05-.01.1-.03.16-.04.04-.51-.06-.87-.17-1.11h0Zm2.51,1.19c-.17,0-.36,0-.54,0-.15,1.18-.38,1.35-.38,1.35,0,0,.54-.46.92-1.36h0Zm-.72.01c-.4.02-.81.05-1.19.12-.09.3-.19.66-.29.97-.24.77.39.79.39.79,0,0,.89-.58,1.09-1.88h0Zm-1.29.14s-.09.02-.14.03c-.02.17-.05.35-.09.55l.23-.58h0Zm13.6-.28c-.14,0-.41,0-.78.03.19.27.39.46.55.31.05-.04.13-.17.23-.34h0Zm-2.59.25c-.28.05-.58.11-.89.18.3.57.53,1.25.24,1.93-.5,1.18-1.56,2.04-1.7,2.45-.14.41,1.98-.34,1.98-.34,0,0-.59.65-1.27.71-.67.06-.53.07-.97.28-.45.21-.63.22-.98,1.2-.26.71-.5,1.39-.62,1.87.79.83,1.82,1.65,2.81,1.32.26-.08.51-.15.76-.2.47-.39.82-.76.9-1.05.25-.92-.59-1.47-.18-2.02.42-.55,1.38-.47,1.32-1.02-.06-.55.69-.47.83-.88.02-.06.06-.11.12-.16-.54-.82-1.36-1.45-1.24-2.58.01-.09.02-.18.03-.26l-.03-.02c-.25-.19-.73-.82-1.14-1.39h0Zm-1.58.36c-.93.27-1.89.66-2.75,1.22-.18.31-.42.64-.73.88-.98.74-.29,1.75-.67,3.4-.07.3-.11.55-.13.74.39.3.75.62.98.91.05.07.11.13.17.21.19-.84.27-1.15.39-1.52.12-.4.28-.43.11-.9-.17-.47-.44-2.65-.28-2.9.16-.26.52-.7.52-.7,0,0-.4.45-.38.97.02.53.23,1.93.6,1.88.37-.05.47-.08.66-.51.19-.43.46-1.37.8-1.58.34-.21,1.11-.9.97-1.45-.03-.13-.12-.36-.25-.64h0Zm-3.14,1.49c-.14.11-.28.22-.42.34l-.02.02c-.04.07-.06.1-.06.1,0,0,.23-.18.49-.46h0Zm-.75.63c-2.53,2.27-2.37,2.76-2.37,2.76,0,0,.82.49,1.63,1.09.14-.5.35-1.22.42-2.15.05-.71.17-1.26.32-1.69h0Zm7.6,5.22c.25-.5.48-1.06.59-1.58-.3.07-.67.26-.63.77.02.24.04.52.04.8h0Zm-.74-6.09c.03.18.08.37.17.58.3.76.73,1.46,1.03,1.92.14-.07.31-.14.45-.21l.07-.61c-.42-.43-1.2-1.23-1.71-1.68h0Zm1.61,4.48c-.18,1-.23,1.5-.23,1.5,0,0,.68-.45,1.24-1.25l-.93-.25s-.03,0-.08,0h0Zm-5.6,4.7c-.56-.1-1.06-.31-1.39-.7-.1-.12-.22-.23-.34-.34-.05,1.02-.03,2.32.53,1.87.25-.2.69-.5,1.2-.83h0Zm-2.32-1.47c-.21-.14-.43-.26-.65-.37-.04.25-.05.49-.03.65.08.44,0,.91-.19,1.61-.19.7.17,1.6.48.61.31-.99.18-.73.31-1.73.04-.31.06-.56.07-.77h0Zm-2.33-1.6c-.11-.13-.35-.18-.58-.21.13.09.28.15.45.19l.12.03h0Zm-2.89-.86s-.07,0-.11,0c.06.09.09.15.09.15,0,0,0-.06.02-.16h0Zm-1.91-.09c-.67-.04-1.38-.06-1.86.03.27.19.85.46,1.63.08.08-.04.16-.07.23-.1h0Zm-1.89.03c-.22.04-.39.11-.47.2-.48.52-1.61,1.48-1.09,1.83.44.29,4.43.93,5.65,1.12,0-.34-.62-1.22-.52-2.06.11-.99-1.26-1.23-2.1-.77-.63.34-1.21-.08-1.47-.32h0Zm4.04,3.27l-5.51-.81s3,1.7,3.26,2.13c.11.18.39.33.71.49.38-.06.88-.14,1.28-.2-.19-.14-.33-.24-.33-.24l.26-.43s.18.29.42.61c.16-.03.28-.05.3-.06.13-.05-.11-.66-.27-.85-.16-.19-.26-.03-.35.13-.09.16-.11-.03-.11-.03,0,0,.05-.57.33-.73h0Zm.21,1.71c.1.12.2.23.3.33.07-.17.1-.32.05-.34-.03-.01-.16,0-.35.01h0Zm.4.42c.08.07.15.12.23.16l.09-.29s-.18-.21-.28.06c0,.03-.02.05-.03.08h0Zm.5.23s.08.02.11.03l-.06-.24s-.02.08-.05.21h0Zm83.6.39l.1-.16s0,.06,0,.16h-.11Zm18.6,0c.02-2.58-.05-5.22-.56-5.97-.87-1.27-3.04-1.79-3.49-3.62-.45-1.83-1.25-3.3-1.25-3.3,0,0,.65.17,1.09,1.77.44,1.6.85,2.26,1.35,2.58.5.32,1.92,1.01,2.42,1.95.5.93.47,2.54.76,1.75.29-.79.47-2.31.03-3.68-.43-1.37-.51-2.02-.4-3.35.11-1.33.49-4.76.49-4.76,0,0,.23-.12.08,1.5-.15,1.62-.38,4.28-.08,5.43.3,1.14.91,1.6,1.16-.13.25-1.72,1.26-4.24,1.26-4.24l-.05.9s-.88,2.26-.99,3.6c-.11,1.33-.23,1.81-.63,2-.41.19.11,2.44-.34,3.15-.44.71-.55,2.27-.4,3.58.03.23.05.52.06.85h-.52Zm-32.25,0c.04-.07.08-.14.13-.21.78-1.12-.02-3.2-.94-3.69-.92-.49-.81-2.67-.81-2.67,0,0-.04,1.87,1.12,2.59,1.16.72,1.17,1.8,1.17,1.8,0,0,.31-.93-.56-2.08-.87-1.15-.72-3.31-.72-3.31,0,0-.05,1.94.9,3.25.95,1.31.6,3.26.6,3.26,0,0,1.16-1.71,1.71-2.17.55-.46.95-1.3,1-2.75.04-1.44-.5-3.48,1-5.17,1.5-1.7,1.28-3.34,1.28-3.34,0,0,.52,1.76-1.24,3.79l1.36-1.07s-.88.92-1.59,1.61c-.72.69-.29,1.52-.29,1.52,0,0,1.1.42,2.2-1.16,1.1-1.58,1.63-4.44,1.63-4.44,0,0-.27,2.83-1.38,4.49-1.11,1.65-1.44,1.57-1.44,1.57,0,0,.97.13,2.09-.98,0,0-1.3,1.37-2.26,1.4-.96.03-.79.35-.79.35,0,0,.22,1.84-.03,2.76,0,0,.07.23,1.22.48,1.15.25,1.75.89,2.42.37.67-.52,2.45-.57,3.23.19.78.76-1.21-1.28-2.89.36-1.68,1.64-1.05.37-2.15.26-1.1-.11-1.71-.75-2.42.17-.54.71-1.63,1.96-2.25,2.84h-1.31Zm2.33,0c.19-.53.37-.66.37-.66,0,0-.11.25-.23.66h-.14Zm4.26,0c.81-1.05,1.44-1.39,1.9-1.49.58-.12,1.67-.78,2.14-1.31.47-.52-.41,1.01-1.42,1.37-1,.36-1.51.65-1.51.65,0,0,1.12.25,1.85-.39.73-.64-.62,1.08-1.84.78-.4-.1-.69.07-.95.39h-.17Zm2.4,0h.03s-.04,0-.04,0h0Zm4.27-3.67c.11.01.22.05.33.1.85.41,1.07.62,1.48.19.41-.43.95-.2.44-1.12-.31-.56-.4-1.33-.63-2.09-.37.44-.74.95-.95,1.45-.3.72-.53,1.2-.68,1.48h0Zm1.56-3.14c-.12-.37-.28-.73-.52-1.08-.43.4-.82.98-.94,1.45-.2.75-.41,1.22-.27,1.68.14.45.23.19.84-.94.21-.4.55-.78.89-1.12h0Zm3.15,2.1c.92.36,2.12,1.08,1.73.03-.27-.75-.79-2.61-.92-4.04-.17.52-.31,1.07-.42,1.64-.18.97-.31,1.75-.4,2.37h0Zm5.24-7.27c-.21.02-.44.01-.7-.02-.29-.04-.54-.09-.75-.14.08.31.22.66.47,1.02.15.21.3.41.45.58.38.05.7.06.9.06l-.36-1.49h0Zm-1.57-.19c-.87-.19-1.21-.28-1.56.6-.44,1.12-.86,2.51-.27,2.14.59-.37.93-1.68,1.98-1.32.1.03.2.06.29.09-.11-.2-.21-.44-.28-.75-.07-.3-.12-.55-.16-.76h0Zm1.99,1.91c-.1.09-.26.19-.48.23.39.39.68.61.68.61l-.2-.84h0Zm-1.02.21c-.05-.01-.11-.02-.17-.04-1.08-.29-1.51.09-2.1.67-.59.58-1.13.14-.76,1.53s.69,3.36.71,2.25c.02-1.12-.19-2.7.54-3.11.74-.41,1.46,1.68,2,.95.55-.73.71,1.08-.26.6-.98-.48-1.48-1.56-1.77-.69-.3.87.15,2.34-.11,3.15-.26.81.52,1.34-.17,1.53-.69.19-1.13.14-.97.74.05.17.07.34.1.5.24.08.46.17.63.29.21.14.46.31.73.45.21.04.37.11.46.2.58.19,1.16.15,1.51-.56.61-1.24,1.39-1.94,1.39-1.94,0,0,.19-3.6-.4-5.04-.34-.84-.88-1.07-1.35-1.46h0Zm41.97,10.03l-.27-.86s-.72-1.43-1.28-.24c-.16.34-.35.73-.55,1.09h-7.08c-.68-.54-1.7-1.17-2.01-.56-.09.17-.2.37-.33.56h-3.14c.03-1.03.18-1.9.32-2.28.14-.39.57-1.99.31-2.27-.25-.28-.58-.24-.5-.51.08-.27.58.05.58.05l1-3.17s-1.67,2-1.97,1.89c-.3-.11-.39.66-.79.65-.4,0-1.18-.77-1.18-.77,0,0,.44.02.72.16s.34.55.58-.06c.24-.62.67-.52.67-.52l1.92-1.83s.02-.51-.24-.29c-.26.22-.78.27-.78.27,0,0,1.04-.57.97-.84-.07-.26-1.92-2.8-2.21-2.93-.29-.12-1.36-.87-1.36-.87l1.38.58-.14-1.49.31,1.56s1.92,2.57,2.05,2.67c.13.1.39-.98.41-1.43.02-.45-.17-.37-.34-.28-.17.09-.06-.18-.06-.18,0,0,.44-.67.75-.52.32.15.44-2.29,1.22-3.41.78-1.12-.01-3.2-.94-3.69-.92-.49-.81-2.67-.81-2.67,0,0-.04,1.87,1.12,2.59,1.16.72,1.17,1.8,1.17,1.8,0,0,.31-.93-.56-2.08-.87-1.15-.72-3.31-.72-3.31,0,0-.05,1.94.9,3.25.95,1.31.6,3.26.6,3.26,0,0,1.16-1.71,1.72-2.17.55-.46.95-1.3,1-2.75.04-1.44-.5-3.48.99-5.17,1.5-1.7,1.28-3.34,1.28-3.34,0,0,.52,1.76-1.23,3.79l1.36-1.07s-.88.92-1.59,1.61c-.71.69-.29,1.52-.29,1.52,0,0,1.1.42,2.2-1.16,1.1-1.58,1.63-4.44,1.63-4.44,0,0-.27,2.83-1.38,4.49-1.11,1.65-1.44,1.57-1.44,1.57,0,0,.98.13,2.09-.98,0,0-1.3,1.37-2.26,1.4-.96.03-.79.35-.79.35,0,0,.22,1.84-.03,2.76,0,0,.07.23,1.22.48,1.15.25,1.75.89,2.42.37.67-.52,2.45-.57,3.23.19.78.76-1.21-1.28-2.89.36-1.68,1.64-1.05.37-2.15.26-1.1-.12-1.71-.76-2.42.17-.71.93-2.33,2.75-2.66,3.52-.32.77-1.63,5.17-2.03,7.48-.4,2.31-1.14,4.18-.85,4.47.29.3,1.18.34,1.22-.25.05-.59.06-1.58.6-1.9.53-.32.96-1.61,1.78-2.48.83-.87,2.07-1.69,1.61-2.18-.46-.49-1.52-2.2-1.27-4.16.25-1.96.73-2.32.73-2.32,0,0-.95,2.25-.32,4.04.64,1.79-.09-.6.21-1.77.3-1.16.97-1.35.97-1.35,0,0-1.15,2-.72,3.46.43,1.46.46.61.75.06.29-.55,1.27-1.15,2.38-2.9,1.12-1.75,1.94-2.25,2.52-2.37.58-.12,1.67-.78,2.14-1.31.47-.52-.41,1.01-1.42,1.37-1,.36-1.51.65-1.51.65,0,0,1.12.25,1.84-.39.73-.64-.62,1.08-1.84.78-1.21-.3-1.44,1.88-2.87,3.51-1.44,1.63-1.02,2.16-.86,2.36.16.19.07.63-.25.84-.32.21-1.19,1.15-1.44,1.82-.26.66-.65,1.17-1.27,1.82-.63.66-1.01,2.28-.09,1.4.92-.88.64-.71,1.44-1.82.8-1.11.91-1.6,1.74-2.56.83-.96,1.12-1.26,1.49-1.62.37-.36.5-.2.71-1.02.21-.82,1.56-3.97,1.85-4.1.29-.13.86-.24.86-.24,0,0-.6.05-.96.76-.36.71-1.2,2.78-.9,3.2.3.42.39.5.83.19.44-.31,1.29-1.18,1.68-1.01.39.17,1.42.27,1.71-.61.29-.88,1.08-5.02.91-6.91-.17-1.89.38-2.7.72-3,.34-.3.92-1.51,1.35-1.54.43-.02.78.34.75-.79s.22-3.2,1.1-4.31c.88-1.11,1.99-1.3,1.99-1.3,0,0-2.29.89-2.53,3.69-.24,2.81.04,3.18-.59,3.29-.63.12-1.5,1.15-1.7,1.91-.2.75-.41,1.22-.27,1.68.14.46.23.19.84-.94.61-1.13,2.18-2.17,2.18-2.17,0,0-1.62,1.4-2.18,2.71-.55,1.31-.86,1.81-.86,1.81,0,0-.27,2.1-.5,3.26-.23,1.16-.32,4.04-1.51,4.92-1.19.88-2.54.61-2.93.96-.39.35,1.64,2.11,1.64,2.11,0,0-.88.07-1.4-.72-.52-.79-.42-.59-.88-.89-.46-.3-.6-.52-1.54.29-.95.81-1.84,1.57-2.11,2.09-.27.52-2.79,4.14-1.72,4.36,1.07.21,4.36,1.86,5.19.99.83-.87.62-2.66,1.31-2.83.68-.17,1.31,1.18,1.66.38.35-.79.83.29,1.22-.06.39-.35,1.4,1.14,1.4.11,0-1.04.04-4.29-.05-5.41s.42-5.61.42-5.61l.49-.76s.01,1.93.66,1.25c.65-.68,1.79-.67,2.45-2.81s1.01-7.98,2.7-10c1.69-2.02,2.5-2.63,2.5-2.63,0,0-2.88,2.91-3.7,7.28-.81,4.38-.54,4.82-.54,4.82,0,0,1.69.05,2.45.58.77.53,2.09,1.33,2.7.08.61-1.24,1.39-1.94,1.39-1.94,0,0,.19-3.6-.4-5.04-.59-1.44-1.75-1.08-2.17-2.83-.42-1.75-.11-1.83-.11-1.83,0,0-.2,1.06.54,2.11.73,1.05,1.61,1.71,1.61,1.71l-1.05-4.36s.94,2.54,1.32,4.57c.38,2.03.62,3,.62,3,0,0,.55-2.04.18-4.07l-.38-2.03s1,2.84.56,5.03c-.44,2.19-.28,3.54-.28,3.54l.77-.62s.14-.39.2-.06c.06.33.27,2.21-.03,2.52-.3.32-.74-.55-1.15.05-.41.61-1.88,3.01-2.93,2.35-1.04-.66-2.36.23-2.55-.36-.19-.59-.8.42-.92.05-.12-.36-.39.77-.56.34-.17-.43-.32.04-.75.48-.43.45-2.13,1.69-2.24,2.53-.1.84-.43,2.52-.02,2.57.42.05,3.84-2.4,3.84-2.4l-.12.25-3.53,2.55s2.29-.04,2.58.26,1.17-.2,1.39.18c.22.38.98-.37.71-.69-.27-.32-1.14-.44-1.14-.44v-.61s.89.89,1.22.67.5-.22.69.37c.19.59,1.35,1.31,1.79.91.44-.4.5-.64.62-.04.12.6,3.53,2.72,3.64,2.01.11-.72-.05-2.26.39-1.5.44.75.18,1.63.89,1.98.71.35,2,1.05,3.16.08,1.16-.97,1.45-2.37,1.41-5.01-.04-2.63.36-9.37-.51-10.64-.87-1.27-3.04-1.79-3.49-3.62-.45-1.84-1.25-3.3-1.25-3.3,0,0,.65.16,1.09,1.77.44,1.6.85,2.26,1.35,2.58.5.32,1.92,1.02,2.42,1.95.5.93.47,2.54.76,1.75.29-.79.47-2.31.03-3.68-.43-1.37-.51-2.02-.4-3.35.11-1.33.49-4.76.49-4.76,0,0,.23-.12.08,1.5-.15,1.62-.38,4.28-.08,5.43.3,1.15.91,1.6,1.16-.13.25-1.72,1.26-4.24,1.26-4.24l-.05.9s-.88,2.26-.99,3.6c-.11,1.33-.23,1.81-.63,2-.41.19.11,2.44-.34,3.15-.44.71-.55,2.27-.4,3.58.15,1.3.12,4.37.08,5.5-.04,1.13-.32,2.77.29,2.37.61-.4,1.13-.22,2.42-.59,1.28-.38.95.7,1.86-.01.91-.71,2.72-1.52,2.72-1.52l.21,1.72s-3.57,1.8-4.41,1.24c-.85-.57-2.11,1.13-3.13,1.71-1.02.58-3.05,3.44-4.32,2.59-1.27-.85-2.23-.93-2.83-1.15-.6-.22-1.61-.01-2.68-1.07-1.07-1.06-2.42-.49-3.28-.44-.85.05-1.71.09-2.15-.05-.44-.14-2.09.13-2.09.13,0,0-.61.4-.1.95.51.56.99,1.87,1.25,2.69.26.82,2.16,3.44,4.23,1.14,2.07-2.3,2.57-2.83,2.57-2.83,0,0-1.7,2.84-3.46,4.1h-2.68c-1.66-1.59-2.31-5.49-2.38-4.01-.04,1-.25,2.75-.25,4.01h-3.41Zm-79.69-1.25c-.08-.6-.18-1.07-.86-1.54-1.01-.7-3.95-1.41-3.95-3.52s0-3.32-.27-3.72c-.27-.4-.16,1.61-.64,1.21-.48-.4.27-1.81-.69-1.81s-2.88-1.41-3.1-.4c-.21,1.01-1.6-.5-1.92-2.11-.32-1.61-.43-5.33-4.7-6.24-4.27-.9-5.02-1.11-5.02-1.11,0,0,2.88-1.11,5.55.1,2.67,1.21,4.32,5.73,5.23,6.44.91.7,2.78.7,3.68,1.51.91.8,2.77.6,2.99.1.21-.5-.05-1.21-.05-1.21,0,0-1.81-.5-2.19-1.91-.37-1.41-.48-1.81-.48-1.81,0,0,.59,1.41,1.65,2.11,1.07.7,1.55-.91.96-1.41-.59-.5-1.17-.91-1.23-2.01-.05-1.11-.96-1.61-1.55-2.41-.59-.8.21-1.21-1.6-1-1.81.2-2.88.6-2.88-.7v-1.61s-.32,1.41.48,1.71c.8.3,2.24,0,2.24,0,0,0-1.81-1.01-2.03-1.91-.21-.91-.21-1.41-.21-1.41,0,0,.75,1.41,1.6,1.91.85.5,1.55,1.21,1.55,1.21,0,0,.11-4.02-.59-5.03-.69-1.01,1.01,1.41,1.01,3.12s.11,1.91.11,1.91l.64-1.41,1.55-.3-1.44.91s-.27.5.11,1.01c.37.5,1.12.7,1.33,1.71.21,1.01.16,2.01.75,1.41.59-.6,1.81-.4,1.81-.4,0,0,.43-.9-.59-1.31-1.01-.4-1.65-2.21-1.65-2.21l.32-.5s-.11.8.91,1.31c1.01.5,1.39,2.01,1.39,2.01l.69-3.62-.43,3.82s.48-.1,1.33-1.51c.85-1.41,1.23-2.41,1.23-2.41,0,0-1.76,3.92-2.03,4.32-.27.4,1.6-1.21,2.13-2.01.53-.8-1.71,2.61-1.71,2.61,0,0,1.44.2,2.46-1.21,1.01-1.41-1.39,1.81-1.76,1.81s1.44.3,2.67-1.41c1.23-1.71-.48,1.41-1.97,1.81-1.49.4,3.9-.3,5.82-3.92,1.92-3.62,4.16-4.43,4.16-4.43l-.21.8s-1.71.5-3.2,3.22c-1.5,2.71-3.15,4.22-4.27,4.42-1.12.2-2.35,1.01-3.31.4-.96-.6-2.62-1.01-2.62.5s-.16,3.42-.16,3.42c0,0,1.28,1.41,2.14.1.85-1.31.96-1.21,1.71-1.11.75.1-.16.4,1.01-.1,1.17-.5,4.11,4.73,4.11,4.73l-.59-.6s-1.65-2.21-2.72-2.72c-1.07-.5-1.44.7-1.66.1-.21-.6-.75-1.01-1.23.1-.48,1.11-1.44.8-1.97.91-.53.1-1.28.8-1.12,2.41.16,1.61.16,3.02.59,1.81.43-1.21.05-2.71,1.07-2.21,1.01.5,1.49,1.71,2.35,2.41.85.7,3.1,2.21,3.95,2.51.85.3,1.66,1.51,2.62.6.96-.91,1.6-1.51,1.6-1.51l-.48-5.73h.32l.27,4.63.32-3.92.16.8-.27,3.92s.64-1.41,1.23-1.71c.59-.3.91,1.21.59,1.71-.32.5-.53-.4-.91.6-.37,1.01-1.87,3.22-3.31,2.92-1.44-.3-1.07.8-1.87-.3-.8-1.11-1.49-.4-1.97-1.21-.48-.8-.53-.7-1.07-.8-.53-.1-.96,0-1.44-1.01-.48-1.01-1.92-3.12-1.92-1.41s-.75,2.51.64,2.72c1.39.2,2.88,3.32,2.88,4.93,0,.12,0,.24,0,.38h-.14l-1.93-1.25h0Z"/><path class="e" d="m78.98,193.26c.36.5.72,1.04,1.08,1.63-.84,1.92-2.56,3.3-2.79,3.97-.23.68,3.29-.56,3.29-.56,0,0-.99,1.08-2.11,1.18-1.12.1-.88.11-1.62.46-.74.35-1.05.37-1.63,2-.59,1.64-1.15,3.18-1.13,3.83.01.28-.1,1.42-.12,2.54l-1.07-.29c.21-1.62.04-2.08.39-3.66.35-1.6.5-2.13.7-2.8.2-.67.47-.72.18-1.5-.29-.78-.74-4.41-.47-4.84.26-.43.86-1.16.86-1.16,0,0-.67.74-.63,1.62.04.88.38,3.22,1,3.13.62-.08.78-.14,1.1-.85.32-.71.76-2.29,1.33-2.63.5-.31,1.56-1.24,1.64-2.08h0Zm3.58,7.75c.29,1.3.47,2.71.47,4.24,0,.54,0,1.05.02,1.54-.6.46-.7,1.49-1.64,1.47,0,0-.81.95-1.61,1.62l-.95-.25-1.83-.49c1.93-1.29,4.32-2.93,4.6-3.98.41-1.53-.99-2.46-.29-3.37.31-.41.8-.61,1.24-.78h0Zm-10.63,6.76l-.79-.21c.44-1.46,1.16-3.12.38-2.92-.86.22-3.21.37-4.19-1.19-.98-1.56-.64-2.36-.64-2.36,0,0,.33,2.58,2.24,2.99,1.91.41-.5-.28-.9-1.39-.4-1.1.27-2.02.27-2.02,0,0-.06,2.65,1.39,3.09,1.45.44.94-.15.92-.85-.01-.7.75-2.24.93-4.68.18-2.44.83-3.74,1.43-4.5.6-.76,1.46-2.47,1.67-3.36.21-.89.17,1.14-.78,2.56-.95,1.41-1.36,2.2-1.36,2.2,0,0,1.48-1.15,1.92-2.43.44-1.28-.04,1.44-1.66,2.67-1.63,1.23-.48,2.91-1.12,5.66-.64,2.75.2,2.6.52,2.53.32-.07.48.33.25.84-.24.51-.65,2.14-.52,2.87.03.17.04.34.05.51h0Zm-5.94-1.59l-1.92-.51c-.11-.41-.16-.84-.11-1.26.19-1.64-2.09-2.05-3.49-1.28-1.4.77-2.68-.77-2.68-.77,0,0,1.16,1.26,3,.35,1.84-.9,2.55-.21,2.55-.21,0,0-.24-.96-2.01-.69-1.77.27-2.99-1.3-2.99-1.3,0,0,1.19,1.32,3.16,1.05,1.97-.27,2.81,1.4,2.81,1.4,0,0,.26-2.47.62-3.42.35-.95.28-1.97-.6-2.95-.88-.98-2.84-1.66-2.18-4.52.67-2.86-.66-3.66-.66-3.66,0,0,1.75.52,1,3.9l.91-2.3s-.44,1.63-.83,2.92c-.39,1.29.64,1.32.64,1.32,0,0,1.57-1.02,1.84-3.34.27-2.32-.96-4.79-.96-4.79,0,0,1.52,2.15,1.28,4.53-.24,2.38-.68,2.71-.68,2.71,0,0,1.23-1.07,1.83-3.1,0,0-.65,2.42-1.75,3.57-1.11,1.15-.71,1.16-.71,1.16,0,0,1.44.93,1.76,1.82,0,0,.23.06,1.75-1.13,1.51-1.19,2.64-1.49,3.09-2.61.45-1.12,2.52-3.26,3.93-3.68,1.41-.42-2.25.59-3.17,3.64-.92,3.04-.99,1.48-2.37,2.7-1.38,1.23-2.5,1.52-2.74,2.96-.23,1.43-.96,4.53-.85,5.4.04.33.25,1.13.55,2.12h0Z"/><path class="e" d="m84.58,117.16s-14.37-6.44-18.77,4.93c-4.4,11.37-5.36,14.48-7.29,14.59,0,0-.92.49-.78-.7.14-1.19.3-2.93-1.58-2.93s-1.69,2.74-1.69,2.74c0,0-.7-.06-1.02.5,0,0-2.68-2.07-3.76-.36-1.08,1.71.94,3.07,1.66,3.29,0,0-.28,1.93-6.3.17-6.02-1.77-24.32-9.89-24.98,9.01,0,0,6.3-6.52,10.94,2.21,0,0,6.85-9.18,12.6-.99,0,0,7.19-8.84,10.39,1.44,0,0-.33-8.24,4.64-4.81,0,0,1.27-5.58,6.25-.83,0,0-5.31-10.28,6.02-8.4,0,0-1.33-10.56,9.06-8.96,0,0-4.14-8.51,4.6-10.89h0Z"/><path class="g" d="m55.88,135.98c.4,0,.72.43.72.97s-.32.97-.72.97-.72-.43-.72-.97.32-.97.72-.97h0Z"/><path class="g" d="m52.64,137.65c-.28.28-.2.81.18,1.19s.91.46,1.19.18c.28-.28.2-.81-.18-1.19-.38-.38-.91-.46-1.19-.18h0Z"/><path class="e" d="m56.83,167.49s-6.26-8.37-12.48-3.19c-6.22,5.18-7.78,6.67-8.94,6.11,0,0-.69-.01-.23-.66.46-.64,1.12-1.6.03-2.21-1.09-.61-1.86,1.04-1.86,1.04,0,0-.39-.26-.75-.04,0,0-.89-2.07-2.06-1.42-1.18.65-.44,2.08-.1,2.44,0,0-.78,1.03-3.71-1.94-2.93-2.97-10.92-13.59-17.41-2.83,0,0,5.76-1.75,5.64,4.81,0,0,6.94-3.11,7.63,3.49,0,0,7.02-2.82,5.57,4.19,0,0,2.46-4.89,4.25-1.29,0,0,2.54-2.83,3.89,1.53,0,0,.24-7.68,6.21-2.93,0,0,2.64-6.56,8.15-2.27,0,0,.34-6.28,6.18-4.84h0Z"/><path class="g" d="m34.11,169.16c.23.13.28.48.1.79-.17.31-.5.46-.73.33-.23-.13-.28-.48-.1-.79.17-.31.5-.46.73-.33h0Z"/><path class="g" d="m31.69,169.08c-.25.07-.38.41-.28.75.1.34.38.56.63.49.25-.07.38-.41.28-.75-.1-.34-.38-.56-.64-.49h0Z"/><path class="e" d="m87.32,167.91s-5.36-3.4-7.77.87c-2.41,4.28-2.98,5.46-3.76,5.39,0,0-.4.14-.27-.32.12-.47.29-1.15-.46-1.26-.75-.11-.83.99-.83.99,0,0-.28-.07-.44.14,0,0-.95-.98-1.48-.36-.53.62.2,1.28.47,1.41,0,0-.22.75-2.52-.3-2.3-1.06-9.12-5.36-10.48,2.14,0,0,2.89-2.23,4.23,1.52,0,0,3.27-3.26,5.08.34,0,0,3.38-3.11,4.06,1.18,0,0,.35-3.3,2.13-1.65,0,0,.83-2.15,2.54.03,0,0-1.52-4.41,2.89-3,0,0,.09-4.29,4.13-3.04,0,0-1.16-3.63,2.47-4.08h0Z"/><path class="g" d="m74.78,173.74c.16.02.26.21.23.43-.03.21-.18.37-.34.34-.16-.02-.26-.21-.23-.43.03-.21.18-.37.34-.34h0Z"/><path class="g" d="m73.39,174.22c-.13.1-.13.31,0,.49.13.17.34.23.46.14.13-.1.13-.31,0-.49-.13-.17-.34-.23-.46-.14h0Z"/><path class="e" d="m283.65,211.34v16.01H.19v-16.01c38.43-6.72,87.83-10.76,141.73-10.76s103.3,4.04,141.73,10.76h0Z"/><path class="e" d="m146.78,37.42s.32.3.06.61c0,0-.13.09-.07.52.06.43.04.91.11.65.07-.26.31-.91.31-1.1,0-.19-.13-.39.02-.53.15-.14.18-.25.31-.17.12.08.24.27.19.5-.05.23-.19.18-.19.36s-.08,2.6.6,4.16c.68,1.56,1.05,2.3,1.09,2.78.04.48-.02,1.87.11,2.2.13.33.87,2.5.61,2.92-.26.43-.74-.07-1.07.11-.33.19-.61.35-.48.5.13.15.96.89.67,2.39,0,0-1.35-1.37-1.5-1.48,0,0-.56.13-.84-.04,0,0-.79.69-1.04,1.46,0,0-.69-1.13.21-2.29,0,0-.06-.35-.17-.46-.11-.11-.19,0-.36.17-.17.17-.84.32-1.01-.42-.17-.74-.16-3.22.34-4.83,0,0-.1-.7-.52-1.26q-.42-.56-.23-.73c.19-.18.33-.3.63-.46,0,0,1.16-2.75,1.36-3.3.2-.56.37-1.24.41-1.63.04-.39.15-.67.46-.63h0Z"/><path class="e" d="m57.45,14.32s.06-.07.14-.06c0,0,.16-.09.27.09.11.18.16.24.12.62-.04.39.33,1.79.44,2.74.11.95.32,1.86.46,1.91.14.06.08-.65,0-.96-.08-.32.1-.1.2.28.1.38.39,1.32.5,1.49.11.17.31-.17.32-.85s-.39-1.91-.74-2.25c-.35-.35-.65-.35-.65-.35,0,0,.42-.13.67,0,.25.13,1.7,1.45,2.21,3.61,0,0,.14.25,0,.54-.14.28-.35,1.53-.55,2.51-.2.98-.2.65-.41,1.19s-.46,1.34-.66,1.99c-.2.65-.46,1.58-.63,1.55-.17-.03-.13-1.15-.27-1.96-.14-.81-.49-1.45-.58-1.39-.07.04-.14.31-.23.54-.07.17-.1.22.03.35.3.3.85,1.14.41,2.41,0,0-.6-1.44-.82-1.66,0,0-.35.16-1,.09,0,0-.65.93-.84,1.61,0,0-.6-1.23.3-2.31,0,0-.11-.32-.06-.81,0,0-.44.62-.65,2.45,0,0,.03.58-.22.58s-.29-.84-.21-1.38-.33-2.97-.52-4.02c-.19-1.04-.19-1.42.16-2.75.35-1.33.21-1.55.46-1.91.25-.36.73-1.55,1.03-1.76.3-.21.17.08-.02.4-.19.32-.55,1.72-.59,2.75,0,0,.05.32.33-.65.28-.96.68-1.5.73-1.94.05-.44.11-1.49.19-1.87s.05-.76-.03-.7c0,0-.04.05-.03.09,0,0-.04-.11.02-.16.06-.06-.09-.02-.09-.02,0,0,.15-.25.37-.03.22.22.26.26.15.54-.11.28-.05.38-.03.7.02.32.24,1.18.24,1.48s-.05.78.07.77c.12,0,.32-.4.28-1.23-.03-.84.13-1.42.03-1.68-.1-.25-.1-.35-.27-.6h0Z"/><path class="e" d="m243.95,52.22s.07-.09.18-.07c0,0,.2-.12.34.11.14.23.2.3.15.8-.05.5.43,2.29.57,3.5.14,1.22.41,2.38.59,2.45.18.07.1-.83,0-1.24-.1-.4.13-.12.25.36.12.49.5,1.69.64,1.91.14.22.39-.21.41-1.09,0-.88-.51-2.44-.95-2.89-.45-.45-.83-.45-.83-.45,0,0,.54-.16.86,0,.32.16,2.18,1.85,2.83,4.63,0,0,.18.32,0,.69-.18.36-.45,1.96-.71,3.22-.26,1.26-.26.83-.53,1.52-.26.69-.59,1.72-.85,2.55-.26.83-.59,2.03-.81,1.99-.22-.04-.16-1.48-.34-2.51-.18-1.03-.63-1.85-.75-1.78-.09.05-.18.4-.3.69-.09.22-.12.29.04.45.38.38,1.09,1.46.53,3.08,0,0-.77-1.84-1.05-2.13,0,0-.45.2-1.28.12,0,0-.83,1.2-1.07,2.07,0,0-.77-1.58.39-2.96,0,0-.14-.41-.08-1.03,0,0-.57.79-.83,3.14,0,0,.04.75-.28.75s-.37-1.07-.26-1.76c.1-.69-.43-3.81-.67-5.15-.24-1.34-.24-1.82.2-3.52.45-1.7.26-1.99.59-2.45.32-.47.93-1.99,1.32-2.25.38-.26.22.1-.02.51-.24.4-.71,2.21-.75,3.52,0,0,.06.41.43-.83.37-1.24.87-1.92.93-2.49.06-.57.14-1.9.24-2.39.1-.49.06-.97-.04-.89,0,0-.05.07-.04.11,0,0-.05-.14.02-.21.07-.07-.11-.02-.11-.02,0,0,.2-.31.48-.04.28.28.33.34.19.69-.14.35-.06.49-.04.89s.3,1.51.3,1.89-.06,1,.09.99c.15-.01.41-.51.37-1.58-.04-1.07.16-1.82.04-2.15-.12-.32-.12-.45-.35-.77h0Z"/><path class="e" d="m65.02,19.05s.29.27.05.56c0,0-.12.08-.07.47.05.39.03.82.1.59.07-.24.29-.83.28-1,0-.17-.12-.35.02-.48.13-.13.17-.23.28-.15s.22.24.18.45c-.04.21-.18.16-.18.33s-.08,2.37.55,3.78c.62,1.41.96,2.09.99,2.52.03.44-.02,1.7.1,2s.79,2.27.56,2.66c-.24.39-.67-.07-.98.1-.3.17-.56.32-.44.45.12.14.88.81.61,2.17,0,0-1.23-1.25-1.36-1.35,0,0-.5.12-.77-.03,0,0-.72.63-.94,1.33,0,0-.62-1.03.19-2.08,0,0-.05-.32-.15-.42-.1-.1-.18,0-.33.15-.15.15-.77.29-.92-.38-.15-.67-.14-2.93.31-4.39,0,0-.09-.64-.47-1.14q-.38-.5-.21-.66c.17-.16.3-.27.57-.42,0,0,1.05-2.5,1.24-3.01.19-.5.34-1.13.37-1.48.03-.35.14-.61.42-.58h0Z"/><path class="e" d="m139.22,37.56s.05-.06.13-.05c0,0,.14-.08.24.08.1.16.14.21.11.56-.04.34.29,1.59.39,2.43.1.84.28,1.65.41,1.7.13.05.07-.58,0-.86-.07-.28.09-.08.18.25.08.34.34,1.17.44,1.33.1.15.27-.15.28-.76,0-.61-.35-1.69-.66-2-.31-.31-.58-.31-.58-.31,0,0,.37-.11.6,0s1.51,1.29,1.96,3.21c0,0,.13.22,0,.48-.13.25-.31,1.36-.49,2.23-.18.87-.18.58-.37,1.05-.18.48-.41,1.2-.59,1.77-.18.58-.41,1.41-.56,1.38-.15-.03-.11-1.03-.24-1.74-.13-.72-.43-1.29-.52-1.24-.06.04-.12.28-.21.48-.06.15-.08.2.03.31.27.27.75,1.01.36,2.14,0,0-.53-1.28-.73-1.48,0,0-.31.14-.89.08,0,0-.58.83-.75,1.43,0,0-.53-1.1.27-2.05,0,0-.1-.28-.06-.72,0,0-.39.55-.58,2.18,0,0,.03.52-.2.52s-.25-.74-.18-1.22c.07-.48-.29-2.64-.46-3.57-.17-.93-.17-1.27.14-2.45.31-1.18.18-1.38.41-1.7.23-.32.65-1.38.91-1.56.27-.18.15.07-.01.35-.17.28-.49,1.53-.52,2.45,0,0,.04.28.3-.58.25-.86.6-1.33.65-1.73.04-.39.1-1.32.17-1.66.07-.34.04-.67-.03-.62,0,0-.04.05-.03.08,0,0-.04-.09.01-.14.05-.05-.08-.02-.08-.02,0,0,.14-.22.33-.02.19.19.23.24.13.48-.1.25-.04.34-.03.62.01.28.21,1.05.21,1.31s-.04.7.06.69c.11,0,.28-.35.25-1.1-.03-.75.11-1.27.03-1.49-.08-.23-.08-.31-.24-.53h0Z"/><path class="e" d="m126,107.19s.44.41.08.86c0,0-.18.13-.1.73.08.6.05,1.27.16.91.1-.36.44-1.28.43-1.54-.01-.26-.18-.54.03-.74.21-.2.26-.35.43-.23.17.12.34.38.27.7-.06.32-.27.25-.27.51s-.12,3.64.84,5.82c.96,2.18,1.48,3.22,1.53,3.89.05.67-.03,2.62.16,3.09.18.47,1.22,3.5.86,4.1-.36.6-1.04-.1-1.5.16-.47.26-.86.49-.67.7.18.21,1.35,1.25.93,3.35,0,0-1.89-1.92-2.1-2.08,0,0-.78.18-1.18-.05,0,0-1.1.97-1.45,2.05,0,0-.96-1.58.3-3.2,0,0-.08-.49-.23-.65-.16-.16-.27,0-.51.23-.23.23-1.18.45-1.41-.58-.23-1.04-.22-4.51.48-6.77,0,0-.14-.99-.73-1.76q-.58-.78-.32-1.03c.26-.25.47-.42.88-.65,0,0,1.62-3.85,1.91-4.63.29-.78.52-1.74.57-2.28.05-.54.21-.93.65-.89h0Z"/><path class="e" d="m108.2,94.3s.06-.08.16-.06c0,0,.18-.11.3.1.12.2.18.27.13.7-.04.44.37,2.01.5,3.08.12,1.07.36,2.09.52,2.15.16.06.09-.73,0-1.09-.09-.36.12-.11.22.32.11.43.44,1.49.56,1.68.12.2.35-.19.36-.96,0-.77-.44-2.15-.84-2.54-.39-.39-.73-.39-.73-.39,0,0,.47-.14.76,0,.28.14,1.91,1.63,2.48,4.07,0,0,.16.28,0,.61-.16.32-.39,1.73-.62,2.83-.23,1.1-.23.73-.46,1.34-.23.61-.52,1.51-.75,2.24-.23.73-.52,1.78-.71,1.75-.2-.04-.14-1.3-.3-2.21-.16-.91-.55-1.63-.66-1.57-.08.05-.15.35-.26.6-.08.19-.11.25.03.39.34.34.96,1.28.46,2.71,0,0-.68-1.62-.93-1.87,0,0-.39.18-1.12.11,0,0-.73,1.05-.94,1.82,0,0-.68-1.39.34-2.6,0,0-.12-.36-.07-.91,0,0-.5.69-.73,2.76,0,0,.04.66-.25.66s-.32-.94-.23-1.55c.09-.61-.37-3.35-.59-4.52-.21-1.18-.21-1.6.18-3.1.39-1.5.23-1.75.52-2.16.28-.41.82-1.75,1.16-1.98.34-.23.2.09-.02.45-.21.36-.62,1.94-.66,3.1,0,0,.05.36.37-.73.32-1.09.77-1.69.82-2.19.05-.5.12-1.67.21-2.1.09-.43.05-.85-.04-.78,0,0-.04.06-.04.1,0,0-.04-.12.02-.18.06-.06-.1-.02-.1-.02,0,0,.17-.28.42-.03.25.25.29.3.16.61-.12.31-.05.43-.04.78.02.36.27,1.33.27,1.67s-.05.88.08.87c.13,0,.36-.45.32-1.39-.04-.94.14-1.6.04-1.89-.11-.29-.11-.39-.31-.68h0Z"/><path class="e" d="m199.4,165.8s.06,0,.16,0h0c.11,0,.16,0,.16,0h0c1.34-.06,6.37-.71,6.49-7.49,0,0,.27,1.21,0,3.04,0,0,.88-2.36.94-4.39,0,0,.34-1.75.4.08.05,1.83-.33,3.66-.33,3.66,0,0,.75-2.12.84-2.93,0,0,.23,1.39,0,2.19,0,0,.54-1.22.54-1.62,0,0,.77,2.56,0,5,0,0,3.97-9.61-3.83-15.96,0,0,1.08-3.52-.73-5.99,0,0,.45-2.79.1-3.17-.35-.38-1.67,1.74-1.67,1.74-.7-1.3-5.12-1.3-5.81,0,0,0-1.32-2.12-1.67-1.74-.35.38.1,3.17.1,3.17-1.81,2.47-.73,5.99-.73,5.99-7.8,6.34-3.83,15.96-3.83,15.96-.77-2.44,0-5,0-5,0,.4.54,1.62.54,1.62-.23-.8,0-2.19,0-2.19.09.8.84,2.93.84,2.93,0,0-.38-1.83-.33-3.66.05-1.83.4-.08.4-.08.07,2.02.94,4.39.94,4.39-.27-1.82,0-3.04,0-3.04.12,6.78,5.14,7.44,6.49,7.49h0Z"/><path class="j" d="m199.96,143.81s1.01.42.87,1.05c-.14.63-.47,1.75-.84,1.75s-1.17-1.22-1.17-1.82,1.13-.98,1.13-.98h0Z"/><path class="i" d="m202.11,141.18c.9,0,1.64.73,1.64,1.64s-.73,1.64-1.64,1.64-1.64-.73-1.64-1.64.73-1.64,1.64-1.64h0Z"/><path class="j" d="m202.11,141.81c.56,0,1.01.45,1.01,1.01s-.45,1.01-1.01,1.01-1.01-.45-1.01-1.01.45-1.01,1.01-1.01h0Z"/><path class="g" d="m202.11,142.01c.45,0,.81.36.81.81s-.36.81-.81.81-.81-.36-.81-.81.36-.81.81-.81h0Z"/><path class="i" d="m197.72,141.18c.9,0,1.64.73,1.64,1.64s-.73,1.64-1.64,1.64-1.64-.73-1.64-1.64.73-1.64,1.64-1.64h0Z"/><path class="j" d="m197.72,141.81c.56,0,1.01.45,1.01,1.01s-.45,1.01-1.01,1.01-1.01-.45-1.01-1.01.45-1.01,1.01-1.01h0Z"/><path class="g" d="m197.72,141.98c.46,0,.83.37.83.83s-.37.83-.83.83-.83-.37-.83-.83.37-.83.83-.83h0Z"/><path class="e" d="m202.55,163.33s-.23.96-.15,1.64l.08.67-.37-.62s.12,1.01.41,1.57,1.36.63.66.71c-.7.08-3.31.26-2.49-.17.82-.42.9-.85.86-1.14-.05-.28-.94-1.3-.94-1.3l1.93-1.36h0Z"/><path class="e" d="m196.64,163.56s.39.91.43,1.58l.04.68.25-.68s.05,1.01-.13,1.62c-.19.6-1.22.86-.52.82.7-.04,3.3-.33,2.42-.6-.89-.27-1.04-.68-1.04-.97,0-.29.7-1.45.7-1.45l-2.14-1h0Z"/><path class="e" d="m192.63,170.52h1.22c1.11-2.45,3.58-4.17,6.43-4.17h0c2.85,0,5.32,1.72,6.43,4.17h.92c1.4,0,2.55,1.15,2.55,2.55v33.3c0,1.4-1.15,2.55-2.55,2.55h-15c-1.4,0-2.55-1.15-2.55-2.55v-33.3c0-1.4,1.15-2.55,2.55-2.55h0Z"/><path class="e" d="m171,185.37h.63c.57-1.27,1.86-2.17,3.34-2.17h0c1.48,0,2.77.89,3.34,2.17h.48c.73,0,1.32.6,1.32,1.32v17.3c0,.73-.6,1.33-1.32,1.33h-7.79c-.73,0-1.32-.6-1.32-1.33v-17.3c0-.73.6-1.32,1.32-1.32h0Z"/><path class="e" d="m252,194.97h.63c.58-1.27,1.86-2.17,3.34-2.17h0c1.48,0,2.77.89,3.34,2.17h.48c.73,0,1.33.6,1.33,1.32v17.3c0,.73-.6,1.32-1.33,1.32h-7.79c-.73,0-1.32-.6-1.32-1.32v-17.3c0-.73.6-1.32,1.32-1.32h0Z"/><path class="e" d="m152.53,38.61s-.21.2-.04.41c0,0,.09.06.05.35-.04.28-.02.61-.07.43-.05-.17-.21-.61-.2-.73,0-.12.09-.26-.01-.35-.1-.09-.12-.17-.2-.11-.08.06-.16.18-.13.33.03.15.13.12.13.24s.06,1.74-.4,2.77c-.46,1.04-.7,1.53-.73,1.85-.02.32.01,1.25-.07,1.47-.09.22-.58,1.67-.41,1.95.17.28.49-.05.72.07.22.12.41.23.32.33-.09.1-.64.59-.45,1.59,0,0,.9-.91,1-.99,0,0,.37.09.56-.02,0,0,.53.46.69.98,0,0,.46-.75-.14-1.53,0,0,.04-.23.11-.31.07-.07.13,0,.24.11.11.11.56.22.67-.28.11-.49.11-2.15-.23-3.23,0,0,.07-.47.35-.84q.28-.37.16-.49c-.12-.12-.22-.2-.42-.31,0,0-.77-1.84-.91-2.21-.14-.37-.25-.83-.27-1.09-.02-.26-.1-.44-.31-.42h0Z"/><path class="e" d="m235.62,50.92s.28.26.05.55c0,0-.12.08-.07.46.05.38.03.81.1.58.07-.23.28-.81.27-.98,0-.17-.12-.35.02-.47.13-.12.16-.22.27-.15.11.07.22.24.17.45-.04.21-.17.16-.17.32s-.07,2.32.54,3.71c.61,1.39.94,2.05.98,2.48.03.43-.02,1.67.1,1.97.12.3.78,2.23.54,2.61-.23.38-.66-.07-.96.1-.3.16-.54.31-.43.45.12.13.86.79.6,2.13,0,0-1.21-1.22-1.34-1.32,0,0-.5.12-.75-.03,0,0-.7.62-.93,1.31,0,0-.61-1.01.19-2.04,0,0-.05-.31-.15-.41-.1-.1-.17,0-.32.15-.15.15-.75.29-.9-.37-.15-.66-.14-2.88.31-4.32,0,0-.09-.63-.46-1.12q-.37-.5-.21-.65c.17-.16.3-.26.56-.41,0,0,1.03-2.46,1.21-2.95.18-.5.33-1.11.36-1.46.03-.35.13-.6.41-.57h0Z"/><path class="e" d="m117.73,106.87s.26.25.05.51c0,0-.11.08-.06.44.05.36.03.76.09.55.06-.22.26-.77.26-.92,0-.16-.11-.33.02-.44.12-.12.16-.21.26-.14.1.07.2.23.16.42-.04.19-.16.15-.16.3s-.07,2.19.51,3.5c.58,1.31.89,1.93.92,2.34.03.41-.02,1.57.09,1.85.11.28.73,2.1.51,2.46-.22.36-.62-.06-.9.09-.28.16-.51.3-.4.42.11.12.81.75.56,2.01,0,0-1.14-1.15-1.26-1.25,0,0-.47.11-.71-.03,0,0-.66.58-.87,1.23,0,0-.58-.95.18-1.92,0,0-.05-.3-.14-.39-.09-.09-.16,0-.3.14-.14.14-.71.27-.85-.35-.14-.62-.13-2.71.29-4.07,0,0-.09-.59-.44-1.06q-.35-.47-.19-.62c.16-.15.28-.25.53-.39,0,0,.97-2.31,1.15-2.78.17-.47.31-1.04.34-1.37.03-.33.12-.56.39-.53h0Z"/></g></svg>