<?xml version="1.0" encoding="UTF-8"?><svg xmlns="http://www.w3.org/2000/svg" viewBox="0 0 750 500">
  <defs>
    <style>
      .c {
        fill: #00d373;
      }
      .c,
      .d,
      .f,
      .g,
      .u,
      .h,
      .l,
      .m,
      .n,
      .o,
      .r,
      .s,
      .t {
        fill-rule: evenodd;
      }
      .d {
        fill: #00f48b;
      }
      .f {
        fill: #ffc552;
      }
      .g {
        fill: #f46cff;
      }
      .u {
        fill: none;
        stroke: #ffca74;
        stroke-linecap: round;
        stroke-linejoin: round;
        stroke-width: 1.92px;
      }
      .h {
        fill: #ffca74;
      }
      .i,
      .l {
        fill: #fff;
      }
      .j {
        fill: #00c1e2;
        opacity: 0.5;
      }
      .k {
        fill: #5fff7d;
      }
      .m,
      .p {
        fill: #fff876;
      }
      .n {
        fill: #00f7cd;
      }
      .o {
        fill: #ff94db;
      }
      .q {
        fill: #ff4ac2;
      }
      .r {
        fill: #ffbd5c;
      }
      .s {
        fill: #cf65d8;
      }
      .t {
        fill: #ff9c00;
      }
    </style>
  </defs>
  <g id="a">
    <circle class="j" cx="148.05" cy="143.13" r="48.55" />
    <circle class="j" cx="230.52" cy="373.25" r="41.24" />
    <circle class="j" cx="68.24" cy="302.08" r="20.62" />
    <circle class="j" cx="539.12" cy="309.4" r="43.9" />
    <circle class="j" cx="406.1" cy="151.77" r="23.94" transform="translate(11.63 331.61) rotate(-45)" />
    <circle class="j" cx="344.25" cy="260.18" r="25.27" />
    <circle class="j" cx="384.82" cy="436.43" r="43.9" />
    <circle class="j" cx="684.11" cy="404.5" r="27.27" transform="translate(-85.66 602.21) rotate(-45)" />
    <circle class="j" cx="681.45" cy="143.79" r="28.6" transform="translate(29.59 389) rotate(-32.53)" />
    <circle class="j" cx="543.78" cy="67.31" r="28.6" transform="translate(176.16 473.61) rotate(-54.92)" />
    <circle class="j" cx="363.54" cy="36.71" r="20.62" transform="translate(80.52 267.81) rotate(-45)" />
    <circle class="j" cx="58.27" cy="46.69" r="28.6" />
    <circle class="j" cx="40.97" cy="205.65" r="23.28" />
    <circle class="j" cx="183.97" cy="270.16" r="23.94" transform="translate(-122.27 384.38) rotate(-76.2)" />
    <circle class="j" cx="80.21" cy="445.74" r="29.26" />
    <circle class="j" cx="548.43" cy="182.37" r="25.27" />
    <circle class="j" cx="281.07" cy="103.89" r="28.6" transform="translate(116.1 354.04) rotate(-76.88)" />
    <circle class="j" cx="703.4" cy="310.73" r="23.94" transform="translate(237.88 922.78) rotate(-76.58)" />
  </g>
  <g id="b">
    <polygon
      class="h"
      points="386.06 448.64 387.48 453.06 392.13 453.05 388.36 455.77 389.81 460.18 386.06 457.45 382.3 460.18 383.75 455.77 379.99 453.05 384.63 453.06 386.06 448.64" />
    <path class="l" d="m548.29,280.39c-6.71,3.75-15.8,6.51-22.06,5.82-7.86-.87-9.8-12.27.96-12.2,6.24.04,15.03,3.32,21.1,6.38Z" />
    <path class="n" d="m583.02,65.79c-2.04-7.41-2.56-16.9-.4-22.81,2.72-7.43,14.25-6.6,11.62,3.84-1.53,6.05-6.81,13.8-11.22,18.97Z" />
    <path class="u" d="m441.9,267.38c9.76-2.21,23.27-5.16,24.73,6.1,1.45,11.26-12.68,9.81-8.68.35,4.01-9.46,20.75-8.29,28.21-.77" />
    <polygon
      class="n"
      points="694.75 144.7 696.97 151.58 704.21 151.57 698.35 155.81 700.6 162.69 694.75 158.42 688.91 162.69 691.15 155.81 685.29 151.57 692.53 151.58 694.75 144.7" />
    <polygon
      class="f"
      points="521.94 58.24 521.76 72.16 534.97 76.58 521.67 80.72 521.55 94.65 513.51 83.28 500.22 87.47 508.55 76.3 500.46 64.97 513.65 69.43 521.94 58.24" />
    <polygon
      class="h"
      points="93.5 77.95 102.16 89.26 115.58 84.46 107.5 96.19 116.21 107.47 102.55 103.41 94.52 115.18 94.15 100.94 80.48 96.93 93.91 92.19 93.5 77.95" />
    <polygon
      class="n"
      points="286.12 314.25 288.34 321.13 295.58 321.12 289.72 325.36 291.96 332.24 286.12 327.97 280.27 332.24 282.52 325.36 276.66 321.12 283.9 321.13 286.12 314.25" />
    <circle class="p" cx="608.95" cy="177.33" r="2.38" />
    <path class="m" d="m543.78,235.01c1.31,0,2.38-1.07,2.38-2.38s-1.07-2.38-2.38-2.38-2.38,1.07-2.38,2.38,1.07,2.38,2.38,2.38Z" />
    <polygon
      class="h"
      points="683.82 292.77 680.96 299.41 686.41 304.17 679.21 303.5 676.37 310.15 674.78 303.1 667.57 302.45 673.8 298.76 672.18 291.71 677.61 296.49 683.82 292.77" />
    <polygon
      class="n"
      points="630.24 408.07 632.46 414.96 639.69 414.94 633.83 419.18 636.08 426.06 630.24 421.8 624.39 426.06 626.64 419.18 620.78 414.94 628.01 414.96 630.24 408.07" />
    <polygon
      class="o"
      points="462.27 197.71 471.52 206.95 483.14 200.96 477.21 212.61 486.5 221.82 473.58 219.78 467.7 231.46 465.64 218.54 452.72 216.56 464.37 210.61 462.27 197.71" />
    <polygon
      class="h"
      points="187.96 80.61 183.97 88.49 188.2 96.25 179.47 94.88 173.4 101.3 172 92.58 164.02 88.79 171.88 84.76 173.01 76 179.28 82.24 187.96 80.61" />
    <polygon
      class="h"
      points="529.14 197 523.65 190.85 515.46 191.89 519.61 184.76 516.09 177.3 524.16 179.04 530.17 173.39 531 181.6 538.23 185.56 530.68 188.89 529.14 197" />
    <polygon
      class="f"
      points="207.58 237.9 206.56 242.83 210.05 246.47 205.05 247.03 202.67 251.47 200.59 246.88 195.64 245.99 199.36 242.6 198.67 237.61 203.05 240.1 207.58 237.9" />
    <polygon
      class="f"
      points="76.22 239.56 69.73 235.38 62.6 238.36 64.57 230.89 59.53 225.04 67.25 224.6 71.26 218 74.06 225.2 81.58 226.98 75.59 231.86 76.22 239.56" />
    <polygon
      class="h"
      points="609.62 302.08 604.32 295.34 595.76 295.88 600.54 288.76 597.38 280.79 605.63 283.13 612.23 277.66 612.56 286.23 619.8 290.82 611.75 293.78 609.62 302.08" />
    <polygon
      class="h"
      points="312.99 163.69 310.98 170.59 315.52 176.16 308.34 176.38 304.45 182.43 302.01 175.66 295.06 173.83 300.75 169.42 300.34 162.25 306.29 166.29 312.99 163.69" />
    <polygon
      class="f"
      points="234.51 361.94 229.19 360.13 224.68 363.5 224.76 357.88 220.17 354.63 225.53 352.96 227.2 347.59 230.45 352.18 236.07 352.11 232.71 356.62 234.51 361.94" />
    <polygon
      class="h"
      points="128.1 377.24 120.76 383.32 121.61 392.82 113.56 387.72 104.79 391.46 107.15 382.22 100.88 375.04 110.39 374.43 115.29 366.25 118.81 375.11 128.1 377.24" />
    <polygon
      class="h"
      points="730.66 139.8 727.52 137.42 723.77 138.66 725.06 134.92 722.72 131.74 726.67 131.82 728.98 128.61 730.12 132.39 733.89 133.6 730.64 135.85 730.66 139.8" />
    <path
      class="h"
      d="m568.31,331.31c-43.33,49.66-105.91,78.31-171.81,78.65,0-1.11-.01-2.22-.02-3.33,64.95-.34,126.62-28.57,169.33-77.51.84.73,1.67,1.46,2.51,2.19Z" />
    <path
      class="d"
      d="m443.61,469.46c-7.63-9.45-33.31-49.3-38.48-59.67,9.44-.4,18.8-1.39,28.02-2.93,9.23-1.54,18.32-3.64,27.24-6.28-1.46,11.46-12.63,57.46-16.78,68.88Z" />
    <path
      class="r"
      d="m517.4,446.82c-9.79-7.15-44.75-38.99-52.39-47.66,8.85-2.82,17.52-6.17,25.95-10.04,8.43-3.86,16.63-8.24,24.55-13.1,1.58,11.44,2.86,58.72,1.89,70.8Z" />
    <path
      class="g"
      d="m582.72,405.71c-11.35-4.32-53.49-25.89-63.12-32.26,7.82-5.03,15.35-10.55,22.54-16.53,7.19-5.98,14.05-12.43,20.52-19.31,4.47,10.69,17.89,56.16,20.07,68.11Z" />
    <path
      class="s"
      d="m567.41,349.64c-1.51-4.06-3.09-8.08-4.75-12.04-6.47,6.89-13.32,13.33-20.52,19.31-7.19,5.98-14.72,11.5-22.54,16.53,1.87,1.24,3.75,2.46,5.66,3.66,15.08-8.51,29.13-17.79,42.15-27.46Z" />
    <path
      class="t"
      d="m485.68,396.48c10.61-4.44,20.81-9.28,30.59-14.46-.24-2-.49-4-.77-5.99-7.92,4.86-16.12,9.24-24.55,13.1-8.43,3.86-17.1,7.22-25.95,10.04,1.18,1.33,2.37,2.66,3.57,3.98,5.7-2.06,11.41-4.28,17.11-6.67Z" />
    <path
      class="c"
      d="m459.61,406.25c.28-1.89.53-3.78.78-5.67-8.92,2.64-18.01,4.74-27.24,6.28-9.23,1.54-18.58,2.52-28.02,2.93,1.56,3.13,3.18,6.25,4.86,9.35,16.31-3.11,32.93-7.33,49.62-12.88Z" />
    <path
      class="h"
      d="m279.03,190.17c-51.26-.85-99.69-23.69-132.96-62.71.66-.56,1.31-1.12,1.97-1.68,32.78,38.45,80.51,60.96,131.03,61.8-.01.86-.03,1.72-.04,2.59Z" />
    <path
      class="d"
      d="m134.33,185.33c1.79-9.28,12.61-44.54,16.18-52.82,4.98,5.41,10.25,10.48,15.8,15.19,5.54,4.71,11.36,9.07,17.4,13.05-7.55,4.88-40.5,21.31-49.37,24.57Z" />
    <path
      class="r"
      d="m184.81,217.85c-.66-9.41.73-46.17,2.06-55.06,6.12,3.85,12.46,7.32,18.99,10.4,6.53,3.08,13.24,5.76,20.11,8.02-6.01,6.68-33.48,31.16-41.15,36.64Z" />
    <path
      class="g"
      d="m242.02,236.07c-3.13-8.92-11.44-44.79-12.48-53.72,6.91,2.12,13.97,3.83,21.14,5.11,7.16,1.28,14.44,2.12,21.78,2.51-4.11,8.02-24.42,38.81-30.43,46.1Z" />
    <path
      class="s"
      d="m267.68,198.83c1.66-2.93,3.25-5.89,4.77-8.87-7.34-.39-14.61-1.23-21.78-2.51-7.16-1.28-14.22-2.98-21.14-5.11.2,1.73.42,3.46.66,5.2,12.63,4.7,25.19,8.4,37.47,11.29Z" />
    <path
      class="t"
      d="m198.83,173.73c7.96,4.08,15.96,7.72,23.95,10.94,1.07-1.15,2.13-2.3,3.18-3.46-6.86-2.27-13.58-4.95-20.11-8.02-6.53-3.08-12.87-6.55-18.99-10.4-.2,1.37-.4,2.74-.58,4.12,4.09,2.36,8.27,4.63,12.55,6.83Z" />
    <path
      class="c"
      d="m179.94,163.13c1.26-.78,2.52-1.58,3.76-2.38-6.04-3.98-11.85-8.33-17.4-13.05-5.54-4.71-10.82-9.78-15.8-15.19-1.08,2.5-2.12,5.03-3.12,7.58,10.03,8.14,20.88,15.9,32.55,23.04Z" />
    <path
      class="h"
      d="m682.62,56.31c-31.99,33.16-76.69,50.98-122.72,48.92.03-.77.07-1.55.1-2.32,45.36,2.03,89.41-15.53,120.94-48.21.56.54,1.12,1.08,1.67,1.61Z" />
    <path
      class="d"
      d="m590.73,148.42c-5-6.86-21.54-35.59-24.79-43.01,6.61.05,13.17-.31,19.67-1.07,6.5-.75,12.92-1.9,19.24-3.43-1.42,7.95-10.83,39.68-14.12,47.51Z" />
    <path
      class="r"
      d="m643.04,135.19c-6.58-5.33-29.89-28.79-34.92-35.11,6.28-1.66,12.45-3.7,18.47-6.1,6.02-2.4,11.9-5.17,17.6-8.29.7,8.05-.05,41.1-1.15,49.5Z" />
    <path
      class="g"
      d="m690.09,108.77c-7.78-3.41-36.44-19.94-42.95-24.73,5.63-3.24,11.08-6.83,16.32-10.76,5.23-3.93,10.24-8.19,15-12.77,2.75,7.62,10.53,39.84,11.63,48.26Z" />
    <path
      class="s"
      d="m681.36,69.08c-.91-2.89-1.88-5.75-2.9-8.57-4.76,4.58-9.77,8.84-15,12.77-5.23,3.93-10.68,7.52-16.32,10.76,1.26.93,2.53,1.85,3.82,2.75,10.83-5.41,20.96-11.4,30.39-17.7Z" />
    <path
      class="t"
      d="m622.66,98.93c7.56-2.73,14.85-5.75,21.87-9.03-.1-1.41-.2-2.81-.33-4.21-5.7,3.12-11.58,5.89-17.6,8.29-6.02,2.4-12.19,4.44-18.47,6.1.77.97,1.56,1.94,2.35,2.9,4.05-1.24,8.11-2.59,12.18-4.06Z" />
    <path
      class="c"
      d="m604.11,104.85c.26-1.31.51-2.62.74-3.93-6.32,1.53-12.74,2.68-19.24,3.43-6.5.75-13.06,1.11-19.67,1.07.98,2.24,2,4.47,3.07,6.7,11.49-1.6,23.25-3.97,35.1-7.26Z" />
    <path class="h" d="m213.68,306.81c-20.88,21.64-50.05,33.27-80.09,31.92.02-.51.05-1.01.07-1.52,29.6,1.33,58.35-10.13,78.93-31.46l1.09,1.05Z" />
    <path class="d" d="m153.7,366.92c-3.26-4.48-14.05-23.23-16.18-28.07,4.31.03,8.6-.2,12.84-.7,4.24-.49,8.43-1.24,12.55-2.24-.93,5.19-7.07,25.9-9.22,31Z" />
    <path
      class="r"
      d="m187.85,358.28c-4.3-3.48-19.51-18.79-22.79-22.91,4.1-1.08,8.12-2.41,12.06-3.98,3.93-1.57,7.77-3.38,11.49-5.41.46,5.25-.03,26.82-.75,32.31Z" />
    <path
      class="g"
      d="m218.55,341.04c-5.08-2.23-23.78-13.01-28.03-16.14,3.68-2.12,7.23-4.46,10.65-7.02,3.41-2.56,6.68-5.34,9.79-8.33,1.8,4.97,6.87,26,7.59,31.49Z" />
    <path
      class="s"
      d="m212.85,315.14c-.59-1.89-1.23-3.75-1.89-5.59-3.11,2.99-6.38,5.77-9.79,8.33-3.41,2.56-6.97,4.9-10.65,7.02.82.61,1.65,1.2,2.49,1.79,7.07-3.53,13.68-7.44,19.83-11.55Z" />
    <path
      class="t"
      d="m174.54,334.62c4.94-1.78,9.69-3.76,14.27-5.89-.06-.92-.13-1.83-.21-2.75-3.72,2.04-7.55,3.84-11.49,5.41-3.93,1.57-7.96,2.9-12.06,3.98.51.64,1.02,1.27,1.54,1.9,2.65-.81,5.3-1.69,7.95-2.65Z" />
    <path
      class="c"
      d="m162.44,338.48c.17-.86.33-1.71.48-2.57-4.12,1-8.32,1.75-12.55,2.24-4.24.49-8.53.73-12.84.7.64,1.46,1.31,2.92,2,4.37,7.5-1.05,15.17-2.59,22.91-4.74Z" />
    <path class="h" d="m660.63,260.99c-30.03-1.63-57.9-16.08-76.54-39.68.4-.31.79-.63,1.19-.94,18.37,23.26,45.84,37.5,75.43,39.11-.03.5-.05,1.01-.08,1.51Z" />
    <path
      class="d"
      d="m575.93,254.96c1.25-5.4,8.37-25.83,10.64-30.6,2.8,3.28,5.78,6.37,8.92,9.25,3.15,2.88,6.46,5.56,9.91,8.03-4.53,2.69-24.21,11.6-29.48,13.31Z" />
    <path
      class="r"
      d="m604.8,275.14c-.18-5.53,1.45-27.04,2.42-32.22,3.5,2.39,7.14,4.56,10.9,6.51,3.76,1.95,7.63,3.67,11.61,5.15-3.67,3.78-20.31,17.52-24.92,20.57Z" />
    <path
      class="g"
      d="m637.93,287.07c-1.64-5.29-5.72-26.5-6.13-31.76,4.01,1.4,8.1,2.55,12.28,3.46,4.17.91,8.41,1.56,12.71,1.95-2.59,4.61-15.16,22.21-18.85,26.35Z" />
    <path
      class="s"
      d="m653.79,265.82c1.04-1.68,2.03-3.38,2.99-5.09-4.29-.39-8.54-1.05-12.71-1.95s-8.27-2.06-12.28-3.46c.08,1.02.17,2.04.27,3.06,7.3,3.03,14.58,5.48,21.71,7.44Z" />
    <path
      class="t"
      d="m613.99,249.59c4.58,2.57,9.18,4.87,13.79,6.94.65-.65,1.3-1.3,1.94-1.96-3.97-1.48-7.85-3.2-11.61-5.15-3.76-1.95-7.4-4.12-10.9-6.51-.15.8-.29,1.6-.43,2.4,2.34,1.47,4.74,2.9,7.2,4.28Z" />
    <path
      class="c"
      d="m603.15,242.96c.76-.43,1.51-.87,2.26-1.31-3.45-2.47-6.76-5.15-9.91-8.03-3.15-2.88-6.13-5.97-8.92-9.25-.69,1.44-1.35,2.9-1.99,4.37,5.7,4.99,11.88,9.78,18.57,14.22Z" />
    <path
      class="k"
      d="m415.21,123.33c-.1,0-.21,0-.31-.01-1.28-.09-2.37-.72-3.17-1.82-1.22-1.68-1.64-4.42-1.05-6.81,1.03-4.17,3.74-7.95,7.45-10.63-2.72-2.81-6.8-4.7-11.49-5.29-.68,2.45-1.93,4.74-3.53,6.54-2.46,2.76-5.44,4.16-8.18,3.85-1.84-.22-3.61-1.48-4.52-3.21-.75-1.43-.78-2.99-.09-4.27.69-1.28,1.89-2.05,2.87-2.58,3.38-1.83,7.48-2.65,11.92-2.4.49-3.02,0-6.15-1.97-8.56-3.09-3.79-8.56-4.46-12.6-3.45-3.93.98-7.84,3.49-11.93,7.65-.37.38-.98.38-1.36.01-.38-.37-.38-.98-.01-1.36,4.35-4.42,8.55-7.09,12.84-8.16,5.57-1.39,11.42.25,14.56,4.1,2.33,2.86,2.96,6.47,2.42,9.95,5.19.68,9.71,2.87,12.71,6.1,1.01-.6,2.09-1.12,3.21-1.55,5.39-2.07,11.83-2.12,18.16-.16,3.75,1.16,7.92,3.99,7.33,8.14-.08.52-.55.9-1.09.81-.52-.08-.89-.56-.81-1.09.45-3.16-3.55-5.28-5.99-6.03-5.92-1.83-11.92-1.79-16.91.12-.93.36-1.82.78-2.67,1.26.24.33.46.67.67,1.02,1.78,2.98,2.29,6.82,1.37,10.29-.79,2.96-2.54,5.33-4.95,6.68-1.02.57-1.96.86-2.87.86Zm4.16-17.8c-3.4,2.42-5.89,5.85-6.82,9.62-.46,1.85-.16,3.99.74,5.22.46.63,1.05.98,1.75,1.03.6.04,1.3-.15,2.1-.6,1.95-1.09,3.38-3.05,4.03-5.5.79-2.97.36-6.27-1.16-8.81-.2-.33-.41-.65-.64-.97Zm-15.85-6.95c-3.51,0-6.73.75-9.42,2.21-1.1.6-1.75,1.15-2.09,1.8-.52.97-.16,1.97.1,2.47.61,1.17,1.83,2.05,3.04,2.19,3,.35,5.56-2.13,6.53-3.21,1.32-1.48,2.37-3.39,2.99-5.43-.38-.02-.77-.03-1.15-.03Z" />
    <path
      class="k"
      d="m94.09,306.36c-.42,0-.81-.28-.93-.71-1.83-6.77,0-14.31,4.67-19.2,4.84-5.07,12.68-7.01,19.07-4.7,2.32.84,4.4,2.24,6.11,3.99,2.52-2.05,5.29-3.54,8.16-4.34,5.72-1.61,11.82-.42,15.9,3.11.67.58,1.27,1.22,1.81,1.91,1.78-.91,3.71-1.54,5.65-1.83,5.64-.85,11.31.4,15.54,3.42,4.62,3.3,7.43,8.85,7.16,14.14-.03.53-.49.94-1.01.91-.53-.03-.94-.48-.91-1.01.24-4.66-2.26-9.56-6.36-12.48-3.83-2.74-8.99-3.86-14.14-3.09-1.67.25-3.33.78-4.87,1.53,2.15,3.74,2.53,8.37.71,12.07-.86,1.75-2.48,3.22-4.12,3.74-1.16.37-2.3.28-3.29-.26-1.87-1.02-2.4-3.16-2.55-4.34-.61-4.82,2.32-9.12,6.5-11.83-.42-.51-.88-.99-1.38-1.43-3.6-3.11-9.01-4.15-14.12-2.72-2.59.73-5.11,2.08-7.41,3.94,2.39,3.07,3.74,6.92,3.51,10.73-.25,4.02-2.85,8.13-6.8,8.12-3.47-.03-5.96-3.46-6.11-6.65-.12-2.61.91-5.36,3.16-8.41,1.08-1.47,2.27-2.81,3.54-4-1.49-1.51-3.3-2.72-5.32-3.44-5.69-2.06-12.69-.32-17.03,4.22-4.21,4.41-5.86,11.23-4.2,17.37.14.51-.16,1.04-.68,1.18-.08.02-.17.03-.25.03Zm28.74-17.91c-1.16,1.1-2.26,2.33-3.26,3.69-1.98,2.68-2.89,5.03-2.79,7.18.11,2.26,1.86,4.8,4.21,4.82h.03c2.75,0,4.65-3.27,4.84-6.32.2-3.32-.96-6.67-3.03-9.36Zm25.44.5c-3.64,2.32-6.19,5.96-5.67,10.03.08.66.4,2.26,1.56,2.9.53.29,1.13.33,1.79.12,1.15-.36,2.34-1.47,2.98-2.76,1.54-3.14,1.2-7.09-.66-10.29Z" />
    <path
      class="u"
      d="m668.84,361.68c-5.83-.38-11.77,2.32-15.31,6.95-3.55,4.64-4.59,11.08-2.7,16.6,1.56,4.55,5.37,8.57,10.13,9.26,4.77.68,10.05-2.88,10.25-7.69.02-.48-.02-.98-.29-1.37-.26-.37-.68-.59-1.11-.74-3.14-1.16-6.83.18-9.08,2.66-2.25,2.48-3.24,5.88-3.5,9.21-.23,2.98.15,6.17,2,8.52,1.45,1.84,3.63,2.96,5.86,3.7,4.71,1.58,9.99,1.69,14.58-.2,4.59-1.89,8.38-5.91,9.49-10.75.22-.94.3-2.04-.35-2.76-.5-.55-1.31-.72-2.05-.67-3.28.21-5.33,3.77-5.74,7.03-.72,5.72,2.24,11.96,7.53,14.25,5.29,2.29,12.42-.38,14.19-5.86" />
    <path
      class="u"
      d="m328.66,325.05c3.34-3.98,8.01-6.81,13.09-7.92,5.1-1.12,10.85-.37,14.8,3.06,3.94,3.43,5.38,9.84,2.36,14.1-1.76,2.48-4.65,3.9-7.55,4.82-2.32.73-4.89,1.2-7.13.26-2.24-.94-3.82-3.75-2.67-5.9.91-1.7,3.05-2.31,4.98-2.41,8.26-.4,16.09,6.2,17.75,14.31,1.66,8.11-2.51,16.88-9.47,21.35-3.09,1.98-6.85,3.21-10.46,2.53-3.61-.68-6.91-3.63-7.22-7.29" />
    <path
      class="u"
      d="m150,444.43c-.13,8.05,7.77,15.27,15.77,14.41,8-.86,14.2-9.58,12.37-17.42-.36-1.53-1.58-3.31-3.07-2.82-.45.15-.81.5-1.12.86-2.54,3.06-1.8,8.01,1,10.83s7.14,3.7,11.07,3.11c5.65-.85,10.78-4.59,13.33-9.71,2.54-5.12,2.42-11.47-.31-16.48" />
    <path
      class="u"
      d="m180.56,45.96c2.77-2.85,6.59-4.48,10.46-5.39,5.63-1.32,11.81-1.16,16.9,1.58,5.09,2.75,8.8,8.42,8.16,14.17-.57,5.12-4.72,9.64-9.77,10.64-.72.14-1.48.22-2.19.02-2.07-.59-2.79-3.27-2.35-5.37.66-3.13,3.1-5.71,6.02-7.04,2.92-1.32,6.25-1.5,9.42-1.02,4.28.64,8.48,2.51,11.35,5.76,2.87,3.24,4.22,7.95,2.9,12.08" />
    <path
      class="u"
      d="m21.3,387.03c-1.22,3.13-1.31,6.62-.63,9.9,1.08,5.21,4.31,10.14,9.14,12.37,4.83,2.23,11.23,1.17,14.44-3.06,1.98-2.61,2.59-6.01,2.83-9.28.14-1.97.13-4.1-.99-5.72-1.13-1.62-3.77-2.29-5.08-.8-.62.7-.79,1.69-.84,2.62-.33,6.87,5.82,13.36,12.7,13.41,6.88.05,13.11-6.37,12.87-13.24" />
    <path
      class="u"
      d="m367.69,198.17c2.03-6.83,8.61-12.05,15.73-12.48,4.82-.29,9.97,1.73,12.51,5.83,2.55,4.11,1.69,10.27-2.41,12.83-2.14,1.34-5.62,1.16-6.48-1.21-.37-1.01-.15-2.15.24-3.15,2.15-5.6,8.67-8.25,14.66-8.72,5.09-.4,10.44.38,14.66,3.25,4.22,2.87,7.04,8.1,6.08,13.12" />
    <path
      class="k"
      d="m67.5,60.82c-3.82,0-7.7-1.39-10.18-4.55-3.48,1.89-7.64,2.68-11.4,2.18-2.79-.38-5.15-1.26-7.02-2.64-5.47-4.03-6.09-11.6-4.96-16.86.66-3.07,2.21-7.16,5.83-9.22.46-.26,1.05-.1,1.31.36.26.46.1,1.05-.36,1.31-3.01,1.71-4.33,5.27-4.9,7.96-1.01,4.7-.51,11.43,4.22,14.91,1.6,1.18,3.67,1.95,6.14,2.28,3.33.45,7.02-.23,10.1-1.86-1.67-3.09-2.01-7.09-.91-11.19.63-2.34,1.66-3.78,3.17-4.39,2.14-.87,4.5.4,5.55,2.12,1.15,1.89,1,4.12.68,5.65-.75,3.55-2.93,6.39-5.79,8.38,3.38,4.1,9.72,4.5,14.13,2.44,4.48-2.1,8.15-6.58,10.33-12.62.18-.5.73-.76,1.23-.58.5.18.76.73.58,1.23-2.35,6.52-6.37,11.39-11.32,13.7-1.92.9-4.15,1.38-6.4,1.38Zm-7.53-20.07c-.25,0-.49.04-.72.14-.89.36-1.58,1.41-2.03,3.11-.96,3.58-.7,7.04.7,9.69,2.46-1.73,4.32-4.16,4.96-7.2.25-1.19.38-2.9-.44-4.26-.49-.81-1.5-1.47-2.46-1.47Z" />
    <path
      class="u"
      d="m322.96,35.9c2.14-4.92,6.51-8.74,11.57-10.55,5.05-1.81,10.71-1.68,15.81,0,2.98.99,5.87,2.56,7.82,5.03,1.95,2.47,2.8,5.94,1.61,8.85-1.19,2.91-4.71,4.84-7.66,3.75-.44-.16-.88-.4-1.14-.8-.32-.5-.29-1.15-.19-1.74.95-5.98,6.71-10.16,12.56-11.71,7.59-2.01,16.01-.62,22.55,3.71" />
    <path
      class="u"
      d="m627.97,47.78c-3.26-3.02-1.47-8.66,1.67-11.81,6.4-6.41,17.53-7.36,24.92-2.12,2.33,1.65,4.36,3.98,4.8,6.8.44,2.82-1.19,6.05-3.97,6.66-3.85.84-7.11-3.89-6.21-7.72.89-3.84,4.39-6.49,7.92-8.24,7.13-3.53,15.8-4.63,23.06-1.37" />
    <path
      class="u"
      d="m679.09,211.35c6.13-3.63,14.18-4.17,20.4-.69s10.02,11.15,8.33,18.07c-1.69,6.92-9.21,12.09-16.16,10.53-.7-.16-1.4-.38-1.97-.82-2.06-1.57-1.21-5.21,1.06-6.47,2.27-1.26,5.14-.67,7.45.51,7.36,3.76,10.9,13.55,7.76,21.2-3.13,7.65-12.38,12.15-20.37,10.03" />
    <path
      class="k"
      d="m591.23,483.81c-.66,0-1.33-.05-1.98-.14-3.36-.5-6.34-2.14-8.86-3.64-1.83-1.09-4.03-2.58-5.51-4.55-2.68,1.1-5.61,1.59-8.52,1.36-2.12-.17-5.08-.84-7.12-3.01-4.06-4.32-1.88-11.08.1-15.79,1.31-3.1,2.85-6.22,5.96-7.42.5-.19,1.05.06,1.24.55.19.5-.06,1.05-.55,1.24-2.41.93-3.74,3.66-4.88,6.38-1.78,4.21-3.76,10.22-.47,13.73,1.62,1.73,4.09,2.26,5.88,2.41,2.48.2,5.01-.21,7.34-1.13-.37-.82-.61-1.72-.65-2.68-.15-3.32,2.01-6.02,4.23-8.5.94-1.05,2.07-2.17,3.64-2.21.03,0,.06,0,.08,0,1.99,0,3.46,1.9,3.6,3.71.11,1.42-.39,2.93-1.53,4.62-1.68,2.49-3.96,4.5-6.58,5.91,1.29,1.57,3.16,2.81,4.71,3.74,2.94,1.75,5.45,2.99,8.16,3.39,4.09.61,8.49-1.01,11.22-4.12,2.72-3.11,3.75-7.68,2.62-11.66-.15-.51.15-1.04.66-1.19.51-.15,1.04.15,1.19.66,1.31,4.59.12,9.87-3.02,13.45-2.71,3.09-6.85,4.9-10.96,4.9Zm-10.08-21.5s-.02,0-.03,0c-.81.02-1.56.79-2.26,1.57-1.96,2.18-3.85,4.54-3.74,7.14.03.69.2,1.35.48,1.96,2.41-1.27,4.53-3.1,6.03-5.33.9-1.33,1.28-2.41,1.21-3.4-.07-.92-.81-1.94-1.69-1.94Z" />
    <path class="i" d="m66,178.95c-3.79,8.69,25.94,11.3,25.94,11.3,0,0-21.04-22.55-25.94-11.3Z" />
    <path
      class="i"
      d="m284.48,42.83c-4.64.98-3.31,7-.27,12.33,1.5,2.66,3.38,5.14,4.9,6.9,1.52,1.77,2.65,2.85,2.65,2.85,0,0,.11-1.65.19-4,.07-2.36.16-5.41.02-8.31-.32-5.78-1.47-11.06-7.47-9.78Z" />
    <path
      class="i"
      d="m330.38,420.45c-4.74-.14-4.93,5.51-4.27,11.32.34,2.91.9,5.87,1.36,8.12.46,2.25.84,3.78.84,3.78,0,0,.97-1.33,2.19-3.4,1.23-2.06,2.7-4.88,3.72-7.77,2.07-5.8,2.28-11.85-3.85-12.04Z" />
    <path class="q" d="m88.54,454.18c5.77,7.52,14.68-11.25,14.68-11.25,0,0-22.14,1.51-14.68,11.25Z" />
    <path
      class="q"
      d="m407.91,258.69c-1-4.63-8.73-2.91-15.84.53-3.56,1.71-6.94,3.79-9.41,5.48-2.47,1.68-4.03,2.93-4.03,2.93,0,0,2.07.01,5.07-.05,3.01-.07,6.95-.19,10.75-.55,7.6-.75,14.77-2.34,13.46-8.33Z" />
    <path
      class="q"
      d="m26.07,121.78c-1.91,4.34,1.47,5.85,5.37,6.85,1.96.49,4.09.85,5.74,1.14,1.65.28,2.82.45,2.82.45,0,0-.32-1.23-1.03-2.93-.7-1.7-1.84-3.85-3.3-5.63-1.46-1.78-3.25-3.19-4.98-3.4-1.74-.22-3.36.73-4.62,3.53Z" />
    <path class="i" d="m37.15,334.62c2.46,9.16,17.3-4.64,17.3-4.64,0,0-20.48-7.21-17.3,4.64Z" />
    <path class="i" d="m659.33,206.43c-2.86-9.04-25.27,7.98-25.27,7.98,0,0,28.97,3.72,25.27-7.98Z" />
    <path
      class="i"
      d="m512.12,35.58c-3.04-3.64-7.04-.25-9.81,4.23-1.39,2.23-2.47,4.69-3.17,6.58-.71,1.9-1.05,3.23-1.05,3.23,0,0,1.39-.46,3.33-1.18,1.94-.73,4.43-1.71,6.66-2.86,4.45-2.31,7.98-5.29,4.04-9.99Z" />
    <path class="q" d="m654.68,467.32c7.69-5.55-8.65-11.97-8.65-11.97,0,0-1.3,19.16,8.65,11.97Z" />
    <path
      class="q"
      d="m728.26,352c1.86-4.36-4.58-7.05-11.47-7.93-3.44-.45-6.94-.48-9.56-.36-2.63.12-4.38.35-4.38.35,0,0,1.47,1.1,3.64,2.62,2.17,1.52,5.01,3.48,7.86,5.18,5.71,3.36,11.49,5.79,13.9.14Z" />
    <path
      class="i"
      d="m467.31,336.71c.1-2.36-1.26-3.61-3.39-4.05-2.13-.44-4.98-.03-7.73.82-2.75.85-5.38,2.14-7.26,3.25-1.89,1.1-3.06,1.99-3.06,1.99,0,0,1.48.42,3.62,1.02,2.13.58,4.86,1.34,7.47,1.86,2.61.53,5.11.81,7.01.23,1.89-.58,3.23-2.06,3.35-5.13Z" />
    <path
      class="q"
      d="m734.84,30.32c-3.59-3.09-7.11,1.04-9.22,6.05-1.06,2.5-1.79,5.17-2.21,7.22-.43,2.04-.58,3.45-.58,3.45,0,0,1.32-.71,3.16-1.8,1.83-1.09,4.19-2.54,6.26-4.1,4.13-3.14,7.25-6.81,2.6-10.81Z" />
    <path
      class="q"
      d="m118.74,15.51c-4.72.44-3.97,7.86-1.38,14.81,1.28,3.47,2.96,6.81,4.35,9.24,1.39,2.43,2.46,3.98,2.46,3.98,0,0,.24-1.93.51-4.74.26-2.81.6-6.48.69-10.03.16-7.1-.52-13.84-6.63-13.26Z" />
    <path class="q" d="m26.26,463.65c-1.24,9.4,25.93,3.41,25.93,3.41,0,0-24.33-15.57-25.93-3.41Z" />
    <path class="q" d="m276.21,485.87c8.53,4.14,8.71-17.92,8.71-17.92,0,0-19.75,12.56-8.71,17.92Z" />
    <path class="q" d="m272.16,246.22c-10.12,9.04,29.24,32.73,29.24,32.73,0,0-16.14-44.43-29.24-32.73Z" />
    <path class="q" d="m635.09,354.17c-6.82-6.59-18.63,19.28-18.63,19.28,0,0,27.46-10.75,18.63-19.28Z" />
    <path
      class="q"
      d="m731.08,474.57c3.33-3.38-.74-7.33-5.81-9.85-2.52-1.27-5.25-2.19-7.34-2.76-2.09-.57-3.53-.81-3.53-.81,0,0,.7,1.38,1.76,3.31,1.07,1.93,2.47,4.41,3.99,6.62,3.06,4.4,6.63,7.87,10.93,3.49Z" />
    <path
      class="q"
      d="m239.76,133.06c-.6,4.7,5.05,5.44,10.97,5.45,2.96,0,6-.22,8.32-.4,2.32-.18,3.9-.36,3.9-.36,0,0-1.22-1.13-3.16-2.61-1.94-1.48-4.62-3.28-7.44-4.63-5.65-2.73-11.81-3.54-12.58,2.54Z" />
    <path
      class="i"
      d="m485.49,130.7c-3.21-3.49-8.36,1.3-12.08,7.26-1.87,2.96-3.39,6.16-4.4,8.62-1.01,2.46-1.55,4.16-1.55,4.16,0,0,1.63-.89,3.94-2.25,2.31-1.36,5.31-3.15,8.07-5.07,5.49-3.85,10.17-8.19,6.02-12.71Z" />
    <path class="q" d="m281.09,374.58c-3.3-3.41-7.93,1.09-11.54,6.52-3.63,5.43-6.18,11.73-6.18,11.73,0,0,6.55-2.62,12.03-6.05,5.47-3.45,9.95-7.8,5.68-12.21Z" />
    <path
      class="m"
      d="m357.15,255.02c-.21-.75-.59-1.39-1.13-1.94-.3-.23-.59-.46-.89-.69-.69-.4-1.43-.6-2.22-.6h-.26s-.07,0-.1,0c-.39.05-.78.1-1.17.16-.4.08-.75.23-1.07.46-.16.11-.31.23-.46.35-.48.31-.85.72-1.13,1.23-.03.06-.43,1-.44,1.06-.08.36-.16,1.15-.16,1.15,0,.14.12.98.15,1.11,0,.01,0,.02,0,.03.09.4-.68-.68.45,1.07.23.3.46.59.68.89.3.23.59.46.89.68.17.12.35.2.56.25.34.2.71.3,1.11.3.32.04.44.08.69.08h.26c.61.02,1.17-.1,1.7-.38.55-.18,1.02-.48,1.42-.91.43-.4.73-.87.91-1.42.28-.53.4-1.09.38-1.7-.05-.39-.1-.78-.16-1.17Z" />
    <path class="m" d="m354.89,130.97c-5.37,0-5.38,8.34,0,8.34s5.38-8.34,0-8.34Z" />
    <path
      class="m"
      d="m306.6,214.7c-.2-.22-.45-.37-.72-.47-.27-.14-.56-.21-.87-.19-.58.03-1.19.22-1.59.66-.4.44-.66.98-.66,1.59v.67c0,.58.25,1.18.66,1.59.2.22.45.37.72.47.27.14.56.21.87.19.58-.03,1.19-.22,1.59-.66.4-.44.66-.98.66-1.59v-.67c0-.58-.25-1.18-.66-1.59Z" />
    <path class="m" d="m224.54,282.57c-5.43,0-5.44,8.44,0,8.44s5.44-8.44,0-8.44Z" />
    <path
      class="m"
      d="m355.61,451.64c-.09-.22-.19-.45-.28-.67-.25-.42-.59-.76-1.01-1.01-.09-.06-.19-.12-.28-.18-.66-.41-1.61-.41-2.27,0-.09.06-.19.12-.28.18-.33.18-.59.42-.79.72-.17.18-.29.38-.36.62-.18.34-.26.7-.24,1.08.03.25.07.5.1.75.09.22.19.45.28.67.18.33.42.59.72.79.18.17.38.29.62.36.34.18.7.26,1.08.24.25-.03.5-.07.75-.1.22-.09.45-.19.67-.28.33-.18.59-.42.79-.72.17-.18.29-.38.36-.62.18-.34.26-.7.24-1.08-.03-.25-.07-.5-.1-.75Z" />
    <path
      class="m"
      d="m269.75,451.84c-.13-.18-.26-.35-.4-.52-.17-.13-.33-.26-.5-.38-.05-.02-.09-.04-.14-.07-.09-.04-.17-.08-.26-.12-.42-.24-.87-.36-1.35-.36-.48,0-.93.12-1.35.36-.81.48-1.32,1.37-1.32,2.31s.51,1.83,1.32,2.31c.42.24.87.36,1.35.36.48,0,.93-.12,1.35-.36.09-.04.17-.08.26-.12.04-.02.08-.04.12-.06.42-.21.65-.54.91-.91.22-.38.33-.78.33-1.22,0-.44-.11-.84-.33-1.22Z" />
    <path class="m" d="m204.58,471.02c-5.13,0-5.14,7.97,0,7.97s5.14-7.97,0-7.97Z" />
    <path class="m" d="m31,361.27c-4.28,0-4.29,6.66,0,6.66s4.29-6.66,0-6.66Z" />
    <path
      class="m"
      d="m100.26,334.69c-.23-.83-.66-1.56-1.27-2.17-.96-.88-2.15-1.44-3.48-1.44h-1.33c-.68-.03-1.31.12-1.9.42-.61.2-1.14.54-1.58,1.02-.48.45-.82.97-1.02,1.58-.31.59-.45,1.22-.42,1.9l.18,1.31c.23.83.66,1.56,1.27,2.17.96.88,2.15,1.44,3.48,1.44h1.33c.68.03,1.31-.12,1.9-.42.61-.2,1.14-.54,1.58-1.02.48-.45.82-.97,1.02-1.58.31-.59.45-1.22.42-1.9-.06-.44-.12-.87-.18-1.31Z" />
    <path class="m" d="m46.96,271.81c-3.02,0-3.02,4.69,0,4.69s3.02-4.69,0-4.69Z" />
    <path class="m" d="m50.95,91.58c-3.86,0-3.87,6,0,6s3.87-6,0-6Z" />
    <path class="m" d="m31,172.59c-5.73,0-5.74,8.91,0,8.91s5.74-8.91,0-8.91Z" />
    <path class="m" d="m123.44,223.19c-5.67,0-5.68,8.81,0,8.81s5.68-8.81,0-8.81Z" />
    <path class="m" d="m215.89,115.87c-5.13,0-5.14,7.97,0,7.97s5.14-7.97,0-7.97Z" />
    <path class="m" d="m161.35,27.35c-4.34,0-4.35,6.75,0,6.75s4.35-6.75,0-6.75Z" />
    <path class="m" d="m282.4,85.26c-4.28,0-4.29,6.66,0,6.66s4.29-6.66,0-6.66Z" />
    <path class="m" d="m453.33,45.41c-5.07,0-5.08,7.88,0,7.88s5.08-7.88,0-7.88Z" />
    <path class="m" d="m507.86,91c-2.9,0-2.9,4.5,0,4.5s2.9-4.5,0-4.5Z" />
    <path class="m" d="m622.26,72.87c-4.83,0-4.83,7.5,0,7.5s4.83-7.5,0-7.5Z" />
    <path class="m" d="m721.35,67.78c-4.52,0-4.53,7.03,0,7.03s4.53-7.03,0-7.03Z" />
    <path class="m" d="m728,224.46c-4.89,0-4.89,7.59,0,7.59s4.89-7.59,0-7.59Z" />
    <path class="m" d="m651.52,339.15c-5.37,0-5.38,8.34,0,8.34s5.38-8.34,0-8.34Z" />
    <path
      class="m"
      d="m546.49,444.94c-1.48-2.27-5.28-2.27-6.75,0-1.07,1-1.11,2.21-.57,3.31.27,2.84,2.09,3.51,3.95,3.06,1.86.46,3.67-.22,3.95-3.06.54-1.11.5-2.32-.57-3.32Z" />
    <path class="m" d="m479.26,480.69c-2.96,0-2.96,4.59,0,4.59s2.96-4.59,0-4.59Z" />
    <path class="m" d="m377.51,405.67c-2.77,0-2.78,4.31,0,4.31s2.78-4.31,0-4.31Z" />
    <path class="m" d="m425.39,378.85c-4.77,0-4.77,7.41,0,7.41s4.77-7.41,0-7.41Z" />
    <path
      class="m"
      d="m216,406.22c-.17-.6-.47-1.13-.92-1.57-.24-.19-.48-.37-.72-.56-.56-.32-1.15-.48-1.8-.49h-.67c-.49-.02-.95.08-1.37.31-.44.14-.82.39-1.15.74-.35.32-.59.7-.74,1.15-.22.42-.33.88-.31,1.37l.13.95c.17.6.47,1.13.92,1.57.24.19.48.37.72.56.56.32,1.15.48,1.8.49h.67c.49.02.95-.08,1.37-.31.44-.14.82-.39,1.15-.74.35-.32.59-.7.74-1.15.22-.42.33-.88.31-1.37-.04-.32-.08-.63-.13-.95Z" />
    <path
      class="m"
      d="m327.38,390.57c-.14-.42-.37-.78-.7-1.09-.23-.18-.46-.35-.68-.53-.53-.31-1.09-.46-1.7-.46-.3.04-.6.08-.9.12-.57.16-1.07.45-1.49.87-.11.11-.22.22-.33.33-.33.31-.56.67-.7,1.09-.21.4-.31.84-.29,1.3-.02.46.08.9.29,1.3.14.42.37.78.7,1.09.23.18.46.35.68.53.53.31,1.09.46,1.7.46.3-.04.6-.08.9-.12.57-.16,1.07-.45,1.49-.87.11-.11.22-.22.33-.33.33-.31.56-.67.7-1.09.21-.4.31-.84.29-1.3.02-.46-.08-.9-.29-1.3Z" />
    <path class="m" d="m354.23,483.37c-4.64,0-4.65,7.22,0,7.22s4.65-7.22,0-7.22Z" />
    <path class="m" d="m401.45,317.05c-4.71,0-4.71,7.31,0,7.31s4.71-7.31,0-7.31Z" />
    <path
      class="m"
      d="m524.39,325.36c.02-.54-.09-1.04-.34-1.5-.16-.48-.42-.9-.8-1.25-.35-.38-.77-.65-1.25-.8-.46-.24-.96-.36-1.5-.34-.34.05-.69.09-1.03.14-.66.18-1.23.52-1.72,1-.2.26-.41.52-.61.79-.35.61-.53,1.26-.53,1.96-.02.22-.03.44-.05.67-.02.54.09,1.05.34,1.52.16.49.43.91.81,1.27.36.38.78.66,1.27.81.47.25.97.36,1.52.34.35-.05.7-.09,1.05-.14.67-.19,1.25-.52,1.74-1.01.21-.27.41-.53.62-.8.36-.61.54-1.28.54-1.99-.02-.22-.03-.44-.05-.67Z" />
    <path class="d" d="m386.15,235.35c-6.27,0-6.28,9.75,0,9.75s6.28-9.75,0-9.75Z" />
    <path
      class="d"
      d="m335.72,97.06c0-.5-.13-.96-.38-1.4-.22-.69-.6-1.28-1.14-1.78l-.26-.3c-.47-.5-1.02-.86-1.66-1.07-.61-.32-1.28-.47-1.99-.44l-1.37.18c-.87.25-1.63.69-2.28,1.33-.09.1-.18.2-.26.3l-.86,1.12c-.19.44-.37.88-.56,1.32-.23.73-.26,1.47-.1,2.2,0,.5.13.96.38,1.4.13.47.37.88.71,1.22.25.42.58.75.99.99.34.34.75.58,1.22.71.66.35,1.37.5,2.13.48.49-.07.98-.13,1.47-.2l1.32-.56,1.12-.86.86-1.12c.19-.44.37-.88.56-1.32.23-.74.26-1.47.1-2.21Z" />
    <path class="d" d="m418.08,157.49c-6.33,0-6.34,9.84,0,9.84s6.34-9.84,0-9.84Z" />
    <path class="d" d="m587.67,175.11c-5.91,0-5.92,9.19,0,9.19s5.92-9.19,0-9.19Z" />
    <path
      class="d"
      d="m602.81,433.87c-.2-.61-.54-1.14-1.02-1.58-.45-.48-.97-.82-1.58-1.02-.59-.31-1.22-.45-1.9-.42-.44.06-.87.12-1.31.18-.83.23-1.56.66-2.17,1.27-.26.33-.51.66-.77,1-.45.77-.67,1.6-.67,2.48.02.22.03.44.05.67-.03.67.11,1.3.42,1.88.2.6.53,1.13,1.01,1.57.44.48.96.81,1.57,1.01.58.31,1.21.45,1.88.42.43-.06.86-.12,1.3-.17.83-.23,1.54-.65,2.15-1.25.25-.33.51-.66.76-.99.44-.76.66-1.58.67-2.46.02-.22.03-.44.05-.67.03-.68-.12-1.31-.42-1.9Z" />
    <path class="d" d="m730,303.62c-6.58,0-6.59,10.22,0,10.22s6.59-10.22,0-10.22Z" />
    <path class="d" d="m724.01,400.92c-7.18,0-7.19,11.16,0,11.16s7.19-11.16,0-11.16Z" />
    <path class="d" d="m682.11,463.62c-6.09,0-6.1,9.47,0,9.47s6.1-9.47,0-9.47Z" />
    <path class="d" d="m151.38,409.7c-6.15,0-6.16,9.56,0,9.56s6.16-9.56,0-9.56Z" />
    <path
      class="d"
      d="m121.98,476.19c-.18-.56-.49-1.04-.93-1.45-.3-.23-.61-.47-.91-.7-.7-.41-1.46-.61-2.27-.61l-1.2.16c-.76.21-1.42.6-1.99,1.16-.14.14-.27.27-.41.41-.44.41-.75.89-.93,1.45-.28.54-.41,1.11-.39,1.73-.02.62.11,1.2.39,1.73.18.56.49,1.04.93,1.45.3.23.61.47.91.7.7.41,1.46.61,2.27.61.4-.05.8-.11,1.2-.16.76-.21,1.42-.6,1.99-1.16.14-.14.27-.27.41-.41.44-.41.75-.89.93-1.45.28-.54.41-1.11.39-1.73.02-.62-.11-1.2-.39-1.73Z" />
    <path class="d" d="m53.61,438.49c-5.91,0-5.92,9.19,0,9.19s5.92-9.19,0-9.19Z" />
    <path class="d" d="m21.02,254.01c-5.37,0-5.38,8.34,0,8.34s5.38-8.34,0-8.34Z" />
    <path
      class="d"
      d="m109.37,161.34c-.14-.32-.27-.64-.41-.96-.25-.47-.6-.85-1.04-1.13-.39-.36-.85-.6-1.37-.72-.21-.06-.41-.12-.62-.18-.75-.2-1.5-.2-2.24,0-.71.2-1.34.56-1.86,1.08-.22.28-.44.57-.66.85-.38.66-.57,1.37-.58,2.13-.02.58.1,1.12.36,1.63.17.52.46.98.87,1.36,1.05,1.05,2.67,1.51,4.1,1.08.21-.06.41-.12.62-.18.32-.14.64-.27.96-.41.47-.25.85-.6,1.13-1.04.25-.25.42-.55.52-.89.25-.48.37-1,.35-1.55-.05-.36-.1-.71-.14-1.07Z" />
    <path class="d" d="m248.48,23.39c-6.88,0-6.89,10.69,0,10.69s6.89-10.69,0-10.69Z" />
    <path class="d" d="m292.38,136.4c-6.09,0-6.1,9.47,0,9.47s6.1-9.47,0-9.47Z" />
    <path class="d" d="m224.28,158.31c-.14.01-.27.02-.41.03-6.08.49-6.09,8.98,0,9.47.14.01.27.02.41.03,6.13.49,6.14-10.03,0-9.53Z" />
    <path
      class="d"
      d="m422.62,28.07c.02-.63-.11-1.21-.39-1.75-.18-.56-.5-1.05-.94-1.46-.41-.44-.9-.76-1.46-.94-.54-.28-1.13-.42-1.75-.39-.4.05-.81.11-1.21.16-.77.22-1.44.61-2.01,1.17-.24.31-.47.61-.71.92-.41.71-.62,1.47-.62,2.3-.02.22-.03.44-.05.67-.02.63.11,1.22.4,1.77.19.57.5,1.06.95,1.48.42.45.91.76,1.48.95.55.29,1.14.42,1.77.4.41-.05.81-.11,1.22-.16.78-.22,1.45-.61,2.03-1.18.24-.31.48-.62.72-.93.42-.72.62-1.49.63-2.32-.02-.22-.03-.44-.05-.67Z" />
    <path class="d" d="m524.49,124.81c-6.45,0-6.47,10.03,0,10.03s6.47-10.03,0-10.03Z" />
    <path class="d" d="m422.73,300.15c-5.91,0-5.92,9.19,0,9.19s5.92-9.19,0-9.19Z" />
    <path
      class="d"
      d="m503.07,242.97c-.22-.79-.62-1.48-1.21-2.07-.32-.24-.63-.49-.95-.73-.73-.42-1.52-.64-2.37-.64-.22-.02-.44-.03-.67-.05-.65-.02-1.26.11-1.82.41-.59.19-1.09.52-1.52.98-.46.43-.79.94-.98,1.52-.3.56-.43,1.17-.41,1.82.06.42.11.84.17,1.26.22.8.63,1.5,1.22,2.09l.96.74c.74.43,1.53.64,2.39.65.22-.02.44-.03.67-.05.65.02,1.25-.11,1.81-.4.58-.19,1.08-.51,1.51-.97.46-.42.78-.93.97-1.51.29-.56.43-1.16.4-1.81-.06-.42-.11-.83-.17-1.25Z" />
    <path
      class="d"
      d="m491.9,363.98c-.23-.82-.64-1.53-1.24-2.13-.33-.25-.65-.5-.98-.76-.75-.44-1.57-.66-2.44-.66l-.67-.05c-.67-.03-1.3.11-1.88.42-.6.2-1.13.53-1.57,1.01-.48.44-.81.96-1.01,1.57-.31.58-.45,1.21-.42,1.88.06.43.12.86.17,1.3.23.83.65,1.54,1.25,2.15.33.25.66.51.99.76.76.44,1.58.66,2.46.67.22-.02.44-.03.67-.05.66.03,1.28-.11,1.86-.42.6-.19,1.12-.53,1.55-1,.47-.44.8-.96,1-1.55.3-.58.44-1.2.42-1.86-.06-.43-.11-.86-.17-1.28Z" />
    <path class="d" d="m594.99,331.56c-6.58,0-6.59,10.22,0,10.22s6.59-10.22,0-10.22Z" />
    <path
      class="d"
      d="m647.72,163.1c-.23-.3-.47-.61-.7-.91-.02-.02-.03-.04-.05-.06-.07-.09-.14-.18-.21-.27-.41-.44-.9-.76-1.46-.94-.54-.28-1.13-.42-1.75-.39-.63-.02-1.21.11-1.75.39-.56.18-1.05.5-1.46.94-.24.31-.47.61-.71.92-.41.71-.62,1.47-.62,2.29.05.4.11.81.16,1.21.22.77.61,1.44,1.17,2.01.08.07.16.13.25.2.32.26.7.6.99.77.52.33,1.07.51,1.67.53.21.05.42.08.64.08.66.02.88-.04,1.31-.21.69-.27,1.35-.51,1.88-1.07.21-.27.42-.54.63-.82.15-.33.28-.66.42-.99,0-.02.02-.05.03-.07.17-.43.2-.61.21-1.31,0-.75-.2-1.67-.62-2.31Z" />
    <path
      class="d"
      d="m719.21,176.75c-1.55-.91-3.46-.88-5.02,0-.17.09-.33.19-.5.28-1.42.8-2.3,2.39-2.3,4.01s.88,3.2,2.3,4.01c.17.09.33.19.5.28,1.55.88,3.47.91,5.02,0,1.51-.88,2.46-2.54,2.46-4.29s-.95-3.41-2.46-4.29Z" />
    <path class="d" d="m700.07,25.38c-6.03,0-6.04,9.38,0,9.38s6.04-9.38,0-9.38Z" />
    <path class="d" d="m561.07,16.25c-5.79,0-5.8,9,0,9s5.8-9,0-9Z" />
    <polygon
      class="o"
      points="122.11 120.07 126.55 129.05 136.45 130.49 129.28 137.48 130.98 147.35 122.11 142.69 113.25 147.35 114.94 137.48 107.77 130.49 117.68 129.05 122.11 120.07" />
    <polygon
      class="o"
      points="428.05 76.62 422.55 71.46 415.17 73.06 418.38 66.23 414.58 59.71 422.07 60.66 427.09 55.02 428.51 62.44 435.42 65.47 428.8 69.11 428.05 76.62" />
    <polygon
      class="o"
      points="260.45 407.17 262.38 416.06 270.8 419.52 262.94 424.1 262.25 433.18 255.46 427.12 246.62 429.27 250.29 420.94 245.5 413.19 254.56 414.11 260.45 407.17" />
    <polygon
      class="o"
      points="76.22 360.61 77.38 366.94 83.24 369.57 77.58 372.62 76.88 379.02 72.23 374.58 65.94 375.89 68.72 370.09 65.53 364.51 71.9 365.37 76.22 360.61" />
    <polygon
      class="o"
      points="555.08 422.46 549.76 419.67 544.45 422.47 545.46 416.55 541.16 412.35 547.1 411.49 549.76 406.1 552.42 411.49 558.36 412.35 554.06 416.54 555.08 422.46" />
    <polygon
      class="o"
      points="488.57 453.72 488.14 460.83 493.75 465.22 486.86 467 484.42 473.69 480.59 467.69 473.48 467.44 478 461.94 476.04 455.09 482.67 457.7 488.57 453.72" />
    <polygon
      class="o"
      points="422.07 487.64 417.14 485.64 412.7 488.56 413.08 483.26 408.92 479.94 414.09 478.66 415.96 473.68 418.77 478.2 424.08 478.44 420.66 482.51 422.07 487.64" />
    <polygon
      class="o"
      points="696.08 442.41 694.48 447.15 697.46 451.15 692.47 451.09 689.58 455.17 688.1 450.4 683.33 448.91 687.41 446.03 687.34 441.03 691.35 444.02 696.08 442.41" />
  </g>
</svg>
