<?xml version="1.0" encoding="UTF-8"?><svg xmlns="http://www.w3.org/2000/svg" xmlns:xlink="http://www.w3.org/1999/xlink" viewBox="0 0 180 100">
  <defs>
    <style>
      .e {
        fill: #d8d8d8;
      }
      .e,
      .f {
        opacity: 0.5;
      }
      .f {
        fill: #f7aebb;
        mix-blend-mode: multiply;
      }
      .k {
        isolation: isolate;
      }
      .l {
        clip-path: url(#d);
      }
      .h {
        fill: none;
      }
      .i {
        fill: #f386a0;
      }
      .j {
        fill: #fff;
      }
    </style>
  </defs>
  <g class="k">
    <g id="b">
      <g id="c">
        <g class="l">
          <path
            class="f"
            d="m191.6,87.59c-.7-.16-1.44-.23-2.16-.2,2.31-6.41-5.41-11.42-11.17-9.96.17-6.11-6.43-11.35-12.32-9.21-5.05-8.65-19.58-.03-14.4,8.58-1.18.62-2.09,1.83-2.44,3.06-5.36-2.29-13.11,1.19-14.37,7.01-3.3-.64-5.7-4.26-9.68-2.99.13-4.67-4.91-8.67-9.41-7.03-3.86-6.61-14.95-.02-10.99,6.55-.9.47-1.6,1.4-1.87,2.34-4.61-2.39-7.85,2.88-12.16,1.63,2.31-6.41-5.41-11.42-11.17-9.96.17-6.11-6.43-11.35-12.32-9.21-5.05-8.65-19.58-.03-14.4,8.58-1.18.62-2.09,1.83-2.44,3.06-6.37-1.93-10.8,2.34-17.51.66.15-5.37-5.66-9.98-10.83-8.1-4.44-7.61-17.22-.03-12.66,7.55-1.03.54-1.84,1.61-2.15,2.69-4.71-2.01-11.52,1.05-12.64,6.16-13.82-2.42-9.49,18.94,2.63,11.01,3.75,4.77,11.49,4.55,15.9.82,4.22,4.06,11.51,2.91,15.37-1.1,7.26,2.92,22.08,6.2,28.6.76,4.87,4.68,13.32,3.26,17.68-1.44,5.42,3.51,13.59,4.41,19.43,1.78,3.26,4.14,9.98,3.95,13.81.71,3.72,3.57,10.17,2.49,13.5-1.1,4.91,3.48,11.79,3.02,16.32-.87,4.27,5.42,13.07,5.18,18.08.93,4.87,4.68,13.32,3.26,17.68-1.44,7.94,8.75,33.25-2.51,18.12-11.31Z" />
          <path
            class="j"
            d="m45.66,92.72c-.62-.14-1.27-.2-1.9-.17,2.02-5.63-4.76-10.04-9.83-8.75.15-5.39-5.65-9.98-10.84-8.1-4.43-7.61-17.23-.02-12.66,7.55-1.04.55-1.84,1.61-2.15,2.7-4.71-2.01-11.53,1.04-12.63,6.16-13.83-2.42-9.48,18.95,2.62,11.01,3.75,4.77,11.49,4.55,15.9.82,4.28,4.12,11.71,2.87,15.54-1.27,6.98,7.69,29.24-2.2,15.94-9.95Z" />
          <path
            class="j"
            d="m48.51,99.76c-3.82,5.95-12.81,5.84-18.3,2.37.13-.15.26-.31.39-.46-4.76,4.19-13.65,6.4-17.77.34.26.59.61,1.14,1.06,1.61-4.53,3.15-11.27,3.29-15.35-.67-.48-.5-.95-1.07-1.29-1.69.22.54.49,1.06.81,1.54-11.13,6.81-15.05-13-2.42-10.54-.16.94.03,1.89.44,2.75-1.69-6.22,11.24-13.58,12.64-6.24-.65-1.98.3-4.03,1.95-5.2.05.04.33-.11.33-.17,1.18-.47,2.41-.79,3.66-.61-1.25-.36-2.65-.13-3.85.3-3.99-7.3,7.85-14.47,12.26-7.37-.94.31-1.87.74-2.53,1.5,5.6-4.28,14.22,1.48,13.29,8.23.08-.48.12-.95.12-1.44,4.97-1.8,14.03,6.62,7.33,9.16.72-.39,1.6-.34,2.38-.34,3.48-.09,6.57,3.61,4.86,6.92Z" />
          <path class="e" d="m18.35,79.95c-.02.34.03.62.14.87.09-2.51,2.36-4.38,4.58-5.12-1.38-2.78-4.7,1.72-4.71,4.24Z" />
          <path class="e" d="m10.8,83.08c3.04-1.12,6.57-.04,9.09,1.82-3.05-5.89-10.75.18-9.33-7.44-.7,1.78-.66,3.92.24,5.62Z" />
          <path
            class="e"
            d="m48.6,95.94c-.82-1.92-2.91-3.05-4.95-3.1-.79,0-1.67-.05-2.38.34,5.35-1.24.45-8.42-3.42-8.9,3.58,1.8,3.88,6.26,2,9.57,16.68-.94-3.59,13.27-11.36,2.62-3.06,7.46-15,6.01-17.47-1.23,3.67,7.45-13.77,9.49-14.9,1.71-.65,1.28,1.34,4.07.16,4.65-3.6.64-8.5-.97-8.57-5.21-1.93,6.22,5.54,9.53,10.33,6.41-.32-.48-.59-1-.81-1.54.34.62.81,1.19,1.29,1.69,4.08,3.96,10.82,3.83,15.35.67-.45-.47-.8-1.02-1.06-1.61,4.12,6.05,13.01,3.84,17.77-.34-.12.16-.26.31-.39.46,5.53,4.19,20.36,3.09,18.39-6.2Z" />
          <path class="j" d="m10.66,83.57s-.03.02-.05.03c.02,0,.03-.01.05-.02,0,0,0,0,0-.01Z" />
          <path
            class="j"
            d="m136.24,94.57c-.54-.12-1.1-.17-1.65-.15,1.75-4.89-4.13-8.72-8.53-7.6.13-4.68-4.91-8.66-9.41-7.03-3.84-6.61-14.96-.02-10.99,6.55-.9.47-1.6,1.4-1.87,2.34-4.09-1.74-10.01.91-10.97,5.35-11.94-2.35-7.94,16.66,2.28,9.56,3.25,4.15,9.98,3.95,13.81.71,3.71,3.58,10.17,2.49,13.49-1.1,6.06,6.68,25.39-1.91,13.84-8.64Z" />
          <path
            class="j"
            d="m138.72,100.68c-3.31,5.16-11.12,5.07-15.89,2.06.11-.13.23-.27.33-.4-4.13,3.64-11.85,5.55-15.43.3.22.51.53.99.92,1.4-3.93,2.74-9.78,2.86-13.33-.59-.42-.43-.83-.93-1.12-1.46.19.47.42.92.7,1.34-9.66,5.91-13.07-11.28-2.1-9.15-.14.82.03,1.64.38,2.39-1.47-5.4,9.76-11.79,10.98-5.42-.56-1.72.26-3.5,1.69-4.51.05.03.28-.1.29-.15,1.03-.41,2.09-.69,3.18-.53-1.08-.31-2.3-.11-3.34.26-3.47-6.34,6.81-12.57,10.64-6.4-.82.27-1.63.64-2.2,1.31,4.86-3.71,12.34,1.28,11.54,7.15.07-.41.11-.83.11-1.25,4.32-1.56,12.18,5.75,6.36,7.96.62-.34,1.38-.3,2.07-.29,3.02-.08,5.71,3.14,4.22,6.01Z" />
          <path class="e" d="m112.53,83.49c-.02.3.03.54.12.76.08-2.18,2.05-3.8,3.97-4.44-1.2-2.41-4.08,1.49-4.09,3.68Z" />
          <path class="e" d="m105.97,86.21c2.64-.97,5.71-.04,7.89,1.58-2.5-5-9.4.04-8.1-6.46-.61,1.54-.57,3.41.2,4.88Z" />
          <path
            class="e"
            d="m138.8,97.36c-.71-1.67-2.53-2.65-4.3-2.69-.69,0-1.45-.05-2.07.29,4.65-1.08.39-7.31-2.97-7.73,3.11,1.56,3.37,5.44,1.74,8.31,14.59-.7-3.39,11.45-9.86,2.28-2.66,6.48-13.02,5.22-15.17-1.06,3.14,6.47-11.93,8.27-12.93,1.49-.56,1.11,1.16,3.54.14,4.04-3.12.55-7.38-.84-7.44-4.53-1.68,5.4,4.81,8.27,8.97,5.57-.28-.42-.51-.87-.7-1.34.29.54.7,1.03,1.12,1.46,3.54,3.44,9.4,3.32,13.33.59-.39-.4-.69-.89-.92-1.4,3.58,5.26,11.3,3.34,15.43-.3-.11.14-.22.27-.33.4,4.8,3.64,17.68,2.68,15.97-5.38Z" />
          <path class="j" d="m105.85,86.63s-.02.02-.04.03c.02,0,.03-.01.05-.02,0,0,0,0,0-.01Z" />
          <path
            class="j"
            d="m92.9,89.59c-.7-.16-1.44-.22-2.16-.2,2.3-6.41-5.41-11.42-11.17-9.95.17-6.12-6.43-11.35-12.33-9.21-5.03-8.66-19.59-.02-14.39,8.58-1.18.62-2.1,1.83-2.45,3.06-5.35-2.28-13.12,1.19-14.37,7.01-15.73-2.75-10.79,21.54,2.98,12.52,4.26,5.43,13.07,5.17,18.08.93,4.86,4.68,13.32,3.27,17.67-1.44,7.94,8.75,33.25-2.51,18.12-11.31Z" />
          <path
            class="j"
            d="m96.14,97.59c-4.34,6.76-14.57,6.64-20.81,2.7.15-.17.3-.35.44-.53-5.41,4.76-15.52,7.28-20.21.39.29.67.7,1.3,1.2,1.83-5.15,3.58-12.81,3.74-17.45-.77-.55-.57-1.08-1.21-1.47-1.92.25.62.55,1.21.92,1.75-13.02,7.46-17.21-14.49-2.75-11.99-.19,1.07.04,2.15.5,3.13-1.92-7.07,12.78-15.45,14.38-7.1-.74-2.25.34-4.59,2.21-5.91.06.05.37-.13.37-.2,1.34-.54,2.74-.9,4.16-.7-1.42-.41-3.01-.14-4.38.34-4.54-8.3,8.92-16.46,13.94-8.39-1.07.36-2.13.84-2.88,1.71,6.37-4.86,16.17,1.68,15.11,9.36.09-.54.14-1.08.14-1.63,5.66-2.04,15.96,7.53,8.33,10.42.81-.44,1.81-.39,2.71-.38,3.95-.1,7.48,4.11,5.53,7.87Z" />
          <path class="e" d="m61.84,75.07c-.02.39.04.71.16.99.1-2.86,2.68-4.98,5.2-5.82-1.57-3.16-5.35,1.96-5.36,4.82Z" />
          <path class="e" d="m53.26,78.63c3.46-1.27,7.47-.05,10.34,2.07-3.82-6.97-12.09.45-10.6-8.46-.79,2.02-.75,4.46.27,6.39Z" />
          <path
            class="e"
            d="m96.25,93.25c-.93-2.18-3.31-3.47-5.63-3.52-.9,0-1.9-.06-2.71.38,6.09-1.41.51-9.58-3.89-10.12,4.08,2.05,4.41,7.12,2.28,10.88,18.82-1.2-3.75,15.17-12.92,2.98-3.48,8.49-17.06,6.84-19.87-1.39-.15,1.58.93,3.13.98,4.38-5.17,3.2-15.88,5.95-17.93-2.43-.18,1.59.19,3.34.8,5.03-3.97,1.4-10.34-.73-10.36-5.68-2.2,7.08,6.3,10.83,11.75,7.29-.37-.55-.67-1.14-.92-1.75.38.7.92,1.35,1.47,1.92,4.64,4.51,12.31,4.35,17.45.77-.5-.53-.91-1.16-1.2-1.83,4.69,6.88,14.8,4.37,20.21-.39-.14.18-.29.36-.44.53,6.29,4.77,23.15,3.51,20.92-7.05Z" />
          <path class="j" d="m53.1,79.19s-.03.02-.05.04c.02,0,.04-.02.06-.02,0,0,0,0,0-.02Z" />
          <path
            class="j"
            d="m191.71,89.59c-.7-.16-1.44-.22-2.16-.2,2.3-6.41-5.41-11.42-11.17-9.95.17-6.12-6.43-11.35-12.33-9.21-5.03-8.66-19.59-.02-14.39,8.58-1.18.62-2.1,1.83-2.45,3.06-5.35-2.28-13.11,1.19-14.37,7.01-15.73-2.75-10.79,21.54,2.98,12.52,4.26,5.43,13.07,5.17,18.08.93,4.86,4.68,13.32,3.27,17.67-1.44,7.94,8.75,33.25-2.51,18.12-11.31Z" />
          <path
            class="j"
            d="m194.95,97.59c-4.34,6.76-14.57,6.64-20.81,2.7.15-.17.3-.35.44-.53-5.41,4.76-15.52,7.28-20.21.39.29.67.7,1.3,1.2,1.83-5.15,3.58-12.81,3.74-17.45-.77-.55-.57-1.08-1.21-1.47-1.92.25.62.55,1.21.92,1.75-13.02,7.46-17.21-14.49-2.75-11.99-.19,1.07.04,2.15.5,3.13-1.92-7.07,12.78-15.45,14.38-7.1-.74-2.25.34-4.59,2.21-5.91.06.05.37-.13.37-.2,1.34-.54,2.74-.9,4.16-.7-1.42-.41-3.01-.14-4.38.34-4.54-8.3,8.92-16.46,13.94-8.39-1.07.36-2.13.84-2.88,1.71,6.37-4.86,16.16,1.68,15.11,9.36.09-.54.14-1.08.14-1.63,5.66-2.04,15.96,7.53,8.33,10.42.81-.44,1.82-.39,2.71-.38,3.95-.1,7.48,4.11,5.53,7.87Z" />
          <path class="e" d="m160.65,75.07c-.02.39.04.71.15.99.1-2.86,2.68-4.98,5.2-5.82-1.57-3.16-5.35,1.96-5.36,4.82Z" />
          <path class="e" d="m152.07,78.63c3.46-1.27,7.48-.05,10.34,2.07-3.82-6.97-12.09.45-10.6-8.46-.8,2.02-.75,4.46.27,6.39Z" />
          <path
            class="e"
            d="m195.06,93.25c-.93-2.18-3.31-3.47-5.63-3.52-.89,0-1.9-.06-2.71.38,6.09-1.41.51-9.58-3.89-10.12,4.08,2.05,4.41,7.12,2.28,10.88,18.82-1.2-3.75,15.17-12.92,2.98-3.48,8.49-17.06,6.84-19.87-1.39-.15,1.58.94,3.13.98,4.38-5.17,3.2-15.88,5.95-17.92-2.43-.18,1.59.19,3.34.8,5.03-3.97,1.4-10.34-.73-10.36-5.68-2.19,7.08,6.3,10.83,11.75,7.29-.37-.55-.67-1.14-.92-1.75.38.7.92,1.35,1.47,1.92,4.64,4.51,12.31,4.35,17.45.77-.5-.53-.91-1.16-1.2-1.83,4.69,6.89,14.8,4.37,20.21-.39-.14.18-.29.36-.44.53,6.29,4.77,23.15,3.51,20.92-7.05Z" />
          <path class="j" d="m151.91,79.19s-.03.02-.05.04c.02,0,.04-.02.06-.02,0,0,0,0,0-.02Z" />
          <path
            class="f"
            d="m31.95,37.75c-.28-.06-.57-.09-.86-.08.92-2.55-2.16-4.55-4.45-3.96.07-2.44-2.56-4.52-4.91-3.67-2.01-3.45-7.8,0-5.73,3.42-.47.25-.83.73-.97,1.22-2.13-.91-5.22.47-5.72,2.79-6.23-1.23-4.14,8.69,1.19,4.99,1.7,2.16,5.2,2.06,7.21.37,1.94,1.87,5.3,1.3,7.04-.57,3.16,3.48,13.24-1,7.22-4.51Z" />
          <path
            class="j"
            d="m31.14,36.79c-.28-.06-.57-.09-.86-.08.92-2.55-2.16-4.55-4.45-3.96.07-2.44-2.56-4.52-4.91-3.67-2.01-3.45-7.8,0-5.73,3.42-.47.25-.83.73-.97,1.22-2.13-.91-5.22.47-5.72,2.79-6.23-1.23-4.14,8.69,1.19,4.99,1.7,2.16,5.2,2.06,7.2.37,1.94,1.87,5.3,1.3,7.04-.57,3.16,3.48,13.24-1,7.22-4.51Z" />
          <path
            class="j"
            d="m32.43,39.97c-1.73,2.69-5.8,2.65-8.29,1.08.06-.07.12-.14.17-.21-2.15,1.9-6.18,2.9-8.05.16.12.26.28.52.48.73-2.04,1.43-5.12,1.49-6.95-.31-.23-.22-.43-.48-.59-.76.1.25.22.48.37.7-5.04,3.08-6.82-5.89-1.1-4.77-.07.43.01.86.2,1.25-.77-2.82,5.09-6.15,5.73-2.83-.29-.9.13-1.83.88-2.36.03.02.15-.05.15-.08.54-.21,1.09-.36,1.66-.28-.56-.16-1.2-.06-1.74.14-1.81-3.3,3.55-6.56,5.55-3.34-.43.14-.85.33-1.15.68,2.54-1.94,6.44.67,6.02,3.73.04-.22.05-.43.06-.65,2.25-.82,6.36,3,3.32,4.15.32-.18.72-.15,1.08-.15,1.58-.04,2.98,1.64,2.2,3.13Z" />
          <path class="e" d="m18.76,31c0,.15.01.28.06.4.04-1.14,1.07-1.98,2.07-2.32-.62-1.26-2.13.78-2.13,1.92Z" />
          <path class="e" d="m15.35,32.42c1.37-.51,2.98-.02,4.12.82-1.15-2.46-4.99-.14-4.22-3.37-.32.8-.3,1.78.11,2.55Z" />
          <path
            class="e"
            d="m32.47,38.24c-.37-.87-1.32-1.38-2.24-1.4-.36,0-.76-.02-1.08.15,2.42-.56.2-3.82-1.55-4.03,1.62.81,1.76,2.84.91,4.34,7.81-.01-2.58,5.78-5.14,1.19-1.39,3.38-6.79,2.72-7.92-.56,1.64,3.38-6.23,4.31-6.75.78,1.33,3.47-3.64,2.42-3.81-.26-.87,2.82,2.51,4.31,4.68,2.9-.15-.22-.27-.45-.37-.7.16.28.35.54.59.76,1.83,1.8,4.9,1.73,6.95.31-.2-.21-.36-.46-.48-.73,1.87,2.74,5.89,1.74,8.05-.16-.06.07-.12.14-.17.21,2.51,1.9,9.22,1.4,8.33-2.81Z" />
          <path class="j" d="m15.28,32.64s-.01,0-.02.02c0,0,.02,0,.02,0,0,0,0,0,0,0Z" />
          <path
            class="f"
            d="m171.28,47.98c-.28-.06-.57-.09-.86-.08.92-2.55-2.16-4.55-4.45-3.96.07-2.44-2.56-4.52-4.91-3.67-2.01-3.45-7.8,0-5.73,3.42-.47.25-.83.73-.97,1.22-2.13-.91-5.22.47-5.72,2.79-6.23-1.23-4.14,8.69,1.19,4.99,1.7,2.16,5.2,2.06,7.21.37,1.94,1.87,5.3,1.3,7.04-.57,3.16,3.48,13.24-1,7.22-4.51Z" />
          <path
            class="j"
            d="m170.47,47.02c-.28-.06-.57-.09-.86-.08.92-2.55-2.16-4.55-4.45-3.96.07-2.44-2.56-4.52-4.91-3.67-2.01-3.45-7.8,0-5.73,3.42-.47.25-.83.73-.97,1.22-2.13-.91-5.22.47-5.72,2.79-6.23-1.23-4.14,8.69,1.19,4.99,1.7,2.16,5.2,2.06,7.2.37,1.94,1.87,5.3,1.3,7.04-.57,3.16,3.48,13.24-1,7.22-4.51Z" />
          <path
            class="j"
            d="m171.76,50.2c-1.73,2.69-5.8,2.65-8.29,1.08.06-.07.12-.14.17-.21-2.15,1.9-6.18,2.9-8.05.16.12.26.28.52.48.73-2.04,1.43-5.12,1.49-6.95-.31-.23-.22-.43-.48-.59-.76.1.25.22.48.37.7-5.04,3.08-6.82-5.89-1.1-4.77-.07.43.01.86.2,1.25-.77-2.82,5.09-6.15,5.73-2.83-.29-.9.13-1.83.88-2.36.03.02.15-.05.15-.08.54-.21,1.09-.36,1.66-.28-.56-.16-1.2-.06-1.74.14-1.81-3.3,3.55-6.56,5.55-3.34-.43.14-.85.33-1.15.68,2.54-1.94,6.44.67,6.02,3.73.04-.22.05-.43.06-.65,2.25-.82,6.36,3,3.32,4.15.32-.18.72-.15,1.08-.15,1.57-.04,2.98,1.64,2.2,3.13Z" />
          <path class="e" d="m158.1,41.23c0,.15.01.28.06.4.04-1.14,1.07-1.98,2.07-2.32-.62-1.26-2.13.78-2.13,1.92Z" />
          <path class="e" d="m154.68,42.65c1.37-.51,2.98-.02,4.12.82-1.15-2.46-4.99-.14-4.22-3.37-.32.8-.3,1.78.11,2.55Z" />
          <path
            class="e"
            d="m171.8,48.47c-.37-.87-1.32-1.38-2.24-1.4-.36,0-.76-.02-1.08.15,2.42-.56.2-3.82-1.55-4.03,1.62.81,1.76,2.84.91,4.34,7.81-.01-2.58,5.78-5.14,1.19-1.39,3.38-6.79,2.72-7.92-.56,1.64,3.38-6.23,4.31-6.75.78,1.33,3.47-3.64,2.42-3.81-.26-.87,2.82,2.51,4.31,4.68,2.9-.15-.22-.27-.45-.37-.7.16.28.35.54.59.76,1.83,1.8,4.9,1.73,6.95.31-.2-.21-.36-.46-.48-.73,1.87,2.74,5.89,1.74,8.05-.16-.06.07-.12.14-.17.21,2.51,1.9,9.22,1.4,8.33-2.81Z" />
          <path class="j" d="m154.61,42.87s-.01,0-.02.02c0,0,.02,0,.02,0,0,0,0,0,0,0Z" />
          <path
            class="f"
            d="m129.86,17.16c-.18-.04-.37-.06-.55-.05.58-1.62-1.37-2.89-2.83-2.52.05-1.55-1.63-2.87-3.12-2.33-1.28-2.19-4.96,0-3.64,2.17-.3.16-.53.46-.62.78-1.35-.58-3.32.3-3.64,1.77-3.96-.78-2.63,5.52.75,3.17,1.08,1.37,3.31,1.31,4.58.23,1.23,1.19,3.37.83,4.47-.36,2.01,2.21,8.42-.63,4.59-2.86Z" />
          <path
            class="j"
            d="m129.35,16.54c-.18-.04-.37-.06-.55-.05.59-1.62-1.37-2.89-2.83-2.52.05-1.55-1.63-2.87-3.12-2.33-1.27-2.19-4.96,0-3.64,2.17-.3.16-.53.46-.62.78-1.36-.58-3.32.3-3.64,1.77-3.96-.78-2.63,5.52.75,3.17,1.08,1.37,3.31,1.31,4.58.23,1.23,1.19,3.37.83,4.47-.36,2.01,2.21,8.42-.63,4.59-2.86Z" />
          <path
            class="j"
            d="m130.17,18.57c-1.1,1.71-3.69,1.68-5.27.68.04-.04.08-.09.11-.13-1.37,1.21-3.93,1.84-5.11.1.07.17.17.33.3.46-1.3.91-3.24.95-4.42-.19-.14-.14-.27-.31-.37-.49.06.16.14.31.23.44-3.2,1.96-4.33-3.74-.7-3.03-.05.27,0,.54.13.79-.49-1.79,3.23-3.91,3.64-1.8-.19-.57.09-1.16.56-1.5.02.01.09-.03.09-.05.34-.14.69-.23,1.05-.18-.36-.1-.76-.04-1.11.09-1.15-2.1,2.26-4.17,3.53-2.12-.27.09-.54.21-.73.43,1.61-1.23,4.09.43,3.83,2.37.02-.14.03-.27.04-.41,1.43-.52,4.04,1.9,2.11,2.64.21-.11.46-.1.69-.1,1-.02,1.89,1.04,1.4,1.99Z" />
          <path class="e" d="m121.48,12.87c0,.1,0,.18.04.25.03-.72.68-1.26,1.32-1.47-.4-.8-1.35.49-1.36,1.22Z" />
          <path class="e" d="m119.31,13.77c.87-.32,1.89-.01,2.62.52-.73-1.56-3.17-.09-2.68-2.14-.2.51-.19,1.13.07,1.62Z" />
          <path
            class="e"
            d="m130.19,17.47c-.24-.55-.84-.88-1.43-.89-.23,0-.48-.02-.69.1,1.54-.36.13-2.42-.98-2.56,1.03.52,1.12,1.8.58,2.76,4.93.04-1.74,3.66-3.27.76-.88,2.15-4.32,1.73-5.03-.35,1.04,2.15-3.96,2.74-4.29.49.85,2.2-2.31,1.54-2.42-.16-.56,1.79,1.59,2.74,2.97,1.85-.09-.14-.17-.29-.23-.44.1.18.23.34.37.49,1.18,1.14,3.11,1.1,4.42.19-.13-.14-.23-.3-.3-.46,1.19,1.74,3.74,1.11,5.11-.1-.04.04-.07.09-.11.13,1.59,1.21,5.86.89,5.29-1.78Z" />
          <path class="j" d="m119.27,13.91s0,0-.01.01c0,0,.02,0,.01-.01Z" />
          <path
            class="f"
            d="m66.01,7.39c-.25-.06-.52-.08-.78-.07.83-2.32-1.96-4.13-4.04-3.6.06-2.22-2.33-4.11-4.46-3.33-1.82-3.13-7.08,0-5.2,3.1-.43.23-.76.66-.89,1.11-1.93-.83-4.74.43-5.2,2.53-5.66-1.11-3.76,7.89,1.08,4.53,1.54,1.96,4.72,1.87,6.54.34,1.76,1.69,4.82,1.18,6.39-.52,2.87,3.16,12.02-.91,6.55-4.09Z" />
          <path
            class="j"
            d="m65.27,6.51c-.25-.06-.52-.08-.78-.07.83-2.32-1.96-4.13-4.04-3.6.07-2.21-2.33-4.1-4.46-3.33-1.82-3.13-7.08,0-5.2,3.1-.43.23-.76.66-.88,1.11-1.94-.82-4.74.43-5.2,2.53-5.66-1.11-3.76,7.89,1.08,4.53,1.54,1.96,4.73,1.87,6.54.34,1.76,1.69,4.82,1.18,6.39-.52,2.87,3.16,12.03-.91,6.55-4.09Z" />
          <path
            class="j"
            d="m66.44,9.41c-1.57,2.44-5.27,2.4-7.53.98.05-.06.11-.13.16-.19-1.96,1.72-5.61,2.63-7.31.14.11.24.25.47.43.66-2.06,1.46-5.45,1.33-6.84-.97.09.22.2.44.33.63-4.58,2.8-6.19-5.34-1-4.34-.07.39.01.78.18,1.13-.7-2.56,4.62-5.59,5.2-2.57-.27-.81.12-1.66.8-2.14.02.02.13-.05.13-.07.49-.19.99-.33,1.51-.25-.51-.15-1.09-.05-1.58.12-1.64-3,3.23-5.95,5.04-3.03-.39.13-.77.3-1.04.62,2.3-1.76,5.85.61,5.47,3.39.03-.2.05-.39.05-.59,2.05-.74,5.77,2.72,3.01,3.77.29-.16.66-.14.98-.14,1.43-.03,2.7,1.49,2,2.85Z" />
          <path class="e" d="m54.03,1.26c0,.14.01.25.06.36.04-1.03.97-1.8,1.88-2.1-.57-1.14-1.93.71-1.94,1.75Z" />
          <path class="e" d="m50.93,2.55c1.25-.46,2.7-.02,3.74.75-1.04-2.23-4.53-.13-3.84-3.06-.29.73-.27,1.61.1,2.31Z" />
          <path
            class="e"
            d="m66.48,7.83c-.34-.79-1.2-1.26-2.04-1.27-.33,0-.69-.02-.98.14,2.2-.51.18-3.46-1.41-3.66,1.48.74,1.6,2.58.82,3.94,7.1-.01-2.34,5.25-4.67,1.08-1.26,3.07-6.17,2.47-7.19-.51,1.49,3.07-5.65,3.92-6.13.71,1.21,3.15-3.31,2.2-3.46-.23-.8,2.56,2.28,3.92,4.25,2.64-.13-.2-.24-.41-.33-.63,1.39,2.3,4.78,2.43,6.84.97-.18-.19-.33-.42-.43-.66,1.7,2.49,5.35,1.58,7.31-.14-.05.06-.1.13-.16.19,2.28,1.72,8.37,1.27,7.57-2.55Z" />
          <path class="j" d="m50.87,2.75s-.01,0-.02.01c0,0,.01,0,.02,0,0,0,0,0,0,0Z" />
          <path class="i" d="m36.93,68.76c-1.06-.17-1.56.92-1.56,1.44-.08-2.65-4.03-1.17-2.39,1.1.58.82,2.3,2.14,2.33,2.16.82-.33,4.72-3.83,1.62-4.7Z" />
          <path class="i" d="m89.98,4.8c-1.06-.17-1.56.92-1.56,1.44-.08-2.65-4.03-1.17-2.39,1.1.58.82,2.3,2.14,2.33,2.16.82-.33,4.72-3.83,1.62-4.7Z" />
          <path class="i" d="m29.54,13.14c-1.06-.17-1.56.92-1.56,1.44-.08-2.65-4.03-1.17-2.39,1.1.58.82,2.3,2.14,2.33,2.16.82-.33,4.72-3.83,1.62-4.7Z" />
          <path class="i" d="m48.73,56.9c-.68-.44-1.35.15-1.51.51.76-1.84-2.41-2.03-1.98.02.32,4.04,5.41,1.11,3.49-.54Z" />
          <path class="i" d="m131.08,46.25c-.8.13-.9,1.02-.77,1.4-.68-1.87-3.15.12-1.45,1.35,2.96,2.77,4.75-2.83,2.22-2.75Z" />
          <path class="i" d="m174.76,7.52c-.8.13-.9,1.02-.77,1.4-.68-1.87-3.15.12-1.45,1.35,2.96,2.77,4.75-2.83,2.22-2.75Z" />
          <path class="i" d="m27.51,47.26c-.68-.44-1.35.15-1.51.51.76-1.84-2.41-2.03-1.98.02.32,4.04,5.41,1.11,3.49-.54Z" />
          <path class="i" d="m74.63,13.43c-.68-.44-1.35.15-1.51.51.76-1.84-2.41-2.03-1.98.02.32,4.04,5.41,1.11,3.49-.54Z" />
          <path class="i" d="m167.53,30.7c-.68-.44-1.35.15-1.51.51.76-1.84-2.41-2.03-1.98.02.32,4.04,5.41,1.11,3.49-.54Z" />
          <path class="i" d="m175.51,62.83c-.68-.44-1.35.15-1.51.51.76-1.84-2.41-2.03-1.98.02.32,4.04,5.41,1.11,3.49-.54Z" />
          <path class="i" d="m131.11,3.29c-.68-.44-1.35.15-1.51.51.76-1.84-2.41-2.03-1.98.02.32,4.04,5.41,1.11,3.49-.54Z" />
          <path class="i" d="m12.02,57.55c-1.29.13-1.53,1.54-1.37,2.15-.9-3.05-5.04-.12-2.44,2.01.92.78,3.33,1.78,3.36,1.79.85-.63,4.31-5.89.44-5.95Z" />
          <path class="i" d="m136.18,25.65c-1.29.13-1.53,1.54-1.37,2.15-.9-3.05-5.04-.12-2.44,2.01.92.78,3.33,1.78,3.36,1.79.85-.63,4.31-5.89.44-5.95Z" />
          <path class="i" d="m102.24,10.02c-1.29.13-1.53,1.54-1.37,2.15-.9-3.05-5.04-.12-2.44,2.01.92.78,3.33,1.78,3.36,1.79.85-.63,4.31-5.89.44-5.95Z" />
          <path class="i" d="m48.59,37.14c-1.29.13-1.53,1.54-1.37,2.15-.9-3.05-5.04-.12-2.44,2.01.92.78,3.33,1.78,3.36,1.79.85-.63,4.31-5.89.44-5.95Z" />
          <path class="i" d="m133.01,75.47c-1.1-.34-1.78.73-1.86,1.28-1.2-4.62-5.2.26-.56,3.42.91-.22,5.56-3.31,2.42-4.7Z" />
          <path class="i" d="m45.3,18.98c-1.1-.34-1.78.73-1.86,1.28-1.21-4.62-5.2.26-.56,3.42.91-.22,5.56-3.31,2.42-4.7Z" />
          <path class="i" d="m154.09,9.55c-1.29.13-1.53,1.54-1.37,2.15-.9-3.05-5.04-.12-2.44,2.01.92.78,3.33,1.78,3.36,1.79.85-.63,4.31-5.89.44-5.95Z" />
          <path class="i" d="m146.81,63.69c-1.29.13-1.53,1.54-1.37,2.15-.9-3.05-5.04-.12-2.44,2.01.92.78,3.33,1.78,3.36,1.79.85-.63,4.31-5.89.44-5.95Z" />
          <path class="i" d="m11.47,4.15c-1.29.13-1.53,1.54-1.37,2.15-.9-3.05-5.04-.12-2.44,2.01.92.78,3.33,1.78,3.36,1.79.85-.63,4.31-5.89.44-5.95Z" />
        </g>
      </g>
    </g>
  </g>
</svg>
