<?xml version="1.0" encoding="UTF-8"?><svg id="b" xmlns="http://www.w3.org/2000/svg" xmlns:xlink="http://www.w3.org/1999/xlink" viewBox="0 0 841.89 595.28">
  <defs>
    <style>
      .s {
        filter: url(#m);
      }
      .s,
      .t,
      .v {
        fill: #136180;
        opacity: 0.5;
      }
      .ac {
        clip-path: url(#d);
      }
      .t {
        filter: url(#e);
      }
      .u {
        fill: none;
      }
      .ad {
        opacity: 0.4;
      }
      .v {
        filter: url(#k);
      }
      .w {
        filter: url(#i);
      }
      .w,
      .x,
      .aa,
      .ab {
        fill: #f38e20;
        opacity: 0.5;
      }
      .x {
        filter: url(#g);
      }
      .y {
        opacity: 0.5;
      }
      .y,
      .z {
        fill: #e1e0db;
        opacity: 0.4;
      }
      .aa {
        filter: url(#q);
      }
      .ab {
        filter: url(#o);
      }
    </style>
    <clipPath id="d"><rect class="u" width="841.89" height="595.28" /></clipPath>
    <filter id="e" filterUnits="userSpaceOnUse">
      <feOffset dx="7" dy="7" />
      <feGaussianBlur result="f" stdDeviation="15" />
      <feFlood flood-color="#231f20" flood-opacity=".5" />
      <feComposite in2="f" operator="in" />
      <feComposite in="SourceGraphic" />
    </filter>
    <filter id="g" filterUnits="userSpaceOnUse">
      <feOffset dx="7" dy="7" />
      <feGaussianBlur result="h" stdDeviation="15" />
      <feFlood flood-color="#231f20" flood-opacity=".5" />
      <feComposite in2="h" operator="in" />
      <feComposite in="SourceGraphic" />
    </filter>
    <filter id="i" filterUnits="userSpaceOnUse">
      <feOffset dx="7" dy="7" />
      <feGaussianBlur result="j" stdDeviation="15" />
      <feFlood flood-color="#231f20" flood-opacity=".5" />
      <feComposite in2="j" operator="in" />
      <feComposite in="SourceGraphic" />
    </filter>
    <filter id="k" filterUnits="userSpaceOnUse">
      <feOffset dx="7" dy="7" />
      <feGaussianBlur result="l" stdDeviation="15" />
      <feFlood flood-color="#231f20" flood-opacity=".5" />
      <feComposite in2="l" operator="in" />
      <feComposite in="SourceGraphic" />
    </filter>
    <filter id="m" filterUnits="userSpaceOnUse">
      <feOffset dx="7" dy="7" />
      <feGaussianBlur result="n" stdDeviation="15" />
      <feFlood flood-color="#231f20" flood-opacity=".5" />
      <feComposite in2="n" operator="in" />
      <feComposite in="SourceGraphic" />
    </filter>
    <filter id="o" filterUnits="userSpaceOnUse">
      <feOffset dx="7" dy="7" />
      <feGaussianBlur result="p" stdDeviation="15" />
      <feFlood flood-color="#231f20" flood-opacity=".5" />
      <feComposite in2="p" operator="in" />
      <feComposite in="SourceGraphic" />
    </filter>
    <filter id="q" filterUnits="userSpaceOnUse">
      <feOffset dx="7" dy="7" />
      <feGaussianBlur result="r" stdDeviation="15" />
      <feFlood flood-color="#231f20" flood-opacity=".5" />
      <feComposite in2="r" operator="in" />
      <feComposite in="SourceGraphic" />
    </filter>
  </defs>
  <g id="c">
    <g class="ac">
      <g class="ad">
        <path class="z" d="m924.42,538.36C440.65,72.6-43.12,884.47-526.89,412.54c0-.15,0-.3,0-.45C-43.12,854.39,440.65,12.89,924.42,449.02v89.34Z" />
        <path class="z" d="m924.42,428.93C440.65-.54-43.12,847.63-526.89,411.99c0-.21,0-.43,0-.64C-43.12,805.01,440.65-85.13,924.42,302.36v126.57Z" />
        <path class="z" d="m924.42,622.22C440.65,128.65-43.12,912.71-526.89,412.96c0-.05,0-.09,0-.14C-43.12,903.35,440.65,110.07,924.42,594.43v27.79Z" />
        <path class="z" d="m924.42,286.72C440.65-95.59-43.12,799.74-526.89,411.27c0-.05,0-.09,0-.14C-43.12,790.39,440.65-114.16,924.42,258.92v27.79Z" />
        <path class="z" d="m924.42,245.69C440.65-123-43.12,785.93-526.89,411.07c0-.02,0-.05,0-.07C-43.12,781.25,440.65-132.29,924.42,231.79v13.9Z" />
        <path class="z" d="m924.42,209.29C440.65-147.33-43.12,773.68-526.89,410.88c0-.02,0-.05,0-.07C-43.12,769,440.65-156.62,924.42,195.4v13.9Z" />
        <path class="z" d="m927.92,566.11C444.15,86.12-39.63,889.93-523.4,416.11v-.1C-39.63,885.22,444.15,76.8,927.92,552.18c0,4.64,0,9.29,0,13.93Z" />
      </g>
      <path
        class="t"
        d="m7.93,193.48c40.6,0,73.51,32.97,73.51,73.63s-32.91,73.63-73.51,73.63-73.51-32.97-73.51-73.63S-32.67,193.48,7.93,193.48h0Zm0,10.87c34.6,0,62.66,28.1,62.66,62.76s-28.06,62.76-62.66,62.76-62.66-28.1-62.66-62.76,28.06-62.76,62.66-62.76h0Z" />
      <path
        class="z"
        d="m808.5-43.53c49.14,0,88.97,39.92,88.97,89.14s-39.83,89.11-88.97,89.11-88.97-39.92-88.97-89.11,39.83-89.14,88.97-89.14h0Zm0,16.2c40.2,0,72.8,32.65,72.8,72.94s-32.6,72.91-72.8,72.91-72.8-32.65-72.8-72.91,32.57-72.94,72.8-72.94h0Z" />
      <path
        class="y"
        d="m841.89,180.08c34.14,0,61.83,27.73,61.83,61.93s-27.69,61.93-61.83,61.93-61.83-27.73-61.83-61.93,27.69-61.93,61.83-61.93h0Zm0,9.16c29.11,0,52.69,23.64,52.69,52.77s-23.57,52.77-52.69,52.77-52.69-23.61-52.69-52.77,23.6-52.77,52.69-52.77h0Z" />
      <path
        class="z"
        d="m623.89-72.48c40.51-2.73,75.59,27.94,78.33,68.51,2.74,40.6-27.91,75.71-68.42,78.44-40.51,2.73-75.57-27.94-78.3-68.55-2.74-40.57,27.88-75.68,68.39-78.41h0Zm.73,10.85c34.52-2.33,64.41,23.82,66.74,58.4,2.33,34.6-23.77,64.5-58.29,66.83-34.52,2.33-64.4-23.79-66.74-58.4-2.33-34.58,23.77-64.5,58.29-66.83h0Z" />
      <path
        class="y"
        d="m226.9-27.22c21.79-1.47,40.67,15.03,42.14,36.86,1.47,21.84-15.02,40.73-36.81,42.2-21.79,1.47-40.65-15.03-42.13-36.88-1.47-21.83,15-40.71,36.79-42.18h0Zm.39,5.84c18.57-1.25,34.65,12.82,35.9,31.42,1.25,18.62-12.79,34.7-31.36,35.95-18.57,1.25-34.65-12.8-35.9-31.42-1.25-18.6,12.79-34.7,31.36-35.95h0Z" />
      <path
        class="x"
        d="m64.81-84.19c58.46,0,105.85,47.47,105.85,106.02s-47.39,105.97-105.85,105.97S-40.99,80.37-40.99,21.82,6.35-84.19,64.81-84.19h0Zm0,19.27c47.84,0,86.61,38.83,86.61,86.75s-38.77,86.7-86.61,86.7S-21.76,69.69-21.76,21.82,16.97-64.93,64.81-64.93h0Z" />
      <path
        class="w"
        d="m880.77,50.73c58.46,0,105.85,47.47,105.85,106.02s-47.39,105.97-105.85,105.97-105.8-47.42-105.8-105.97,47.34-106.02,105.8-106.02h0Zm0,19.27c47.84,0,86.61,38.83,86.61,86.75s-38.77,86.7-86.61,86.7-86.56-38.83-86.56-86.7,38.72-86.75,86.56-86.75h0Z" />
      <path
        class="v"
        d="m208.57,438c58.13,0,105.26,47.2,105.26,105.43s-47.13,105.37-105.26,105.37-105.21-47.16-105.21-105.37,47.08-105.43,105.21-105.43h0Zm0,19.16c47.57,0,86.13,38.61,86.13,86.27s-38.56,86.21-86.13,86.21-86.08-38.62-86.08-86.21,38.51-86.27,86.08-86.27h0Z" />
      <path
        class="s"
        d="m729.89-74.57c35.68,0,64.6,28.97,64.6,64.71s-28.93,64.67-64.6,64.67-64.57-28.94-64.57-64.67,28.9-64.71,64.57-64.71h0Zm0,11.76c29.2,0,52.86,23.7,52.86,52.95s-23.66,52.92-52.86,52.92-52.83-23.7-52.83-52.92,23.63-52.95,52.83-52.95h0Z" />
      <path
        class="ab"
        d="m17.93,399.78c40.63,0,73.54,32.97,73.54,73.63s-32.91,73.66-73.54,73.66-73.51-32.99-73.51-73.66,32.91-73.63,73.51-73.63h0Zm0,10.87c34.63,0,62.66,28.1,62.66,62.76s-28.03,62.76-62.66,62.76-62.66-28.1-62.66-62.76,28.06-62.76,62.66-62.76h0Z" />
      <path
        class="aa"
        d="m710.07,12.8c25.51,0,46.18,20.7,46.18,46.23s-20.67,46.25-46.18,46.25-46.16-20.72-46.16-46.25,20.67-46.23,46.16-46.23h0Zm0,6.83c21.74,0,39.34,17.64,39.34,39.4s-17.6,39.4-39.34,39.4-39.34-17.64-39.34-39.4,17.62-39.4,39.34-39.4h0Z" />
      <path
        class="z"
        d="m677.55,521.73c26.9,0,48.71,21.85,48.71,48.79s-21.81,48.77-48.71,48.77-48.69-21.82-48.69-48.77,21.79-48.79,48.69-48.79h0Zm0,8.87c22.02,0,39.86,17.87,39.86,39.92s-17.84,39.9-39.86,39.9-39.84-17.87-39.84-39.9,17.82-39.92,39.84-39.92h0Z" />
    </g>
  </g>
</svg>
