<?xml version="1.0" encoding="utf-8"?>
<!-- prettier-ignore -->
<svg version="1.1" xmlns="http://www.w3.org/2000/svg" xmlns:xlink="http://www.w3.org/1999/xlink" x="0px" y="0px"
	 viewBox="0 0 750 500" style="enable-background:new 0 0 750 500;" xml:space="preserve">
<g id="OBJECTS">
	<g>
		<g>
			<path style="fill-rule:evenodd;clip-rule:evenodd;fill:#F1CC40;" d="M180.479,0H0v126.96c9.022-1.077,18.539-6.919,22.675-12.488
				c7.625-10.267,4.896-13.45,20.725-15.709c8.791-1.255,23.704,0.701,31.745-4.286c9.081-5.632,6.113-13.094,11.784-21.676
				c7.18-10.865,15.791-12.183,27.188-13.67c21.895-2.856,31.453-10.806,42.865-27.992C164.148,20.349,181.638,14.809,180.479,0z"/>
			<path style="fill-rule:evenodd;clip-rule:evenodd;fill:#EBB23C;" d="M168.154,0H0v114.6c5.239-2.459,9.812-5.978,12.352-9.398
				c7.625-10.267,4.896-13.449,20.725-15.709c8.791-1.255,23.704,0.701,31.745-4.286c9.081-5.632,6.113-13.094,11.784-21.676
				c7.18-10.865,15.791-12.183,27.188-13.67c21.895-2.856,31.453-10.806,42.865-27.992C152.103,13.672,163.496,8.502,168.154,0z"/>
			<path style="fill-rule:evenodd;clip-rule:evenodd;fill:#F1CC40;" d="M39.494,198.993c-8.517-3.089-32.41-0.935-39.494,4.717
				v63.553c16.396,21.317,51.267,25.885,67.093,1.144C88.741,234.564,67.729,209.233,39.494,198.993z"/>
			<path style="fill-rule:evenodd;clip-rule:evenodd;fill:#EBB23C;" d="M34.303,202.635c-7.398-2.683-28.151-0.812-34.303,4.097
				v55.201c14.241,18.515,44.529,22.483,58.276,0.994C77.079,233.531,58.828,211.529,34.303,202.635z"/>
			<path style="fill:#DA6434;" d="M134.618,0c-4.521,9.839-9.119,18.706-11.254,20.797c-14.182,13.884-34.078,18.881-52.242,25.38
				c-25.721,9.203-34.875,20.322-53.787,38.745C11.752,90.361,7.577,93.929,0,95.054v2.541c9.929-1.424,17.308-7.619,27.892-19.454
				C42.14,62.21,56.217,55.258,76.578,48.294c17.392-5.948,36.063-11.737,49.479-24.897c1.858-1.823,7.984-12.18,13.399-23.397
				H134.618z"/>
			<path style="fill:#DA6434;" d="M80.382,0c-6.674,4.588-13.778,8.699-20.238,13.528c-16.675,12.464-27.016,30.568-43.24,43.389
				C11.296,61.349,6.091,64.355,0,66.325v3.454c26.992-9.77,42.261-39.117,66.915-56.581C73.423,8.588,80.247,4.604,86.526,0H80.382
				z"/>
		</g>
		<g>
			<path style="fill-rule:evenodd;clip-rule:evenodd;fill:#F1CC40;" d="M424.239,0c0,0,48.757,82.091,108.595,67.95
				c59.838-14.141,67.127-55.42,123.32,0C712.347,123.37,744.804,0,744.804,0H424.239z"/>
			<path style="fill-rule:evenodd;clip-rule:evenodd;fill:#EBB23C;" d="M441.327,0c0,0,32.476,67.906,91.508,57.3
				c59.032-10.606,81.722-54.023,127.147-1.702C713.843,117.636,726.657,0,726.657,0H441.327z"/>
			<g>
				<path style="fill-rule:evenodd;clip-rule:evenodd;fill:#E48A3F;" d="M588.044,0c-3.128,22.757,9.062,42.804,38.196,40.183
					C649.884,38.056,658.375,19.844,659.981,0H588.044z"/>
				<path style="fill-rule:evenodd;clip-rule:evenodd;fill:#E48A3F;" d="M750,121.826c-85.386,10.361-98.138,140.376-0.063,130.035
					c0.021-0.002,0.042-0.006,0.063-0.008V121.826z"/>
				<g>
					<path style="fill:#FFFFFF;" d="M750,181.13c-30.197-16.597-27.997-50.416-34.408-79.902
						c-8.142-37.451-49.674-39.187-59.568-74.351c-2.4-8.532-2.398-17.801-1.167-26.877h-5.73
						c-1.597,15.029,0.134,29.885,7.63,42.516c18.684,31.481,48.322,27.671,54.802,68.162c4.716,29.466,7.766,61.717,38.425,76.434
						c0.005,0.002,0.01,0.004,0.015,0.007V181.13z"/>
				</g>
				<path style="fill-rule:evenodd;clip-rule:evenodd;fill:#DA6434;" d="M357.143,0c-9.502,35.294-5.937,78.829,38.969,77.521
					c27.353-0.797,49.498-27.911,53.212-53.147c1.242-8.439,0.373-16.549-1.786-24.374H357.143z"/>
				<g>
					<path style="fill:#FFFFFF;" d="M425.016,0c-6.193,14.977-11.948,30.902-26.684,37.871
						c-16.987,8.034-34.803,1.835-44.009-14.085c-4.403-7.615-5.99-15.395-6.627-23.786h-2.933
						c4.786,30.506,25.262,60.368,59.679,38.471C417.78,29.986,422.78,14.465,428.904,0H425.016z"/>
				</g>
			</g>
		</g>
		<g>
			<path style="fill:#F1CC40;" d="M0,387.375c0,0,24.274-11.521,53.976,15.01s60.229,13.825,110.558,17.29S241.265,459.7,240.44,500
				H0L0,387.375z"/>
			<path style="fill-rule:evenodd;clip-rule:evenodd;fill:#DA6434;" d="M428.423,500c0.31-2.378,0.481-4.79,0.481-7.236
				c0-16.564-18.717-27.57-30.798-39.203c-14.673-14.13-24.98-27.216-49.218-27.216c-23.194,0-37.224,14.128-51.838,27.216
				c-13.23,11.848-28.177,21.773-28.177,39.203c0,2.446,0.171,4.859,0.481,7.236H428.423z"/>
			<path style="fill:#EBB23C;" d="M0,404.496c0,0,22.606-9.77,50.268,12.729c27.662,22.498,56.092,11.723,102.963,14.662
				c46.871,2.939,71.459,33.941,70.691,68.114H0L0,404.496z"/>
			<g>
				<path style="fill-rule:evenodd;clip-rule:evenodd;fill:#E48A3F;" d="M32.273,351.11c-10.918,0.201-21.817,3.186-32.273,7.093
					v53.362c29.042,11.125,75.916,15.091,80.965-16.692C84.997,369.488,54.109,350.707,32.273,351.11z"/>
				<path style="fill:#DA6434;" d="M160.924,466.676c-20.48-15.611-39.671-11.355-63.087-16.761
					c-21.724-5.015-40.126-16.854-62.906-18.512c-11.362-0.827-22.414,0.027-33.374,1.738v3.464
					c9.397-1.651,18.896-2.757,28.869-2.346c23.737,0.978,42.247,12.392,64.667,18.145c23.178,5.947,43.693,1.23,63.902,16.697
					c3.473,2.658,16.252,17.312,26.961,30.899h4.512C179.394,485.462,164.509,469.409,160.924,466.676z"/>
				<path style="fill:#DA6434;" d="M78.738,461.903c-21.451-21.513-49.64-15.905-77.181-11.843v2.92
					c26.799-4.07,54.384-9.425,74.972,11.096c12.831,12.789,20.555,25.223,34.455,35.924h5.367
					C100.621,488.837,92.48,475.685,78.738,461.903z"/>
				<path style="fill:#DA6434;" d="M39.279,481.722c-11.763-5.269-24.843-7.391-37.723-7.271v2.742
					c14.801-0.034,29.75,3.085,41.772,9.989c1.405,0.807,7.095,6.138,14.062,12.817h4.66
					C51.262,490.612,41.135,482.554,39.279,481.722z"/>
				<g>
					<path style="fill:#DA6434;" d="M88.088,337.323c2.35,3.712,40.845,61.405,46.541,55.996
						c1.871-1.776-20.759-23.776-22.713-26.098c-5.603-6.66-11.383-13.81-15.86-21.26c-0.508-0.845-3.561-8.615-4.73-9.238
						C91.02,336.561,85.621,333.427,88.088,337.323z"/>
					<path style="fill:#DA6434;" d="M91.7,332.038c3.574,5.306,49.012,64.609,53.923,57.104
						c-0.319,0.487-27.631-26.643-30.49-30.358c-4.581-5.953-8.53-12.362-13.036-18.378c-1.595-2.13-4.154-7.451-6.692-8.597
						C95.308,331.765,88.801,327.733,91.7,332.038z"/>
					<path style="fill:#DA6434;" d="M100.219,328.333c3.014,5.875,42.536,54.431,46.157,48.335
						c0.609-1.025-25.553-25.165-28.498-28.674c-3.918-4.668-6.859-10.379-10.919-14.819
						C108.169,334.497,97.001,322.06,100.219,328.333z"/>
					<path style="fill:#DA6434;" d="M102.977,320.522c4.393,4.697,42.217,54.478,45.516,51.976
						c2.928-2.221-20.768-26.52-23.095-29.2c-4.56-5.251-9.067-10.52-13.367-15.982c-2.173-3.024-4.427-5.987-6.763-8.889
						C103.092,317.616,102.328,318.314,102.977,320.522z"/>
					<path style="fill:#DA6434;" d="M107.864,312.193c3.196,4.559,37.627,54.168,40.557,52.196
						c2.535-1.706-18.25-26.872-20.086-29.332c-4.36-5.842-8.321-12.954-13.471-18.128
						C114.85,316.916,104.417,307.276,107.864,312.193z"/>
				</g>
				<g>
					<path style="fill:#EBB23C;" d="M251.137,8.883c-3.644,2.454-60.22,42.573-54.652,48.113
						c1.829,1.819,23.177-21.426,25.442-23.445c6.499-5.79,13.481-11.77,20.801-16.458c0.831-0.532,8.51-3.804,9.1-4.991
						C251.983,11.792,254.962,6.306,251.137,8.883z"/>
					<path style="fill:#EBB23C;" d="M256.523,12.343c-5.202,3.723-63.191,50.827-55.55,55.524
						c-0.496-0.305,25.847-28.377,29.48-31.339c5.821-4.748,12.114-8.878,18.001-13.553c2.084-1.655,7.33-4.364,8.404-6.933
						C256.898,15.942,260.744,9.323,256.523,12.343z"/>
					<path style="fill:#EBB23C;" d="M260.468,20.754c-5.788,3.18-53.201,44.065-47.004,47.511
						c1.041,0.579,24.43-26.258,27.853-29.301c4.554-4.049,10.18-7.151,14.503-11.336C254.532,28.876,266.647,17.359,260.468,20.754
						z"/>
					<path style="fill:#EBB23C;" d="M268.354,23.289c-4.57,4.525-53.257,43.747-50.662,46.973
						c2.304,2.864,25.92-21.513,28.532-23.915c5.12-4.707,10.258-9.362,15.596-13.816c2.961-2.258,5.858-4.595,8.693-7.013
						C271.263,23.321,270.543,22.578,268.354,23.289z"/>
					<path style="fill:#EBB23C;" d="M276.818,27.938c-4.467,3.324-53.077,39.15-51.023,42.023
						c1.777,2.486,26.343-19.006,28.75-20.911c5.715-4.524,12.712-8.686,17.738-13.981
						C272.296,35.055,281.636,24.352,276.818,27.938z"/>
				</g>
			</g>
		</g>
		<g>
			<path style="fill-rule:evenodd;clip-rule:evenodd;fill:#F1CC40;" d="M674.968,500c-4.84-25.455-19.661-50.428-34.346-69.772
				c0,0-16.83-17.826-27.758-22.492c-38.963-16.637-84.003-25.886-111.814,14.831c-15.886,23.258-16.119,51.395-7.255,77.433
				H674.968z"/>
			<path style="fill-rule:evenodd;clip-rule:evenodd;fill:#EBB23C;" d="M662.863,500c-4.171-21.937-16.945-43.46-29.6-60.131
				c0,0-14.505-15.363-23.922-19.384c-33.579-14.338-72.395-22.309-96.363,12.782c-13.691,20.044-13.892,44.294-6.252,66.733
				H662.863z"/>
			<g>
				<path style="fill-rule:evenodd;clip-rule:evenodd;fill:#DA6434;" d="M750,500V382.065c-14.056-3.051-29.182-2.624-41.939,1.224
					c-37.694,11.369-84.891,45.607-91.102,86.562c-1.876,12.368-0.426,22.207,3.403,30.149H750z"/>
				<g>
					<path style="fill:#FFFFFF;" d="M670.937,500c6.471-24.835,20.441-46.993,44.597-61.661
						c10.447-6.343,22.32-10.644,34.466-13.416v-4.405c-15.145,3.362-29.891,8.976-42.407,17.854
						c-18.767,13.312-34.079,34.665-40.9,56.386c-0.547,1.742-1.023,3.49-1.441,5.243H670.937z"/>
				</g>
				<g>
					<path style="fill:#FFFFFF;" d="M707.025,500c7.996-13.103,19.728-24.3,34.664-33.634c2.695-1.684,5.472-3.291,8.312-4.812
						v-4.876c-5.416,2.799-10.633,5.939-15.581,9.32c-12.921,8.829-25.62,20.409-33.8,34.002H707.025z"/>
				</g>
				<g>
					<path style="fill:#FFFFFF;" d="M643.525,500c5.945-31.03,21.963-58.463,53.809-76.225
						c16.596-9.256,34.186-14.589,52.666-17.003v-4.369c-21.441,2.692-42.386,9.12-60.814,20.703
						c-22.355,14.052-42.652,41.472-50.005,66.577c-0.987,3.372-1.722,6.821-2.264,10.317H643.525z"/>
				</g>
				<path style="fill:#E58E4E;" d="M589.173,500c-11.426-46.912,19.854-94.577,64.097-122.096
					c23.309-14.498,51.364-20.531,78.748-20.955c2.317-0.036,9.138,1.161,17.982,3.033v-4.429
					c-10.48-1.862-18.634-2.943-20.99-2.859c-30.241,1.069-59.891,8.517-84.687,25.968c-29.587,20.823-59.158,50.123-61.77,87.566
					c-0.775,11.113,0.003,22.707,2.525,33.772H589.173z"/>
			</g>
		</g>
	</g>
</g>
</svg>
