<?xml version="1.0" encoding="UTF-8"?><svg id="b" xmlns="http://www.w3.org/2000/svg" xmlns:xlink="http://www.w3.org/1999/xlink" viewBox="0 0 750 500"><defs><style>.d{fill:#897be2;}.d,.e,.f,.g,.h,.i,.j,.k,.l{stroke-width:0px;}.e{fill:#ffd500;}.f{fill:none;}.g{opacity:.6;}.g,.j{fill:#cbbcf7;}.h{fill:#fff;}.i{fill:#ffe600;}.m{clip-path:url(#c);}.k{fill:#a0a9e8;}.l{fill:#23181e;}</style><clipPath id="c"><rect class="f" width="750" height="500"/></clipPath></defs><g class="m"><path class="g" d="m-94.78,536.9s-87.18-49.45-59.86-74.17c27.33-24.72,37.73-11.71,37.73-11.71,0,0-74.17-37.74-26.02-97.59,48.14-59.86,72.87-7.81,72.87-7.81,0,0-49.45-65.06-1.3-104.1C-23.21,202.5.21,310.5.21,310.5c0,0-5.2-71.57,39.04-59.86,44.24,11.71,20.82,67.66,20.82,67.66,0,0,2.6-29.93,41.64-5.2,39.04,24.72,20.82,106.7,20.82,106.7,0,0,16.92-35.13,46.84-9.11s37.73,101.49,0,145.74c-37.73,44.24-221.2,37.73-264.14-19.52Z"/><path class="g" d="m478.43-208.27s-201.69,26.02-201.69,75.47,105.4,27.33,105.4,27.33c0,0-110.6,19.52-100.19,80.67,10.41,61.16,100.19,28.63,100.19,28.63,0,0-76.77,58.55-41.64,94.99,35.13,36.43,110.6-76.77,110.6-76.77,0,0-9.11,75.47,42.94,67.66S560.41,5.12,560.41,5.12c0,0,10.41,92.39,66.36,62.46,55.95-29.93,27.33-115.81,27.33-115.81,0,0,16.92,84.58,79.37,59.86s19.52-128.82,19.52-128.82c0,0-245.93-123.61-274.55-91.08Z"/><circle class="j" cx="557" cy="78.48" r="12.58" transform="translate(400.46 618.76) rotate(-81.86)"/><path class="j" d="m502.22,105.25c0,2.4-1.94,4.34-4.34,4.34s-4.34-1.94-4.34-4.34,1.94-4.34,4.34-4.34,4.34,1.94,4.34,4.34Z"/><circle class="j" cx="430.51" cy="108.08" r="16.05"/><path class="j" d="m301.46,28.57c0,2.4-1.94,4.34-4.34,4.34s-4.34-1.94-4.34-4.34,1.94-4.34,4.34-4.34,4.34,1.94,4.34,4.34Z"/><path class="e" d="m209.2,13.87c7.57-8.21,3.66-21.03-7.21-23.52-4.39-1.01-8.61-.36-12.62,1.68-.48.24-.96.48-1.53.76-.13-1.39-.21-2.53-.35-3.67-.47-3.8-1.97-7.13-4.71-9.84-5.22-5.16-13.23-4.96-18.11.5-1,1.12-1.83,2.41-2.56,3.73-1.28,2.29-2.02,4.8-2.51,7.38-.28,1.47-.49,2.96-.77,4.65-.61-.42-1.12-.76-1.62-1.1-6.15-4.27-12.74-5.52-19.89-2.9-7.64,2.8-11.19,10.57-10.43,17.31.45,3.93,1.87,7.47,4.45,10.52,1.11,1.31,2.22,2.62,3.36,3.98-.27.21-.5.42-.76.59-2.93,1.87-5.43,4.23-7.79,6.76-3.99,4.27-6.01,9.27-5.99,15.17.03,8.29,6.46,12.8,11.52,13.65,4.62.77,9.15.47,13.57-1.17.5-.19,1.02-.33,1.43-.46-.09,2.24-.36,4.33-.21,6.39.32,4.51,1.67,8.66,4.76,12.16,4.8,5.44,12.19,5.49,17.28,1.86,2.47-1.76,4.35-4.03,5.78-6.7,1.49-2.79,2.43-5.76,3.13-8.83.09-.38.23-.74.36-1.16.16.13.22.15.24.19.24.52.47,1.04.73,1.56,2.91,5.86,7.3,9.81,13.92,11.01,4.36.79,7.85-.56,10.38-4.16,2.28-3.23,3.5-6.86,3.56-10.84.05-3.37-.99-6.47-2.38-9.48-.23-.5-.45-1-.68-1.51,1.8-.16,3.42-.2,5.01-.47,5.49-.94,9.3-3.96,11.22-9.27,1.31-3.61,1.07-7.19-.09-10.75-.87-2.67-2.22-5.08-4.41-6.91-2.06-1.72-4.32-3.11-6.82-4.1-.48-.19-.96-.39-1.44-.59.78-.87,1.46-1.65,2.17-2.42Zm-21.33,7.91c.81,2.75.76,5.43-.2,8.13-1.34,3.79-3.77,6.74-6.6,9.54-5.68,5.59-17.49,5.33-23.75-.73-5.23-5.07-6.66-12.55-3.43-19.09,3.11-6.3,9.64-10.27,16.86-10.25,8.05.02,14.94,5.04,17.12,12.4Z"/><path class="h" d="m164.24,37.82c5,1.34,9.63.41,13.54-3.09,2.19-1.96,3.98-4.25,4.84-7.16,1.68-5.7-1.3-11.22-7.01-12.91-7.17-2.12-15.74,2.28-18.25,9.43-.41,1.16-.57,2.42-.85,3.63.04,4.75,3,8.83,7.73,10.1Zm9.68-21.44c6.09,1.14,8.89,6.56,6.28,12.19-.8,1.73-1.89,3.2-3.54,4.27-2.21,1.42-4.45,2.7-7.12,3.04-1.53.2-3.02.12-4.49-.3-4.71-1.33-7.08-5.69-5.52-10.42,1.54-4.64,4.94-7.35,9.59-8.57.95-.25,1.95-.3,2.69-.41.87.08,1.5.09,2.12.2Z"/><path class="d" d="m171.8,16.18c.87.08,1.5.09,2.12.2,6.09,1.14,8.89,6.56,6.28,12.19-.8,1.73-1.89,3.2-3.54,4.27-2.21,1.42-4.45,2.7-7.12,3.04-1.53.2-3.02.12-4.49-.3-4.71-1.33-7.08-5.69-5.52-10.42,1.54-4.64,4.94-7.35,9.59-8.57.95-.25,1.95-.3,2.69-.41Z"/><path class="k" d="m376.34,505.39c.26-.93.49-1.87.77-2.79,2.87-9.86,6.72-19.39,12.06-27.98,2.67-4.31,5.65-8.32,9.07-11.96,3.4-3.66,7.24-6.89,11.33-9.7,8.17-5.59,17.58-9.44,27.1-10.16,5.11-.43,10.19.09,14.99,1.4,4.82,1.31,9.34,3.59,13.46,6.44,4.14,2.84,7.87,6.3,11.14,10.19,3.27,3.88,6.14,8.11,8.49,12.59,4.9,9.34,8.21,19.79,10.49,30.77.08.4.16.81.24,1.21h19.86c-1.74-7.02-3.71-14.1-6.25-21.14-2-5.49-4.34-10.94-7.17-16.22-2.84-5.34-6.26-10.42-10.2-15.11-3.93-4.69-8.4-9.02-13.44-12.77-5.05-3.72-10.7-6.83-16.8-9.01-3.04-1.12-6.22-1.9-9.43-2.52-1.62-.24-3.24-.43-4.87-.63-1.63-.16-3.26-.15-4.89-.22-6.52-.02-12.96,1.07-19.01,2.99-10.46,3.26-20.33,8.69-29.02,15.81-4.33,3.58-8.29,7.65-11.82,12.11-3.51,4.48-6.46,9.14-8.88,14.06-4.85,9.81-7.63,20.16-8.32,30.29-.06.78-.09,1.57-.13,2.35h11.22Z"/><path class="h" d="m399.28,503.28c1.51-5.16,3.44-10.16,5.92-14.83,1.61-3.03,3.46-5.88,5.58-8.46,2.12-2.59,4.52-4.96,7.12-7.01,5.18-4.12,11.36-6.89,17.45-7.38,3.28-.28,6.47.16,9.44,1.18,2.97,1.08,5.71,2.77,8.19,4.85,4.92,4.26,8.73,10.04,11.3,16.23,2.03,4.83,3.55,10,4.7,15.42h17.9c-.73-2.91-1.54-5.83-2.46-8.76-1.21-3.84-2.63-7.7-4.39-11.48-1.75-3.8-3.88-7.57-6.37-11.08-2.49-3.52-5.42-6.82-8.8-9.79-3.38-2.95-7.27-5.57-11.69-7.42-4.39-1.88-9.32-2.96-14.21-2.97-4.89-.04-9.67.91-14.04,2.53-7.51,2.8-14.41,7.09-20.2,12.61-2.9,2.76-5.58,5.79-7.82,9.15-2.21,3.27-4.05,6.7-5.52,10.22-2.32,5.58-3.62,11.32-3.95,17h11.85Z"/><path class="e" d="m417.39,511.02c.29-1.05.6-2.1.94-3.13,1.61-4.76,3.71-9.26,6.66-12.95,1.46-1.84,3.11-3.48,4.85-4.74,1.74-1.26,3.6-2.08,5.2-2.24l.63-.07c.2.02.4.03.6.04.4-.03.75.16,1.12.18.7.27,1.37.54,2.04,1.05,1.34,1,2.66,2.55,3.78,4.46,1.13,1.87,2.06,4.07,2.83,6.34.77,2.3,1.34,4.62,1.81,7.12.24,1.3.47,2.61.67,3.93h18.42c-1.13-5.26-2.49-10.58-4.76-16.05-1.24-2.96-2.72-5.89-4.61-8.78-1.9-2.87-4.25-5.74-7.51-8.3-1.66-1.26-3.58-2.42-5.77-3.31-1.14-.4-2.27-.81-3.52-1.02-.61-.12-1.23-.25-1.84-.32-.62-.05-1.25-.09-1.88-.11-1.26-.09-2.47.11-3.7.23-1.15.23-2.37.46-3.44.84-1.07.37-2.16.76-3.1,1.25-.48.24-.98.48-1.44.73l-1.31.81c-2.96,1.9-5.43,4.05-7.64,6.33-2.2,2.28-4.16,4.7-5.84,7.25-3.41,5.19-5.68,10.56-6.9,15.98-.33,1.49-.57,2.99-.72,4.48h14.44Z"/><path class="h" d="m86.17,78.04c-.75-15.62-19.78-14.7-29.72-9.45,3.23-8.5,1.35-18.82-4.96-25.38-6.31-6.55-16.82-8.78-25.09-5-8.27,3.78-13.5,13.48-11.75,22.4-2.36-4.24-6.73-11.21-11.45-12.97-5.49-2.05-12.24.15-15.73,4.76-2.15,2.84-3.13,6.39-3.61,9.91-.47,3.49-.43,7.25,1.38,10.27-5.78-2.03-12.38-1.59-17.85,1.19-3.02,1.54-5.86,4.02-6.53,7.34-.93,4.65,2.72,9.08,6.87,11.39,4.41,2.45,9.65,3.39,14.64,2.61-.92,8.07,5.09,16.33,13.05,17.95,7.96,1.62,16.71-3.64,19.02-11.43,3.96,5.46,8.51,10.78,14.57,13.74,6.06,2.96,13.96,3.03,19.03-1.42,5.08-4.46,6.02-11.88,6.64-18.61,4.97,3.48,11.7,4.13,17.39,2.02,5.69-2.11,10.29-6.8,12.66-12.39.93-2.2,1.55-4.57,1.43-6.96Z"/><path class="h" d="m32.42,393.13l.21-.02c1.67,1.51.37.57,1.9,1.98.38.2.98.81,1.54,1.45.56.64,1.13,1.25,1.39,1.5-.02,0,.63.78.54.77.29.17.71.77,1.13,1.25.16.16-.07-.16-.16-.32,0,0,.24.28.47.57.23.28.46.57.46.57.32.48.35.63-.04.14,1.17,1.51,4.4,6.08,6.48,11.23,1.1,2.55,1.86,5.23,2.39,7.5.12.57.23,1.12.34,1.62.11.51.16,1,.24,1.44.14.88.26,1.6.29,2.11.07-.53-.2-1.77-.13-2.26.24,1.06.22,1.57.33,2.04-.18.44.19,2.37-.05,3.2l.13.31-.06.53c.04.59.05,1.06.04,1.42,0,.36,0,.62,0,.82,0,.39,0,.51-.01.61-.01.2,0,.34-.24,2.43-.08,1.22-.25,2.1-.32,2.86-.07.76-.21,1.38-.39,2.03.05-.2.24-.71.13-.09-.13.08-.28,1.67-.51,1.93-.16.6-.74,2.53-.41,1.92-.17.31-.82,1.98-.51.96-.21.57-.43,1.11-.55,1.53l.3-.72c-.31.97-.69,1.68-.96,2.32-.14.32-.27.62-.39.92-.14.29-.27.59-.39.9l.39-.65c-.55,1.1-.98,2.03-1.35,2.38,0,0,.15-.27.28-.56.13-.28.26-.57.26-.57-.43.92-.86,1.61-1.23,2.29-.19.34-.37.67-.55,1-.2.33-.4.67-.62,1.03l.33-.51c-.51.96-2.34,3.8-4.52,6.38-2.14,2.61-4.65,4.86-5.34,5.61l.76-.54s-.31.31-.62.62c-.3.31-.63.6-.63.6.16-.12.41-.8.56-.9-1.39,1.21-5.85,4.92-10.96,7.62-5.02,2.82-10.46,4.71-12.12,5.18-1.34.39-.29-.09-.28-.11-1.6.55-.66.33-2.05.73-.38.09.05-.11.26-.18-.6.19-1.17.31-1.21.37.77-.18.49.04.83.04,0,0-.45.12-.9.25-.44.13-.9.23-.9.23l.06-.1c-.4.1-.96.48-2.75.86-3.02.62-6.33,1.17-9.42,1.47.04-.06.69-.17,1.33-.27-.41.04-1.04.13-1.42.14.75.02-1.29.17-.7.16-2.25.41-5.2.35-7.21.47-.09.09-1.17.9-2.26,1.7-1.1.77-2.21,1.54-2.22,1.65-.65-.03-1.29-.07-1.49-.1.16.06,1.44.15,2.12.15l.12-.11c1.56.02.36.11,1.88.13.08.11-1.32.09-2.56.03,1.11.06,2.22.2,2.67.07,1.05.05-.12.12,1.14.17.9-.02,2.08-.11,3.11-.1l-.02.02c2.52.04,3.83-.34,6.12-.44l-.24.06c.81-.05,2.39-.28,3.85-.43-.42.05-.78.03.08-.12,1.67-.2,2.8-.43,4.01-.62l1.14-.33c1.43-.29,3.91-.88,6.87-1.78,2.95-.93,6.35-2.19,9.65-3.73,3.3-1.54,6.45-3.37,9.04-5.08,2.6-1.7,4.59-3.32,5.73-4.26l-.17.16c3.48-2.84,8.47-7.74,12.12-13.7,1.85-2.96,3.37-6.12,4.48-9.14.26-.77.55-1.49.76-2.23.21-.73.42-1.45.61-2.13.18-.69.31-1.37.45-2,.14-.64.27-1.25.35-1.84.16-.71.34-1.56.45-2.43.09-.87.19-1.74.28-2.5-.12.84-.16.54-.09-.11.1-2.31.08-2.39.06-2.47-.03-.09,0-.18-.11-2.5,0-.67-.09-1.58-.2-2.65-.07-1.09-.29-2.33-.49-3.68-.49-2.71-1.29-5.83-2.4-8.83-1.12-2.99-2.55-5.83-3.87-8.14-1.34-2.3-2.59-4.08-3.28-5.04-1.61-1.97-3.62-4.42-5.4-6.14l.19.16c-.46-.48-1.5-1.49-2.84-2.74-.69-.6-1.44-1.3-2.25-1.98-.83-.66-1.68-1.39-2.58-2.06-3.56-2.73-7.46-5.05-8.85-5.73l.35.21c-2.39-1.23-2.01-1.16-3.89-2.15.09.14-.39-.04-.99-.28-.61-.22-1.35-.52-1.75-.69l.04-.02c-.3-.13-.7-.29-1.17-.48-.47-.17-1-.36-1.56-.56-.56-.2-1.14-.41-1.71-.61-.58-.19-1.14-.37-1.66-.54l.11-.05c-.44-.13-.96-.3-1.53-.48-.57-.17-1.19-.35-1.78-.52-1.19-.38-2.33-.67-2.96-.83-1.43-.42-3.28-.85-5.26-1.29-1-.18-2.03-.36-3.05-.54-1.03-.16-2.06-.26-3.05-.37,0,0-.16-.04-.39-.09-.24-.06-.56-.12-.87-.18-.64-.12-1.28-.24-1.28-.24h-.38s-1.1.64-1.52,1.42c-.43.79-.2,1.7,2.29,2.24l-.09.08,1,.08c1.19.19,1.75.16,1.66.24l-1.63-.22c1.19.18.35.11-.11.11.5.06.98.14,1.37.22.24,0-.17-.06-.35-.1.65.06,1.55.09,2.33.23,1.22.2.06.15,1.47.4,7.47,1.3,14.49,3.63,21.35,6.94.14.11-.05.02-.25-.07,1.04.5,2.02.96,2.94,1.48.93.5,1.84.99,2.74,1.52.48.33.59.46.71.58-.13-.12,2.35,1.35,4.71,3.12,1.21.84,2.33,1.82,3.22,2.52.84.75,1.42,1.26,1.46,1.3Z"/><path class="h" d="m23.32,399.72l.19-.04c1.36,1.23.27.49,1.52,1.62.65.29,1.92,2.03,2.4,2.39-.02,0,.51.64.42.64.25.12.58.62.93,1.01.14.13-.05-.14-.12-.26,0,0,.2.22.38.46.19.23.38.46.38.46.25.39.27.53-.05.13.95,1.22,3.55,4.94,5.24,9.11.89,2.07,1.5,4.23,1.93,6.07.2.92.38,1.76.47,2.48.11.72.21,1.3.24,1.71.07-.44-.16-1.43-.07-1.84.21.85.18,1.27.28,1.65-.18.36.15,1.92-.09,2.59l.13.25-.06.44c.07,1.91.02,2.14.03,2.3-.01.16,0,.28-.2,1.97-.21,1.95-.23,2.9-.54,3.96.04-.16.21-.57.12-.07-.12.06-.22,1.36-.42,1.56-.13.49-.6,2.05-.31,1.56-.15.24-.68,1.6-.44.76-.17.46-.35.9-.44,1.24l.25-.58c-.25.79-.56,1.36-.78,1.88-.22.52-.43.97-.62,1.48l.33-.53c-.45.89-.79,1.65-1.11,1.92,0,0,.12-.23.22-.46.11-.23.21-.46.21-.46-.35.74-.7,1.3-.99,1.85-.29.56-.59,1.07-.94,1.66l.27-.41c-.4.78-1.88,3.1-3.64,5.19-1.73,2.13-3.76,3.97-4.32,4.59l.64-.42s-.25.25-.5.5c-.25.26-.51.49-.51.49.14-.1.3-.71.42-.78-1.13.98-4.76,4-8.91,6.2-4.08,2.3-8.52,3.84-9.87,4.21-1.09.31-.25-.1-.24-.12-1.3.46-.53.29-1.66.61-.32.07.04-.1.21-.16-.49.15-.96.25-.98.31.62-.15.4.06.69.07,0,0-.37.1-.73.21-.36.11-.74.19-.74.19l.05-.1c-.33.07-.77.43-2.23.74-2.46.5-5.16.95-7.68,1.19.04-.06.56-.15,1.08-.24-.33.04-.85.12-1.16.12.62.03-1.05.15-.57.14-1.83.37-4.24.29-5.88.42-.07.09-.95.9-1.85,1.71-.9.78-1.83,1.55-1.83,1.67-.54-.03-1.06-.06-1.23-.08.13.06,1.18.13,1.74.13l.1-.12c1.29.01.3.11,1.55.12.06.11-1.09.09-2.11.05.92.05,1.83.18,2.2.06.86.05-.1.12.94.17.74-.02,1.71-.11,2.56-.09v.02c2.06.05,3.14-.31,5.02-.37l-.2.06c.67-.03,1.97-.23,3.17-.35-.34.03-.65,0,.07-.12,1.38-.15,2.3-.35,3.31-.49l.93-.29c1.18-.23,3.22-.72,5.66-1.47,2.42-.76,5.23-1.8,7.94-3.08,2.71-1.27,5.31-2.78,7.44-4.19,2.14-1.4,3.78-2.74,4.72-3.52l-.14.13c2.87-2.34,6.98-6.38,10-11.31,1.52-2.44,2.78-5.05,3.69-7.55.94-2.49,1.46-4.87,1.78-6.78.14-.58.29-1.28.38-2,.08-.71.16-1.44.23-2.06-.11.69-.15.45-.1-.09.09-1.9.07-1.97.04-2.04-.02-.07-.01-.15-.1-2.07,0-.55-.08-1.3-.17-2.19-.06-.89-.24-1.92-.4-3.04-.4-2.24-1.06-4.81-1.98-7.28-.91-2.47-2.09-4.81-3.18-6.72-1.11-1.9-2.13-3.37-2.69-4.16-1.35-1.61-2.99-3.64-4.47-5.05l.17.13c-.78-.77-3.35-3.37-6.31-5.59-2.93-2.25-6.14-4.17-7.28-4.72l.29.18c-1.98-1-1.65-.96-3.19-1.79.07.13-.33,0-.83-.2-.51-.18-1.11-.42-1.45-.57l.04-.02c-.25-.1-.59-.23-.97-.39-.39-.14-.83-.29-1.29-.45-.46-.16-.94-.33-1.41-.49-.48-.16-.94-.3-1.37-.44l.1-.06c-.36-.1-.8-.23-1.26-.39-.47-.14-.97-.28-1.46-.42-.97-.31-1.91-.56-2.43-.68-2.35-.67-6.05-1.58-9.33-1.83,0,0-.52-.14-1.04-.24-.52-.11-1.05-.22-1.05-.22h-.31s-.91.66-1.27,1.45c-.36.8-.18,1.7,1.84,2.2l-.07.08.81.06c.97.16,1.43.12,1.35.2l-1.33-.18c.97.15.29.1-.09.11.41.05.8.12,1.12.18.2,0-.13-.05-.28-.09.52.04,1.26.05,1.9.17.99.17.04.15,1.19.35,6.07,1.07,11.78,2.98,17.36,5.67.11.1-.04.02-.2-.04.84.4,1.64.77,2.39,1.19.76.41,1.5.8,2.23,1.23.38.27.47.39.57.49-.1-.1,1.92,1.09,3.83,2.52.98.68,1.89,1.48,2.62,2.04.68.61,1.15,1.03,1.18,1.06Z"/><path class="h" d="m14.8,405.91l.17-.06c1.07.96.19.41,1.17,1.29.54.19,1.5,1.59,1.89,1.85-.02,0,.39.5.31.51.22.07.46.48.73.78.11.1-.03-.11-.08-.21,0,0,.15.18.3.35.15.18.3.36.3.36.19.31.19.43-.06.12.74.96,2.77,3.87,4.07,7.13.69,1.61,1.17,3.3,1.5,4.73.16.72.3,1.37.36,1.93.09.56.16,1.01.19,1.33.08-.34-.12-1.11-.02-1.43.18.66.13.99.23,1.28-.19.28.1,1.5-.13,2.02l.12.19-.06.34c.07,1.49.03,1.67.04,1.79,0,.13-.01.22-.17,1.53-.16,1.52-.14,2.28-.4,3.1.03-.13.18-.44.12-.05-.12.04-.16,1.06-.33,1.21-.1.38-.47,1.6-.21,1.23-.13.19-.55,1.24-.38.58-.13.36-.28.7-.34.97l.21-.45c-.2.62-.44,1.06-.62,1.46-.18.41-.34.76-.47,1.16l.26-.41c-.34.7-.61,1.29-.89,1.49,0,0,.09-.18.17-.36.08-.18.16-.36.16-.36-.27.58-.55,1.02-.77,1.45-.22.43-.45.83-.72,1.3l.21-.32c-.3.62-1.44,2.44-2.81,4.09-1.35,1.68-2.93,3.14-3.35,3.64l.51-.32s-.19.2-.38.41c-.19.21-.4.4-.4.4.11-.08.19-.61.28-.66-.88.77-3.73,3.15-6.99,4.88-3.21,1.81-6.69,3.02-7.76,3.31-.86.22-.2-.12-.2-.14-1.02.37-.41.25-1.3.5-.24.05.03-.1.16-.15-.38.13-.76.19-.77.25.5-.1.33.09.56.11,0,0-.29.08-.57.16-.29.09-.58.15-.58.15l.03-.1c-.26.06-.59.4-1.75.62-1.94.38-4.06.75-6.04.93.03-.05.44-.13.85-.21-.27.02-.67.09-.91.08.49.04-.82.13-.45.13-1.44.33-3.34.23-4.63.36-.06.09-.75.9-1.47,1.71-.72.79-1.46,1.57-1.47,1.69-.43-.03-.85-.05-.98-.08.11.06.95.13,1.39.12l.08-.12c1.02,0,.24.09,1.24.11.05.11-.87.1-1.68.06.73.05,1.46.16,1.76.04.68.05-.08.12.75.17.59-.02,1.37-.11,2.05-.09v.02c1.64.06,2.5-.28,4.01-.31l-.16.05c.53-.01,1.57-.19,2.53-.27-.27.02-.52-.01.05-.11,1.1-.11,1.84-.28,2.65-.38l.74-.25c.94-.19,2.57-.57,4.52-1.17,1.94-.61,4.18-1.45,6.35-2.47,2.17-1.02,4.24-2.23,5.94-3.36,1.71-1.12,3.02-2.2,3.77-2.82l-.11.11c2.29-1.88,5.59-5.12,8-9.06,2.46-3.91,3.94-8.42,4.36-11.5.12-.47.25-1.02.33-1.6.06-.58.13-1.16.19-1.66-.09.55-.14.36-.1-.07.07-1.53.05-1.58.03-1.64-.02-.05-.02-.12-.09-1.66-.01-.44-.07-1.04-.14-1.76-.05-.71-.19-1.53-.33-2.44-.32-1.79-.85-3.85-1.58-5.83-.73-1.98-1.67-3.86-2.54-5.38-.88-1.52-1.7-2.7-2.14-3.34-1.1-1.27-2.39-2.91-3.59-4.02l.14.1c-.63-.61-2.68-2.7-5.04-4.46-2.34-1.8-4.9-3.34-5.81-3.77l.23.15c-1.58-.78-1.31-.78-2.54-1.45.04.12-.28.02-.68-.13-.41-.13-.89-.32-1.16-.43l.03-.02c-.4-.17-1.06-.41-1.8-.65-.73-.26-1.55-.51-2.23-.72l.08-.06c-.59-.17-1.4-.41-2.18-.64-.78-.24-1.52-.44-1.94-.54-1.87-.54-4.81-1.3-7.43-1.47,0,0-.41-.13-.83-.22-.41-.09-.83-.2-.83-.2h-.25s-.74.68-1.03,1.48c-.3.8-.17,1.71,1.42,2.17l-.06.07.64.05c.75.14,1.12.09,1.06.17l-1.05-.14c.76.12.22.09-.07.11.32.04.63.1.88.16.16-.01-.1-.05-.22-.08.42.02,1,.02,1.5.12.78.13.03.14.93.31,4.77.86,9.24,2.38,13.62,4.48.08.08-.04.02-.17-.03,1.34.61,2.47,1.24,3.63,1.89.29.22.36.32.43.41-.07-.09,1.51.84,3.01,1.96.77.54,1.48,1.16,2.05,1.6.54.48.9.8.93.83Z"/><path class="h" d="m7.36,411.3l.16-.07c.82.72.12.34.86,1.01.42.13,1.16,1.19,1.46,1.38-.02,0,.28.39.21.41.18.04.33.38.55.59.1.07-.02-.08-.05-.17l.48.52c.14.24.13.33-.07.1.58.71,2.04,2.95,3.06,5.39.22.62.45,1.23.67,1.83.19.6.3,1.2.44,1.74.07.27.13.52.19.76.06.24.06.48.09.69.06.42.1.76.14,1,.06-.25-.07-.84.04-1.08.14.5.06.76.17.97-.19.22.12,1.13-.14,1.52l.12.14-.08.25c.06,1.12.07,1.25.07,1.34,0,.1.01.17-.15,1.15-.14,1.14,0,1.73-.26,2.33.03-.09.16-.33.12-.03-.12.03-.13.8-.27.91-.06.29-.31,1.21-.1.94-.11.14-.47.92-.33.43-.11.26-.24.52-.28.72l.17-.33c-.17.46-.33.8-.46,1.11-.06.15-.12.3-.17.45-.07.14-.13.28-.17.44l.22-.3c-.27.52-.5.96-.73,1.09l.25-.54c-.23.43-.41.77-.57,1.1-.08.17-.16.32-.24.49-.09.16-.19.32-.29.5l.17-.24c-.26.44-1.03,1.88-2.11,3.11-.26.32-.51.64-.75.94-.27.28-.53.55-.76.79-.46.49-.82.89-.97,1.09l.4-.23s-.14.16-.28.33c-.13.17-.3.31-.3.3.09-.05.09-.52.17-.56-.32.31-1.08.86-1.98,1.59-.44.38-1.01.68-1.57,1.06-.57.35-1.13.77-1.77,1.07-.63.32-1.24.65-1.84.96-.6.29-1.21.5-1.74.73-.54.21-1.01.43-1.41.56-.41.12-.73.21-.94.27-.67.15-.17-.13-.17-.15-.77.28-.31.22-.98.42-.19.04.01-.1.11-.14-.29.11-.57.16-.58.21.38-.08.26.1.44.14,0,0-.87.26-.87.24l.02-.09c-.2.04-.45.34-1.33.49-1.47.35-3.11.53-4.61.74.02-.06.33-.13.64-.2-.2.02-.51.08-.7.07.37.06-.63.11-.34.12-.55.14-1.19.18-1.81.21-.62.03-1.23.07-1.72.1-.05.1-.57.89-1.14,1.69-.56.8-1.15,1.61-1.16,1.72-.33-.01-.66-.03-.76-.05.08.06.73.1,1.09.08l.06-.12c.8-.02.18.07.96.09.04.1-.68.1-1.31.09.57.03,1.14.11,1.37.02.54.05-.06.12.59.18.46-.01,1.06-.09,1.59-.08v.02c1.29.03,1.95-.24,3.13-.24l-.12.05c.42,0,1.22-.19,1.98-.23-.22.01-.41-.04.03-.11.87-.06,1.44-.18,2.07-.26l.57-.23c1.48-.27,5.09-1.25,8.49-2.83,3.4-1.58,6.41-3.89,7.58-4.86l-.09.08c1.75-1.51,4.4-3.98,6.26-7.11.48-.76.87-1.59,1.29-2.37.1-.2.22-.38.3-.59.08-.2.16-.41.24-.61.16-.4.31-.81.46-1.19.13-.4.32-.77.41-1.15.1-.39.19-.76.28-1.12.16-.73.38-1.38.42-2,.2-.73.31-1.77.43-2.55-.09.43-.14.28-.1-.06.04-2.4-.06-.17-.08-2.59,0-.35-.05-.81-.13-1.37-.07-.56-.15-1.2-.24-1.91-.13-.7-.34-1.44-.52-2.23-.15-.79-.46-1.56-.75-2.34-.14-.38-.28-.77-.42-1.15-.14-.38-.35-.73-.51-1.09-.36-.7-.66-1.4-1.01-1.99-.74-1.15-1.3-2.13-1.67-2.61-.93-.93-1.84-2.3-2.84-3.11l.11.07c-.25-.23-.76-.78-1.44-1.42-.72-.6-1.57-1.38-2.47-2.08-.94-.66-1.86-1.36-2.68-1.88-.83-.49-1.51-.87-1.85-1.06l.17.12c-1.23-.62-1.01-.63-1.96-1.15.06.2-1.04-.22-1.45-.4l.03-.02c-.16-.06-.36-.15-.6-.24-.25-.07-.52-.16-.81-.24-.58-.18-1.21-.37-1.73-.55l.07-.07c-.23-.06-.49-.14-.78-.24-.3-.08-.61-.16-.91-.24-.61-.17-1.19-.33-1.51-.42-.72-.25-1.66-.47-2.67-.69-.5-.11-1.02-.22-1.55-.32-.52-.08-1.05-.11-1.56-.14l-1.29-.39h-.19s-.59.69-.82,1.48c-.24.8-.15,1.7,1.05,2.16l-.05.08.48.04c.58.11.86.04.81.12l-.8-.1c.58.09.17.09-.06.11.25.04.48.07.67.12.12-.02-.08-.04-.17-.07.32,0,.77-.03,1.15.05.59.11.02.14.7.28,3.64.64,7.03,1.85,10.36,3.45.06.07-.03.03-.14,0,1.05.4,1.86.96,2.76,1.42.23.17.26.26.32.33-.03-.03.28.09.7.39.43.29,1.01.69,1.59,1.09.61.38,1.11.89,1.54,1.23.42.35.69.6.71.61Z"/><path class="h" d="m.02,416.62l.14-.08c.56.49.04.27.55.72.34.04.79.82,1.02.92-.01.01.19.27.12.3.15,0,.24.25.39.4.07.04,0-.07-.01-.13l.34.35c.09.17.06.25-.08.09.39.49,1.37,2.03,2.05,3.67.15.42.3.84.45,1.24.13.41.19.81.29,1.17.22.71.21,1.33.29,1.65.07-.18-.04-.57.08-.74.12.33.03.51.13.65-.2.15.07.76-.18,1.03l.12.1-.07.17c.06.75.07.84.07.91,0,.07,0,.11-.12.77-.09.77.06,1.18-.14,1.58.02-.06.14-.21.11-.01-.11,0-.07.54-.19.61-.04.2-.21.83-.02.65-.1.09-.35.61-.28.27-.07.18-.16.35-.19.49l.13-.22c-.24.62-.42.93-.53,1.36l.17-.19c-.18.36-.33.66-.53.73l.16-.38c-.33.57-.45.95-.73,1.44l.11-.16c-.16.31-.66,1.31-1.39,2.17-.17.23-.34.45-.5.66-.18.2-.35.38-.51.56-.31.34-.55.63-.65.78l.3-.13s-.37.47-.38.46c.06-.04,0-.44.05-.46-.23.22-.74.6-1.37,1.1-.3.26-.7.47-1.08.73-.4.25-.78.54-1.23.74-.43.23-.86.45-1.27.66-.41.2-.83.35-1.2.51-.37.14-.7.29-.98.38-.28.08-.5.14-.65.18-.47.08-.13-.14-.14-.16-.53.21-.2.18-.66.32-.13.02,0-.09.07-.13-.2.08-.4.1-.4.16.27-.05.19.12.33.17,0,0-.6.18-.61.17v-.09c-.13.03-.28.31-.9.4-1.03.24-2.16.37-3.21.5.01-.05.23-.11.44-.17-.14.02-.35.06-.48.04.26.07-.44.09-.24.11-.76.24-1.77.15-2.46.26-.03.09-.4.9-.8,1.7-.4.8-.84,1.61-.85,1.73-.24-.01-.48-.02-.55-.04.06.05.53.09.78.06l.05-.12c.58-.03.13.07.69.08.03.1-.49.11-.95.1.41.02.82.11.99,0,.39.05-.05.12.42.18.34-.02.77-.1,1.15-.07h0c.94.06,1.41-.2,2.26-.17l-.09.05c.3.02.88-.14,1.43-.15-.16,0-.3-.05.02-.11.63-.02,1.04-.14,1.5-.17l.41-.19c1.07-.19,3.68-.91,6.13-2.06,2.46-1.15,4.63-2.83,5.48-3.54l-.06.06c1.27-1.1,3.18-2.89,4.54-5.18.35-.56.63-1.16.94-1.73.32-.57.49-1.19.72-1.75.24-.56.37-1.13.49-1.66.11-.53.27-1.01.29-1.46.17-.53.25-1.29.35-1.86-.08.31-.14.2-.1-.04.03-1.75-.06-.13-.09-1.89,0-.51-.16-1.36-.27-2.39-.23-1.01-.46-2.21-.91-3.32-.1-.28-.2-.57-.31-.85-.1-.27-.25-.53-.37-.79-.25-.5-.48-1.01-.73-1.44-.53-.84-.93-1.55-1.2-1.91-.7-.64-1.34-1.65-2.08-2.22l.09.04c-.18-.18-.56-.55-1.05-1.03-.52-.44-1.13-1-1.78-1.51-.67-.47-1.34-.98-1.93-1.35-.6-.35-1.08-.63-1.34-.77l.12.1c-.9-.43-.72-.47-1.4-.86.03.19-.78-.09-1.07-.21l.03-.03c-.44-.21-1.53-.42-2.28-.69l.06-.07c-.64-.18-1.85-.49-2.3-.63-.52-.18-1.19-.35-1.91-.52-.36-.09-.73-.16-1.11-.23-.38-.06-.76-.08-1.12-.09l-.91-.35h-.14s-.44.7-.62,1.5c-.19.81-.13,1.71.69,2.12l-.03.08.34.03c.4.08.6,0,.56.09l-.55-.07c.4.06.11.08-.05.11.17.03.33.05.46.1.08-.03-.05-.04-.11-.07.22,0,.54-.05.8.01.41.08,0,.14.48.24,2.52.46,4.84,1.32,7.14,2.42.04.06-.02.03-.1,0,.73.27,1.29.66,1.91.96.15.13.17.2.2.26-.02-.08.78.44,1.58,1,.42.26.77.61,1.06.84.28.24.48.41.49.42Z"/></g><path class="h" d="m578.57,355.19s-3.94-15.57,2.12-17.1c6.06-1.53,2.85,17.09,2.85,17.09,0,0,6.8-16.11,13.81-12.95,7.01,3.16-9.98,15.28-9.98,15.28,0,0,14.67-6.41,17.03,1.12,2.36,7.53-16.17,3.57-16.17,3.57,0,0,13.06,8.51,8.83,12.87-6.08,6.26-12.86-9-12.86-9,0,0,3.55,16.59-2.59,16.6-9.34.02-3.01-16.25-3.01-16.25,0,0-7.12,12.93-11.49,8.08-4.37-4.85,8.68-11.42,8.68-11.42,0,0-14.92,4.4-15.26-3.47-.34-7.88,15.24-.89,15.24-.89,0,0-14.65-7.66-11.24-13.04,3.41-5.37,14.03,9.51,14.03,9.51Z"/><path class="i" d="m575.76,361.24c0,2.85,2.18,5.55,4.97,6.13,1.3.27,2.71.11,3.88-.53,1.32-.71,2.28-1.98,2.83-3.38.77-1.96.73-4.31-.45-6.05-3.37-4.96-11.21-1.77-11.23,3.83Z"/><path class="h" d="m635.85,283.38s-6.43-25.41,3.47-27.91c9.89-2.49,4.66,27.88,4.66,27.88,0,0,11.09-26.29,22.53-21.13,11.44,5.16-16.28,24.94-16.28,24.94,0,0,23.94-10.47,27.79,1.83,3.85,12.29-26.39,5.83-26.39,5.83,0,0,21.31,13.88,14.41,20.99-9.92,10.22-20.99-14.68-20.99-14.68,0,0,5.8,27.06-4.23,27.09-15.24.04-4.91-26.51-4.91-26.51,0,0-11.61,21.09-18.75,13.19-7.13-7.91,14.16-18.64,14.16-18.64,0,0-24.35,7.19-24.9-5.67-.55-12.85,24.88-1.44,24.88-1.44,0,0-23.9-12.51-18.35-21.27,5.56-8.77,22.9,15.52,22.9,15.52Z"/><path class="i" d="m631.26,293.25c-.01,4.65,3.57,9.06,8.12,10,2.13.44,4.42.17,6.33-.86,2.15-1.17,3.72-3.23,4.62-5.51,1.26-3.2,1.19-7.03-.74-9.88-5.49-8.1-18.29-2.88-18.32,6.25Z"/><path class="i" d="m711.36,438.29c1.04-.53,1.95-1.34,2.59-2.31,2.85-4.32-3.79-10.2-7.31-6.09-3,3.5-.67,11.14,4.72,8.41Z"/><path class="i" d="m692.26,450.18c-.28.57-.43,1.25-.41,2.05.02.85.06,1.73.47,2.48.39.72,1.09,1.25,1.86,1.54,1.37.52,2.97.35,4.22-.42,1.25-.77,2.12-2.1,2.39-3.54.14-.79.1-1.65-.31-2.33-.31-.52-.82-.91-1.36-1.19-2.55-1.35-5.73-.89-6.85,1.41Z"/><path class="i" d="m686.28,435.32c-.4-.17-.87-.24-1.41-.2-.58.05-1.17.11-1.67.42-.47.3-.8.79-.97,1.33-.3.95-.11,2.03.46,2.85.57.82,1.51,1.36,2.5,1.48.54.07,1.12,0,1.57-.31.34-.23.58-.59.75-.97.82-1.78.37-3.93-1.24-4.59Z"/><path class="i" d="m710.05,447.11c-.34.47-.46,1.07-.47,1.65-.01,1.03.31,2.08,1,2.86.37.42.83.75,1.36.93,1.47.52,3.26-.3,3.89-1.73.63-1.43.1-3.25-1.16-4.17-1.08-.79-3.77-.69-4.61.46Z"/><path class="i" d="m670.73,462.59c.62.18,1.31.25,1.91,0,.6-.24,1.04-.76,1.34-1.34,1.51-2.98-1.34-6.42-4.54-5.03-3.25,1.41-1.46,5.56,1.29,6.37Z"/><path class="i" d="m688.65,470c.92-.2,1.72-.8,2.33-1.53,2.09-2.51-1.44-6.1-4.1-4.51-2.6,1.56-1.71,6.8,1.78,6.04Z"/><path class="i" d="m705.18,467.11c-.13,1.11.42,2.22,1.22,3.01.41.41.9.75,1.46.93,1.35.44,2.95-.24,3.63-1.48.67-1.25.38-2.92-.63-3.91-1.68-1.63-5.35-1.27-5.67,1.45Z"/><path class="h" d="m275.86,192.53c2.74-3.61,4.45-8.05,2.34-12.1-3.68-7.07-12.61-2.55-16.31,1.91-.86,1.04-1.92,2.77-2.75,4.7-1.84-2.84-4.41-5.06-7.76-6.33-3.91-1.47-8.82-1.34-11.75,1.99-2.93,3.32-2.17,8.29.35,11.58,1.71,2.24,4.04,3.51,6.59,4.3-4.37,4.07-7.74,9.86-2.92,14.33,4.02,3.74,9.07,1.8,13-1.5,1.63,6.33,6.4,12.13,13.34,10.46,4.21-1.02,6.27-5.36,6.18-9.39-.03-1.37-.28-2.68-.69-3.93,5.63.99,11.34.37,11.49-5.49.15-6.08-5.41-9.39-11.11-10.54Z"/><path class="i" d="m265.33,194.26c-1.63-.06-3.09.87-3.92,2.24-.76,1.26-.77,3.09.13,4.26.26.62.64,1.18,1.12,1.63,2.3,2.13,5.86.71,6.62-2.15.71-2.66-.99-5.87-3.94-5.97Z"/><path class="l" d="m266.08,198.1s0,0,0,.01c0,0,0,0,0-.01Z"/><path class="h" d="m264.37,155.39c1.46.23,2.95.27,4.45.07,3.29-.43,5.82-2.8,3.89-6.18-1.17-2.04-3.14-3.6-5.33-4.53,3.42-2.46,5.39-7.42,2.39-10.85-2.02-2.3-5.38-1.97-7.44.08-.87.86-1.54,1.88-2.06,2.98-2.65-2.54-5.92-4.51-9.24-3.08-3.92,1.69-2.94,5.27-.79,8.27-4.08,1.27-7.79,3.8-5.89,8.2,1.5,3.46,5.38,4.13,8.89,3.26.28,4.63,1.84,9.57,6.81,9.28,4.32-.26,4.95-3.87,4.31-7.53Z"/><path class="i" d="m260.11,144.07c-1.15-.34-2.45-.2-3.5.41-1.25.73-1.8,1.9-1.72,3.25-.05.51-.02,1.02.12,1.49.83,2.89,4.57,3.34,6.58,1.44,2.15-2.04,1.43-5.74-1.48-6.59Z"/><path class="h" d="m316.98,151.98c.64-1.33,1.1-2.75,1.34-4.25.53-3.27-1.02-6.38-4.81-5.49-2.29.54-4.34,1.98-5.86,3.81-1.38-3.98-5.57-7.29-9.71-5.39-2.78,1.28-3.42,4.59-2.05,7.16.58,1.08,1.36,2.01,2.27,2.82-3.19,1.81-6.01,4.39-5.59,7.97.5,4.24,4.21,4.32,7.7,3.12.05,4.27,1.42,8.55,6.18,7.98,3.74-.45,5.49-3.98,5.67-7.59,4.52,1.06,9.7.97,10.84-3.88.99-4.21-2.29-5.85-5.98-6.28Z"/><path class="i" d="m309.18,150.84c-2.22-1.16-5.51-.15-6.1,2.47-.35,1.55.46,3.21,1.85,3.69.32.34.71.61,1.15.79,1.3.55,2.68.14,3.72-.72,2.03-1.67,1.71-5.01-.62-6.23Z"/><path class="h" d="m697.91,125.86c-3.37-3.1-8.29-4.75-12.66-3.87-.48-2.32-1.27-4.37-3.27-6.08-2.88-2.47-6.81-3.92-10.46-4.79-4.71-1.13-11.15-1.63-15.18,1.36-3.07-9.68-14.15-16.28-24.2-17.17-6.64-.59-13.49,1.05-18.41,5.74-1.68,1.6-3.2,3.66-4.16,5.9-5.25-4.91-13.87-7.07-20.77-7.15-7.78-.09-15.29,2.78-20.95,8.14-5.11,4.84-8.77,11.81-8.55,18.99.06,2,.69,4.26,1.78,6.22-2.76.38-6.6,4.36-7.93,5.64-3.52,3.39-6.15,7.72-6.43,12.69-.12,2.21.23,4.53,1.14,6.57-3.86,2.86-5.53,8.26-5.16,12.93.5,6.41,4.73,12.02,9.84,15.63,5.81,4.11,12.4,4.74,19.17,2.74,3.42-1.02,6.75-3.09,8.83-5.95,3.16,10.39,15.26,14.53,25.47,14.44,8.13-.07,17.63-4.19,21.27-11.63,6.93,6.7,18.13,8.38,27.03,5.01,7.27-2.75,14.33-10.38,13.66-18.25,16.48,2.51,32.31-8.73,35.65-25.2,1.55-7.65.28-16.4-5.7-21.9Zm-12.96-2.64c-.24,1.54-.46,3.34-1.98,4.15-.73.39-1.66.45-2.22-.26-.37-.47-.49-1.18-.19-1.69,1.37-1.11,2.84-1.85,4.37-2.26,0,.02.01.04.02.07Zm-28.57-2.97c-.41.54-.84,1-1.59,1.03-1.11.06-1.85-.94-2.01-1.94-.16-1,.15-1.92.65-2.74.12.4.74.57.95.08.36-.84.82-1.55,1.35-2.17.45,1.81.68,3.72.65,5.73Zm-46.48-11.38s.02.03.03.05c.95.92,1.99,1.92,2.41,3.21.25.77.24,1.55-.13,2.27-.19.37-.45.68-.77.94-.35.28-.73.38-1.15.31-.96-2.28-.99-4.6-.38-6.78Zm-28.28,68.61c-.19,1.29-.56,2.47-1.07,3.54,0,0,0,0,0-.01-.06-.18-.12-.35-.18-.53-.03-.08-.09-.12-.16-.13-.26-.47-.52-.95-.68-1.46-.23-.71-.35-1.65.11-2.31.49-.69,1.76-.72,2.09-.1-.02.32-.05.64-.09.95,0,.02-.01.04-.01.06Zm45.04,6.65c-.5-.88-1.12-1.71-1.47-2.66-.26-.71-.38-1.52-.05-2.23.31-.67.72-.96,1.46-.84.6.1,1.51.55,1.02,1.47-.06.12.08.2.18.14-.24,1.46-.62,2.84-1.13,4.12Zm74.57-31.91c-5.14,13.78-19.06,21.46-33.35,20.07-.25-1.75-.88-3.5-1.99-5.21-.17-.26-.5-.2-.67,0-.43-.6-.96-.98-1.99-.8-1.05.18-1.93.98-2.16,2.03-.68,3.11,2.9,5.07,5.56,5.07.29,8.08-6.52,15.01-14.61,17.36-8.66,2.51-17.48.13-24.42-5.25.86-2.02,1.3-4.27,1.17-6.75-.02-.38-.54-.45-.74-.2-.38-1.1-2.02-1.64-3.12-.6-1.97,1.85-.44,4.95,1.02,6.83,0,.03.03.06.05.09.05.06.11.11.16.17.03.03.05.06.08.09-3.5,7.49-11.55,11.57-20.36,11.63-5.76.04-12.19-1.13-17.08-4.31-3.7-2.41-6.09-5.92-7.68-9.9,1.15-1.88,1.77-4.06,1.57-6.48-.02-.3-.33-.43-.58-.38-.5-.67-1.51-1.01-2.43-.51-2.69,1.45-.97,5,.33,6.85-2.17,3.6-6.13,5.85-10.64,6.78-6.21,1.28-11.87.22-16.95-3.64-8.83-6.71-11.54-18.07-4.18-26.35.64,1.19,1.48,2.27,2.55,3.14,2.93,2.38,7.38,2.49,9.07-1.3.13-.29-.07-.52-.31-.56.23-1.69-.82-3.14-2.53-3.81-2.62-1.03-5.93-.27-8.51.56-.27-.6-.47-1.18-.57-1.7-.54-2.65-.26-5.45.66-7.98.95-2.62,2.61-4.93,4.53-6.92,1.09-1.14,5.75-5.76,8.41-6.35,2.05,3.16,5.35,5.22,9.35,3.46.3-.13.27-.56.02-.68.93-.84.52-2.58-.6-3.39-2.15-1.56-5.88-1.48-8.2-.33-2-3.56-1.99-8.88-.75-12.87,1.84-5.91,5.94-11.03,11.09-14.43,5.62-3.71,12.38-5.18,19.06-4.55,6.82.64,11.88,3.64,17.76,6.57-.94,2.57-1.12,5.32.05,7.86,0,.28.13.52.34.68,0,.01.01.02.02.03.08.14.21.18.34.16.11.04.22.07.33.09,1,.14,1.94-.59,2.46-1.38,1.67-2.57-.45-5.21-2.29-6.95-.05-.04-.1-.07-.14-.08.1-.07.16-.2.07-.3-.04-.04-.08-.08-.12-.12,1.28-3.3,3.93-6.2,6.88-8.09,5.17-3.31,11.63-3.94,17.57-2.91,9.66,1.67,17.86,7.84,20.62,16.62-.39.39-.75.83-1.08,1.32-1.88,1.59-3.6,4.41-1.64,6.67.81.94,2.6,1.18,3.64.52,0,.05,0,.11-.01.16-.02.26.34.31.4.06.06-.26.11-.52.16-.78.16-.27.25-.59.24-.98,0-.06-.03-.1-.06-.15.29-2.28.14-4.45-.36-6.5,3.78-3.13,10.13-2.54,14.71-1.44,6.18,1.48,11.14,4.21,13.23,9.97-1.95.52-3.77,1.55-5.27,3.23-.27.3.09.76.41.69-.19,1.02.45,2.2,1.59,2.46,3.11.7,4.35-3,4.55-5.35,0-.09-.01-.16-.04-.23,5.25-.97,10.85,1.79,14.04,6.65,4.32,6.57,3.99,15.51,1.34,22.64Zm-34.71,19.91s0,0,0,0c-.18-.03-.29.1-.31.24-1.64-.4-3.4-.7-4.08-2.52-.39-1.05-.08-2.24,1.07-2.62,1-.32,1.7.35,2.3,1.06.53,1.3.86,2.58,1.02,3.85Zm-107.83-11.13c-2.93,4.49-7.46.69-9.62-3.06.08-.08.17-.16.25-.24,1.45-.43,2.94-.73,4.46-.79,2.24-.08,5.66.86,4.88,3.88-.02.08,0,.15.03.21Zm4.21-27.37s0,0,0,0c1.27-.34,2.47-.6,3.83-.48.62.05,1.22.17,1.82.35.66.21,4.05,2.28,1.19,3.07-.12.03-.18.13-.18.23-3.11.25-5.31-.9-6.76-2.79.15-.02.23-.25.1-.37Z"/><path class="h" d="m359.14,367.7c-2.88-3.56-7.51-5.91-11.97-5.67-.14-2.36-.62-4.51-2.35-6.49-2.49-2.87-6.17-4.87-9.65-6.27-4.5-1.81-10.8-3.24-15.22-.87-1.63-10.03-11.63-18.17-21.44-20.51-6.48-1.55-13.5-.92-19.05,3-1.9,1.34-3.7,3.16-4.98,5.23-4.48-5.62-12.7-9.01-19.51-10.09-7.68-1.22-15.54.53-21.91,5-5.76,4.04-10.39,10.41-11.22,17.54-.23,1.99.07,4.32.86,6.41-2.79-.02-7.16,3.35-8.67,4.43-3.98,2.84-7.21,6.75-8.2,11.62-.44,2.17-.43,4.51.17,6.67-4.24,2.27-6.67,7.37-6.99,12.04-.44,6.42,2.93,12.58,7.46,16.9,5.15,4.91,11.58,6.5,18.56,5.5,3.54-.51,7.13-2.08,9.61-4.61,1.61,10.74,12.98,16.6,23.09,18,8.05,1.11,18.06-1.58,22.74-8.41,5.88,7.64,16.71,10.92,26.01,8.89,7.6-1.66,15.69-8.19,16.17-16.07,15.94,4.88,33.23-3.93,38.94-19.74,2.65-7.34,2.66-16.18-2.45-22.5Zm-12.44-4.5c-.46,1.49-.94,3.24-2.56,3.81-.78.28-1.71.2-2.16-.58-.3-.52-.31-1.24.06-1.7,1.51-.9,3.08-1.42,4.65-1.6,0,.02,0,.05.01.07Zm-27.84-7.1c-.48.47-.98.86-1.73.79-1.11-.1-1.7-1.2-1.71-2.21-.01-1.02.43-1.87,1.04-2.62.06.41.65.67.93.22.48-.77,1.03-1.42,1.65-1.95.19,1.86.13,3.78-.19,5.76Zm-44.33-18.02s.01.04.03.05c.81,1.05,1.69,2.19,1.91,3.53.14.8.01,1.57-.46,2.23-.24.34-.54.61-.9.82-.38.22-.78.27-1.18.14-.62-2.4-.31-4.69.61-6.77Zm-37.96,63.77c-.38,1.25-.91,2.36-1.58,3.35,0,0,0,0,0-.01-.03-.18-.07-.37-.1-.55-.01-.09-.07-.14-.14-.16-.18-.51-.37-1.01-.46-1.55-.13-.74-.11-1.68.45-2.27.58-.62,1.85-.46,2.09.2-.07.31-.14.63-.23.93,0,.02-.02.04-.02.06Zm43.59,13.14c-.36-.95-.86-1.85-1.07-2.85-.16-.74-.15-1.56.27-2.21.4-.62.85-.84,1.56-.62.58.18,1.41.76.8,1.6-.08.11.05.21.16.16-.45,1.41-1.03,2.72-1.72,3.91Zm78.42-20.71c-7.09,12.89-21.98,18.46-35.91,15,.01-1.77-.36-3.59-1.21-5.45-.13-.28-.47-.27-.67-.1-.34-.66-.81-1.11-1.85-1.08-1.06.03-2.05.69-2.43,1.69-1.12,2.98,2.13,5.44,4.76,5.83-.89,8.03-8.64,13.9-16.98,15.05-8.93,1.23-17.32-2.42-23.4-8.75,1.15-1.88,1.91-4.04,2.14-6.5.04-.38-.46-.52-.7-.3-.22-1.14-1.76-1.91-3-1.05-2.22,1.55-1.15,4.83.02,6.91,0,.03.02.07.04.1.04.06.09.12.13.19.02.03.04.07.06.1-4.55,6.9-13.11,9.77-21.84,8.54-5.7-.8-11.9-2.9-16.27-6.75-3.31-2.92-5.16-6.75-6.16-10.91,1.41-1.7,2.34-3.76,2.5-6.18.02-.3-.26-.47-.52-.46-.39-.74-1.34-1.22-2.32-.86-2.87,1.04-1.69,4.81-.67,6.83-2.67,3.24-6.91,4.9-11.52,5.16-6.33.36-11.78-1.51-16.24-6.07-7.76-7.93-8.78-19.56-.29-26.68.46,1.27,1.13,2.46,2.07,3.48,2.55,2.78,6.94,3.54,9.16.03.17-.27,0-.52-.22-.6.48-1.64-.35-3.23-1.95-4.14-2.45-1.4-5.83-1.13-8.5-.68-.18-.63-.29-1.23-.32-1.76-.15-2.7.54-5.42,1.81-7.79,1.32-2.45,3.3-4.5,5.49-6.19,1.25-.96,6.52-4.86,9.24-5.06,1.56,3.42,4.53,5.94,8.75,4.78.32-.09.35-.52.12-.67,1.04-.69.89-2.48-.1-3.44-1.9-1.85-5.6-2.32-8.07-1.52-1.46-3.82-.68-9.08,1.13-12.84,2.68-5.58,7.49-10.05,13.07-12.66,6.1-2.85,13-3.32,19.52-1.73,6.66,1.63,11.22,5.33,16.61,9.08-1.31,2.4-1.88,5.1-1.1,7.79-.04.28.05.53.24.73,0,.01,0,.02.01.04.06.15.18.21.31.21.1.05.2.1.32.14.97.28,2.01-.3,2.63-1.01,2.03-2.3.31-5.22-1.26-7.21-.04-.05-.09-.08-.13-.1.11-.05.19-.17.11-.29-.03-.05-.07-.09-.1-.14,1.75-3.07,4.79-5.57,7.98-7,5.6-2.52,12.08-2.21,17.81-.32,9.31,3.06,16.53,10.35,17.98,19.45-.45.33-.87.71-1.26,1.14-2.09,1.3-4.2,3.84-2.59,6.36.67,1.05,2.4,1.55,3.52,1.04-.01.05-.02.11-.03.16-.06.25.29.36.39.12.1-.25.18-.5.27-.75.19-.24.33-.55.38-.94,0-.06-.01-.11-.04-.15.62-2.21.79-4.39.59-6.48,4.2-2.54,10.39-1.04,14.76.71,5.9,2.36,10.41,5.79,11.64,11.79-2,.23-3.96.99-5.68,2.43-.31.26-.03.76.31.74-.34.98.12,2.24,1.22,2.67,2.97,1.15,4.75-2.34,5.28-4.63.02-.09.01-.16,0-.23,5.33-.19,10.47,3.35,12.93,8.62,3.32,7.13,1.69,15.93-1.97,22.59Zm-37.24,14.65s0,0,0,0c-.18-.05-.3.06-.34.19-1.57-.63-3.26-1.19-3.67-3.09-.23-1.09.25-2.23,1.44-2.43,1.03-.18,1.63.6,2.13,1.38.34,1.36.48,2.68.45,3.95Zm-105.06-26.71c-3.56,4.01-7.48-.4-9.07-4.43.09-.07.19-.14.29-.21,1.5-.22,3.02-.3,4.53-.13,2.23.25,5.48,1.68,4.26,4.55-.03.08-.03.15,0,.21Zm8.15-26.46s0,0,0,0c1.3-.15,2.53-.23,3.86.08.61.14,1.19.34,1.75.62.63.3,3.68,2.84.73,3.21-.13.02-.19.1-.21.2-3.12-.2-5.12-1.66-6.28-3.75.15,0,.27-.21.15-.35Z"/></svg>