<?xml version="1.0" encoding="UTF-8"?><svg xmlns="http://www.w3.org/2000/svg" xmlns:xlink="http://www.w3.org/1999/xlink" viewBox="0 0 128 128">
  <defs>
    <style>
      .heart {
        fill: #a5122b;
      }
      .e {
        fill: #9ebeda;
      }
      .h {
        fill: #1569b1;
      }
      .i {
        fill: #3a8bd1;
      }
    </style>
  </defs>

  <path
    class="i"
    d="m102.34,56.08c2.01,2.5,4.03,4.99,6.02,7.51,2.99,3.78,5.82,7.68,8.94,11.36.55.64,1.17,1.08-.17,1.81-4.48,2.47-8.96,4.93-13.49,7.32-.21.11-.39.28-.59.42-1.05.23-1.88.89-2.78,1.4-6.71,3.76-13.41,7.52-20.11,11.3-.7.4-1.14.44-1.62-.36-1.79-2.97-3.65-5.89-5.5-8.82-2.16-3.45-4.33-6.89-6.67-10.6,0,.83,0,1.36,0,1.88,0,10.01,0,20.02,0,30.03,0,3.39-.03,6.78-.04,10.18-4.43-2.18-8.86-4.34-13.28-6.54-7.94-3.94-15.87-7.92-23.82-11.84-.77-.38-1.11-.77-1.1-1.68.06-4.9.04-9.8.04-14.7.89-.08,1.45.59,2.13.95,6.62,3.49,13.22,7,19.82,10.53.64.34,1,.31,1.45-.29,1.65-2.21,3.35-4.38,5.03-6.57,3.01-3.95,6.02-7.89,9.02-11.85.39-.52.89-1.03.71-1.79,1.07-.55,2.17-1.06,3.22-1.65,5.32-2.97,10.61-5.98,15.93-8.94,4.88-2.72,9.79-5.4,14.68-8.12.69-.38,1.29-.94,2.15-.92Z" />
  <path
    class="e"
    d="m66.35,75.72c.18.76-.32,1.27-.71,1.79-2.99,3.96-6.01,7.91-9.02,11.85-1.67,2.19-3.38,4.36-5.03,6.57-.45.6-.81.63-1.45.29-6.6-3.53-13.2-7.04-19.82-10.53-.68-.36-1.25-1.03-2.13-.95-.28-.58-.83-.78-1.35-1.05-4.69-2.44-9.38-4.89-14.16-7.39,2-2.53,4-5.05,5.99-7.57,3.39-4.3,6.77-8.6,10.16-12.9.21-.26.43-.52.81-.53.81.89,1.93,1.27,2.94,1.84,6.52,3.65,13.03,7.3,19.58,10.89,2.55,1.4,5.02,2.97,7.7,4.13,2.09,1.32,4.29,2.46,6.5,3.56Z" />
  <path
    class="h"
    d="m66.34,119.51c.02-3.39.04-6.78.04-10.18,0-10.01,0-20.02,0-30.03,0-.53,0-1.05,0-1.88,2.33,3.71,4.5,7.15,6.67,10.6,1.84,2.94,3.7,5.86,5.5,8.82.48.8.92.75,1.62.36,6.69-3.78,13.4-7.54,20.11-11.3.91-.51,1.73-1.18,2.78-1.4.01,4.77,0,9.55.05,14.32,0,.66-.27.96-.8,1.24-11.7,6.41-23.39,12.84-35.08,19.25-.26.14-.5.51-.88.21Z" />
  <path
    class="heart"
    d="m49.25,45.27c.07-1.63-.09-3.28.8-4.78,2.35-3.97,6.69-6.92,11.73-3.74.81.51,1.56,1.05,2.23,1.73,1.01,1.02,1.43.98,2.48.02,1.21-1.1,2.48-2.11,4.09-2.62,2.46-.78,4.71-.51,6.82,1.08,2.63,1.98,4.03,4.57,4.06,7.87,0,.31-.13.63-.2.94-.31.84-.58,1.7-.93,2.52-1.34,3.14-3.64,5.63-6.02,7.93-2.49,2.41-4.86,4.97-7.55,7.18-1.1.9-1.62.98-2.66.09-1.41-1.21-2.83-2.41-4.24-3.61-1.25-1.57-2.81-2.85-4.16-4.31-1.13-1.22-2.38-2.36-3.34-3.71-1.41-1.99-2.47-4.2-3.11-6.58Z" />
  <path
    class="h"
    d="m59.86,59.88c1.42,1.2,2.84,2.4,4.24,3.61,1.03.89,1.56.81,2.66-.09,2.69-2.21,5.06-4.77,7.55-7.18,2.38-2.3,4.67-4.79,6.02-7.93.35-.82.62-1.68.93-2.52,5.24,2.56,10.56,4.95,15.89,7.33,1.45.65,2.88,1.36,4.33,2.03.43.2.7.52.86.95-.86-.01-1.46.54-2.15.92-4.89,2.72-9.8,5.4-14.68,8.12-5.32,2.97-10.62,5.97-15.93,8.94-1.05.59-2.15,1.1-3.22,1.65-2.21-1.11-4.4-2.24-6.5-3.56,0-4.09,0-8.19,0-12.28Z" />
  <path
    class="i"
    d="m59.86,59.88c0,4.09,0,8.19,0,12.28-2.68-1.16-5.14-2.74-7.7-4.14-6.55-3.59-13.06-7.24-19.58-10.89-1.01-.56-2.13-.95-2.94-1.84,2.92-1.57,5.92-2.99,8.91-4.45,3.61-1.77,7.14-3.71,10.7-5.58.64,2.38,1.7,4.59,3.11,6.58.95,1.35,2.2,2.49,3.34,3.71,1.36,1.47,2.92,2.74,4.16,4.31Z" />
  <path
    class="heart"
    d="m92.3,21.15c1.51-.32,2.75.57,3.84,1.62.8.78,1.37.96,2.29.1,1.09-1.02,2.32-1.75,3.99-1.78,2.57-.04,3.94,1.45,5.15,3.35,1.48,2.34.42,4.41-.75,6.4-1.04,1.77-2.47,3.26-3.97,4.67-1.46,1.38-2.93,2.75-4.37,4.15-.67.65-1.24.82-2.05.13-2.99-2.56-5.92-5.21-8.16-8.46-1.37-1.99-2.61-4.26-1.2-6.76,1.08-1.92,2.45-3.64,5.22-3.42Z" />
  <path
    class="heart"
    d="m28.11,21.89c1.51-.21,2.74.65,3.82,1.74.68.68,1.21.69,1.91.04,1.01-.94,2.12-1.61,3.61-1.82,3.63-.5,7.32,4.18,5.24,8.13-1.03,1.96-2.42,3.61-3.93,5.18-1.59,1.66-3.32,3.18-5.02,4.74-.34.31-.72.78-1.29.28-2.98-2.63-5.96-5.27-8.28-8.53-.6-.83-1.03-1.83-1.35-2.81-1.09-3.34,1.6-6.94,5.28-6.94Z" />
  <path
    class="heart"
    d="m62.26,5.05c1.19-.29,2.2.48,3.07,1.3.84.78,1.37.89,2.28.06,3.03-2.76,6.83-1.34,8.11,2.19.69,1.88-.03,3.56-1.05,5.09-2.02,3.02-4.83,5.3-7.44,7.77-.41.39-.85.46-1.33.02-3.07-2.82-6.4-5.38-8.27-9.29-1.61-3.37.71-7.14,4.62-7.13Z" />
</svg>
