<?xml version="1.0" encoding="UTF-8"?><svg id="b" xmlns="http://www.w3.org/2000/svg" viewBox="0 0 2371.71 1874.77">
  <defs>
    <style>
      .d {
        fill: #c98a34;
      }
      .e {
        fill: #422b40;
      }
      .f {
        fill: #332130;
      }
      .g {
        fill: rgba(51, 33, 48, 0.5);
      }
      .h {
        fill: #c45843;
      }
      .i {
        fill: #2a1b28;
      }
      .j {
        fill: #64212e;
      }
      .k {
        fill: #c13c3c;
      }
      .l {
        fill: #271b24;
      }
      .m {
        fill: #423240;
      }
      .n {
        fill: #422c40;
      }
      .o {
        fill: #322530;
      }
      .p {
        fill: #211520;
        opacity: 0.75;
      }
      .q {
        fill: #c89145;
      }
    </style>
  </defs>
  <g id="c">
    <path
      class="i"
      d="m2330.12,1156.39c-22.7-24.2-46.24-36.47-74.19-54.27-24.3-15.46-45.5-35.25-66.85-54.9-15.69-14.45-31.46-28.83-48.61-41.37-15.43-11.27-31.84-25.11-49.05-36.67-12.36-8.29-25.12-15.43-38.25-19.55-11.32-3.52-42.89-11.38-62.75-11.16-4.96.05-9.2.62-12.21,1.9-13.11,5.52-20.93,21.25-26.44,38.93-4.34,13.87-7.21,28.82-10.16,40.99-.72,3.01-1.46,5.89-2.22,8.49-.45,1.67-.95,3.18-1.45,4.63-8.87,25.38-19.08,52.1-34.58,74.25-3.91,5.58-7.47,9.87-10.93,13.22-2.07,2.04-4.1,3.71-6.12,5.17-10.82,7.78-21.59,8.34-39.4,15.02-10.99,4.14-19.52,9.76-26.16,16.57-3.91,3.96-7.14,8.25-9.88,12.95-13.39,22.64-14.61,52.7-18.01,81.54-.45,3.96-.95,7.86-1.51,11.71-1,6.64-1.79,13.33-2.51,20.02-3.58,34.66-3.81,69.82-7.59,104.44-1.84,16.75-4.48,33.37-8.75,49.74-5.13,19.52-14,37.54-21.31,56.11-3.96,10.1-7.53,20.36-9.71,31.13-.44,2.06-.78,4.12-1.12,6.24-.44,2.79-.84,5.64-1.11,8.48-.5,4.46-.89,9.04-1.17,13.66-.39,6.58-.62,13.22-.9,19.91-.01.35-.03.7-.05,1.05-4.61-1.08-9.36-1.32-14.56.34-5.8,1.9-10.82,9.2-16.68,12.21-2.45.34-4.85.72-7.3,1.05-.62-.16-1.23-.39-1.84-.67-3.96-1.84-5.08-5.07-9.43-6.13-3.23-.78-7.14.45-10.43,0-5.36-.66-10.99-3.96-16.46-.95-3.52,1.96-4.85,7.36-8.42,8.76-3.12,1.23-6.14-.72-9.2-1.12-10.54-1.29-21.14,1.46-31.74.11-15.79-2-33.52-5.24-49.36-2.11-8.7,1.78-16.9,6.14-25.49,8.59-13.72,3.85-24.94,13.61-39.21,11.04-6.42-1.12-13.11-3.62-19.64-2.57-3.34.5-5.62,3.34-10.37,3.07-6.46-.45-11.27-4.63-17.91-3.84-6.13.67-11.66,4.63-17.57,6.3-1.19.34-2.38.59-3.57.89-8.8,2.21-17.62,3.43-26.66,4.46-4.86.5-14.56.5-17.85,3.18l-.78.79c-10.93.61-21.87,1.12-32.8,1.61-1-.56-1.95-1.11-2.84-1.68-4.91-3.12-6.19-8.47-9.93-11.6-2.9-2.39-6.02-1.78-10.59-1.78-24.48.17-55,1.23-76.98,10.55-4.46,1.89-7.03,3.68-13.38,2.9-9.37-1.18-10.15-3.74-17.57,2.51-1.33,1.11-2.62,2-3.9,2.79-21.31.28-42.55.33-63.81.21-.84-.95-1.84-2-3.24-3.23-6.39-6.02-20.09-5.43-30.38-4.95-2.1.09-4.1.19-5.82.21-9.65.17-17.4-.84-26.66-2.57-5.3-1-7.59-.28-12.22,1.84-5.86,2.68-11.32,6.03-17.57,7.37-2.21-.05-4.37-.11-6.54-.19-.39-.86-.88-1.57-1.49-2.14-.04-.39-.12-.73-.2-1.09-.03-.15-.05-.31-.08-.45-.21-.86-.51-1.59-.88-2.24-.06-.12-.13-.23-.2-.34-.41-.62-.88-1.16-1.43-1.59-.04-.03-.08-.06-.12-.09-3.76-2.79-10.46-1.43-16.84-.02-4.34.95-8.32,3.66-12.29,6.46-.01,0-.03,0-.04.01-.66.17-1.28.33-1.95.39-.01,0-.03,0-.03,0-9.3-.32-18.61-.64-27.91-1.01-4.07-5.97-3.8-8.81-11.55-12.77-4.74-2.51-10.26-4.35-15.5-4.97-16.9-1.89-35.09.06-52.1.06-9.04,0-19.07-.89-27.78,1.73-3.73,1.11-7.18,3.29-10.54,5.71-1.72,1.24-3.41,2.51-5.08,3.77-10.66-.72-21.36-1.45-32.08-2.23-4.18-4.91-7.58-9.43-15.11-11.38-5.97-1.61-12.43-1.28-18.63-3.12-3.23-.95-8.87-3.68-14.67-6.08-.37,1.3-.68,2.61-.96,3.93-1.11-.43-2.21-.82-3.29-1.18-.66-2.44-1.32-4.89-2-7.33-8.87-31.9-18.74-62.92-26.38-94.66-.16-.67-.33-1.34-.5-2.01l-.05-.33c-.55-2.46-1.06-4.63-1.39-6.53-4.3-21.81,3.07-10.93-16.73-27.89-18.89-16.11-40.72-32.11-63.95-43.94-32.34-16.47-67.39-24.84-101.06-14.07-9.36,2.96-18.62,7.42-27.66,13.55-7.98,5.41-12.16,11.43-18.62,17.91-.5.49-1,.95-1.51,1.28-7.2,6.36-17.68,9.65-25.99,13.89-12.39,6.3-24.99,11.27-37.21,18.3-5.07,2.96-10.88,4.4-15.67,7.08-8.2,4.63-14.95,13.67-21.81,20.08-17.43,16.24-32.02,34.87-47.9,52.32-11.57-3.72-23.1-9.73-34.93-11.27-17.79-2.29-30.95,15.18-47.25,10.82-15.39-4.13-17.57-28.06-33.08-36.54-23.54-12.89-39.65,6.03-60.91.73-27.83-7.03-27.83-47.36-55.72-20.36-22.09,21.31-39.71,10.32-65.87,1.45-25.18-8.54-49.86-16.78-71.46-10.93v106.61c2.07.43,4.14.87,6.21,1.31,2.71.58,5.4,1.16,8.1,1.75.1,5.72.52,13.74,1.46,14.5,1.47,1.2,3.26-5.04,3.9-7.31.94-3.34.77-4.93.09-5.98,4.08.91,8.13,1.85,12.13,2.81,5.55,1.33,11,2.7,16.34,4.14,21.11,5.68,40.2,12.3,54.72,20.63,2.95,1.69,5.72,3.45,8.27,5.3,2.86,2.06,5.44,4.23,7.73,6.5-2.99.32-5.97.95-8.95,1.77-3.49.97-5.15,1.46-7.63,3.46-1.38,1.11-1.86,2.7-3.46,3.72,4.61-.18,8.82-3.48,13.68-3.61,3.5-.1,6.39,1.05,9.65,2.02.68.2,2.18.85,3.77,1.5.87,1.45,1.62,2.94,2.25,4.47,1.84,4.39,2.73,9.11,2.55,14.2-.14,3.93-.87,8.06-2.36,12.45-.84,2.47-1.78,4.68-2.77,6.79-8.96,19.15-22.74,24.36-18.39,39.43-4.93-.27-9.11,1.34-13.44,5.64,5.21.26,10.85-.07,16.07.72,1.5,2.87,3.48,6.04,6.15,9.68,21.04,28.61,75.71,38.63,108.43,53.87,78.96,36.76,162.58,70.39,249.11,93.45h1203.59c1.46-.18,2.91-.34,4.36-.53,62.84-8.2,124.02-23.77,186.29-38.53,23.36-5.54,45.15-19.18,69.16-17.78,23.02,1.35,42.62,6.93,66.31,3.67,17.62-2.44,32.72-2.94,50.16-3.65-.29-1.2-.35-2.29-.05-2.98.66-1.62,6.82-5.39,8.33-6.78,2.46-2.34,4.54-4.21,6.71-6.77,2.57-3.02,6.48-5.66,8.65-8.78,2.5-3.63,1.85-11.88,1.36-16.23-.56-5.46-3.51-10.39-6.96-14.46-3.55-4.17-7.62-6.04-12.26-8.89-2.37-1.46-6.24-4.29-8.95-5.14-3.02-.95-4.99-2.94-8.04-4.09-8.86-3.35-18.25-5.18-27.12-8.64-4.8-1.87-9.58-3.9-14.51-5.35-15.36-4.52-26.89-6.9-42.11-7.6-2.46-.11-8.82-.22-11.27-.33-5.69-.28-10.95-1.34-16.58-1.56-35.64-1.39-71.02-2.06-106.48-3.46-16.07-.67-32.91-1.84-48.86-1.5-10.37.21-24.66,3.29-27.77-10.82-1.68-7.47,5.46-10.77,6.86-16.96,1.12-5.13-3.46-9.14-7.36-11.43-13.88-8.05-33.64-1.18-51.29-.95-3.68.68-7.38,1.15-11.02,1.26-10.34.32-20.01-2.11-26.22-9.96-8.96-11.32-2.75-23.93,7.76-30.93,20.02-13.34,44.28-24.37,68.79-31.05-.15,1.41-.33,2.83-.52,4.2l-.06.44v.06c-.56,4.07-1.28,8.09-2.12,11.99-.17.95-.39,1.95-.67,2.9-.16.72-.4,1.41-.58,2.12-.43,1.71-.88,3.4-1.39,5.07,0,.02-.01.05-.02.07-.09.3-.15.59-.24.89-.45,1.33-.9,2.68-1.39,3.96-.45,1.28-.89,2.51-1.45,3.73l-.11.29c-.39,1-.84,1.95-1.28,2.9-.23.55-.45,1.05-.73,1.56-.45.89-.84,1.78-1.34,2.62l-.39.67c-.5,1.06-1.11,2.12-1.73,3.12-.67,1.12-1.39,2.23-2.11,3.29-.9,1.34-1.84,2.62-2.79,3.85h1c2.18,0,4.29,0,6.46-.05.01,0,.01,0,.02,0-.02.02-.03.04-.04.06,52.21.49,104.91-6.88,156.68-17,6.45-1.26,12.89-2.56,19.31-3.89-2.68,2.05-5.32,3.98-7.92,5.67-13.62,8.89-28.29,16.48-42.97,24.04-19.15,9.86-38.26,19.69-55.05,32.17-3.57,2.65-7.08,5.36-10.41,8.29,31.02,2.24,62.42.25,93-4.63,13.13-2.09,26.31-2.72,39.5-2.99,20.25-.4,40.52.05,60.61-2.59,26.59-3.48,51.12-6.16,77.45-7.2,3-.11,5.91-.3,8.96-.37,13.4-.32,28.32-1.54,21.74-21.08-.23-.68-.42-1.32-.7-2.05-2.08-5.36-7.28-10.61-13.49-15-8.6-6.08-19.18-10.51-26.34-11.21-.32,1.87-.36,3.76-.11-7.91-12.19-2.9-26.75-11.9-42.29-19.42,19.37-5.32,38.94-10.73,58.5-15.09,19.41-4.32,38.79-7.61,57.93-8.67,8.13-.46,16.31-.66,24.53-.74.82-1.71,1.64-3.39,2.51-5.02,2.21-4.16,4.74-8.11,7.39-11.99,5.25-7.69,11.16-14.93,17.29-21.93,8.36-9.53,16.13-20.7,25.81-28.97,13.41-11.45,23.4-9.53,38.5-2.83,21.32,9.47,42.7,21.03,61.26,35.16,9.06,6.9,17.04,14.58,25.25,22.41.41.39.82.79,1.23,1.18,3.99,3.87,7.95,7.79,13.5,9.28-23.63,15.07-44.18,33.63-65.82,45.29-13.21,7.11-23.46,12.91-38.66,13.41-11.6.38-24.74-1.49-36.25-2.77-16.2-1.81-32.71-5.51-47.72-11.77-5.69-2.37-10.79-4-12.31-8.77-3.09,1.61-6.2,3.18-9.36,4.64-3.29,1.49-7.21,3.2-11.36,4.91l.25-.15c-4.17,1.78-9.21,3.61-13.52,6.18-3.01,1.84-5.63,4.07-7.25,6.91-.22.39-.35.8-.52,1.2.42,6.18.73,10.29,5.6,14.98,4.46,4.3,10.27,4.74,16.46,5.69,9.65,1.45,36.47,1.72,37.81,15.11,1.28,12.89-21.09,23.15-32.13,28.28-1,.45-1.89.84-2.79,1.23-5.71,2.43-9.88,3.79-12.4,7.15-.36,1.24-2.6,6.91-2.71,8.46-.34,3.69-.43,7.91-.08,12.09-1.25.36-2.21,1.27-2.46,3.13.84.13,1.88-1.2,2.67-1.57.43,3.8,1.22,7.52,2.7,10.66,2.79,5.97,7.26,10.95,7.37,18.14.05,2.43-.6,4.53-1.63,6.43-1.8-1.22-5.41-.18-7.27-.2,1.35.37,2.53,1.02,3.52,2.07.44.46.86,1.04,1.27,1.64-4.18,4.46-10.71,7.5-15.57,10.35-5.07,2.95-8.87,6.02-12.83,10.2-1.67,1.73-3.62,3.13-5.64,4.47-2.95,1.95-6.02,3.79-8.41,6.52-1.12,1.29-1.81,4.26-2.42,7.24,1.81-.29,3.63-.6,5.43-1.01,3.8-.87,6.12-2.08,9.37.9,1.5,1.37,3.54,2.35,4.98,3.7,1.2-3.66.48-8.89,4.44-10.68,4.34-1.96,8.86-3.62,13.27-5.42,8.65-3.53,17.43-6.9,26.64-8.64,11.71-2.22,23.58-3.69,35.2-6.4,5.75-1.34,11.43-3.02,16.93-5.18,1.54-.6,3.06-1.24,4.57-1.92.94-.42,3.02-1.96,4.01-1.88,2.01.12,4.27,4.52,5.33,5.98.04-2.19-.98-6.51,0-8.48.73-1.46,3.7-2.54,5.11-3.43,18.95-11.85,37.31-30.75,29.5-54.92-4.69-14.49-12.38-15.87-2.75-32.39,1.55-2.65,2.79-6.77,6.32-5.23,2.75,1.21,4.54,3.94,6.81,5.79-.7-1.59-1.21-3.27-1.86-4.92-.62-1.59-1.05-3.31-1.88-4.82-1.18-2.13-1.16-2.14.65-4.05,17.46-18.5,41.18-29.41,59.32-47.14,7.8-7.62,15.24-15.61,23.15-23.11,3.73-3.53,7.57-6.95,11.61-10.11,1.62-1.27,4.11-3.93,6.09-4.48,2.07-.57,4.81,2.39,6.3,3.86.96.96,1.77,2.65,3.11,3.05.61.19-1.25-5.44-1.39-5.77-.69-1.62-2.01-4.27-.65-5.91,1.19-1.43,4.95-2.54,6.64-3.36,2.75-1.34,5.55-2.57,8.39-3.7,4.56-1.82,8.94-3.09,13.24-4.11v-374c-14.45-14.34-28.46-28.82-41.59-42.87Z" />
    <path
      class="k"
      d="m2370.82,1584.31c-28.73,11.42-41.78,28.53-63.06,49.34-2.17.37-4.35.86-6.71,1.45-4.25,1.04-9.52.3-12.79,3.61,2.65,1.17,7,2.78,10.44,2.97-20.75,16.79-47.47,30.19-60.49,52.54-9.63,16.52-1.93,17.9,2.75,32.39,8.75,27.08-13.66,45.99-34.62,57.98-18.33,10.49-34.92,12.99-53.66,16.09-.86-.63-1.74-1.24-2.52-1.67-3.02-1.64-2.75-1.48-5.13.06-1.49.97-2.6,2.21-3.55,3.56-.4.07-.77.14-1.17.21-24.54,4.66-46.44,20.88-71.7,21.93-2.51.11-4.86.2-7.27.3,1.11-.61,1.73-4.33,2.48-8.03.61-2.98,1.3-5.95,2.42-7.24,2.39-2.73,5.46-4.57,8.41-6.52,2.34-3.29,5.75-6.08,8.6-7.98,5.58-3.68,9.93-8.81,13.33-14.56,2.75-4.6,5.86-8.96,7.07-13.87,1.12-.46,2.3-.8,3.09-1.53-.68-.5-1.73-.54-2.69-.44.23-1.77.21-3.62-.21-5.58-.79-3.79-3.3-7.64-4.8-11.27-1.62-3.91-1.11-8.95-.54-13.19.39-3.01.32-5.16,1.66-7.84.74-1.43,2.56-5.05,3.94-7.55.1-.18.19-.34.28-.5.23-.4.43-.74.61-1.04.1-.17.21-.35.3-.48.02-.02.04-.06.05-.08,0,.01-.01.04-.02.04,2.53-3.37,6.7-4.72,12.4-7.15.89-.39,1.79-.79,2.79-1.23.04-3.26-.05-6.34-.39-9.27-.77-6.5-3.01-12.27-9.31-17.45-4.64-3.79-12.77-8.7-16.18-13.55-1.21-1.73-2.38-4.26-3.29-7.04-1.98-6.06-2.55-13.43,1.41-17.09,0,.12.02.23.02.34.17-.4.3-.81.52-1.2,1.62-2.84,4.24-5.07,7.25-6.91,4.3-2.57,9.35-4.4,13.52-6.18l.88-.54c3.38-1.72,6.75-3.49,10.07-5.29,3.09-1.67,6.1-3.48,9.12-5.27-.09-.78-.13-1.6-.05-2.53.2-2.5.61-5.01,1.13-7.51,1.5-7.21,4.2-14.35,7.35-20.94-8.21.07-16.39.28-24.53.74-19.14,1.06-38.52,4.35-57.93,8.67-19.56,4.36-39.13,9.77-58.5,15.09,15.54,7.52,30.1,16.52,42.29,19.42-.25,11.67-.21,9.79.11,7.91,7.16.7,17.74,5.13,26.34,11.21,6.21,4.4,11.41,9.65,13.49,15,.28.72.47,1.37.7,2.05,6.57,19.54-8.34,20.76-21.74,21.08-3.05.07-5.96.26-8.96.37.07.1.16.19.23.29-14.03,4.79-26.04,13.85-39.92,18.86-15.18,5.47-29.95-2.73-45.27-2.04-11.76.52-27.74,2.19-39.15-1.3-4.77-1.46-9.51-3.81-13.96-6.03-13.19.27-26.37.89-39.5,2.99-30.59,4.88-61.98,6.87-93,4.63,3.33-2.93,6.85-5.63,10.41-8.29,16.79-12.48,35.9-22.32,55.05-32.17,14.68-7.55,29.36-15.15,42.97-24.04,2.59-1.69,5.23-3.61,7.92-5.67-6.42,1.34-12.86,2.64-19.31,3.89-51.77,10.11-104.47,17.49-156.68,17,.01-.02.02-.04.04-.06,0,0,0,0-.02,0-2.17.05-4.29.05-6.46.05h-1c.95-1.23,1.89-2.51,2.79-3.85.72-1.05,1.45-2.17,2.11-3.29.61-1,1.23-2.06,1.73-3.12l.39-.67c.5-.84.89-1.73,1.34-2.62.28-.51.5-1.01.73-1.56.45-.95.89-1.9,1.28-2.9l.11-.29c.56-1.23,1.01-2.46,1.45-3.73.5-1.28.95-2.63,1.39-3.96.09-.3.15-.59.24-.89.01-.02.02-.05.02-.07.51-1.66.95-3.36,1.39-5.07-7.13,2.48-14.23,5.02-21.39,7.75-12.5,4.74-61.97,18.41-34.81,36.2,6.14,4.02,13.3,5.12,20.83,5.02,17.65-.22,37.41-7.1,51.29.95,3.91,2.29,8.48,6.3,7.36,11.43-1.39,6.19-8.54,9.48-6.86,16.96,3.11,14.11,17.4,11.04,27.77,10.82,15.96-.34,32.8.83,48.86,1.5,35.47,1.39,70.84,2.06,106.48,3.46,3.45-.5,6.97-.84,10.54-1.12,10.86-.86,22.41-.76,33.41-.73,1.21,0,2.43,0,3.63,0,3.32,0,6.65.02,9.97.06,9.21.13,18.42.49,27.57,1.39,1.93.18,3.84.47,5.75.77,1.32.2,2.62.45,3.92.71,13.7,2.71,26.64,8.27,37.55,16.61,1.37,1.04,2.74,2.09,4.04,3.22,6.34,5.49,11.69,14.03,14.55,23.19,3.87,12.44,3.11,26.03-6.23,34.77-9.42,8.75-14.32,14.4-15.61,25.89-.26.05-.52-.03-.78-.07.07.04.13.1.2.12-14.71.6-28.16,1.26-43.51,3.38-23.69,3.27-43.29-2.33-66.31-3.67-24-1.4-45.8,12.24-69.16,17.78-3.83.91-7.65,1.82-11.46,2.73-.29-2.26-.79-4.49-1.72-6.26-2.43,2.65-4.49,5.42-6.6,8.25-41.86,10.01-83.34,19.96-125.31,27.41h296.47c25.55-4.21,51.17-8.29,77.45-9.41,21.34-.91,50.91-10.8,72.02-2.41.61.25,1.25.45,1.86.72,5.86,2.7,11.46,6.55,16.87,11.09h48.14c.02-6.38.97-12.73,3.41-19.05,6.34-16.38,23.69-18.13,30.35-31.37,6.01-11.93-1.88-23.25,1.37-32.89,6.25-18.56,18.07-29.79,32.79-35.54,9.23-1.19,18.61-2.14,27.53-3.6,2.01-.33,4.14-.68,6.34-1.03,7.21.43,14.6,1.59,21.99,3.36v-36.99c-23.6.2-49.8.71-66.57-12.69-1.75-1.39-3.4-2.9-4.93-4.61,18.46-24.72,46.97-41.8,71.5-60.25v-56.11c-.3.12-.59.19-.89.31Zm-186.92,249.75c-3.97,1.58-8.04,1.69-12.23,2.55-9.56,1.98-18.52,3.23-28.28,3.26-3.68.02-15.79.24-13.92-1.42-.73-14.23,16.15-22.86,28.18-25,12.52-2.23,22.5,4.1,28.66,14.96,2.33,4.1,1.91,3.92-2.41,5.64Z" />
    <path
      class="k"
      d="m2356.96,1824.54c-12.7,9.4-20.11,12.37-35.45,16.3-9.22,2.37-19.55.32-22.67,11.45-.02.06-.05.1-.06.16,21.99,2.44,49.01,2.36,72.93-4.34v-40.93c-4.75,5.93-10.19,13.99-14.75,17.36Z" />
    <path
      class="k"
      d="m264.76,1813.9c-1.14.19-2.11.24-3.04.23-13.37-5.64-26.62-11.43-39.73-17.34-.96-2.62-1.29-5.59-3.41-8.91-3.62-5.67-9.79-1.41-14.78.61-1.82-.83-3.64-1.66-5.45-2.51-29.94-13.94-79.94-23.1-99.19-49.27-21.46-29.18,1.59-28.14,11.32-56.96,1.8-5.32,2.43-10.23,2.09-14.82,4.1-1.03,8.34-2.72,8.57-5.07.21-2.11-6.05-4.21-8.07-4.34-1-.06-1.82.08-2.59.31-8.85-22.05-43.53-35.06-83.98-45.05-.14-3.01-.77-6.3-1.63-8.73-2.05,1.25-5.8,3.96-9.34,6.12-5.13-1.18-10.32-2.32-15.54-3.44v71.71c6.32,2.52,11.36,5.49,15.32,8.81.96.04,2.26,1.21,2.99,1.67,1.05.66,2.02,1.43,2.98,2.21.87.7,1.52,1.46,2.25,2.31,2.71,3.16,5.34,6.41,7.18,10.04-1.39,1.16-2.93,2.28-3.75,3.46,1.82.33,3.64.57,5.43.89.39,1.41.66,2.86.73,4.42.45,11.05-1.69,23.1-7.88,32.59-3.19,4.89-5.42,10.2-8.33,15.25-3.79,1.46-6.39,4.3-10.12,6.73,1.44-.18,3.2-.08,4.86.24-3.16,3.26-6.79,6.14-10.09,9.11-.53.47-1.05.94-1.57,1.41v55.56c2.4-.15,4.85-.3,7.37-.45,96.63-5.68,277.84-8.4,269.24,44.07h162.39c-56.6-14.29-111.89-33.65-165.31-55.66-1.82-5.61-2.73-6.27-8.93-5.21Zm-152.35-10.36c-3.7.16-7.38.48-11.06.79-4.04.34-8.08.69-12.11.86-3.18.14-12.06,1.21-16.46-1.38-.53-.31-1.02-.64-1.41-1.07.04-.22-.02-.45,0-.68.07-.89.02-1.79-.15-2.7-.26-1.32-.72-2.66-1.29-4-2.19-5.19-5.76-10.56-3.87-15.98,1.38-4,9.38-7.32,12.91-9.03,3.18-1.54,8.46-4.99,12.12-5.41.18-.02.38.04.55.03,4.92-.03,11.89,6.54,15.21,9.1,1.4,1.08,2.87,2.09,4.32,3.12,3.94,2.81,7.95,5.54,11.78,8.29,4.42,3.17,8.8,6.94,13.53,9.92,2.17,1.38,4.4,2.62,6.78,3.49-7.22,6.53-21.97,4.26-30.86,4.64Z" />
    <path
      class="h"
      d="m1856.08,1706.51c.59.95,1.67,1.92,3.42,2.92,7.43,4.25,18.96,2.25,27.55,2.22,5.18-.01,8.6,1.3,13.51,2.38,6.08,1.34,12.89.59,19.14.59,9.5,0,18.92-.03,28.35-.16,8.82,2.21,17.7,3.54,26.59,4.02,1.21,0,2.43,0,3.63,0,3.32,0,6.65.02,9.97.06,14.42-.62,28.82-3.44,42.98-8.36-3.05,2.76-7.52,6.5-9.66,10.51,1.32.2,2.62.45,3.92.71,13.7,2.71,26.64,8.27,37.55,16.61,1.37,1.04,2.74,2.09,4.04,3.22,6.34,5.49,11.69,14.03,14.55,23.19,1.32,1.8,2.42,3.74,3.29,5.84,1.38,8.39,1.79,17.13-4.58,24.3,1.49-1.98,2.95-3.57,4.3-5.13-.03.35-.07.69-.09,1.03,8.94-2.02,14.81-28.39,14.73-36.71-.12-13.75-10.29-21.15-8.03-35.4.97-6.18,4.87-8.62,9.54-10.07l.02.11c.21-.11.41-.19.62-.29,6.7-1.93,14.76-2.14,18.27-8.16.14-.08.29-.14.43-.22-.77-6.5-3.01-12.27-9.31-17.45-4.64-3.79-12.77-8.7-16.18-13.55-1.21-1.73-2.38-4.26-3.29-7.04-.12-.07-.25-.14-.38-.21-.59-1.37-1.05-2.83-1.31-4.43l.91,4.2c-6.73-3.76-13.4-7.67-20.02-11.87,1.44-9.15,7.5-16.26,15.22-21.53,5.05-3.45,10.4-6.45,15.81-9.34,11.51-.39,22.79-4.41,33.64-9.02,1.5-7.21,4.2-14.35,7.35-20.94-8.21.07-16.39.28-24.53.74-19.14,1.06-38.52,4.35-57.93,8.67-19.56,4.36-39.13,9.77-58.5,15.09,15.54,7.52,30.1,16.52,42.29,19.42-.25,11.67-.21,9.79.11,7.91,7.16.7,17.74,5.13,26.34,11.21,6.21,4.4,11.41,9.65,13.49,15,.28.72.47,1.37.7,2.05,6.57,19.54-8.34,20.76-21.74,21.08-3.05.07-5.96.26-8.96.37.07.1.16.19.23.29-14.03,4.79-26.04,13.85-39.92,18.86-15.18,5.47-29.95-2.73-45.27-2.04-11.76.52-27.74,2.19-39.15-1.3-4.77-1.46-9.51-3.81-13.96-6.03-13.19.27-26.37.89-39.5,2.99-30.59,4.88-61.98,6.87-93,4.63,3.33-2.93,6.85-5.63,10.41-8.29,16.79-12.48,35.9-22.32,55.05-32.17,14.68-7.55,29.36-15.15,42.97-24.04,2.59-1.69,5.23-3.61,7.92-5.67-6.42,1.34-12.86,2.64-19.31,3.89-51.77,10.11-104.47,17.49-156.68,17,.01-.02.02-.04.04-.06,0,0,0,0-.02,0-2.17.05-4.29.05-6.46.05h-1c.95-1.23,1.89-2.51,2.79-3.85.72-1.05,1.45-2.17,2.11-3.29.61-1,1.23-2.06,1.73-3.12l.39-.67c.5-.84.89-1.73,1.34-2.62.28-.51.5-1.01.73-1.56.45-.95.89-1.9,1.28-2.9l.11-.29c.56-1.23,1.01-2.46,1.45-3.73.5-1.28.95-2.63,1.39-3.96.09-.3.15-.59.24-.89.01-.02.02-.05.02-.07-.62.24-1.23.48-1.85.73-.69.25-1.37.51-2.05.74-7.77,2.66-15.77,5.23-23.11,8.89-5.4,2.7-21.49,11.99-19.18,19.58,2.03,6.64,20.36,8.62,25.98,7.78,6.12-.9,12.14-2.34,18.2-3.61,12.54.31,24.8,2.36,37.56,1.79,11.87-.53,23.35-3.78,34.73-2.88,1.37.63,2.71,1.32,3.99,2.14,2.43,1.56,5.48.48,4.66,4.86-.92,4.86-15.25,7.58-19.09,9.26-5.39,2.36-23.14,10.99-17.01,16.68,1.64,1.54,4.14,2,6.68,2.09-.52.38-1.04.75-1.5,1.2-9,8.54,12.48,9.58,17.87,9.34,18.69-.84,37.46-1.41,56.12-3.14,1.45-.14,2.9-.15,4.36-.23Z" />
    <path
      class="h"
      d="m2371.71,1618.56v-14.2c-17.87,8.97-34.82,20.73-50.5,34.42-10.86,9.48-19.9,20.01-28.73,31-1.69,1.12-3.36,2.29-5.07,3.37-16.2,10.25-30.94,22.22-33.77,42.3-3.36,23.8,5.54,35.7-2.9,50.61-4,3.73-6.93,7.77-9.73,11.68-1.36,1.25-2.79,2.53-4.42,3.86-4.75,3.88-9.19,8.49-13.72,12.98-1.19.51-2.45.98-3.82,1.38-26.95,7.84-55.41,8.43-80.88,21.77-5.36,2.8-9.96,6.52-14.82,9.93-12.33,1.98-24.59,3.9-31.75,5.32-40.9-1.96-74.93,6.98-113.85,15.76-11.82-1.12-23.6-2.04-35.71-.76-20,2.13-40.91.23-60.73,3.67-12.58,2.18-25.29,5.44-37.89,8.12-5.12,1.09-22.23,11.13-29.99,14.99h146.8c15.29-2.83,30.72-4.75,46.54-5.66,19.58-1.14,38.25-3.39,57.73-6.84,18.19-3.21,35.43-9.16,54.3-8.21,8.45.43,16.34.05,24.76-.78,13.04-1.29,22.68-2.43,35.18,2.07,2.12.77,7.49,3.3,11.93,4.13.53.41,1.08.74,1.6,1.17,4.8,3.95,8.6,9.07,12.39,14.12h29.96c-.86-1.86-1.78-3.74-2.82-5.69-4.28-8.02-5-16.5,1.29-23.72,4.69-5.37,25.65-9.73,24.96-16.88.22,2.29-3.56,2.57-8.13,2.18.48-.71.95-1.48,1.44-2.4,2.6-4.95,2.46-8.89,2.04-12.98.2-.18.4-.34.61-.54,13.84-13.24,18.82-26.93,21.96-45.33.14-.83.37-2.01.59-3.3,3.65-1.94,7.59-3.52,11.75-4.81-2.97,2.82-5.99,6.61-4.88,10,.96,2.93,2.72,1.72,5.58-.11,5.1-3.27,8.48-8.29,13.78-11.41,2.14-1.27,4.34-2.16,6.59-2.99,2.13-.31,4.28-.6,6.44-.88,9.23-1.19,18.61-2.14,27.53-3.6,2.01-.33,4.14-.68,6.34-1.03,6.67-1.06,14.14-2.18,21.99-3.16v-20.66c-2.8-.38-5.6-.69-8.43-.85-4.66-.26-41.89-4.23-50.22,4.09-7.88.7-15.64,1.04-22.8.4-.19-.61-.39-1.19-.61-1.73-3.76-9.03-10.51-15.84-5.43-26.14,6.5-13.16,22.74-23.02,33.96-31.84,13.58-10.68,37.23-20.71,45.34-36.75-9.62-2.62-1.06-10.11,8.19-16.09Zm-187.8,215.5c-3.97,1.58-8.04,1.69-12.23,2.55-9.56,1.98-18.52,3.23-28.28,3.26-3.68.02-15.79.24-13.92-1.42-.73-14.23,16.15-22.86,28.18-25,12.52-2.23,22.5,4.1,28.66,14.96,2.33,4.1,1.91,3.92-2.41,5.64Z" />
    <path
      class="h"
      d="m2347.06,1834.06c-4.75,1.57-10,8.06-3.5,10.79,3.81,1.6,9.43.11,13.43.14,4.56.04,7.68.51,11.89-1.55.98-.48,1.92-1.01,2.82-1.57v-17.59c-.89.66-1.8,1.29-2.65,1.9-6.8,4.9-14.28,5.34-22,7.88Z" />
    <path class="h" d="m2326.89,1843.93c-4.98.53-10.19.16-14.99,1.88-3.74,1.35-4.53,2.61-.1,3.76,6.81,1.77,16.34.7,22.7-1.99.06-2.3-1.85-3.62-7.61-3.66Z" />
    <path
      class="h"
      d="m353.75,1865.5c-12.47-8.31-22.46-14.87-37.14-18.74-10.23-2.69-19.82-4.94-29.43-9.45-5.83-2.74-11.07-6.29-17.23-8.16-20.91-6.38-41.6-10.6-62.18-18.69-7.87-3.09-15.86-6.18-23.88-9.21-5.11-4.89-12.19-9.67-14.91-11.39-13.46-8.56-30.41-7.68-44.25-15-6.07-3.21-11.29-7.96-17.59-10.8-6.44-2.9-14.03-3.81-20.3-6.92-3.02-1.5-6.36-4.46-9.55-8-10.66-17.45-7.72-40.59-2.93-60.35.02-.07.05-.17.06-.25,3.48-8.26,9.61-21.63,5.94-27.59-3.89-6.31-12.02-9.8-20.89-12.51,3.89.3,7.75.71,11.5,1.51,3.98.84,10.28,4.42,11.11-.8,1.39-8.85-17.7-11.54-22.68-11.72-17.72-.66-37-3.54-52.82-12.36-2.04-1.14-4.27-2.36-6.58-3.49v50.54c10.85,4.43,22.45,6.52,33.29,10.91.17.07.34.15.52.23,7.61,12.8,12.16,30.78,8.66,45.5-1.88,7.9-7.02,15.98-9.84,23.69-1.45,3.96-3.08,7.92-4.86,11.79-9.09,5.68-19.21,10.56-27.75,17.04v27.09c8.82-2.29,17.54-3.45,27.15-3.85,3.37-.14,10.11-1.78,13.14-.8,4.14,1.34,1.93,1.78,4.46,4.76,1.19,1.41,2.65,2.54,4.21,3.56-15.21.19-30.47.94-45.35,1.26-1.22.02-2.42.15-3.61.3v12.12c1.87-.66,3.74-1.41,5.91-2.02,14.72-4.21,33.92-3.78,49.29-4.02,26.52-.42,52.5,4.8,79.21,1.77,5.63-.64,11.22-1.99,16.75-3.47,5.14.06,18.54,1.12,21.31-4.96.83-1.82.61-3.13-.14-4.14,3.92.11,7.89.13,11.67.55,6.12,2.38,12.28,4.46,18.21,7.46,11.05,5.57,21.34,7.47,33.36,9.74,6.01,1.13,11.61,3.24,17.52,4.8,1.54.41,3.23.79,4.97,1.18,5.71,3.36,11.04,7.35,15.34,10.87,4.62,3.77,11,7.16,14.07,12.29.77,1.29,1.34,2.68,1.76,4.12.02.11.06.22.07.33.02.09.03.17.05.26.72,4.45.51,8.93-.92,12.96-.14.41-.32.84-.52,1.28h90c-5.73-1.27-11.54-2.39-17.12-3.77-2.48-2.17-4.94-4.1-7.05-5.5Zm-227.15-60.77c4.25.14,8.56.4,12.88.71-11.01,1.42-22.07,3.91-32.96,3.9-7.49,0-26.73,1.2-33.74-5.53-.53-.31-1.02-.64-1.41-1.07.04-.22-.02-.45,0-.68-.14-.23-.33-.45-.45-.7-.39-.82-.65-1.57-.85-2.3.38.09.76.2,1.14.3-.26-1.32-.72-2.66-1.29-4-2.19-5.19-5.76-10.56-3.87-15.98,1.38-4,9.38-7.32,12.91-9.03,3.18-1.54,8.46-4.99,12.12-5.41.18-.02.38.04.55.03,4.92-.03,11.89,6.54,15.21,9.1,1.4,1.08,2.87,2.09,4.32,3.12,3.94,2.81,7.95,5.54,11.78,8.29,4.42,3.17,8.8,6.94,13.53,9.92,2.17,1.38,4.4,2.62,6.78,3.49-7.22,6.53-21.97,4.26-30.86,4.64-3.7.16-7.38.48-11.06.79,8.37.27,16.74.11,25.25.4Z" />
    <path
      class="g"
      d="m103.44,1071.66c7.62-8.86,15.34-17.64,23.25-26.23,16.71-18.14,34.31-35.48,53.71-51.05,3.67-2.94,7.37-5.84,11.06-8.74,15.74-12.4,36.03-27.87,51.94-40.02m0,0c26.08-19.91,52.02-39.95,76.8-61.43,19.12,10.51,37.57,23,54.97,36.98-7.25-85.03-4.8-170.64,3.26-248.49,5.41-52.34,18.15-102.27,33.6-151.64-.1-.44-.12-.88.15-1.28.07-.11.21-.12.32-.18,7.72-24.59,16.09-49.05,24.58-73.6-.71-1.77-1.42-3.54-2.14-5.32l.93-.57c.76-.31,1.57-.5,2.37-.69.38-.09.78-.13,1.18-.2.7-2.02,1.4-4.04,2.1-6.06,14.02-40.56,38.3-91.15,39.67-133.96-70.48,21.88-141.24,155.41-177.77,217.23-56.41,95.45-90.29,218.92-107.03,333.07-39.27-20.13-78.46-44.99-113.87-73.82-1.5-63.07.74-123.48,2.29-174.07,4.23-138.93,38.17-268.42,111.19-387.12,25-40.64,114.03-126.79,106.87-178.73-29.85-6.88-101.61,76.46-141.78,124.84.11.15.22.3.34.45l-.36.54c-.31.12-.65.18-.98.22-10.12,12.21-18.18,22.11-22.87,27.52C80.02,255.33,36.75,332.77,0,413.95v617.81c10.48,11.57,20.9,22.8,31.03,33.54,18.67,19.79,30.06,31.66,47.03,36.25,7.32-8.65,17.99-21.25,25.38-29.88" />
    <path
      class="g"
      d="m2204.37,1.36c1.93,52.41,104.52,121.86,136.16,157.56,10.91,12.3,21.27,24.87,31.17,37.65v-91.58c-46.42-39.6-137.89-116.09-167.33-103.63Z" />
    <path
      class="g"
      d="m2286.96,474.89c-46.68-54.57-139.46-173.84-212.66-183.21,8.75,41.93,41.42,87.56,62.25,125.09,40.38,72.81,80.6,144.29,103.54,225,11.64,40.95,22.02,84.46,30.32,129.3-8.24,12.64-16.65,25.36-26.55,37.75-29.34,36.68-62.65,57.39-96.71,89.36-18.92,17.77-36.75,45.43-55.71,70.99,17.21,11.57,33.62,25.4,49.05,36.67,17.16,12.54,32.93,26.93,48.61,41.37,34.22-37.01,70.16-78.44,100.08-120.28,9.63-13.47,18.68-26.98,26.79-40.39,9.29,17.61,22.54,35.11,36.75,50.95,6.84,7.63,13.08,15.35,19,23.12v-359.77c-24.86-45.92-53.12-88.98-84.75-125.96Z" />
    <path
      class="g"
      d="m724.99,1323.46c44.25,88.9,84.25,275.28,180.79,278.8,25.67,1.65,64.84-10.36,79.18,17.65,20.71,6.55,40.66-10.31,59.07-5.85,4.75,14.47,18.3,5.8,28.51.77,14.26-5.6,29.32,3.41,44.69.51-50.46-41.6-96.27-95.03-125.96-132.78-122.33-149.72-174-335.5-203.35-516.66-101.94-9.17-92.12,290.29-62.93,357.55Z" />
    <path
      class="e"
      d="m1886.31,1126.04c2.02-1.46,4.05-3.13,6.12-5.17,3.46-3.35,7.03-7.64,10.93-13.22,15.5-22.14,25.71-48.87,34.58-74.25.5-1.45,1-2.96,1.45-4.63.76-2.6,1.5-5.48,2.22-8.49-13.96-16.65-30.23-25.48-48.96-20.53-1.69.45-3.39.96-5.12,1.64-7.96,40.13-3.03,82.45-1.22,124.64Z" />
    <path
      class="p"
      d="m1449.09,1602.41c6.64-.79,11.44,3.4,17.91,3.84,4.75.28,7.03-2.56,10.37-3.07,6.53-1.05,13.23,1.45,19.64,2.57,14.27,2.57,25.48-7.2,39.21-11.04,8.59-2.45,16.79-6.81,25.49-8.59,15.84-3.12,33.58.11,49.36,2.11,10.6,1.35,21.2-1.39,31.74-.11,3.07.39,6.08,2.34,9.2,1.12,3.57-1.39,4.9-6.8,8.42-8.76,5.46-3.01,11.1.29,16.46.95,3.29.45,7.2-.78,10.43,0,4.35,1.06,5.47,4.3,9.43,6.13.61.28,1.22.51,1.84.67,2.45-.33,4.85-.72,7.3-1.05,5.86-3.01,10.88-10.32,16.68-12.21,5.2-1.66,9.95-1.42,14.56-.34.02-.36.04-.7.05-1.05.28-6.69.51-13.33.9-19.91.28-4.63.67-9.2,1.17-13.66.27-2.84.67-5.7,1.11-8.48.34-2.12.68-4.18,1.12-6.24,2.18-10.77,5.75-21.03,9.71-31.13,7.3-18.57,16.18-36.59,21.31-56.11,4.27-16.37,6.91-32.99,8.75-49.74-2.96,1.78-5.9,3.4-8.82,4.66-32.07,13.83-73.08-7.21-104.74,3.41-33.63,11.29-66.78,58.03-97.88,80.78-20.51,15-33.39,24.9-47.81,44.91-12.18,16.9-21.83,33.22-36.61,47.2-10.1,9.55-42.38,25.35-57.44,40.35,1.2-.3,2.38-.55,3.57-.89,5.91-1.67,11.43-5.63,17.57-6.3Z" />
    <path
      class="p"
      d="m2352.7,937.5c-14.21-15.85-27.46-33.35-36.75-50.95-8.11,13.41-17.15,26.93-26.79,40.39-29.91,41.84-65.86,83.27-100.08,120.28,21.35,19.65,42.55,39.44,66.85,54.9,27.95,17.8,51.49,30.07,74.19,54.27,13.13,14.05,27.13,28.53,41.59,42.87v-238.64c-5.93-7.78-12.16-15.49-19-23.12Z" />
    <path
      class="p"
      d="m243.41,945.63s-90.19,61.89-142.96,129.55l-1.72,1.98c-6.93,8.11-13.8,16.27-20.67,24.39-16.97-4.59-28.36-16.46-47.03-36.25-10.13-10.74-20.55-21.97-31.03-33.54v443.2c21.61-5.86,46.28,2.39,71.46,10.93,26.16,8.87,43.78,19.86,65.87-1.45,27.89-27,27.89,13.33,55.72,20.36,21.26,5.3,37.37-13.61,60.91-.73,15.51,8.48,17.68,32.41,33.08,36.54,16.29,4.35,29.45-13.11,47.25-10.82,11.83,1.54,23.36,7.55,34.93,11.27,15.88-17.45,30.47-36.08,47.9-52.32,6.86-6.41,13.61-15.45,21.81-20.08,4.79-2.68,10.6-4.12,15.67-7.08,12.22-7.03,24.82-11.99,37.21-18.3,8.3-4.24,18.79-7.53,25.99-13.89.51-.33,1-.79,1.51-1.28,6.46-6.48,10.65-12.5,18.62-17.91,9.04-6.14,18.3-10.6,27.66-13.55,33.66-10.77,68.72-2.4,101.06,14.07-8.59-18.4-17.42-36.66-26.74-54.66-16.32-31.5-28.32-103.34-52.31-122.16-27.34-21.46-69.09-20.89-96.99-47.28,12.94-22.99,37.68-62.29,32.97-82.11-6.18-25.98-40.22-64.17-61.85-90.62-3.98-4.87-7.59-9.39-10.48-13.32-21.36-29.05-47.29-56.25-76.08-79.38-17.41-13.98-35.86-26.47-54.97-36.98-24.79,21.48-50.73,41.52-76.8,61.43" />
    <path class="f" d="m1014.89,1620.52s-.03,0-.04.01c-.66.17-1.28.33-1.95.39-.01,0-.03,0-.03,0,.46.02.91.04,1.37.05.21-.16.44-.3.65-.46Z" />
    <path
      class="f"
      d="m1342.89,1703.11l1.3-.02c1.71-1.52,3.4-3.04,5.11-4.56-2.07-7.91-3.68-15.95-4.79-24.05-.08-.57.47-1.01,1.18-1.29-5.71-3.61-13.94-2.6-20.38-2.83-4.02-.15-8.06-.29-12.09-.43-3.67-.14-7.47-.46-11.04.63-3.66,1.11-6.86,3.44-9.9,5.69-2.71,2-5.95,4.34-6.56,7.77l.27.05c11.25,5.32,22.59,10.68,34.58,14.11,5.62,1.61,11.28,2.58,17.08,3.26,1.64.19,3.69.71,4.97,1.73l.29-.05Z" />
    <path
      class="f"
      d="m1448.05,1693.37c1.09,2.64,1.87,5.38,2.46,8.14l1.02.16c.36-.57,1.32-1.18,2.06-1.27l.51-.02h.04c2.05-.21,4.08-.3,6.09-.21.71-.32,1.5-.56,2.25-.49l.22.07c1.04-.38,2.05-.8,3.13-1.07,6.89-1.71,13.93-.5,20.81.56,2.13.33,4.26.68,6.39,1.01,11.58-.79,23.76.27,34.71-4.37-4.9-3.07-9.8-6.15-14.7-9.22-6.03-3.79-12.59-7.12-17.01-12.86-1.86-2.41-3.43-5.19-5.79-7.15-4.07-3.39-9.68-1.49-14.45-1-6.42.65-12.87.69-19.3.43-4.9,6.24-11.07,10.88-18.25,14.02,4.58,2.82,7.66,8.05,9.81,13.29Z" />
    <path
      class="f"
      d="m1295.34,1716.32c-.52.44-1.02.85-1.46,1.24-4.41,3.8-8.82,6.23-14.43,7.76-3.71,1.02-8.14,1.91-10.25,5.56l-.12.28.8.73c.2.96.51,1.88.78,2.82l.12.04c2.1,1.4,3.76,3.31,4.93,5.5l.73.72c1.01.87,2.1,1.67,3.23,2.37l1.36.7.51.12c.75-.45,1.92-.69,2.67-.24.76.46.39,1.19-.13,1.65,3.51,1.14,6.82,2.9,9.96,5.71,1.02-.33,2.23-.4,2.53.16,1.19,2.21,2.55,4.29,4,6.31,2.08,2.11,4.15,4.21,6.22,6.32.52-.67,1.1-1.35,1.73-2.04,5.34-5.69,10.82-10.8,17.96-13.77,3.07-3.98,6.2-7.91,8.33-12.52,3.95-8.57,5.21-18.01,5.7-27.37-.84-.02-1.45-.31-1.05-1.04,2.14-3.78-5.21-3.82-7-4.04-2.66-.33-5.3-.79-7.91-1.35-4.49-.97-8.91-2.27-13.26-3.76-7.87-2.7-15.46-6.08-22.99-9.6,2.64,5.64,5.27,11.28,7.91,16.91.95,2.03,2.65,4.51,2.1,6.89-.35,1.49-1.58,2.72-2.82,3.79.04.04.06.08.09.12-.08,0-.17.01-.25.02Z" />
    <path
      class="f"
      d="m1298.27,1792.66c1.56-2.69,2.34-5.23,2.79-7.7-.45-4.61-2.12-9-3.59-13.36-.57-1.67-1.13-3.35-1.7-5.02-2.03-3.23-3.36-6.88-3.63-10.76l.83-.96c-2.05-2.12-4.19-4.12-6.52-5.64-1.81-1.16-3.84-1.88-5.92-2.46-.98-.04-1.97-.3-2.92-.75-3.14-.58-6.38-.84-9.43-1.25-7.85-1.07-15.73-1.96-23.65-2.35-14.88-.73-28.61,1.51-43.12,4.57-3.75.79-7.55,1.37-11.38,1.57,3.2,2.77,3.07,1.32,2.54,8.24-.23,3.35-11.05,22.04-13.22,24.59-5.53,6.59-17.85,7.03-19.3,17.36,6.01.58,12.11.17,18.23-.33,7.57-2.35,15.13-4.71,22.7-7.06l.76-.12c1.95-1.89,4.27-3.67,6.85-2.32,1.4.73,2.25,2.2,3.22,3.39,1.14,1.41,2.36,2.75,3.66,4.02.84.82,1.76,1.54,2.66,2.27,2.12,1.32,4.18,2.73,6.09,4.36.05.05.05.09.1.14,4.41,1.12,8.82,2.1,13.32,2.56,12.99,1.34,52.71.67,60.63-13Z" />
    <path
      class="f"
      d="m1376.47,1768.73c-.45-14.56,2.29-29.9,3.12-44.56,1.16-.04,2.35-.18,3.52-.26-.05-.09-.12-.17-.17-.25-3.36-4.47-6.84-8.84-10.59-12.99l-.07-.14c-8.72-3.01-17.83-4.7-27.58-4.3-.43,9.81-1.55,19.76-5.44,28.85-2.41,5.65-6.34,10.31-9.98,15.15.98,6.14,1.14,12.38,1.24,18.57,15.11.56,30.9.89,45.96-.06Z" />
    <path
      class="f"
      d="m1484.85,1714.88c-10.19-3.08-21.05-8.26-31.54-7.37-.59.4-1.18.82-1.77,1.24.16,2.46.14,4.93-.05,7.39.85,2.01,1.85,4.23,3.85,6.52,10.43,12.05,30.62,14.56,41.33,27.16,15.85-11.52-.76-22.93-11.82-34.95Z" />
    <path
      class="f"
      d="m1570.11,1747.71c6.76-4.36,13.66-9.68,21.5-12,6.57-6.02,12.38-12.06,11.93-22.22-.42-9.57-6.08-15.44-12.65-20.95-.52.48-1.59.75-2.03.8-4.45.44-8.18-.77-12.15-2.75-5.56-2.77-11.12-6.46-17.34-2.93-2.12,1.21-4.79,3.91-7.65,6.48,1.86,2.59,4.32,6.04,8.49,10.29,9.82,10.1,17.57,9.6,9.2,26.61-7.8,16.04-17.07,15.27-17.34,28.32,1.84-1.18,3.67-2.36,5.5-3.54,4.18-2.7,8.37-5.4,12.55-8.1Z" />
    <path
      class="f"
      d="m1372.17,1706.95c.83-.72,2.42-1.12,3.17-.48l.29.31h.02s.2.22.2.22c.64.59,1.26,1.19,1.77,1.85,8.43,3.23,16.59,7.47,24.71,12.07,2.71-.67,5.41-1.43,8.02-2.27,9.18-3.06,18.14-11.22,28.07-11.09,1.12-1.94,2.14-3.94,3.11-5.96.44-1.02.94-2.03,1.49-3.02.37-.66,1.38-.93,2.12-1.07-.5-1.49-1.05-2.98-1.7-4.44-1.95-4.36-4.61-9.19-8.98-11.38-1.14.34-1.89-.12-2.08-.8h-.02c-6.02-1.62-12.69,2.16-18.46,3.73-10.35,2.83-21.18,4.27-31.83,5.45-6.35.71-12.73.91-18.88-.36l-.36.6c-4.75,4.24-9.5,8.49-14.25,12.73,8.25.06,16.06,1.51,23.6,3.92Z" />
    <path class="f" d="m1398.56,1650.83c.77-.19,1.52-.37,2.29-.54-7.44,1.02-14.88,2.63-21.27,3.83,1.04,0,2.09.02,3.14-.07,5.38-.44,10.61-1.92,15.84-3.22Z" />
    <path
      class="f"
      d="m1569.03,1772.45l.8-.36c1.41-3.15,2.82-6.31,4.22-9.46.18-.4.89-.71,1.67-.9,1.63-7.96,4.45-14.94,10.35-20.84-1.46.8-2.9,1.64-4.32,2.55-4.43,2.81-8.81,5.68-13.21,8.52-4.47,2.87-8.92,5.76-13.39,8.63-.99.64-1.99,1.28-2.98,1.92.09,1.09.21,2.26.4,3.53.36.79.73,1.57,1.09,2.36,3.44,3.96,6.67,8.07,9.69,12.34.97-3.32,2.34-6.4,5.69-8.29Z" />
    <path class="f" d="m1589.7,1677.47c.9,3.45,1.45,6.98,1.48,10.61,7.71,6.23,15.2,12.13,16.33,22.8.18,1.73.14,3.4,0,5.03,4.73-16.59-7.95-26.2-17.81-38.44Z" />
    <path class="f" d="m1598.5,1733.49c-.67.66-1.4,1.27-2.12,1.91.2.18.29.4.33.62.92-1.11,1.8-2.24,2.64-3.41-.29.29-.55.59-.85.88Z" />
    <path
      class="f"
      d="m1428.26,1654.31c-9.9-3.8-18.83-3.1-28.93-.59-7.35,1.83-14.61,3.73-22.25,3.52-5.91-.17-12.07-1.34-17.65,1.29-4.54,2.13-8.14,5.87-11.59,9.41-1.31,1.35-5.18.55-3.4-1.28,3.38-3.46,6.9-6.79,10.91-9.22-12.9,1.43-25.72,2.36-38.91,2.47-15.67.16-60.79,1.12-68.33,17.01,6.36,2.62,9.43,8.31,14.95,11.43,8.32,4.69,13.17,3.96,19.8,11.39,3.74,4.21,7.36,9.55,10.86,14.15,1.04-1.78.17-3.6-.63-5.34-3.24-7.03-6.55-14.04-9.85-21.05-.85.11-1.63-.08-1.68-.75-.54-7.44,8.3-12.67,13.88-15.87,7.56-4.33,15.39-3.68,23.79-3.37,5.3.18,10.59.37,15.89.57,3.85.13,7.88.08,11.48,1.68,6.64,2.96,11.33,10.07,14.93,16.49,10.91,3.79,23.19,1.3,34.36-.36,6.43-.95,12.84-2.1,19.09-3.93,4.95-1.45,9.8-3.72,15.01-4,1.63-.09,3.09.14,4.48.51,7.02-2.57,12.9-6.88,17.66-12.55l-.46-.02c-1.55-.11-1.34-.88-.6-1.52-1.3-.59-2.6-1.19-3.89-1.8-.41-.18-.83-.37-1.25-.57-5.83-2.71-11.68-5.42-17.66-7.72Z" />
    <path
      class="f"
      d="m833.9,1708.83c12.32,4.64,23.93,4.25,36.56,5.05.21-.31.48-.55.68-.87,1.45-2.39,2.09-5.55,4.05-7.57l.14-.11.73-.57c1.31-1.03,2.79-1.64,4.39-2.03-5.46-1.66-9.75-5.18-14.33-8.53-8.12-5.97-15.98-6.84-25.85-4.29-4.2,1.09-8.37,2.34-12.5,3.68,1.54,4.49,3.23,9.48,5.07,14.81.36.14.7.29,1.07.43Z" />
    <path
      class="f"
      d="m937.93,1735.38c.11.07.26.13.37.2,13.5-8.31,28.87-18.2,44.55-13.9l.53-.12c12.67-2.9,25.11.29,37.54,2.78,8.37-6.41,16.77-12.49,25.01-15.41-.26-2.07-.5-4.14-.91-6.18l-.18-.35c-.66-3.27-1.6-6.46-2.75-9.59-1.78-2.36-3.01-5.07-3.56-8l.49-1.24c-.42-.61-.84-1.21-1.25-1.82-1.67-2.43-3.32-6.21-5.98-7.58-2.15-1.11-4.42-.56-6.83-.54-12.15.07-24.72-2-36.7.8-7.07,1.66-12.24,4.87-14.84,11.96-1.27,3.48-2.06,7.18-4.29,10.23-9.45,12.89-31.91,7.34-45.07,6.86-12.27-.44-24.84-.94-37.05.72-3.29.45-5.71.88-7.71,2.5l.45.48c.3,2.51.39,5.03.37,7.55,12.96,1.32,27.27,2.98,39.23,7.77,7.81,3.11,11.82,9.09,18.57,12.87Z" />
    <path
      class="f"
      d="m1173.12,1733.95c-6.06-9.18-12.12-18.36-18.19-27.54-3.96-6-7.57-13.03-14.89-15.34-5.52-1.75-12.31-1.16-18.03-1.3-11.51-.28-23.64.36-34.75-3.23-5.84-1.89-8.48-4.95-15.62.11-1.31.93-2.43,2.16-3.51,3.42h0c.2-.04,1.95-.28,1.61.36-3.1,5.59-6.2,11.18-9.29,16.77-.08.15-.22.27-.37.39,3.77.81,7.47,2.67,11.09,5.92,11.55,10.32,6.25,15.89,19.8,20.25,19.47,6.25,36.26,2.45,46.25,24.37,7.81-5.3,17.51-25.55,24.82-27.39,3.08-.76,7.12.81,11.07,3.2Z" />
    <path
      class="f"
      d="m1011.24,1731.77c-.29-.15-.54-.33-.84-.46-4.6-2.09-9.39-1.14-14.21-1.91-3.66-.59-6.97-2.16-10.32-3.67-6.47-2.91-12.4-4.6-19.46-2.71-9.26,2.47-17.97,8.3-26.31,13.45,11.86,6,30.39,10.29,42.9,9.39,9.05-.63,18.56-6.84,28.24-14.1Z" />
    <path class="f" d="m1058.1,1705.02s-.01,0-.01.01h0s.01,0,.01-.01Z" />
    <path
      class="f"
      d="m1239.03,1721.88c4.85-9.82.16-19.14-7.03-26.89-13.95-15.12-37.93-8.14-57.11-10.48-14.79-1.84-28.9-4.35-43.79-4.25-10.82.06-26.27,4.8-35.25-2,14.73-7.14,31.91-16.84,44.79-27.39-8.92-13.5-38.77-15.84-53.6-15.84-12.11,0-24.27-2.68-35.65-3.18-10.21-.45-19.07,6.74-29.11,7.75,5.07.22,9.64,2.79,11.21,7.7,8.2.39,45.79-2.45,39.38,13.72-3.07,7.92-21.43,3.29-29.45,3.68-32.02,1.5-65.09-.29-96.72,3.07,6.3,3.12,12.11,13.05,14.16,19.07-6.58,1.11-12.66-1.29-18.91-2.23,3.23-18.5-17.22-20.61-36.37-19.75,8.34.28,16.61,1.33,24.6,3.96,6.16,2.03,12.66,5.2,11.01,12.7-1.6,7.27,3.96,7.78,9.53,9.82,4.6,1.68,9.2,3.36,13.81,5.04,4.39-5.57,4.55-14.1,10.93-19.25,7.36-5.96,18.62-6.76,27.62-6.84,5.25-.05,10.49.27,15.73.45,4.04.14,8.17-.29,12.16-.03,1.27.09,2.39-.19,3.6.4,2.67,1.3,4.9,5.15,6.74,8.31.87-.11,1.74.12,2,.89.58,1.71,1.29,3.37,1.9,5.07,3.24,4.66,6.51,9.31,9.57,14.09,8.1-4.67,11.94-14.46,21.53-16.99,2.34-.62,4.62-.72,6.99-.2,6.38,1.41,11.86,4.29,18.54,4.98,11.3,1.18,22.74.5,34.07,1.15,7.91.45,13.52,3.11,18.2,9.62,7.1,9.87,13.5,20.34,20.2,30.49,2.5,3.79,4.82,8.05,7.5,11.86,2.01,1.78,3.7,3.46,4.78,4.69.25.28.46.5.69.76,5.5,2.68,13.36,0,19.21-1.34,20.39-4.67,40.32-4.47,61.01-1.84.67.09,1.31.16,1.97.23-1.6-1.23-2.96-2.73-4.02-4.47l-.1-.16-.33-.5-.08-.31c-.74-1.61-.89-3.53-.11-5.41,2.09-5.06,7.99-7.03,12.81-8.34,4.63-1.26,8.37-2.85,12.09-5.97.41-.34.86-.71,1.32-1.07-17.19,1.57-35.26,7.07-52.02,5.22Z" />
    <path class="f" d="m821.26,1675.69c.11-.06.23-.12.34-.19,5.71-3.16,11.13-6.25,17.45-7.38-7.84-.2-15.64-.8-22.38-2.07,1.63,3.06,3.16,6.26,4.59,9.63Z" />
    <path
      class="f"
      d="m838.29,1689.21c8.05-2.22,16.95-4.04,24.9-.49,7.79,3.48,13.21,10.82,21.7,12.91l.14.25c10.59-1.79,21.55-1.55,32.24-1.36,7.32.13,14.64.46,21.95.93,5.68.37,11.6,1.07,17.21-.18,2.5-.55,4.42-1.49,5.94-2.69-8.58-3.13-17.16-6.27-25.74-9.4l-.39-.34c-.3-2.53.47-4.22.91-6.7.89-4.94-1.75-7.96-6.12-10-6.39-2.99-13.88-4.2-20.84-4.87-14.62-1.42-29.32.37-43.89,1.46-7.16.53-14.27.7-21.45.79-8.61.11-15.66,3.9-22.86,7.96,1.34,3.36,3.18,8.61,5.4,15.08,3.62-1.16,7.23-2.33,10.89-3.34Z" />
    <path class="f" d="m1508.63,1653.3c-3.06-1.8-5.91-3.87-8.59-6.2-1.19.85-2.37,1.78-3.54,2.83,3.7,1.26,7.86,2.34,12.12,3.37Z" />
    <path
      class="f"
      d="m1493.64,1665.04c1.09.83,2.16,1.81,3.19,3.11,2.02,2.54,3.66,5.32,6.05,7.55,3.64,3.4,8.39,5.81,12.59,8.45,5.31,3.34,10.63,6.67,15.95,10.01,12.83-6.45,15.09-6.72,18.62-2.26,1.11-.98,2.21-1.96,3.39-2.87,2.83-2.18,5.94-4.02,9.49-4.74,9.22-1.86,15.84,6.29,24.23,6.95.04-.59,0-1.18,0-1.77-.58-.47-1.16-.93-1.73-1.41-.77-.63.45-1.49,1.74-1.81-.51-6.69-2.7-13.14-6.07-19.04-4.16-7.28-10.14-15.2-17.28-19.81-5.13-3.3-11.29-3.14-17.18-3.28-5.06-.1-10.14-.12-15.2-.05-9.28.12-18.54.62-27.79,1.34,3.27,2.91,6.75,5.48,10.66,7.55.83.43.14,1.11-.4,1.43-.07.04-.14.07-.21.11,6.47,1.46,13.09,2.84,19.14,4.4-8.05-.48-26.27,5.37-39.18,6.13Z" />
    <path
      class="f"
      d="m1463.48,1631.63c-31.41-5.96-65.77,3.3-96.89,4.63-12.88.5-25.1-2.01-38.04-.28-19.91,2.68-37.87,11.32-56.56,17.85,17.07-3.68,35.59-4.63,52.1-6.36,5.96-.62,11.71-.56,17.68-1.06,17.13-1.29,35.48-10.88,52.55-8.03,5.63.95,9.26,3.12,14.78,3.45,7.36.39,14.51-3.73,21.98-3.51,14.17.51,24.93,9.98,37.48,16.29-2.79,5.05-5.82,7.84-8.99,9.1,7.34.17,14.63-.21,21.96-1.08-11.14-9.48.6-27.4-18.05-31Z" />
    <path class="f" d="m1507.09,1643.2c9.59-.7,19.18-1.19,28.79-1.26,2.96-.02,6.22-.18,9.57-.27-13.89-.65-26.54-3.3-38.36,1.52Z" />
    <path class="f" d="m1566.2,1645.05c-3.45-2.13-7.64-3.37-13.04-3.26,4.71.29,9.25,1.14,13.04,3.26Z" />
    <path
      class="f"
      d="m1658.54,1666.48c-8.96-11.32-2.75-23.93,7.76-30.93,20.02-13.34,44.28-24.37,68.79-31.05.02-.26.07-.51.09-.77.26-2.27.45-4.54.64-6.8-13.75,5.06-28.41,6.68-43.65,10.15-28.39,6.59-49.59,11.11-72.4,28.67-13.39,10.32-37.04,15.45-21.59,32.91,14.39,16.29,25.94,22.98,31.23,45.02,2.51,10.25,11.55,19.8,2.39,26.99-8.42,6.64-37.64,8.6-45.9,5.25,3.61-2.49,6.87-5.42,9.77-8.69-.16.05-.26.13-.44.16-.57.1-1.11.29-1.66.43-3.02,2.56-6.03,5.16-8.29,8.43-3.46,5.01-4.89,11.05-5.92,16.96-1.61,9.18-2.72,18.46-3.62,27.75,8.78-2.46,18.95-9.67,29.01-14.7,12.94-6.47,42.45-15.01,47.58-30.51,5.19-15.73-19.64-40.22-16.85-59.57,20.98,18.91,40.61,11.99,66.66,10.26-2.45-9.02-11.56-13.67-17.4-20-10.34.32-20.01-2.11-26.22-9.96Z" />
    <path
      class="f"
      d="m22.39,1552.09c-.54-3.37-1.33-6.68-2.45-9.9l-.2-.39-.06-.11h0s-.18-.36-.18-.36l-.07-.64c-1.88-4.9-4.41-9.55-7.6-13.78-.72-.95.1-1.77,1.14-2.15-4.44-.62-8.79-1.64-12.98-3.25v43.32c5.39-2.15,11.94-8.69,16.36-10.57,2.06-.91,4.06-1.59,6.04-2.18Z" />
    <path
      class="f"
      d="m28.61,1524.03c9.39.36,18.8.12,28.15-.73,5.75-.52,12.66-2.44,18.33-.45,5.95,2.08,10.84,8.3,15.02,12.76,8.64,9.21,15.51,20.4,13.82,33.25,4.78-.57,9.59-.97,14.28-1.51,9.57-1.09,19.13-2.18,28.7-3.27,2.52-2.61,7.29-6.14,13.3-11.38,9.82-8.63,9-11.25,7.96-20.09-2.04-1.43-3.47-3.68-3.55-6.27-.04-1.06,2.33-1.41,3.19-1.41,3.61-5.31,15.43-5.7,20.33-5.89,13.48-.5,26.68,2.91,39.19,7.68,6.29,2.4,12.45,5.15,18.54,8.02,5.37,2.53,11.61,4.73,15.54,9.39,3.82,4.55,6.34,10.46,9.19,15.64,1.51,2.76,4.6,6.67,4.35,10.08,3.28-.91,6.64-1.48,10.04-.91,7,1.17,12.62,6.05,19.74,7.21,1.77.29,3.55.41,5.34.62-4.75.22-9.55.07-14.42.18-.64-.24-1.27-.45-1.91-.73-2.83-1.3-5.53-3.26-8.58-4-6.11-1.45-11.69.83-17.19,2.92-7.02,2.66-13.78,5.87-20.34,9.47l.71.44c.4,1.05.48,2.17.36,3.27,2.04,1.52,3.8,3.25,5.09,5.37,1,1.63,1.44,3.34,1.73,5.08-4.66,4.71-8.95,9.77-13.15,14.92-3.43-3.06-6.91-5.93-11.63-7.96,1.88-6.07-4.35-14.87-9.62-14.86-1.52,7.05-1.73,14.47-3.26,21.64-1.55,7.34-6.24,15.9-5.07,23.51.34,2.24,1.33,4.32,2.51,6.36-9.73,9.39-19.38,18.85-28.94,28.47-4.12-5.58-8.28-11.17-12.1-17.14-2.55-3.98-3.41-2.4-2.84-7.51.54-4.86,5.49-8.98,6.21-13.93,1.3-8.97-6.55-10.42-14.4-13.82-6.44-2.8-12.18-7.02-18.53-9.71l-13.46,3.74c-5,1.4-9.94,2.98-14.87,4.58-1.04.34-2.08.66-3.12,1-.68.22-1.36.43-2.03.65,2.86,2.06,5.44,4.23,7.73,6.5-2.99.32-5.97.95-8.95,1.77-3.49.97-5.15,1.46-7.63,3.46-1.38,1.11-1.86,2.7-3.46,3.72,4.61-.18,8.82-3.48,13.68-3.61,3.5-.1,6.39,1.05,9.65,2.02.68.2,2.18.85,3.77,1.5.87,1.45,1.62,2.94,2.25,4.47,1.02.32,1.96.62,2.71.88,5.44,1.9,13.39,2.63,15.92,8.64,4.98,11.88-7.71,32.47-12.48,42.29-4.21,8.66-8.38,18.09-17.13,22.54,7.29,6.38,13.91,14.28,22.22,19.37,5.63,3.46,19.84,12.65,26.58,11.55,6.91-1.13,9.6-12.46,13.7-18.5,2.77-4.1,6.04-8.04,9.5-11.82,2.45,1.39,4.86,2.73,6.96,4.1,11.32,7.36,21.14,14.89,33.75,20.36,24.71,10.71,51.09,16.67,76.2,26.27,37.76,14.5,75.18,26.05,113.23,34.58.78-.78,1.56-1.44,2.39-2.06,3.35-3.4,5.08-18.41,6.08-24.48,2.07-13.39,41.45-26.89,44.68-40.11,3.07-12.39,4.57-24.93,7.19-37.48,1.12-5.46,4.91-12.88,2.39-18.52-2.5-5.69-10.03-9.37-15.16-12.27-11.82-6.63-23.6-13.5-35.92-19.18-29.23-13.61-94.55-34.03-125-45.13-4.57-1.67-9.64-4.91-14.22-6.02l-.55-.11c3.29-1.84,6.75-2.79,10.09-1.95,4.57,1.12,9.65,4.35,14.28,6.08,30.4,11.04,95.72,31.46,124.95,45.07,12.33,5.75,24.1,12.55,35.93,19.25,5.13,2.9,12.66,6.53,15.17,12.21,2.51,5.69-1.28,13.05-2.4,18.52-2.62,12.55-4.13,25.1-7.2,37.54-3.23,13.16-42.62,26.66-44.68,40.05-1.01,6.14-2.73,21.08-6.08,24.54-2,1.45-3.85,3.35-5.69,5.46,9.42,1.96,18.85,3.8,28.39,5.47,1.23-2,2.29-3.96,3.12-5.3,11.55-18.3,23.15-36.53,35.87-54.05,10.93-15,23.54-29.17,33.35-44.9,3.51-5.58,8.09-11.27,6.75-17.46-1.39-6.36-12.27-15.34-16.34-19.86-15.29-16.96-35.98-38.54-56.17-49.41-9.76-5.3-20.31-8.32-30.79-12.27-17.68-6.64-35.09-6.2-53.83-6.97,19.97-15.9,48.3-13.34,69.39-2.68,15.05,7.64,31.29,10.82,45.29,20.64,14.16,9.82,25.71,24.66,40.21,34.09,12.77,8.3,13.83,4.4,20.52-8.71,9.88-19.3,18.97-37.82,32.36-54.94,8.37-10.71,22.09-19.52,15.5-33.47-6.41-13.39-22.31-29.07-32.73-39.44-14.34-14.28-33.69-23.54-48.37-37.37,7.09-9.81,28.17-10.87,16.29-24.54-4.52-5.19-9.87-9.31-14-14.84-.84-1.05-1.73-2.79-2.68-4.79-7.2,6.36-17.68,9.65-25.99,13.89-12.39,6.3-24.99,11.27-37.21,18.3-5.07,2.96-10.88,4.4-15.67,7.08-8.2,4.63-14.95,13.67-21.81,20.08-17.43,16.24-32.02,34.87-47.9,52.32-11.57-3.72-23.1-9.73-34.93-11.27-17.79-2.29-30.95,15.18-47.25,10.82-15.39-4.13-17.57-28.06-33.08-36.54-23.54-12.89-39.65,6.03-60.91.73-27.83-7.03-27.83-47.36-55.72-20.36-22.09,21.31-39.71,10.32-65.87,1.45-25.18-8.54-49.86-16.78-71.46-10.93v43.61c.59.29,1.16.61,1.75.9,8.24,4.1,17.82,4.21,26.86,4.57Z" />
    <path class="f" d="m125.7,1671.97c4.13-4.17,7.58-10.04,7.01-14.46-.38-3.04-.99-4.23-1.89-4.79-.14,3.93-.87,8.06-2.36,12.45-.84,2.47-1.78,4.68-2.77,6.79Z" />
    <path
      class="f"
      d="m127.08,1585.49c-1.77,2.23-3.55,4.54-5.05,6.97-1.96,3.18-.52,6-1.25,9.37-.2.91-.52,1.79-.87,2.65,3.83-1.8,7.89-3.29,12.52-3.98,34.03-5.07,41.5,18.19,69.45,30.91-2.96-11.77,1.29-25.1-1.12-37.04-3.96-19.75-17.29-16.79-37.09-20.42-10.37-1.91-15.86-3.28-17.83-4.99-7.34,3.96-13.59,10-18.76,16.53Z" />
    <path
      class="f"
      d="m54.11,1550.2c19,.58,30.07,4.2,46.07,14.2-.67-13.37-10.53-24.35-20.01-33.59-2.02-1.96-4.27-4.55-6.91-5.73-4.99-2.24-10.37-1.01-15.56-.47-7.38.76-14.79,1.16-22.2,1.18-6.61.03-13.34.04-19.92-.67,8.85,6.78,16.26,15.19,21.9,24.73,5.29-.14,10.7.17,16.62.36Z" />
    <path
      class="f"
      d="m116.98,1599.76c-.08-1.73-.59-3.21,0-4.91.47-1.34,1.49-2.62,2.28-3.77,1.96-2.85,4.04-5.61,6.29-8.23,5.51-6.43,12.04-11.83,19.47-15.54,0-.36.09-.74.29-1.13-8.27.94-16.53,1.88-24.8,2.82-5.46.62-11.16,1-16.81,1.68l-.08.59c-.15.66-1.98,1.12-3.11,1.11-8.1,16.48-31.76,17.69-52.27,20.39,21.11,5.68,40.2,12.3,54.72,20.63,4.14-1.92,8.08-4.28,12.16-6.5,1.05-2.27,1.98-4.58,1.87-7.14Z" />
    <path
      class="f"
      d="m177.11,1521.81c1,.45,1.92,1.03,2.89,1.51h.14c2.55.95,4.91,2.2,7.12,3.78.62.44-.94,1.12-1.19,1.22-.3.11-.7.19-1.09.26,9.63,1.65,19.46,4.95,26.49,9.45,15.68,9.99,4.63,16.96,9.15,29.96,3.12,8.88,12.96,12.13,21.5,16.41,8.5-4.93,17.37-9.17,26.65-12.53.69-.26,1.41-.5,2.13-.75.53-3.59-3.46-8.67-4.79-11.08-2.23-4.05-4.27-8.32-6.82-12.18-5.11-7.72-15.12-10.87-23.25-14.52-9.38-4.23-19-8.04-29.04-10.4-4.89-1.15-23.2-4.37-31.76-1.02.81-.18,1.6-.24,1.87-.11Z" />
    <path
      class="f"
      d="m895.18,1762.26c4.13-2.44,8.92-4.29,12.57-7.18,3.89-3.09,6.95-7.62,11.2-10.49-1.2-4.28-7.18-7.72-11.02-9.88-11.76-6.63-24.98-9.74-38.3-11.83-10.36,6.41-17.79,11.78-25.7,15.79-.08.04-.15.08-.23.12,3.4,9.04,6.94,17.82,10.42,25.48,14.06-.64,27.75,5.87,41.07-2Z" />
    <path
      class="f"
      d="m957.77,1782.1c1.94-4.57,9.73-15.19,5.17-19.88-1.41-1.44-8.41-2.49-10.33-3.18-5.2-1.88-11.46-5.05-16.92-5.42l1.07.84c-6.87,4.64-8.37,3.25-10.82,4.3-4,1.72-6.94,4.4-9.91,7.55-7.81,8.27-1.9,7.32,1.07,15.23,8.59,2.02,18.21,3.09,27.13,4.93,7.65,1.59,10.88,1.92,13.55-4.36Z" />
    <path
      class="f"
      d="m874.63,1788.82c-3.29,2.27-7.41,4.14-12.13,5.72.55,1.12,1.14,2.21,1.89,3.23,3.67,4.95,10.18,8.84,15.36,12.02,5.77,3.55,16.47,8.55,23.36,9.3.68-13.49.24-27.04,2.3-40.21.46-2.93-.45-6.39.85-9.12,1.27-2.69,4.39-3.06,4.25-6.34-4.68-2.36-11.46,4.65-14.73,4.85-10.02,2.24-22.11,8.39-31.43,14.81,3.83,5.29,7.35,7.74,10.27,5.73Z" />
    <path
      class="f"
      d="m1102.98,1778.65c-5.88-4.44-10.96-10.76-19.12-18.27-7,.02-13.95.82-20.94.46-5.32-.27-10.32-2.01-15.61-1.95-6.59.07-14.69-1.92-21.19-1-6.02.85-7.21,5.7-7.94,11.93-.55,4.62-1.63,9.05-1.42,13.71,6.09.7,11.37-1.34,17.7.13,8.95,2.1,18.61,4.86,27,8.62,9.83,4.4,14.89,14.72,24.86,18.47,5.49,2.07,6.93-.34,9.75-4.95,3.23-5.27,6.2-9.17,10.51-13.55,5.36-5.45,1.85-9.48-3.61-13.61Z" />
    <path
      class="f"
      d="m1011.79,1793.45c-9.68-.83-12.42-10.31-20.46-13.84-6.12-2.7-7.09,2.95-11.61,6.34-6.7,5.04-14.75,7.85-21.5,13.19-3.65,2.89-12.06,7-14.53,10.7-3.8,5.68,4.68,4.66,9.32,5.34,10.11,1.49,20.23,4.39,30.54,3.42,6.87-.64,13.06-1.77,20.1-1.96,5.07-.14,17.43-2.02,20.75-6.42,6.18-8.2-13.27-14.57-12.61-16.78Z" />
    <path
      class="f"
      d="m1012.74,1756.19c.26-3.36-2.44-6.02-3.91-9.14-5.95,4.74-13.04,8.36-20.41,10.29-2.31.61-6.05.26-8,1.53-5.73,3.71-3.14,11.57-4.48,16.85,13.06.46,22.18-5.76,33.29,2.91.32-4.36-.33-8.86.2-13.23.4-3.26,3.09-6.3,3.32-9.21Z" />
    <path
      class="f"
      d="m1018.57,1731.81c-1.24.86-2.24,1.8-2.91,2.8-.63.94-1.03,1.93-.84,2.98,4.68,1.54,8.89,4.43,13.7,5.8.18.05.36.06.54.11,4.8,1.3,9.75,1.82,14.72,2.16,4.5.3,9.01.49,13.44,1.01,9.91,1.17,19.75,5.18,29.56,4.77-1.84-6.68-5.75-11.9-11.07-16.29-4.57-3.77-2.69-2.88-4.46-8.32-.91-2.77-4.68-7.43-6.88-9.39-.36-.32-.87-.57-1.36-.83-1.26-.66-2.92-1.15-4.9-1.57-.09-.02-.17-.04-.27-.06-1.54-.32-3.19-.63-5.08-.99-.34.22-.69.4-1.04.61-7.54,4.62-15.42,8.35-23.38,12.2-1.99.96-6.49,2.71-9.77,5.01Z" />
    <path
      class="j"
      d="m1585.92,1745.92c8.26,3.35,37.48,1.39,45.9-5.25,9.15-7.19.12-16.73-2.39-26.99-5.3-22.04-16.84-28.73-31.23-45.02-15.45-17.46,8.2-22.59,21.59-32.91,22.81-17.57,44.01-22.09,72.4-28.67,15.24-3.47,29.89-5.09,43.65-10.15-.2,2.27-.38,4.54-.64,6.8-.03.26-.07.51-.09.77-.15,1.41-.33,2.83-.52,4.2l-.06.44c3.46-11.99,6.53-23.2,9.38-31.57.22-.6.43-1.19.65-1.79,0-.02.02-.04.02-.05,10.49-30.45,22.7-59.79,34.07-89.52,0,0,0,0,0,0,2.66-6.74,5.24-13.53,7.73-20.37.02-.07.05-.14.08-.21v-.11s.01-.04.02-.05c2.11-5.69,4.09-11.38,6.05-17.11.16-.49.35-.98.52-1.46,4.41-12.83,8.48-25.83,11.99-39.11,4.23-16.06,3.07-26.94,1.73-43.23-1.55-19.75-2.95-44.07-6.02-68.66,0-.01,0-.02,0-.03-.95-7.4-2-14.74-3.29-22.03v-.03c-1.29-7.36-2.79-14.61-4.57-21.7-.45,3.96-.95,7.86-1.51,11.71-1,6.64-1.79,13.33-2.51,20.02-3.58,34.66-3.81,69.82-7.59,104.44-1.84,16.75-4.48,33.37-8.75,49.74-5.13,19.52-14,37.54-21.31,56.11-3.96,10.1-7.53,20.36-9.71,31.13-.44,2.06-.78,4.12-1.12,6.24-.44,2.79-.84,5.64-1.11,8.48-.5,4.46-.89,9.04-1.17,13.66-.39,6.58-.62,13.22-.9,19.91-.01.35-.03.7-.05,1.05-4.61-1.08-9.36-1.32-14.56.34-5.8,1.9-10.82,9.2-16.68,12.21-2.45.34-4.85.72-7.3,1.05-.62-.16-1.23-.39-1.84-.67-3.96-1.84-5.08-5.07-9.43-6.13-3.23-.78-7.14.45-10.43,0-5.36-.66-10.99-3.96-16.46-.95-3.52,1.96-4.85,7.36-8.42,8.76-3.12,1.23-6.14-.72-9.2-1.12-10.54-1.29-21.14,1.46-31.74.11-15.79-2-33.52-5.24-49.36-2.11-8.7,1.78-16.9,6.14-25.49,8.59-13.72,3.85-24.94,13.61-39.21,11.04-6.42-1.12-13.11-3.62-19.64-2.57-3.34.5-5.62,3.34-10.37,3.07-6.46-.45-11.27-4.63-17.91-3.84-6.13.67-11.66,4.63-17.57,6.3-1.19.34-2.38.59-3.57.89-8.8,2.21-17.62,3.43-26.66,4.46-4.86.5-14.56.5-17.85,3.18l-.78.79c-10.93.61-21.87,1.12-32.8,1.61-1-.56-1.95-1.11-2.84-1.68-4.91-3.12-6.19-8.47-9.93-11.6-2.9-2.39-6.02-1.78-10.59-1.78-24.48.17-55,1.23-76.98,10.55-4.46,1.89-7.03,3.68-13.38,2.9-9.37-1.18-10.15-3.74-17.57,2.51-1.33,1.11-2.62,2-3.9,2.79-21.31.28-42.55.33-63.81.21-.84-.95-1.84-2-3.24-3.23-6.39-6.02-20.09-5.43-30.38-4.95-2.1.09-4.1.19-5.82.21-9.65.17-17.4-.84-26.66-2.57-5.3-1-7.59-.28-12.22,1.84-5.86,2.68-11.32,6.03-17.57,7.37-2.21-.05-4.37-.11-6.54-.19-.46-.02-.93-.02-1.39-.04,0-.75-.03-1.46-.1-2.11-.04-.39-.12-.73-.2-1.09-.03-.15-.05-.31-.08-.45-.21-.86-.51-1.59-.88-2.24-.06-.12-.13-.23-.2-.34-.41-.62-.88-1.16-1.43-1.59-.04-.03-.08-.06-.12-.09-3.76-2.79-10.46-1.43-16.84-.02-4.34.95-8.32,3.66-12.29,6.46-.21.15-.44.3-.65.46-.46-.02-.91-.04-1.37-.05-9.3-.32-18.61-.64-27.91-1.01-4.07-5.97-3.8-8.81-11.55-12.77-4.74-2.51-10.26-4.35-15.5-4.97-16.9-1.89-35.09.06-52.1.06-9.04,0-19.07-.89-27.78,1.73-3.73,1.11-7.18,3.29-10.54,5.71-1.72,1.24-3.41,2.51-5.08,3.77-10.66-.72-21.36-1.45-32.08-2.23-4.18-4.91-7.58-9.43-15.11-11.38-5.97-1.61-12.43-1.28-18.63-3.12-3.23-.95-8.87-3.68-14.67-6.08-.37,1.3-.68,2.61-.96,3.93-.47,2.15-.83,4.33-1.1,6.53-.3-.99-.62-1.96-.89-2.98-.42-1.57-.86-3.14-1.29-4.72-.66-2.44-1.32-4.89-2-7.33-8.87-31.9-18.74-62.92-26.38-94.66-5.69,15.45-10.71,31.01-13.61,47.19-1.84,10.37-1.39,18.8.61,26.49,3.68,14.11,12.55,25.77,21.98,42.17,5.58,9.76,13.95,20.7,17.91,31.29,6.02,16.06-1.5,20.02-3.29,34.86-3.62,30.4,25.27,62.8,46.29,84.67,12.39,12.94,26.78,25.44,41.11,37.21.77-.23,1.48-.5,2.21-.75,4.72-1.59,8.84-3.46,12.13-5.72-2.92,2.01-6.45-.44-10.27-5.73-3.25-4.5-6.72-11.07-10.25-18.83-3.48-7.66-7.02-16.45-10.42-25.48-3.86-10.25-7.55-20.81-10.85-30.37-1.84-5.33-3.53-10.32-5.07-14.81-.12-.36-.25-.7-.36-1.05-2.22-6.47-4.06-11.72-5.4-15.08-.12-.3-.26-.66-.37-.94-.12-.29-.25-.55-.37-.84-1.43-3.37-2.96-6.57-4.59-9.63,6.74,1.27,14.54,1.87,22.38,2.07,18.25.46,36.65-1.2,41.92-1.4,5.81-.26,15.05-1.41,24.6-1.84,19.16-.87,39.61,1.25,36.37,19.75,6.25.95,12.33,3.34,18.91,2.23-2.06-6.02-7.86-15.95-14.16-19.07,31.63-3.35,64.7-1.56,96.72-3.07,8.03-.39,26.38,4.24,29.45-3.68,6.41-16.18-31.19-13.34-39.38-13.72-1.57-4.91-6.14-7.48-11.21-7.7,10.04-1.01,18.91-8.2,29.11-7.75,11.38.5,23.54,3.18,35.65,3.18,14.83,0,44.68,2.34,53.6,15.84-12.88,10.55-30.06,20.25-44.79,27.39,8.98,6.8,24.43,2.07,35.25,2,14.89-.11,29,2.4,43.79,4.25,19.18,2.34,43.17-4.63,57.11,10.48,7.2,7.75,11.88,17.07,7.03,26.89,16.76,1.85,34.82-3.65,52.02-5.22,1.44-.12,2.88-.27,4.3-.34.08,0,.16-.02.25-.02-.03-.04-.06-.08-.09-.12-.58-.73-1.18-1.52-1.76-2.29-3.5-4.61-7.12-9.94-10.86-14.15-6.64-7.43-11.49-6.7-19.8-11.39-5.52-3.12-8.59-8.81-14.95-11.43,7.54-15.89,52.66-16.85,68.33-17.01,13.19-.11,26.01-1.04,38.91-2.47,6.1-.68,12.2-1.43,18.38-2.32,1.81-.27,3.78-.61,5.84-1,6.39-1.2,13.83-2.81,21.27-3.83,10.16-1.39,20.3-1.64,27.72,1.87,5.62,2.64,11.54,7.07,17.36,9.86.42.2.84.39,1.25.57,4.25,1.86,8.44,2.69,12.39,1.11,3.17-1.26,6.2-4.05,8.99-9.1-12.55-6.3-23.31-15.78-37.48-16.29-7.47-.22-14.62,3.91-21.98,3.51-5.52-.33-9.14-2.51-14.78-3.45-17.07-2.85-35.42,6.75-52.55,8.03-5.96.5-11.71.45-17.68,1.06-16.51,1.73-35.03,2.67-52.1,6.36,18.69-6.53,36.65-15.17,56.56-17.85,12.94-1.73,25.16.78,38.04.28,31.12-1.33,65.48-10.59,96.89-4.63,18.65,3.6,6.91,21.52,18.05,31,.09.08.15.16.25.23,2.47,2,6.77,2.48,11.86,2.18,12.91-.76,31.13-6.61,39.18-6.13-6.05-1.56-12.67-2.94-19.14-4.4-1.72-.39-3.37-.8-5.05-1.21-4.27-1.04-8.42-2.11-12.12-3.37,1.17-1.05,2.35-1.98,3.54-2.83,2.32-1.66,4.67-2.91,7.05-3.89,11.82-4.82,24.47-2.17,38.36-1.52,2.46.11,4.95.17,7.5.1.07,0,.13,0,.2,0,5.4-.11,9.59,1.13,13.04,3.26,9.9,6.11,13.68,19.68,22.18,30.76.43.57.88,1.11,1.32,1.66,9.87,12.24,22.54,21.85,17.81,38.44-.1.36-.16.7-.28,1.06-1.84,5.66-4.52,10.92-7.88,15.64-.84,1.17-1.72,2.3-2.64,3.41-.34.41-.68.82-1.02,1.21-2.9,3.27-6.16,6.2-9.77,8.69Z" />
    <path
      class="f"
      d="m1559.23,1732.03c6.71-12.84-11.87-25.28-21.84-29.63-7.51,3.87-15.8,6.45-22.99,10.48-8.79,4.92-6.09,9.44-.73,16.57,4.97,6.64,6.76,13.59,10,21.09,1.43,3.27,3.52,6.26,3.21,9.91,3.17-2.6,6.36-5.83,9.58-9.07,1.02-1.02,2.04-2.04,3.06-3.04,1.55-1.51,3.11-2.98,4.69-4.34,3.43-2.94,13.13-8.35,15.03-11.98Z" />
    <path
      class="f"
      d="m1437.42,1719.27c-10.81,7.75-22.84,16.59-36.15,19.47.74,8.73,1.5,18.57,3.2,27.29,1.62,8.36,4.71,6.17,12.33,5.1,15.09-2.11,30.96-.57,46.16-1.34-.18-9.11-10.83-21.21-15.85-28.66-3.3-4.91-8.25-12.36-9.68-21.87Z" />
    <path
      class="f"
      d="m1513.64,1794.84c.48-18.92-15.59-17.13-26.24-29.33-1.04,8.41-3.66,18.48-7,21.86-3.82,3.86-10.22,5.22-14.24,8.73-4.43,3.88-7.98,8.78-13.12,12.39-5.83,4.1-9.51,4.79-1.57,8.01,5.09,2.07,10.25,3.77,15.28,5.89,8.04,3.41,15.09,3.03,23.77,3.09,7.46.06,18.88,3.21,25.73.66-4.36-9.77-2.87-20.96-2.61-31.31Z" />
    <path
      class="f"
      d="m1462.66,1794c3.81-22.01-37.79-14.03-41.76-11.47-22.9.11-45.95,7.48-68.12,13.02-11.99,3-24.14,5.56-36.29,7.87-4.69.89-20.9.91-23.94,5.7-4.55,7.16,16.2,32.61,21,37.99,5.39,6.05,11.05,10.51,18.93,12.11,16.84,3.41,36.09-7.85,49.25-17.08,13.77-9.67,26.65-10.01,41.66-14.87,10.26-3.32,16.22-12.46,24.73-18.37,6.98-4.85,13.06-6.32,14.54-14.9Z" />
    <path
      class="f"
      d="m1263.84,1856.66c-4.98-7.07-9.4-20.59-15.98-26.07-5.77-4.81-12.32-3.41-20.49-4.13-29.09-2.54-64.16-19.09-92.22-12.63-15.09,3.48-24.68,14.7-36.71,25.09-20.44,17.64-38.36,29.26-61.32,35.86h242.98c-5.8-5.55-11.4-11.21-16.25-18.11Z" />
    <path
      class="f"
      d="m1077.28,1826.43c-16.2-27.73-32.25-10.27-54.91-7.35-21.29,2.75-44.21,1.46-65.64,1.71-15.73.19-30.59,3.75-46.03,5.64-7.08.87-21.42-1.39-25.31,5.78-7.01,12.92,20.11,33.71,33.79,42.55h50.53c.41-.26.8-.46,1.21-.73,33.35-20.84,73.71-24.33,106.36-47.61Z" />
    <path
      class="f"
      d="m1700.72,1867.7c14.73-5.73,36.09-14.14,47.2-25.73,9.03-9.42,7.21-23.01,7.09-35.42-.05-5.53-.11-15.81-3.37-20.69-2.76-4.13-9.72-5.92-13.81-8.22-9.55-5.37-17.89-11.95-26.77-18.14-2.71-1.88-17.66-9.27-20.04-7.36-29.94,24.39-64.23,45.64-101.07,57.54-20.65,6.67-27.83,4.82-29.87,26.04-1.48,15.41-5.94,27.51-11.71,39.04h128.83c1.46-.18,2.91-.34,4.36-.53,6.44-2.08,12.93-4.11,19.15-6.53Z" />
    <path
      class="f"
      d="m1503.71,1840.37c-17.84-3.64-36.27-1.09-53.99-4.41-13.34-2.49-13.45-3.12-27.96,3.04-18.24,7.75-39.72,13.11-55.42,25.54,6.5,3.8,12.8,7.2,19.09,10.22h142.99c4.66-7.6,9.27-15.11,12.59-22.93-12.58-3.38-24.39-8.84-37.29-11.46Z" />
    <path
      class="f"
      d="m76.45,1572.17c-3.23-2.11-5.5-5.09-9.32-6.82-5.98-2.71-15.59-4.11-21.98-5.3-.89-.16-1.75-.23-2.6-.25-1.73-.04-3.37.22-4.95.68-11.2,3.29-19.2,17.55-32.04,19.08.19,1.2.41,2.29.65,3.31,2.71.58,5.4,1.16,8.1,1.75.1,5.72.52,13.74,1.46,14.5,1.47,1.2,3.26-5.04,3.9-7.31.94-3.34.77-4.93.09-5.98,4.08.91,8.13,1.85,12.13,2.81,7.57-1.89,14.46-1.32,22.24-3.04,8.51-1.88,16.09-7.63,22.31-13.43Z" />
    <path class="f" d="m202.94,1568.22c2.77-7.65-2.87-38.11-20.07-25.32-3.49,6.91-7.5,15.64-13.95,20.35,5.62,7.85,25.05,3.05,34.01,4.97Z" />
    <path class="n" d="m0,1831.15v.03c2.39-.16,4.84-.32,7.37-.48-2.52.15-4.97.3-7.37.45Z" />
    <path
      class="n"
      d="m116.08,1727.45c-2.68-3.64-4.65-6.8-6.15-9.68-5.22-.79-10.86-.46-16.07-.72,4.33-4.31,8.51-5.91,13.44-5.64-4.35-15.07,9.43-20.27,18.39-39.43.98-2.11,1.93-4.32,2.77-6.79,1.48-4.39,2.22-8.52,2.36-12.45.18-5.09-.71-9.81-2.55-14.2-.64-1.53-1.39-3.02-2.25-4.47-1.59-.65-3.08-1.29-3.77-1.5-3.27-.97-6.15-2.12-9.65-2.02-4.86.12-9.07,3.43-13.68,3.61,1.6-1.02,2.08-2.61,3.46-3.72,2.48-2,4.14-2.49,7.63-3.46,2.97-.82,5.96-1.46,8.95-1.77-2.29-2.27-4.87-4.44-7.73-6.5-2.55-1.85-5.32-3.61-8.27-5.3-14.52-8.33-33.61-14.95-54.72-20.63-5.33-1.44-10.79-2.81-16.34-4.14-4-.96-8.05-1.9-12.13-2.81.68,1.05.84,2.64-.09,5.98-.64,2.28-2.43,8.52-3.9,7.31-.93-.77-1.36-8.78-1.46-14.5-2.7-.59-5.39-1.17-8.1-1.75-2.07-.44-4.14-.88-6.21-1.31v23.18c5.21,1.11,10.41,2.25,15.54,3.44,3.54-2.16,7.3-4.87,9.34-6.12.86,2.43,1.49,5.72,1.63,8.73,40.46,9.99,75.14,22.99,83.98,45.05.76-.23,1.59-.37,2.59-.31,2.02.12,8.28,2.23,8.07,4.34-.23,2.35-4.47,4.04-8.57,5.07.34,4.59-.29,9.5-2.09,14.82-9.73,28.82-32.78,27.78-11.32,56.96,19.25,26.17,69.25,35.34,99.19,49.27,1.81.85,3.63,1.68,5.45,2.51,4.99-2.02,11.16-6.28,14.78-.61,2.12,3.32,2.45,6.29,3.41,8.91,13.11,5.91,26.36,11.7,39.73,17.34.93.01,1.89-.04,3.04-.23,6.2-1.06,7.11-.4,8.93,5.21,53.42,22.01,108.71,41.38,165.31,55.66h34.62c-86.52-23.07-170.14-56.69-249.11-93.45-32.71-15.23-87.39-25.26-108.43-53.87Z" />
    <path
      class="n"
      d="m2321.73,1836.1c-9.32,3.39-19.7.7-22.94,16.18.02,0,.04,0,.05,0,3.12-11.13,13.45-9.09,22.67-11.45,15.34-3.93,22.75-6.9,35.45-16.3,4.56-3.37,10-11.43,14.75-17.36v-16.31c-4.65,7.97-9.86,18.07-14.21,22.46-12.87,12.99-20.34,17.15-35.77,22.77Z" />
    <path class="n" d="m2181.06,1862.95c4.81,3.36,9.48,7.33,13.98,11.82h4.75c-5.41-4.54-11.02-8.39-16.87-11.09-.61-.27-1.24-.48-1.86-.72Z" />
    <path
      class="n"
      d="m1867.03,1839.11c.93,1.77,1.43,4,1.72,6.26,3.82-.91,7.64-1.83,11.46-2.73,23.35-5.54,45.15-19.18,69.16-17.78,23.02,1.34,42.62,6.94,66.31,3.67,15.36-2.12,28.8-2.78,43.51-3.38-.07-.03-.13-.09-.2-.12.26.04.52.12.78.07,1.29-11.49,6.18-17.14,15.61-25.89,9.35-8.74,10.11-22.33,6.23-34.77-2.86-9.16-8.2-17.7-14.55-23.19-1.3-1.13-2.67-2.18-4.04-3.22-10.92-8.34-23.86-13.91-37.55-16.61-1.3-.26-2.6-.51-3.92-.71-1.91-.3-3.82-.58-5.75-.77-9.14-.9-18.35-1.25-27.57-1.39-3.32-.04-6.65-.06-9.97-.06-1.2,0-2.42,0-3.63,0-11-.03-22.55-.12-33.41.73-3.57.28-7.09.62-10.54,1.12,5.63.22,10.89,1.29,16.58,1.56,2.45.11,8.81.22,11.27.33,15.23.7,26.76,3.08,42.11,7.6,4.93,1.45,9.71,3.48,14.51,5.35,8.87,3.46,18.26,5.29,27.12,8.64,3.05,1.15,5.02,3.14,8.04,4.09,2.71.85,6.57,3.68,8.95,5.14,4.64,2.86,8.71,4.72,12.26,8.89,3.45,4.08,6.4,9,6.96,14.46.5,4.35,1.15,12.6-1.36,16.23-2.18,3.12-6.09,5.76-8.65,8.78-2.17,2.56-4.25,4.43-6.71,6.77-1.51,1.39-7.66,5.16-8.33,6.78-.3.69-.24,1.78.05,2.98-17.44.71-32.54,1.21-50.16,3.65-23.7,3.27-43.29-2.32-66.31-3.67-24.01-1.4-45.8,12.24-69.16,17.78-62.28,14.77-123.45,30.33-186.29,38.53-1.45.19-2.91.35-4.36.53h57.91c41.97-7.45,83.46-17.4,125.31-27.41,2.11-2.83,4.17-5.6,6.6-8.25Z" />
    <path class="n" d="m2305.13,1704.97c16.78,13.4,42.97,12.89,66.57,12.69v-6.91c-21.37-.37-47.06,1.84-66.57-5.79Z" />
    <path
      class="n"
      d="m2350.07,1581.07c-1.69.83-5.46,1.94-6.64,3.36-1.36,1.64-.04,4.29.65,5.91.14.33,2,5.96,1.39,5.77-1.34-.39-2.14-2.09-3.11-3.05-1.48-1.47-4.23-4.42-6.3-3.86-1.98.55-4.47,3.21-6.09,4.48-4.04,3.16-7.89,6.58-11.61,10.11-7.91,7.5-15.35,15.49-23.15,23.11-18.14,17.73-41.86,28.64-59.32,47.14-1.81,1.91-1.83,1.92-.65,4.05.84,1.51,1.26,3.23,1.88,4.82.65,1.64,1.16,3.33,1.86,4.92-2.27-1.85-4.05-4.59-6.81-5.79-3.54-1.55-4.78,2.57-6.32,5.23-9.63,16.52-1.93,17.91,2.75,32.39,7.8,24.17-10.56,43.07-29.5,54.92-1.42.89-4.38,1.97-5.11,3.43-.98,1.96.04,6.29,0,8.48-1.05-1.46-3.32-5.86-5.33-5.98-.99-.07-3.07,1.46-4.01,1.88-1.5.68-3.02,1.32-4.57,1.92-5.5,2.16-11.18,3.84-16.93,5.18-11.62,2.71-23.5,4.18-35.2,6.4-9.21,1.74-18,5.11-26.64,8.64-4.41,1.8-8.93,3.45-13.27,5.42-3.96,1.79-3.24,7.02-4.44,10.68-1.44-1.36-3.48-2.33-4.98-3.7-3.25-2.98-5.57-1.77-9.37-.9-1.8.41-3.61.72-5.43,1.01-.76,3.7-1.38,7.42-2.48,8.03,2.42-.1,4.77-.2,7.27-.3,25.26-1.05,47.16-17.28,71.7-21.93.4-.07.77-.13,1.17-.21.95-1.35,2.06-2.59,3.55-3.56,2.38-1.54,2.11-1.7,5.13-.06.78.43,1.66,1.04,2.52,1.67,18.73-3.1,35.33-5.6,53.66-16.09,20.96-11.99,43.38-30.9,34.62-57.98-4.68-14.49-12.38-15.87-2.75-32.39,13.02-22.35,39.74-35.75,60.49-52.54-3.43-.19-7.79-1.8-10.44-2.97,3.27-3.3,8.54-2.56,12.79-3.61,2.36-.59,4.54-1.08,6.71-1.45,21.28-20.81,34.33-37.92,63.06-49.34.3-.12.59-.2.89-.31v-10.73c-4.3,1.02-8.68,2.3-13.24,4.11-2.84,1.12-5.64,2.36-8.39,3.7Z" />
    <path
      class="d"
      d="m2064.52,1862.27c18.19-3.21,35.43-9.16,54.3-8.21,8.45.43,16.34.05,24.76-.78,13.04-1.29,22.68-2.43,35.18,2.07,2.12.77,7.49,3.3,11.93,4.13,4.31.81,7.74,0,6.42-5.63-.79-3.33-6.2-4.36-7.33-8.19-1.09-3.69,1.19-7.44,2.6-10.48,5.85-12.64,15.74-20.9,29.75-18.63,11.61,1.89,21.2,7.8,31.29-1.26.2-.18.4-.34.61-.54,13.84-13.24,18.82-26.93,21.96-45.33.14-.83.37-2.01.59-3.3.96-5.35,2.04-13.5-2.21-15.68-6.55-3.35-19.26,11.59-23.53,15.55-.04.03-.05.05-.09.08-4,3.73-6.93,7.77-9.73,11.68-4.84,6.77-9.31,13.13-18.14,16.84-1.19.51-2.45.98-3.82,1.38-26.95,7.84-55.41,8.43-80.88,21.77-5.36,2.8-9.96,6.52-14.82,9.93-2.84,2-5.75,3.91-9.01,5.42-14.59,6.74-30,7.29-45.89,8.92-18.23,1.88-36.58,7.88-54.74,8.64-12.3.51-24.16-.79-35.96-1.91-11.82-1.12-23.6-2.04-35.71-.76-20,2.13-40.91.23-60.73,3.67-12.58,2.18-25.29,5.44-37.89,8.12-5.12,1.09-22.23,11.13-29.99,14.99h146.8c15.29-2.83,30.72-4.75,46.54-5.66,19.58-1.14,38.25-3.39,57.73-6.84Zm64.95-23.82c-.73-14.23,16.15-22.86,28.18-25,12.52-2.23,22.5,4.1,28.66,14.96,2.33,4.1,1.91,3.92-2.41,5.64-3.97,1.58-8.04,1.69-12.23,2.55-9.56,1.98-18.52,3.23-28.28,3.26-3.68.02-15.79.24-13.92-1.42Z" />
    <path
      class="d"
      d="m2233.12,1845.36c4.69-5.37,25.65-9.73,24.96-16.88.22,2.29-3.56,2.57-8.13,2.18-1.7-.15-3.5-.38-5.25-.64-8.24-1.25-14.3-1.8-22.66,1.46-10.92,4.26-26.84,12.27-15.82,23.2,6.27,6.21,15.09,11.1,18.64,19.73.05.12.07.23.12.36h9.67c-.86-1.86-1.78-3.74-2.82-5.69-4.28-8.02-5-16.5,1.29-23.72Z" />
    <path
      class="d"
      d="m2313.06,1730.71c-1.55,1.55-2.11,3.53-1.25,6.03,3.75,11.03,49.07,1.14,59.9,2.07v-11.34c-2.8-.38-5.6-.69-8.43-.85-4.66-.26-41.89-4.23-50.22,4.09Z" />
    <path
      class="d"
      d="m2292.48,1669.79c-1.23,1.53-2.47,3.05-3.7,4.6-9.67,12.23-20.42,21.95-27.29,36.57-1.64,3.48-4.94,11.86-3.29,15.98,2.43,6.11,5.52,1.76,10.03,4.57,6.13,3.83,3.91,15.18,12.47,17.11,11.05,2.5,11.92-9.82,9.54-17.51-.19-.61-.39-1.19-.61-1.73-3.76-9.03-10.51-15.84-5.43-26.14,6.5-13.16,22.74-23.02,33.96-31.84,13.58-10.68,37.23-20.71,45.34-36.75-9.62-2.62-1.06-10.11,8.19-16.09v-14.2c-17.87,8.97-34.82,20.73-50.5,34.42-10.86,9.48-19.9,20.01-28.73,31Z" />
    <path
      class="d"
      d="m2347.06,1834.06c-4.75,1.57-10,8.06-3.5,10.79,3.81,1.6,9.43.11,13.43.14,4.56.04,7.68.51,11.89-1.55.98-.48,1.92-1.01,2.82-1.57v-17.59c-.89.66-1.8,1.29-2.65,1.9-6.8,4.9-14.28,5.34-22,7.88Z" />
    <path class="d" d="m2326.89,1843.93c-4.98.53-10.19.16-14.99,1.88-3.74,1.35-4.53,2.61-.1,3.76,6.81,1.77,16.34.7,22.7-1.99.06-2.3-1.85-3.62-7.61-3.66Z" />
    <path
      class="d"
      d="m2283.46,1771.31c.96,2.93,2.72,1.72,5.58-.11,5.1-3.27,8.48-8.29,13.78-11.41,2.14-1.27,4.34-2.16,6.59-2.99,1.14-.43,2.28-.85,3.46-1.27,2.11-.75,11.9-4.82,6.35-8.19-10.91-.43-19.09,4.41-27.42,10.98-.93.73-2.2,1.78-3.47,2.99-2.97,2.82-5.99,6.61-4.88,10Z" />
    <path
      class="d"
      d="m40.29,1803.74c4.14,1.34,1.93,1.78,4.46,4.76,1.19,1.41,2.65,2.54,4.21,3.56,8.71,5.68,22.33,5.97,32.45,5.98,23.11,0,46.24-.09,69.36-.04.1,0,.27,0,.38.01,5.14.06,18.54,1.12,21.31-4.96.83-1.82.61-3.13-.14-4.14-1.5-2.01-5.27-2.72-8.11-3.32-8.16-1.72-16.43-1.23-24.73-.15-11.01,1.42-22.07,3.91-32.96,3.9-7.49,0-26.73,1.2-33.74-5.53-.53-.31-1.02-.64-1.41-1.07.04-.22-.02-.45,0-.68-.14-.23-.33-.45-.45-.7-.39-.82-.65-1.57-.85-2.3-.37-1.39-.39-2.62-.15-3.7-2.19-5.19-5.76-10.56-3.87-15.98,1.38-4,9.38-7.32,12.91-9.03,3.18-1.54,8.46-4.99,12.12-5.41.18-.02.38.04.55.03-2.38-2.25-4.73-4.61-7.28-7.02-2.86-2.71-5.17-5.68-7.09-8.81-10.66-17.45-7.72-40.59-2.93-60.35.02-.07.05-.17.06-.25,1.58-6.44,4.72-17.12.24-23.16-4.43-5.97-15.76-2.39-22.37-2.11-7.51.33-27.27,1.08-25.32-11.27.98-6.25,6.01-4.87,11.6-4.55,6.85.39,13.93.45,20.91,1,3.89.3,7.75.71,11.5,1.51,3.98.84,10.28,4.42,11.11-.8,1.39-8.85-17.7-11.54-22.68-11.72-17.72-.66-37-3.54-52.82-12.36-2.04-1.14-4.27-2.36-6.58-3.49v50.54c10.85,4.43,22.45,6.52,33.29,10.91.17.07.34.15.52.23,16.77,7,28.3,21.75,21.71,39.98-4,11.07-8.61,26.19-17.92,34-3.03,2.54-6.36,4.83-9.84,7-9.09,5.68-19.21,10.56-27.75,17.04v27.09c8.82-2.29,17.54-3.45,27.15-3.85,3.37-.14,10.11-1.78,13.14-.8Z" />
    <path
      class="d"
      d="m353.75,1865.5c-12.47-8.31-22.46-14.87-37.14-18.74-10.23-2.69-19.82-4.94-29.43-9.45-5.83-2.74-11.07-6.29-17.23-8.16-20.91-6.38-41.6-10.6-62.18-18.69-7.87-3.09-15.86-6.18-23.88-9.21-14.58-5.52-29.34-10.79-44.16-15.13-9.54-2.79-19.3-5.3-28.54-8.93,3.94,2.81,7.95,5.54,11.78,8.29,4.42,3.17,8.8,6.94,13.53,9.92,3.98.68,7.95,1.25,11.92,1.57,10.39.82,19.1,5.14,28.31,9.45,2.4,1.12,4.83,2.11,7.26,3.05,6.12,2.38,12.28,4.46,18.21,7.46,11.05,5.57,21.34,7.47,33.36,9.74,6.01,1.13,11.61,3.24,17.52,4.8,1.54.41,3.23.79,4.97,1.18,7.32,1.62,15.79,3.39,20.98,8.21,5.12,4.76,8.88,11.84,10.2,19.08.02.11.06.22.07.33.02.09.03.17.05.26.72,4.45.51,8.93-.92,12.96-.14.41-.32.84-.52,1.28h76.95c-1.34-1.32-2.71-2.58-4.07-3.77-2.48-2.17-4.94-4.1-7.05-5.5Z" />
    <path
      class="n"
      d="m11.66,1765.06c-1.66-.32-3.42-.41-4.86-.24,3.73-2.43,6.33-5.27,10.12-6.73,2.91-5.05,5.14-10.36,8.33-15.25,6.18-9.49,8.33-21.54,7.88-32.59-.07-1.55-.34-3.01-.73-4.42-1.79-.32-3.61-.56-5.43-.89.83-1.18,2.36-2.29,3.75-3.46-1.83-3.63-4.47-6.87-7.18-10.04-.73-.84-1.39-1.61-2.25-2.31-.96-.78-1.93-1.55-2.98-2.21-.73-.46-2.02-1.64-2.99-1.67-.08,0-.16-.05-.23-.04.34,1.02,1.74,2.28,2.52,3.06l.84.81c.54.52,1.05,1.03,1.48,1.68,1.46,2.21,2.89,4.72,3.72,7.26.99,3.04,1.21,6.24,1.34,9.41.15,3.82-.05,7.29-.42,10.6,1.52-.35,3.26-.13,5.29,1.11-1.28,1.42-3.87,2.21-5.58,3.55-.15.12-.32.29-.49.44-2.38,11.79-8.18,21.18-16.64,32.21-1.74,2.26-4.25,6.6-7.13,9.72v10.51c.52-.47,1.04-.94,1.57-1.41,3.3-2.97,6.93-5.85,10.09-9.11Z" />
    <path
      class="n"
      d="m1709.75,1633.97c7.16-2.73,14.27-5.28,21.39-7.75.18-.71.41-1.39.58-2.12.28-.95.5-1.96.67-2.9.84-3.9,1.56-7.91,2.12-11.99v-.06l.06-.44c.19-1.37.36-2.79.52-4.2-24.51,6.68-48.77,17.7-68.79,31.05-10.51,7-16.73,19.61-7.76,30.93,6.21,7.86,15.88,10.28,26.22,9.96,3.63-.11,7.34-.58,11.02-1.26-7.54.1-14.69-1-20.83-5.02-27.16-17.79,22.31-31.46,34.81-36.2Z" />
    <path
      class="n"
      d="m2125.01,1624.81c-3.32,1.8-6.69,3.57-10.07,5.29l-.88.54-.25.15c4.16-1.71,8.08-3.42,11.36-4.91,3.16-1.46,6.27-3.02,9.36-4.64-.17-.54-.33-1.09-.4-1.71-3.02,1.79-6.03,3.6-9.12,5.27Z" />
    <path
      class="n"
      d="m2105.27,1717.42c-.09.14-.2.31-.3.48-.18.3-.39.64-.61,1.04-.09.17-.18.32-.28.5-1.38,2.5-3.2,6.12-3.94,7.55-1.34,2.68-1.27,4.83-1.66,7.84-.56,4.24-1.07,9.29.54,13.19,1.5,3.62,4.02,7.48,4.8,11.27.42,1.96.44,3.81.21,5.58.96-.1,2-.07,2.69.44-.79.72-1.97,1.07-3.09,1.53-1.21,4.91-4.32,9.27-7.07,13.87-3.4,5.75-7.75,10.88-13.33,14.56-2.84,1.89-6.25,4.68-8.6,7.98,2.02-1.34,3.97-2.73,5.64-4.47,3.96-4.18,7.75-7.25,12.83-10.2,4.86-2.85,11.39-5.89,15.57-10.35-.41-.61-.82-1.18-1.27-1.64-.99-1.04-2.17-1.7-3.52-2.07,1.85.03,5.46-1.02,7.27.2,1.03-1.91,1.68-4.01,1.63-6.43-.11-7.2-4.58-12.18-7.37-18.14-1.48-3.14-2.27-6.86-2.7-10.66-.79.38-1.84,1.71-2.67,1.57.25-1.86,1.21-2.77,2.46-3.13-.35-4.18-.25-8.41.08-12.09.11-1.55,2.35-7.23,2.71-8.46,0,0,.02-.03.02-.04-.02.02-.04.06-.05.08Z" />
    <path
      class="d"
      d="m2079.68,1740.74c-2.16-11.53,6.27-27.6-5.07-36.25-9.83-7.5-28.9.28-38.71,4.02-1.56.59-3.12,1.13-4.69,1.68-3.05,2.76-7.52,6.5-9.66,10.51,1.32.2,2.62.45,3.92.71,6.64-6.36,20.53-12.67,27.53-12.13,12.86-3.95,31.1,19.07,19.43,27.29-3.48,2.46-6.29,2.27-9.41,1.46,1.37,1.04,2.74,2.09,4.04,3.22,6.34,5.49,11.69,14.03,14.55,23.19,1.32,1.8,2.42,3.74,3.29,5.84-.52-3.11-1.15-6.17-1.64-9.09-1.16-6.8-2.27-13.54-3.57-20.44Z" />
    <path
      class="d"
      d="m1859.5,1709.43c7.43,4.25,18.96,2.25,27.55,2.22,5.18-.01,8.6,1.3,13.51,2.38,6.08,1.34,12.89.59,19.14.59,9.5,0,18.92-.03,28.35-.16-5.55-1.39-11.07-3.09-16.55-5.18-11.37-4.33-22.03-3.85-34.25-3.26-13.66.65-27.49-.33-41.16.49.59.95,1.67,1.92,3.42,2.92Z" />
    <path
      class="d"
      d="m2129.56,1592.55c19.56,1.64-1.95,11.56-8.78,15.56-6.28,3.67-12.79,6.96-19.21,10.41,11.51-.39,22.79-4.41,33.64-9.02,1.5-7.21,4.2-14.35,7.35-20.94-8.21.07-16.39.28-24.53.74-19.14,1.06-38.52,4.35-57.93,8.67,9.27,1.91,19.12,1.46,28.62,1.59,14.38.19,25.92-8.26,40.84-7Z" />
    <path
      class="d"
      d="m2110.8,1682.28c-4.64-3.79-12.77-8.7-16.18-13.55-1.21-1.73-2.38-4.26-3.29-7.04-.12-.07-.25-.14-.38-.21-.59-1.37-1.05-2.83-1.31-4.43l.91,4.2c-6.73-3.76-13.4-7.67-20.02-11.87-.11.72-.15,1.47-.2,2.21,6.21,4.4,11.41,9.65,13.49,15,.28.72.47,1.37.7,2.05,2.52.61,5.13.88,7.45,1.72,3.91,1.43,6.77,4.71,10.3,6.85,2.87,1.73,5.73,2.91,6.49,6.36,1.64,7.48-5.76,11.35-10.12,15.67-5.05,5-8.74,11.63-10.68,18.42-3.57,12.47-2,26,.7,38.46,1.59,7.33,2.96,14.29,1.7,21.95-.9,5.37-3.09,8.29-5.74,11.36-.03.35-.07.69-.09,1.03,8.94-2.02,14.81-28.39,14.73-36.71-.12-13.75-10.29-21.15-8.03-35.4.97-6.18,4.87-8.62,9.54-10.07l.02.11c.21-.11.41-.19.62-.29,6.7-1.93,14.76-2.14,18.27-8.16.14-.08.29-.14.43-.22-.77-6.5-3.01-12.27-9.31-17.45Z" />
    <path
      class="d"
      d="m1717.17,1658.24h-1c.95-1.23,1.89-2.51,2.79-3.85.72-1.05,1.45-2.17,2.11-3.29.61-1,1.23-2.06,1.73-3.12l.39-.67c.5-.84.89-1.73,1.34-2.62.28-.51.5-1.01.73-1.56.45-.95.89-1.9,1.28-2.9l.11-.29c.56-1.23,1.01-2.46,1.45-3.73.5-1.28.95-2.63,1.39-3.96.09-.3.15-.59.24-.89-.61.23-1.22.44-1.83.66-.69.25-1.37.51-2.05.74-7.77,2.66-15.77,5.23-23.11,8.89-5.4,2.7-21.49,11.99-19.18,19.58,2.03,6.64,20.36,8.62,25.98,7.78,6.12-.9,12.14-2.34,18.2-3.61,5.16-1.08,10.34-2.04,15.63-2.39,17.77-1.16,40.21-6.29,56.66,1.3,1.37.63,2.71,1.32,3.99,2.14,2.43,1.56,5.48.48,4.66,4.86-.92,4.86-15.25,7.58-19.09,9.26-5.39,2.36-23.14,10.99-17.01,16.68,1.64,1.54,4.14,2,6.68,2.09,2.14.07,4.32-.12,6.02-.21,2.79-.14,5.59-.04,8.41.08,16.79-12.48,35.9-22.32,55.05-32.17-.45-.9-.32-2.16.88-4.01,1.76-2.72,8.29-5.36,10.95-7.61,3.86-3.27,7.51-6.03,11.75-8.77,1.64-1.06,4.84-3.05,7.99-5.42-51.77,10.11-104.47,17.49-156.68,17,.01-.02.02-.04.04-.06,0,0,0,0-.02,0-2.17.05-4.29.05-6.46.05Z" />
    <path
      class="l"
      d="m772.88,1673.41c1.79-14.84,9.32-18.8,3.29-34.86-3.96-10.59-12.33-21.53-17.91-31.29-9.43-16.4-18.29-28.06-21.98-42.17-16.51-8.48-33.19-17.96-46.07-31.01-11.66-11.77-22.26-24.93-33.75-36.59,30.18-6.02,61.8-4.96,92.31-8.09l-.05-.33c-.55-2.46-1.06-4.63-1.39-6.53-10.09-1.17-19.97-2.96-27.66-3.01-25.21-.22-53.05,2.96-77.81-2.73-1.5-9.04-9.54-17.07-15.79-23.26-10.37-10.43-21.43-20.64-32.46-30.45-9.54-8.48-18.07-18.52-28.01-26.44-9.36,2.96-18.62,7.42-27.66,13.55-7.98,5.41-12.16,11.43-18.62,17.91-.5.49-1,.95-1.51,1.28.95,2,1.84,3.74,2.68,4.79,4.12,5.53,9.48,9.65,14,14.84,11.88,13.67-9.2,14.73-16.29,24.54,14.68,13.84,34.03,23.09,48.37,37.37,10.43,10.37,26.32,26.05,32.73,39.44,6.59,13.95-7.13,22.76-15.5,33.47-13.39,17.12-22.48,35.64-32.36,54.94-6.69,13.11-7.75,17.01-20.52,8.71-14.5-9.43-26.05-24.27-40.21-34.09-14-9.82-30.24-13-45.29-20.64-21.09-10.66-49.42-13.22-69.39,2.68,18.74.78,36.14.33,53.83,6.97,10.48,3.95,21.03,6.97,30.79,12.27,20.19,10.87,40.88,32.46,56.17,49.41,4.07,4.52,14.95,13.5,16.34,19.86,1.34,6.2-3.24,11.89-6.75,17.46-9.82,15.73-22.42,29.89-33.35,44.9-12.72,17.52-24.32,35.75-35.87,54.05-.83,1.34-1.89,3.3-3.12,5.3,37.88,6.58,76.59,10.27,116.75,10.77,52.38.73,104.64-4.07,156.57-9.98,29.62-3.35,97.23.05,132.93-11.16-14.34-11.77-28.73-24.27-41.11-37.21-21.03-21.87-49.92-54.27-46.29-84.67Z" />
    <path
      class="f"
      d="m626.07,1453.53c6.24,6.2,14.28,14.22,15.79,23.26,24.76,5.69,52.6,2.51,77.81,2.73,7.69.05,17.57,1.84,27.66,3.01-4.3-21.81,3.07-10.93-16.73-27.89-18.89-16.11-40.72-32.11-63.95-43.94-32.34-16.47-67.39-24.84-101.06-14.07,9.94,7.93,18.47,17.96,28.01,26.44,11.04,9.82,22.09,20.02,32.46,30.45Z" />
    <path
      class="f"
      d="m690.22,1534.07c12.88,13.05,29.56,22.53,46.07,31.01-2-7.7-2.45-16.12-.61-26.49,2.9-16.18,7.92-31.74,13.61-47.19-.16-.67-.33-1.34-.5-2.01-30.51,3.12-62.13,2.06-92.31,8.09,11.49,11.66,22.09,24.82,33.75,36.59Z" />
    <path
      class="l"
      d="m431.35,1794.73c3.35-3.46,5.07-18.41,6.08-24.54,2.06-13.39,41.45-26.89,44.68-40.05,3.07-12.44,4.57-24.99,7.2-37.54,1.12-5.47,4.91-12.84,2.4-18.52-2.51-5.69-10.04-9.31-15.17-12.21-11.82-6.7-23.6-13.5-35.93-19.25-29.23-13.61-94.55-34.02-124.95-45.07-4.63-1.73-9.7-4.96-14.28-6.08-3.34-.84-6.8.11-10.09,1.95l.55.11c4.58,1.12,9.65,4.35,14.22,6.02,30.46,11.1,95.77,31.52,125,45.13,12.32,5.69,24.1,12.55,35.92,19.18,5.13,2.9,12.66,6.59,15.16,12.27,2.52,5.63-1.28,13.05-2.39,18.52-2.62,12.55-4.12,25.1-7.19,37.48-3.23,13.22-42.62,26.72-44.68,40.11-1,6.07-2.73,21.08-6.08,24.48-.83.62-1.62,1.29-2.39,2.06,2.06.45,4.13.89,6.25,1.39,1.84-2.11,3.68-4.01,5.69-5.46Z" />
    <path
      class="l"
      d="m2278.64,1315.2c-16.06-16.62-34.92-29.56-53.83-44.18-26.04-20.07-49.8-44.96-77.09-62.97,7.58-13.61,39.71-33.07,33.47-47.3-4.74-10.82-36.09-24.32-46.07-30.45-29.34-18.13-55.39-38.71-81.16-61.8-22.87-20.53-43.06-43.62-66.88-62.98-.11,18.47.22,36.87-1.45,55.17-.68,7.7-1.51,13.55-2.84,18.35,19.86,25.48,37.87,52.38,54.72,80.6-24.93,10.76-57.68-13.5-80.04-21.93-10.71-4.02-21.81-7.7-33.14-10.6-25.56,14.39-53.02,26.63-81.04,35.23,1.28.37,2.54.77,3.82,1.14,23.59,6.86,47.86,12.89,69.83,25.38,16.51,9.32,51.66,25.66,59.52,42.23,1.95,4.13-.61,12.66.34,17.3,2.23,11.21,8.25,21.24,12.94,31.73,12.38,27.61,19.41,56.44,32.85,83.22-19.41,1.22-38.27,1.78-57.51,4.41-7.47,29.73-10.65,70.84-6.08,101.52,7.08,47.74,86.9,69.49,126.51,81.1,12.21,3.57,21.59,3.51,33.74,5.12,13.62,1.79,22.95,7.39,33.21,16.06,5.25-7.69,11.16-14.93,17.29-21.93,8.36-9.53,16.13-20.7,25.81-28.97,13.41-11.45,23.4-9.53,38.5-2.83,21.32,9.47,42.7,21.03,61.26,35.16,9.06,6.9,17.04,14.58,25.25,22.41.41.39.82.79,1.23,1.18,16.54-5.09,33.26-11.68,49.91-19.57v-126.88c-4.9-9.7-10.32-19.08-16.76-27.74-22.81-30.62-49.7-59.74-76.31-87.18Z" />
    <path
      class="f"
      d="m2255.93,1102.12c-24.3-15.46-45.5-35.25-66.85-54.9-15.69-14.45-31.46-28.83-48.61-41.37-15.43-11.27-31.84-25.11-49.05-36.67-12.36-8.29-25.12-15.43-38.25-19.55-11.32-3.52-42.89-11.38-62.75-11.16-.67,11.6-1.17,22.7-2.01,31.96-1.06,11.65-1.34,23.37-1.34,35.08,23.82,19.36,44.01,42.45,66.88,62.98,25.77,23.09,51.82,43.67,81.16,61.8,9.98,6.13,41.33,19.64,46.07,30.45,6.25,14.23-25.89,33.69-33.47,47.3,27.28,18.01,51.04,42.89,77.09,62.97,18.91,14.62,37.77,27.56,53.83,44.18,26.61,27.44,53.5,56.55,76.31,87.18,6.45,8.66,11.86,18.04,16.76,27.74v-230.86c-14.45-14.34-28.46-28.82-41.59-42.87-22.7-24.2-46.24-36.47-74.19-54.27Z" />
    <path
      class="f"
      d="m1954.62,1108.7c-9.76,6.42-19.86,12.61-30.29,18.41,11.33,2.91,22.42,6.59,33.14,10.6,22.36,8.43,55.11,32.69,80.04,21.93-16.85-28.23-34.86-55.12-54.72-80.6-3.46,13.05-10.49,18.01-28.17,29.67Z" />
    <path
      class="f"
      d="m1819.62,1168.62c-.42.66-.9,1.27-1.29,1.95-15.23,25.71-14.73,61.02-19.52,93.26-.5,3.33-.95,6.67-1.37,10.01,1.29,7.29,2.34,14.63,3.29,22.03,12.65,34.96,23.07,71.92,12.03,103.78-5.73,16.54-13.59,32.42-20.24,48.71-1.96,5.73-3.94,11.42-6.05,17.11,0,.02,0,.04-.02.07v.09c-.03.07-.06.14-.08.21-1.82,6.99-3.99,15.45-7.74,20.38-11.38,29.73-23.59,59.07-34.07,89.52,0,.02-.01.04-.02.05-.08,1.69-.15,3.37-.23,5.07-.06,1.5-.17,2.96-.22,4.46-.17,2.79-.34,5.57-.5,8.36-.28,3.35-.56,6.7-.95,10.04-.16,1.68-.39,3.35-.61,4.97-.56,4.24-1.29,8.42-2.18,12.49-.16.95-.39,1.95-.67,2.9-.61,2.79-1.39,5.46-2.23,8.14-.45,1.33-.89,2.68-1.39,3.96-.45,1.28-.89,2.51-1.45,3.73l-.12.29c-.39,1-.83,1.95-1.28,2.9-.22.55-.45,1.05-.72,1.56-.45.89-.89,1.78-1.34,2.62l-.39.67c-.55,1.06-1.12,2.12-1.73,3.12-1.5,2.43-3.11,4.81-4.87,7.08-.02.02-.03.04-.04.06,52.21.49,104.91-6.88,156.68-17,6.45-1.26,12.89-2.56,19.31-3.89,17.16-13.12,36.08-31.98,55.34-35.01,15.61-2.46,31.58,3.43,46.64,10.71,19.37-5.32,38.94-10.73,58.5-15.09,19.41-4.32,38.79-7.61,57.93-8.67,8.13-.46,16.31-.66,24.53-.74.82-1.71,1.64-3.39,2.51-5.02,2.21-4.16,4.74-8.11,7.39-11.99-10.25-8.67-19.58-14.27-33.21-16.06-12.15-1.61-21.53-1.56-33.74-5.12-39.61-11.61-119.43-33.36-126.51-81.1-4.57-30.68-1.39-71.79,6.08-101.52,19.25-2.62,38.1-3.18,57.51-4.41-13.45-26.78-20.48-55.61-32.85-83.22-4.69-10.49-10.71-20.53-12.94-31.73-.95-4.63,1.61-13.17-.34-17.3-7.86-16.56-43-32.91-59.52-42.23-21.97-12.49-46.24-18.52-69.83-25.38-1.28-.37-2.54-.76-3.82-1.14-1.21.37-2.42.78-3.62,1.14-6.65,1.95-13.34,3.62-20.04,5.14Z" />
    <path
      class="j"
      d="m1937.94,1033.4c-8.87,25.38-19.08,52.1-34.58,74.25-3.91,5.58-7.47,9.87-10.93,13.22-2.07,2.04-4.1,3.71-6.12,5.17-10.82,7.78-21.59,8.34-39.4,15.02-10.99,4.14-19.52,9.76-26.16,16.57-3.91,3.96-7.14,8.25-9.88,12.95,2.92-.58,5.83-1.28,8.74-1.95,6.71-1.53,13.39-3.2,20.04-5.14,1.21-.36,2.41-.76,3.62-1.14,28.02-8.61,55.48-20.85,81.04-35.23,10.43-5.79,20.53-11.99,30.29-18.41,17.68-11.66,24.71-16.62,28.17-29.67,1.34-4.8,2.17-10.66,2.84-18.35,1.67-18.3,1.34-36.7,1.45-55.17,0-11.71.28-23.43,1.34-35.08.84-9.27,1.34-20.36,2.01-31.96-4.96.05-9.2.62-12.21,1.9-13.11,5.52-20.93,21.25-26.44,38.93-4.34,13.87-7.21,28.82-10.16,40.99-.72,3.01-1.46,5.89-2.22,8.49-.45,1.67-.95,3.18-1.45,4.63Z" />
    <path class="j" d="m1717.17,1658.24c.61-1.28,1.23-2.57,1.79-3.85-.9,1.34-1.84,2.62-2.79,3.85h1Z" />
    <path
      class="i"
      d="m23.78,1723.14c.17-.16.34-.32.49-.44,1.71-1.34,4.3-2.13,5.58-3.55-2.03-1.23-3.77-1.45-5.29-1.11.37-3.32.57-6.78.42-10.6-.12-3.16-.34-6.37-1.34-9.41-.83-2.54-2.26-5.05-3.72-7.26-.43-.65-.94-1.16-1.48-1.68l-.84-.81c-.78-.79-2.18-2.04-2.52-3.06.07,0,.16.04.23.04-3.96-3.32-9-6.29-15.32-8.81v88.62c2.88-3.12,5.39-7.46,7.13-9.72,8.46-11.03,14.26-20.43,16.64-32.21Z" />
    <path class="i" d="m7.37,1830.7c-2.53.16-4.98.32-7.37.48v43.59h276.61c8.6-52.47-172.61-49.75-269.24-44.07Z" />
    <path class="i" d="m2300.21,1700.36c1.52,1.71,3.18,3.22,4.93,4.61,19.51,7.62,45.2,5.41,66.57,5.79v-70.64c-24.53,18.45-53.04,35.53-71.5,60.25Z" />
    <path class="i" d="m2109.04,1865.36c-26.28,1.12-51.89,5.2-77.45,9.41h163.45c-4.5-4.49-9.17-8.46-13.98-11.82-21.11-8.39-50.69,1.5-72.02,2.41Z" />
    <path
      class="i"
      d="m2343.37,1752.32c-8.92,1.46-18.3,2.41-27.53,3.6-14.71,5.75-26.54,16.98-32.79,35.54-3.25,9.63,4.64,20.95-1.37,32.89-6.66,13.24-24.01,14.99-30.35,31.37-2.45,6.32-3.39,12.68-3.41,19.05h123.78v-26.66c-23.91,6.7-50.93,6.78-72.93,4.34.02-.06.05-.1.06-.16-.02,0-.04,0-.05,0,3.25-15.47,13.62-12.79,22.94-16.18,15.43-5.62,22.9-9.78,35.77-22.77,4.35-4.39,9.56-14.5,14.21-22.46v-36.22c-7.39-1.77-14.78-2.93-21.99-3.36-2.2.35-4.33.7-6.34,1.03Z" />
    <path
      class="i"
      d="m2143.4,1839.87c9.76-.02,18.72-1.28,28.28-3.26,4.18-.87,8.26-.97,12.23-2.55,4.33-1.72,4.74-1.54,2.41-5.64-6.16-10.87-16.13-17.2-28.66-14.96-12.04,2.15-28.91,10.78-28.18,25-1.86,1.66,10.24,1.43,13.92,1.42Z" />
    <path
      class="i"
      d="m72.78,1803.82c4.4,2.59,13.29,1.52,16.46,1.38,4.03-.17,8.06-.52,12.11-.86,3.68-.32,7.37-.63,11.06-.79,8.89-.39,23.64,1.89,30.86-4.64-2.38-.87-4.61-2.12-6.78-3.49-4.73-2.98-9.11-6.75-13.53-9.92-3.83-2.75-7.84-5.48-11.78-8.29-1.45-1.03-2.92-2.04-4.32-3.12-3.32-2.57-10.29-9.13-15.21-9.1-.18,0-.38-.05-.55-.03-3.66.41-8.94,3.87-12.12,5.41-3.54,1.71-11.53,5.04-12.91,9.03-1.89,5.43,1.68,10.79,3.87,15.98.57,1.34,1.03,2.68,1.29,4,.17.91.22,1.81.15,2.7-.02.23.04.45,0,.68.38.43.88.76,1.41,1.07Z" />
    <path
      class="m"
      d="m2091.34,1661.69c.91,2.78,2.07,5.31,3.29,7.04,3.41,4.85,11.54,9.76,16.18,13.55,6.3,5.19,8.54,10.95,9.31,17.45.34,2.93.43,6,.39,9.27,11.05-5.13,33.41-15.39,32.13-28.28-1.34-13.38-28.16-13.65-37.81-15.11-6.19-.95-12-1.39-16.46-5.69-4.88-4.69-5.18-8.8-5.6-14.98,0-.11-.02-.22-.02-.34-3.96,3.67-3.38,11.03-1.41,17.09Z" />
    <path
      class="q"
      d="m1915.76,1699.89c4.45,2.21,9.19,4.57,13.96,6.03,11.41,3.5,27.39,1.83,39.15,1.3,15.32-.69,30.08,7.51,45.27,2.04,13.88-5.01,25.89-14.07,39.92-18.86-.07-.1-.16-.19-.23-.29-26.33,1.04-50.86,3.71-77.45,7.2-20.1,2.63-40.36,2.18-60.61,2.59Z" />
    <path
      class="l"
      d="m1848.72,1667.05c-19.15,9.86-38.26,19.69-55.05,32.17-3.57,2.65-7.08,5.36-10.41,8.29,31.02,2.24,62.42.25,93-4.63,13.13-2.09,26.31-2.72,39.5-2.99,20.25-.4,40.52.05,60.61-2.59,26.59-3.48,51.12-6.16,77.45-7.2,3-.11,5.91-.3,8.96-.37,13.4-.32,28.32-1.54,21.74-21.08-.23-.68-.42-1.32-.7-2.05-2.08-5.36-7.28-10.61-13.49-15-8.6-6.08-19.18-10.51-26.34-11.21-.32,1.87-.36,3.76-.11-7.91-12.19-2.9-26.75-11.9-42.29-19.42-15.06-7.29-31.03-13.17-46.64-10.71-19.26,3.03-38.19,21.89-55.34,35.01-2.68,2.05-5.32,3.98-7.92,5.67-13.62,8.89-28.29,16.48-42.97,24.04Z" />
    <path
      class="o"
      d="m2142.55,1588.56c-3.15,6.59-5.84,13.73-7.35,20.94-.52,2.5-.93,5.01-1.13,7.51-.08.93-.04,1.75.05,2.53.07.62.23,1.17.4,1.71,1.52,4.77,6.62,6.39,12.31,8.77,15.01,6.26,31.52,9.96,47.72,11.77,11.52,1.29,24.66,3.15,36.25,2.77,15.2-.5,25.46-6.3,38.66-13.41,21.64-11.66,42.19-30.22,65.82-45.29-5.56-1.48-9.51-5.41-13.5-9.28-.41-.39-.82-.79-1.23-1.18-8.21-7.83-16.19-15.51-25.25-22.41-18.56-14.13-39.95-25.69-61.26-35.16-15.1-6.7-25.09-8.61-38.5,2.83-9.68,8.27-17.45,19.44-25.81,28.97-6.14,7-12.04,14.24-17.29,21.93-2.65,3.88-5.18,7.83-7.39,11.99-.87,1.63-1.7,3.31-2.51,5.02Z" />
    <path
      class="f"
      d="m1694.99,1738.54c17.46-5.04,31.29-10.94,47.03-19.3-2.54-1.87-7.11-2.1-10.55-3.82-3.66-1.82-6.2-5.51-9.7-7.35-4.49-2.36-7-2.42-12.31-2.41-6.43.01-12.29.24-18.62,1.4-6.59,1.2-21.2.62-31.43,3.46-.31,5.96.48,29.5,5.45,33.46,6.05,4.81,24.32-3.76,30.14-5.44Z" />
    <path
      class="f"
      d="m1727.63,1756.7c13.24,11.18,34.82,14.53,51.52,16.83,14.94,2.05,23.72,5.58,36.67,11.54,17.18,7.91,28.89-20.75,34.74-33.23-5.73-3.11-14.3-5.57-11.95-6.35-13.42,3.59-23.17-1.99-36.15-4.61-14.02-2.82-28.58-5-42.87-5.91-18.11-1.16-22.25,9.23-31.96,21.72Z" />
  </g>
</svg>
