<?xml version="1.0" encoding="UTF-8"?><svg id="b" xmlns="http://www.w3.org/2000/svg" xmlns:xlink="http://www.w3.org/1999/xlink" viewBox="0 0 1200 675"><defs><style>.u{opacity:.42;}.v{fill:url(#s);}.v,.w,.x,.y,.z,.aa,.ab,.ac,.ad,.ae,.af,.ag,.ah,.ai,.aj,.ak,.al,.am,.an,.ao{stroke-width:0px;}.w{fill:url(#e);}.x{fill:url(#g);}.y{fill:url(#i);}.z{fill:#e5e5e5;}.aa{fill:url(#l);}.ap{clip-path:url(#d);}.ab{fill:url(#q);}.ac{fill:url(#t);}.ad{fill:none;}.ae{fill:url(#n);}.af{fill:url(#h);}.ag{fill:#fff;}.ah{fill:url(#j);}.ai{fill:url(#f);}.aj{fill:url(#m);}.ak{fill:url(#r);}.al{fill:url(#k);}.am{fill:url(#p);}.an{fill:#f2f2f2;}.ao{fill:url(#o);}</style><clipPath id="d"><rect class="ad" x="0" y="0" width="1200" height="675"/></clipPath><radialGradient id="e" cx="151.96" cy="-566.33" fx="151.96" fy="-566.33" r="91.28" gradientTransform="translate(792.96 503.36) rotate(-20.17) scale(1.65 -.38) skewX(4.46)" gradientUnits="userSpaceOnUse"><stop offset="0" stop-color="#404040"/><stop offset=".19" stop-color="#7d7d7d"/><stop offset=".47" stop-color="#ababab"/><stop offset=".71" stop-color="#e6e6e6"/><stop offset=".89" stop-color="#fff"/><stop offset="1" stop-color="#fff"/></radialGradient><radialGradient id="f" cx="39.71" cy="-487.89" fx="39.71" fy="-487.89" r="91.28" gradientTransform="translate(797.69 414.75) rotate(-20.17) scale(1.65 -.38) skewX(4.46)" xlink:href="#e"/><radialGradient id="g" cx="-195.44" cy="-417.39" fx="-195.44" fy="-417.39" r="91.28" gradientTransform="translate(801.98 324.56) rotate(-20.17) scale(1.65 -.38) skewX(4.46)" xlink:href="#e"/><radialGradient id="h" cx="146.48" cy="-392.64" fx="146.48" fy="-392.64" r="91.28" gradientTransform="translate(803.36 326.27) rotate(-20.17) scale(1.65 -.38) skewX(4.46)" xlink:href="#e"/><radialGradient id="i" cx="34.32" cy="-317.03" fx="34.32" fy="-317.03" r="91.28" gradientTransform="translate(807.92 240.54) rotate(-20.17) scale(1.65 -.38) skewX(4.46)" xlink:href="#e"/><radialGradient id="j" cx="141.06" cy="-221.03" fx="141.06" fy="-221.03" r="91.28" gradientTransform="translate(813.63 151.28) rotate(-20.17) scale(1.65 -.38) skewX(4.46)" xlink:href="#e"/><radialGradient id="k" cx="-307.52" cy="-343.19" fx="-307.52" fy="-343.19" r="91.28" gradientTransform="translate(806.46 240.27) rotate(-20.17) scale(1.65 -.38) skewX(4.46)" xlink:href="#e"/><radialGradient id="l" cx="-200.81" cy="-247.17" fx="-200.81" fy="-247.17" r="91.28" gradientTransform="translate(812.17 151) rotate(-20.17) scale(1.65 -.38) skewX(4.46)" xlink:href="#e"/><radialGradient id="m" cx="-316.61" cy="-170.34" fx="-316.61" fy="-170.34" r="91.28" gradientTransform="translate(816.81 63.74) rotate(-20.17) scale(1.65 -.38) skewX(4.46)" xlink:href="#e"/><radialGradient id="n" cx="-206.1" cy="-79.72" fx="-206.1" fy="-79.72" r="91.28" gradientTransform="translate(822.2 -19.75) rotate(-20.17) scale(1.65 -.38) skewX(4.46)" xlink:href="#e"/><radialGradient id="o" cx="-318.32" cy="-.98" fx="-318.32" fy="-.98" r="91.28" gradientTransform="translate(826.95 -108.65) rotate(-20.17) scale(1.65 -.38) skewX(4.46)" xlink:href="#e"/><radialGradient id="p" cx="-544.85" cy="-277.2" fx="-544.85" fy="-277.2" r="91.28" gradientTransform="translate(810.48 154.48) rotate(-20.17) scale(1.65 -.38) skewX(4.46)" xlink:href="#e"/><radialGradient id="q" cx="-550.25" cy="-106.03" fx="-550.25" fy="-106.03" r="91.28" gradientTransform="translate(820.73 -20.04) rotate(-20.17) scale(1.65 -.38) skewX(4.46)" xlink:href="#e"/><radialGradient id="r" cx="-555.77" cy="68.71" fx="-555.77" fy="68.71" r="91.28" gradientTransform="translate(831.19 -198.21) rotate(-20.17) scale(1.65 -.38) skewX(4.46)" xlink:href="#e"/><radialGradient id="s" cx="25.23" cy="-144.18" fx="25.23" fy="-144.18" r="91.28" gradientTransform="translate(818.27 64.01) rotate(-20.17) scale(1.65 -.38) skewX(4.46)" xlink:href="#e"/><linearGradient id="t" x1="93.59" y1="1008.74" x2="750.92" y2="-277.93" gradientTransform="translate(1036 676) rotate(-180)" gradientUnits="userSpaceOnUse"><stop offset=".26" stop-color="#e8e8e8"/><stop offset=".53" stop-color="#e8e8e8" stop-opacity="0"/><stop offset=".79" stop-color="#e8e8e8"/></linearGradient></defs><g id="c"><g class="u"><g class="ap"><polygon class="an" points="1219.06 705.95 1042.08 774.16 1042.08 653.96 1219.06 585.76 1219.06 705.95"/><polygon class="ag" points="1042.08 774.16 865.1 842.36 865.1 722.17 1042.08 653.96 1042.08 774.16"/><path class="w" d="m1186.07,607.61c-.86,24.92-66.62,65.73-146.89,91.15-80.27,25.42-144.65,25.82-143.79.9.86-24.92,66.62-65.73,146.89-91.15s144.65-25.82,143.79-.9Z"/><polygon class="z" points="1042.08 653.96 865.1 722.17 865.1 601.97 1042.08 533.77 1042.08 653.96"/><polygon class="an" points="865.1 722.17 688.11 790.38 688.11 670.18 865.1 601.98 865.1 722.17"/><path class="ai" d="m1016,551.23c-.86,24.92-66.62,65.73-146.89,91.15s-144.65,25.82-143.79.9c.86-24.92,66.62-65.73,146.89-91.15,80.27-25.42,144.65-25.82,143.79-.9Z"/><polygon class="ag" points="511.14 738.39 334.15 806.59 334.15 686.4 511.14 618.2 511.14 738.39"/><polygon class="ag" points="688.11 790.36 511.13 858.57 511.13 738.38 688.11 670.17 688.11 790.36"/><polygon class="an" points="688.11 670.17 511.13 738.38 511.13 618.19 688.11 549.98 688.11 670.17"/><path class="x" d="m655.13,566.43c-.86,24.92-66.62,65.73-146.89,91.15-80.27,25.42-144.65,25.82-143.79.9.86-24.92,66.62-65.73,146.89-91.15,80.27-25.42,144.64-25.82,143.79-.9Z"/><polygon class="an" points="334.15 686.4 157.17 754.61 157.17 634.42 334.15 566.21 334.15 686.4"/><polygon class="z" points="511.14 618.2 334.15 686.4 334.15 566.21 511.14 498 511.14 618.2"/><polygon class="an" points="865.1 481.79 688.11 549.99 688.11 429.8 865.1 361.59 865.1 481.79"/><polygon class="an" points="1219.06 465.57 1042.08 533.77 1042.08 413.58 1219.06 345.37 1219.06 465.57"/><polygon class="ag" points="1042.08 533.77 865.1 601.98 865.1 481.78 1042.08 413.58 1042.08 533.77"/><path class="af" d="m1186.07,363.52c-.86,24.92-66.62,65.73-146.89,91.14-80.27,25.42-144.65,25.82-143.79.9.86-24.92,66.62-65.73,146.89-91.14,80.27-25.42,144.65-25.82,143.79-.9Z"/><polygon class="z" points="1042.08 413.58 865.1 481.78 865.1 361.59 1042.08 293.38 1042.08 413.58"/><polygon class="ag" points="1219.06 345.37 1042.08 413.58 1042.08 293.39 1219.06 225.18 1219.06 345.37"/><polygon class="ag" points="1219.06 585.76 1042.08 653.96 1042.08 533.77 1219.06 465.56 1219.06 585.76"/><path class="y" d="m1016,311.11c-.86,24.92-66.62,65.73-146.89,91.14s-144.65,25.82-143.79.9c.86-24.92,66.62-65.73,146.89-91.14,80.27-25.42,144.65-25.82,143.79-.9Z"/><polygon class="an" points="1219.06 225.18 1042.08 293.38 1042.08 173.19 1219.06 104.99 1219.06 225.18"/><polygon class="ag" points="1042.08 293.39 865.1 361.59 865.1 241.4 1042.08 173.19 1042.08 293.39"/><path class="ah" d="m1186.07,122.32c-.86,24.92-66.62,65.73-146.89,91.14s-144.65,25.82-143.79.9c.86-24.92,66.62-65.73,146.89-91.14,80.27-25.42,144.65-25.82,143.79-.9Z"/><polygon class="z" points="1042.08 173.19 865.1 241.4 865.1 121.21 1042.08 53 1042.08 173.19"/><polygon class="ag" points="1219.06 104.98 1042.08 173.19 1042.08 53 1219.06 -15.21 1219.06 104.98"/><polygon class="an" points="1219.06 -15.21 1042.08 53 1042.08 -67.19 1219.06 -135.4 1219.06 -15.21"/><polygon class="ag" points="688.11 549.98 511.13 618.19 511.13 498 688.11 429.79 688.11 549.98"/><path class="al" d="m485.11,515.98c-.86,24.92-66.62,65.73-146.89,91.15-80.27,25.42-144.65,25.82-143.79.9.86-24.92,66.62-65.73,146.89-91.15,80.27-25.42,144.65-25.82,143.79-.9Z"/><polygon class="z" points="334.15 566.21 157.17 634.42 157.17 514.23 334.15 446.02 334.15 566.21"/><polygon class="an" points="688.11 429.79 511.13 498 511.13 377.8 688.11 309.6 688.11 429.79"/><polygon class="ag" points="511.14 498.01 334.15 566.21 334.15 446.02 511.14 377.81 511.14 498.01"/><polygon class="z" points="865.1 361.59 688.11 429.8 688.11 309.6 865.1 241.4 865.1 361.59"/><polygon class="z" points="865.1 601.98 688.11 670.18 688.11 549.99 865.1 481.78 865.1 601.98"/><path class="aa" d="m655.13,327.2c-.86,24.92-66.62,65.73-146.89,91.14s-144.65,25.82-143.79.9c.86-24.92,66.62-65.73,146.89-91.14,80.27-25.42,144.64-25.82,143.79-.9Z"/><polygon class="an" points="334.15 446.02 157.17 514.23 157.17 394.04 334.15 325.83 334.15 446.02"/><polygon class="z" points="511.14 377.82 334.15 446.02 334.15 325.83 511.14 257.62 511.14 377.82"/><polygon class="an" points="865.1 241.4 688.11 309.61 688.11 189.41 865.1 121.21 865.1 241.4"/><polygon class="ag" points="688.11 309.6 511.13 377.81 511.13 257.61 688.11 189.41 688.11 309.6"/><path class="aj" d="m479.49,274.84c-.86,24.92-66.62,65.73-146.89,91.14-80.27,25.42-144.65,25.82-143.79.9.86-24.92,66.62-65.73,146.89-91.14s144.64-25.82,143.79-.9Z"/><polygon class="z" points="334.15 325.83 157.17 394.04 157.17 273.85 334.15 205.64 334.15 325.83"/><polygon class="an" points="688.11 189.41 511.13 257.62 511.13 137.42 688.11 69.22 688.11 189.41"/><polygon class="ag" points="511.14 257.63 334.15 325.83 334.15 205.64 511.14 137.43 511.14 257.63"/><path class="ae" d="m655.13,91.86c-.86,24.92-66.62,65.73-146.89,91.14s-144.65,25.82-143.79.9c.86-24.92,66.62-65.73,146.89-91.14s144.64-25.82,143.79-.9Z"/><polygon class="an" points="334.15 205.64 157.17 273.85 157.17 153.65 334.15 85.45 334.15 205.64"/><polygon class="z" points="511.14 137.43 334.15 205.64 334.15 85.45 511.14 17.24 511.14 137.43"/><polygon class="an" points="865.1 1.02 688.11 69.22 688.11 -50.97 865.1 -119.18 865.1 1.02"/><polygon class="ag" points="688.11 69.22 511.13 137.43 511.13 17.23 688.11 -50.97 688.11 69.22"/><path class="ao" d="m485.11,35.04c-.86,24.92-66.62,65.73-146.89,91.14-80.27,25.42-144.65,25.82-143.79.9.86-24.92,66.62-65.73,146.89-91.14,80.27-25.42,144.65-25.82,143.79-.9Z"/><polygon class="z" points="334.15 85.45 157.17 153.66 157.17 33.46 334.15 -34.74 334.15 85.45"/><polygon class="an" points="688.11 -50.97 511.13 17.23 511.13 -102.96 688.11 -171.16 688.11 -50.97"/><polygon class="ag" points="511.14 17.25 334.15 85.45 334.15 -34.74 511.14 -102.95 511.14 17.25"/><polygon class="an" points="334.15 -34.74 157.17 33.47 157.17 -86.73 334.15 -154.93 334.15 -34.74"/><polygon class="an" points="157.17 634.42 -19.82 702.62 -19.82 582.43 157.17 514.22 157.17 634.42"/><path class="am" d="m120.64,538.65c-.86,24.92-66.62,65.73-146.89,91.15-80.27,25.42-144.64,25.82-143.79.9.86-24.92,66.62-65.73,146.89-91.15,80.27-25.42,144.65-25.82,143.79-.9Z"/><polygon class="ag" points="157.17 514.23 -19.82 582.43 -19.82 462.24 157.17 394.04 157.17 514.23"/><polygon class="an" points="157.17 394.04 -19.82 462.24 -19.82 342.05 157.17 273.84 157.17 394.04"/><path class="ab" d="m120.64,298.09c-.86,24.92-66.62,65.73-146.89,91.14-80.27,25.42-144.64,25.82-143.79.9.86-24.92,66.62-65.73,146.89-91.14,80.27-25.42,144.65-25.82,143.79-.9Z"/><polygon class="ag" points="157.17 754.61 -19.82 822.82 -19.82 702.62 157.17 634.42 157.17 754.61"/><polygon class="ag" points="157.17 273.85 -19.82 342.05 -19.82 221.86 157.17 153.65 157.17 273.85"/><polygon class="an" points="157.17 153.66 -19.82 221.86 -19.82 101.67 157.17 33.46 157.17 153.66"/><path class="ak" d="m120.64,52.5c-.86,24.92-66.62,65.73-146.89,91.14-80.27,25.42-144.64,25.82-143.79.9.86-24.92,66.62-65.73,146.89-91.14s144.65-25.82,143.79-.9Z"/><polygon class="ag" points="157.17 33.47 -19.82 101.67 -19.82 -18.52 157.17 -86.73 157.17 33.47"/><path class="v" d="m1010.37,69.96c-.86,24.92-66.62,65.73-146.89,91.15s-144.65,25.82-143.79.9c.86-24.92,66.62-65.73,146.89-91.14,80.27-25.42,144.65-25.82,143.79-.9Z"/><polygon class="ag" points="1042.08 53 865.1 121.21 865.1 1.01 1042.08 -67.19 1042.08 53"/><polygon class="z" points="1042.08 -67.19 865.1 1.01 865.1 -119.18 1042.08 -187.39 1042.08 -67.19"/><polygon class="z" points="865.1 121.21 688.11 189.41 688.11 69.22 865.1 1.02 865.1 121.21"/></g></g><polygon class="ac" points="1200 0 0 0 0 675 1200 675 1200 0"/></g></svg>