<?xml version="1.0" encoding="UTF-8"?><svg xmlns="http://www.w3.org/2000/svg" xmlns:xlink="http://www.w3.org/1999/xlink" viewBox="0 0 2400 1800">
  <defs>
    <style>
      .e {
        isolation: isolate;
      }
      .f {
        fill: #106973;
      }
      .t {
        clip-path: url(#d);
      }
      .g {
        fill: #1593a6;
      }
      .h {
        opacity: 0.37;
      }
      .h,
      .k,
      .s {
        fill: #fff;
      }
      .i {
        fill: none;
      }
      .j {
        fill: gray;
      }
      .l {
        fill: #5e381e;
      }
      .m {
        fill: #909694;
      }
      .n {
        fill: #e5f7ff;
      }
      .o {
        fill: #764d2d;
      }
      .p {
        fill: #c2ebf9;
      }
      .q {
        fill: rgba(0, 0, 0, 0.25);
      }
      .r {
        fill: #f2f2f2;
      }
      .s {
        opacity: 0.23;
      }
    </style>
    <clipPath id="d"><rect class="i" width="2400" height="1800" /></clipPath>
  </defs>
  <g class="e">
    <g id="b">
      <g id="c">
        <g class="t">
          <polygon
            class="q"
            points="2399.74 690.08 2399.74 1256.29 2400.26 1482 2064.11 1464.44 73.62 1464.44 73.62 1596.54 -.26 1596.54 -.26 797.32 92.23 797.32 92.23 1039.57 126.57 1039.57 126.57 848.21 178.9 882.12 178.9 1009.81 213.29 1009.79 213.29 947.04 236.83 941.61 237.6 941.43 256.26 937.13 262.07 935.79 290.53 929.22 290.53 822.18 336.23 822.18 336.23 737.32 489.81 737.32 489.81 874.77 495.3 876.04 550.17 888.7 588.99 897.66 588.99 1009.65 633.17 1009.65 633.17 814.29 638.35 810.93 651.45 802.44 674.92 787.23 698.62 771.87 700.36 770.74 700.36 1016.49 745.15 1016.49 745.15 938.72 796.79 906.37 796.79 1016.49 815.46 1016.49 815.46 814.29 827.18 821.66 868.04 847.35 900.07 867.49 900.07 795.63 970.37 795.63 970.37 656.89 971.63 656.34 1003.29 642.53 1022.75 634.04 1087.33 605.87 1087.33 1016.49 1120.93 1016.49 1120.93 832.33 1122.08 831.41 1122.66 830.94 1158.69 802.07 1199.32 769.5 1199.32 922.55 1262.78 922.55 1262.78 837.93 1360.46 837.93 1360.46 1016.49 1390.94 1016.49 1390.94 664.35 1396.85 670.26 1400.56 673.97 1400.85 674.26 1472.74 746.15 1475.56 748.97 1475.56 1016.49 1503.55 1016.49 1503.55 801.23 1563.9 740.88 1563.9 869.66 1599.99 869.66 1599.99 595.3 1759.26 595.3 1759.26 696.08 1815.71 696.08 1815.71 587.72 1818.17 588.79 1906.8 627.44 1906.8 735.48 1961.54 735.48 1961.54 791.44 1961.8 791.27 1961.8 665.22 2082.71 665.22 2082.71 907.47 2117.06 907.47 2117.06 716.1 2128.05 723.22 2141.14 731.71 2162.45 745.52 2169.38 750.01 2169.38 902.14 2203.78 902.14 2203.78 814.93 2221.12 810.93 2228.64 809.19 2242.23 806.06 2257.91 802.44 2281.01 797.11 2281.01 690.08 2399.74 690.08" />
          <path
            class="o"
            d="m2182.4,1251.23h-.03c-.57,8.12-24.67,14.87-54.4,15.14-29.72.28-53.94-6.02-54.66-14.13h-.03l-.07-7.96-.52-55.42-.08-9.09-.07-6.73-.1-11.49-.13-14.02-.2-21.39-.32-34.26,109.13-1.01.62,66.77.86,93.59Z" />
          <path
            class="l"
            d="m2182.4,1251.23h-.03c-.57,8.12-24.67,14.87-54.4,15.14-29.72.28-53.94-6.02-54.66-14.13h-.03l-.08-7.96h0c7.97,1.51,27.94,7.33,39.33,8.26,14.65,1.2,59.16-6.53,59.16-6.53,0,0,2.97-38.63-1.28-67.2-3.27,6.68-21.19,11.51-41.32-6.94-18.36,30.31-41.06,25.68-56.41,16.99l-.08-9.09c-8.07-2.11-14.47-5.07-20.6-6.93l-5.67-4.14-.2-.15-15.26-11.16-2.92-2.13-9.52-6.96,16.47-14.82,5-.99,4.92-.97,3.89-.77,5.47-1.07,17.92-3.54,69.75-13.77,4.91-.97.63-.12,5.47-1.08,28.17-5.56.49,52.99.87,93.6Z" />
          <path
            class="g"
            d="m2332.74,1129.8c.19,20.63-13.27,37.48-30.06,37.64-10.3.1-19.45-6.13-25.05-15.71-5.41,9.68-14.44,16.07-24.75,16.17-10.3.1-19.45-6.13-25.05-15.71-5.41,9.68-14.44,16.07-24.74,16.17-10.31.1-19.46-6.13-25.05-15.71-5.41,9.68-14.45,16.07-24.75,16.17-10.3.1-19.46-6.13-25.05-15.71-5.41,9.68-14.45,16.07-24.75,16.17-10.3.1-19.45-6.13-25.05-15.71-5.41,9.68-14.44,16.07-24.75,16.17-10.3.1-19.45-6.13-25.04-15.71-5.41,9.68-14.45,16.07-24.75,16.17-10.31.1-19.46-6.13-25.05-15.71-5.41,9.68-14.45,16.07-24.75,16.17-16.79.16-30.56-16.45-30.75-37.07-.04-4.82.66-9.44,1.98-13.69h-.25s.58-1.01.58-1.01c1.66-4.94,4.18-9.35,7.31-12.94l34.78-61.56,24.72-43.74,7.46-13.2,14.38-25.45,10.7-18.94,33.55-59.38,25.61-45.33,4.33-7.66,2.34-4.13,15.01-26.56c1.26-2.24,2.82-4.15,4.58-5.73,2.55-2.29,5.53-3.89,8.69-4.79,9.26-2.65,19.98.72,25.55,10.16l22.07,37.43h0s26.68,45.24,26.68,45.24l3.44,5.84,14.51,24.59,2.86,4.85s0,0,0,0l4.81,8.17,9.09,15.42,33.34,56.54,25.79,43.74,23.91,40.54,2.94,4.99,10.65,18.06c1.52,2.04,2.85,4.29,3.96,6.72l1.73,4.39c1.39,4.22,2.19,8.82,2.24,13.65Z" />
          <path
            class="f"
            d="m2311.41,990.26c-4.67,10.6-13.76,17.83-24.28,17.93-9.47.09-17.89-5.63-23.02-14.44-.79,1.4-1.65,2.73-2.59,3.97l25.79,43.74c-9.42.03-17.78-5.67-22.89-14.44-4.97,8.9-13.29,14.78-22.75,14.86-9.47.09-17.89-5.63-23.02-14.44-4.97,8.9-13.29,14.78-22.75,14.86-9.47.09-17.89-5.63-23.02-14.44-4.98,8.9-13.28,14.78-22.75,14.86-9.47.09-17.88-5.63-23.02-14.44-4.97,8.9-13.28,14.78-22.75,14.86-9.48.09-17.89-5.63-23.02-14.44-4.97,8.9-13.28,14.78-22.75,14.86-9.47.09-17.89-5.63-23.02-14.44-4.97,8.9-13.28,14.78-22.75,14.86-9.47.09-17.89-5.63-23.02-14.44-4.84,8.67-12.85,14.47-22.01,14.84l24.72-43.74c-1.1-1.35-2.12-2.81-3.02-4.36-4.97,8.9-13.28,14.78-22.75,14.86-10.52.1-19.75-6.96-24.61-17.48,1.44-3.27,3.3-6.22,5.5-8.73l59.63-105.52,15.99-28.3h0s8.99-15.91,8.99-15.91l63.94-113.15,10.36-18.34c7.8-13.81,27.62-13.99,35.68-.33l10.57,17.92,66.16,112.18,9.32,15.8,16.3,27.63,63.22,107.2c1.39,1.87,2.61,3.94,3.64,6.15Z" />
          <path
            class="g"
            d="m2314.75,973.59c.06,6.03-1.16,11.72-3.34,16.67-4.67,10.6-13.76,17.83-24.28,17.93-9.47.09-17.89-5.63-23.02-14.44-.79,1.4-1.65,2.73-2.59,3.97-5.04,6.64-12.18,10.82-20.16,10.89-9.47.09-17.89-5.63-23.02-14.44-4.97,8.9-13.29,14.78-22.75,14.86-9.47.09-17.89-5.63-23.02-14.44-4.97,8.9-13.28,14.78-22.75,14.86-9.47.09-17.88-5.63-23.02-14.44-4.97,8.9-13.28,14.78-22.75,14.86-9.48.09-17.89-5.63-23.02-14.44-1.43,2.57-3.15,4.89-5.09,6.89-1.16,1.2-2.4,2.28-3.72,3.22-4.08,2.98-8.84,4.7-13.94,4.75-9.47.09-17.89-5.63-23.02-14.44-4.97,8.9-13.28,14.78-22.75,14.86-7.8.07-14.88-3.79-20-10.08-1.1-1.35-2.12-2.81-3.02-4.36-4.97,8.9-13.28,14.78-22.75,14.86-10.52.1-19.75-6.96-24.61-17.48-2.27-4.9-3.59-10.56-3.65-16.6-.01-1.58.06-3.15.22-4.67.16-1.55.4-3.07.73-4.55.24-1.14.53-2.26.87-3.36h-.23s.52-.93.52-.93c1.53-4.55,3.84-8.59,6.72-11.9l14.98-26.51,2.33-4.13,20.93-37.03,21.39-37.85,6.6-11.68,13.53-23.93,4.86-8.6,10.02-17.74,2.37-4.19,32.66-57.8,11.95-21.14,2.36-4.18,4.57-8.09,10.36-18.34c7.8-13.81,27.62-13.99,35.68-.33l10.57,17.92,19.88,33.7,10.54,17.88h0l3.67,6.23,32.06,54.37,25.62,43.43,4.27,7.24,2.48,4.2,15.63,26.51,40.84,69.25c1.39,1.88,2.62,3.95,3.64,6.17l1.59,4.04c1.28,3.88,2.01,8.11,2.05,12.54Z" />
          <path
            class="f"
            d="m2293.01,834.04h0c-4.42,8.86-12.35,14.8-21.45,14.88-8.64.08-16.31-5.14-21-13.17-1.71,3.06-3.85,5.73-6.32,7.87l22.38,37.95c-6.45-1.6-12.04-6.19-15.75-12.55-1.71,3.06-3.85,5.73-6.32,7.87-4.08,3.53-9.04,5.63-14.43,5.68-8.64.08-16.31-5.14-21-13.17-3.62,6.48-9.19,11.2-15.68,12.88-1.63.43-3.33.66-5.07.67-8.64.08-16.31-5.14-21-13.17-4.54,8.11-12.11,13.47-20.75,13.55-8.64.08-16.31-5.14-21-13.17-4.54,8.11-12.11,13.47-20.75,13.55-8.64.08-16.31-5.14-21-13.17-4.54,8.11-12.11,13.47-20.75,13.55-1.55.01-3.07-.14-4.54-.46-6.75-1.43-12.61-6.13-16.45-12.71-4.54,8.11-12.11,13.47-20.75,13.55-5.22.05-10.09-1.84-14.15-5.11-2.67-2.14-5-4.88-6.85-8.06-3.47,6.2-8.71,10.79-14.85,12.65l21.39-37.85c-2.67-2.14-5-4.88-6.85-8.06-4.54,8.11-12.11,13.47-20.75,13.55-9.1.08-17.14-5.7-21.73-14.48,1.2-2.4,2.65-4.58,4.33-6.49l60.51-107.09h0s16.66-29.48,16.66-29.48l4.89-8.66,62.88-111.28c7.12-12.6,25.2-12.76,32.54-.3l65.53,111.11,4.46,7.55,17.1,28.99,63.93,108.39c.96,1.3,1.82,2.68,2.59,4.15Z" />
          <path
            class="g"
            d="m2296.76,817.37c.06,6.11-1.32,11.83-3.75,16.67h0c-4.42,8.86-12.35,14.8-21.45,14.88-4.24.04-8.24-1.19-11.77-3.41-1.32-.83-2.57-1.78-3.73-2.85-2.11-1.94-3.96-4.27-5.49-6.9-1.71,3.06-3.85,5.73-6.32,7.87-4.08,3.53-9.04,5.63-14.43,5.68-.53,0-1.04-.01-1.56-.05-7.99-.52-15.03-5.58-19.43-13.12-4.54,8.11-12.11,13.47-20.75,13.55-8.64.08-16.31-5.14-21-13.17-.1.18-.2.35-.31.53h0c-4.57,7.82-12,12.95-20.44,13.03-8.64.08-16.31-5.14-21-13.17-2.59,4.62-6.15,8.35-10.34,10.72-1.52.86-3.13,1.54-4.8,2.02-1.81.52-3.68.8-5.61.82-8.26.08-15.63-4.69-20.37-12.13-.22-.34-.43-.69-.63-1.04-4.54,8.11-12.11,13.47-20.75,13.55-8.64.08-16.31-5.14-21-13.17-4.16,7.43-10.86,12.55-18.59,13.42h0c-.71.08-1.42.13-2.15.13-5.22.05-10.09-1.84-14.15-5.11-2.67-2.14-5-4.88-6.85-8.06-4.54,8.11-12.11,13.47-20.75,13.55-9.1.08-17.14-5.7-21.73-14.48-2.51-4.79-3.99-10.48-4.05-16.6-.04-4.05.56-7.91,1.66-11.47h-.21s.48-.84.48-.84c1.4-4.15,3.5-7.84,6.13-10.85l43.51-77.01,17-30.08,14.93-26.42,1.73-3.06.67-1.19,22.52-39.86,3.6-6.38,33.35-59.03h0s7.61-13.48,7.61-13.48c.56-.99,1.19-1.9,1.87-2.74,8.02-9.8,23.9-9.04,30.67,2.44l10.97,18.6h0l3.36,5.7,55.65,94.36,17.1,28.99,18.1,30.7s0,0,0,0l23.59,40,1.14,1.93,21.09,35.76c.21.28.42.57.61.87.97,1.4,1.84,2.91,2.58,4.51.04.09.08.17.12.25l1.44,3.68c1.17,3.54,1.84,7.4,1.88,11.44Z" />
          <path
            class="f"
            d="m2274.52,677.84c-4.12,7.11-10.86,11.76-18.52,11.83-7.8.07-14.74-4.64-18.98-11.9-2.63,4.72-6.4,8.4-10.84,10.45l18.1,30.7c-2.73-2.02-5.1-4.7-6.95-7.88-2.63,4.72-6.4,8.4-10.84,10.45-2.46,1.14-5.12,1.77-7.91,1.8-7.8.07-14.74-4.64-18.98-11.9-4.1,7.34-10.94,12.18-18.74,12.25-3,.03-5.88-.65-8.52-1.92-4.22-2.02-7.85-5.52-10.45-9.98-2.28,4.09-5.43,7.41-9.11,9.55-2.92,1.7-6.18,2.67-9.63,2.7-7.8.07-14.74-4.64-18.98-11.9-4.1,7.34-10.95,12.18-18.75,12.25-3.28.03-6.41-.79-9.25-2.29-3.91-2.06-7.26-5.41-9.72-9.61-2.36,4.23-5.63,7.62-9.47,9.76-2.83,1.58-5.97,2.46-9.28,2.49-7.8.07-14.74-4.64-18.97-11.9-4.1,7.34-10.95,12.18-18.75,12.25-2.63.02-5.16-.49-7.53-1.47h0c-4.64-1.93-8.64-5.62-11.44-10.43-1.58,2.83-3.57,5.28-5.87,7.24l17-30.08c-4.64-1.93-8.64-5.62-11.44-10.43-4.1,7.34-10.95,12.18-18.75,12.25-7.65.07-14.48-4.46-18.73-11.49.89-1.55,1.9-2.98,3.03-4.27l69.73-123.4,61.24-108.37c6.43-11.38,22.76-11.53,29.4-.27l63.24,107.22,73.21,124.14c.51.69.99,1.41,1.44,2.17Z" />
          <path
            class="g"
            d="m2278.77,661.16c.06,6.21-1.52,11.99-4.25,16.68-4.12,7.11-10.86,11.76-18.52,11.83-7.8.07-14.74-4.64-18.98-11.9-2.63,4.72-6.4,8.4-10.84,10.45-2.46,1.14-5.12,1.77-7.91,1.8-4.95.05-9.55-1.83-13.34-5.07-.3-.25-.58-.51-.87-.78-.18-.17-.36-.35-.54-.53-1.6-1.6-3.02-3.45-4.22-5.52-4.1,7.34-10.94,12.18-18.74,12.25-7.8.07-14.74-4.64-18.98-11.9-2.28,4.09-5.43,7.41-9.11,9.55-2.92,1.7-6.18,2.67-9.63,2.7-7.8.07-14.74-4.64-18.98-11.9-4.1,7.34-10.95,12.18-18.75,12.25-3.28.03-6.41-.79-9.25-2.29-3.91-2.06-7.26-5.41-9.72-9.61-2.12,3.81-4.99,6.93-8.34,9.08-1.59,1.03-3.3,1.82-5.1,2.36-1.71.51-3.49.79-5.32.81-7.8.07-14.74-4.64-18.97-11.9-1.24,2.22-2.73,4.21-4.42,5.91-3.91,3.92-8.89,6.29-14.33,6.34-2.63.02-5.17-.49-7.53-1.47-4.64-1.93-8.64-5.62-11.44-10.43-4.1,7.34-10.95,12.18-18.75,12.25-7.65.07-14.48-4.46-18.73-11.49-1.35-2.22-2.44-4.7-3.21-7.36-.85-2.89-1.32-6-1.35-9.24-.03-3.65.51-7.15,1.5-10.37h-.19s.43-.76.43-.76c1.26-3.74,3.16-7.08,5.54-9.81l14.04-24.84,2.51-4.43,53.19-94.13,1.28-2.26,2.28-4.05,34.38-60.83,23.29-41.23c2.21-3.91,5.6-6.5,9.36-7.75,7.16-2.38,15.69.09,20.05,7.48l24.57,41.66,38.66,65.55,11.91,20.19.98,1.65,17.93,30.4,2.76,4.69,24.07,40.8,1.37,2.33,14.19,24.06c1.15,1.55,2.15,3.26,3,5.09l1.31,3.33c1.05,3.2,1.66,6.69,1.69,10.34Z" />
          <path
            class="k"
            d="m2160.89,452.71l-7.9-5.72-2.56,11.34-11.43-13.2-.99,1.55-7.54,11.83-12.1-13.2-9.19,13.39-7.08-5.05-7.66-5.46-10.83,4.35,23.29-41.23c2.21-3.91,5.6-6.5,9.36-7.75,7.16-2.38,15.69.09,20.05,7.48l24.57,41.66Z" />
          <path
            class="k"
            d="m2282.38,694c-21.28,1.53-29.31-3.72-44.58.41s-36.53,6.99-49.87,4.45c-13.33-2.54-19.31-1.15-32.59,1.63-13.28,2.78-29.31-3.72-23.38-9.77,3.22-3.28,5.67-4.2,7.25-4.36.94-.09,1.86-.24,2.78-.44,2.18-.48,4.31-1.24,6.34-2.18,6.82-3.14,16.5-8.6,19.36-15.3,4.56-10.69,9.77-23.38,19.14-17.48,9.37,5.9,8.9,26.54,20.16,21.11,11.26-5.43,26.55-6.9,33.23-4.97,6.67,1.93,12.12,15.19,18.04,7.82,5.92-7.37-.88-23.28,9.79-20.72,2.96.71,5.97,1.52,8.81,2.47,7.4,2.47,13.6,5.82,14.6,10.62,1.39,6.64,12.21,25.17-9.07,26.7Z" />
          <path
            class="k"
            d="m2249.18,816.2c-2.36,4.22-6.66-5.35-14.54-13.08-7.88-7.74-10.19,1.9-17.46-5.25-5.34-5.23-1.62-10.88.73-13.52.86-.96,1.54-1.52,1.54-1.52,2.97-3.63,10.81-.1,12.06,5.29,1.13,4.88,7.6,3.32,14.19,5.6.69.23,1.4.52,2.09.86,7.24,3.54,3.77,17.39,1.4,21.61Z" />
          <path
            class="k"
            d="m1999.05,781.13c-3.3,2.69-7.38-6.59-16.7-6.5-9.32.09-13.14,18.75-19.75,22.81-1.03.63-1.76.75-2.26.49-2.76-1.49,1.62-15.08,6.02-25.81,3.76-9.17,18.88-22.28,27.53-28.84,3.32-2.52,5.69-4.07,6.1-4.08,3.33-.03-1.2,14.65-3.15,19.33s1.4,7.31,6.08,9.93-.57,9.99-3.88,12.68Z" />
          <path
            class="k"
            d="m2291.97,1010.66c-31.95-1.04-30.1-16.36-44.67-8.9-14.57,7.45-8.44,22.7-18.32,34.11-9.88,11.4-25.88,7.56-17.37-7.16s27.61-36.19,13.04-29.4c-14.58,6.79-33.82,12.96-40.5,10.36s-3.39-7.29-3.39-7.29c8.77-7.66,17.55-13.72,26.19-17.34,5.02-2.1,9.98-3.38,14.87-3.67,13.3-.79,16.49-15.46,25.12-17.53,8.63-2.08,3.45,13.28,18.14,18.46,9.42,3.33,22.06-1.04,31.53-.75,5.29.16,9.59,1.77,11.78,7,6.12,14.58,15.52,23.15-16.43,22.11Z" />
          <path
            class="k"
            d="m2081.94,1181.62c-3.36-.45-6.45-1.09-9.33-1.85-8.07-2.11-14.47-5.07-20.6-6.93-6.83-2.07-13.31-2.77-21.38.61-17.9,7.48-39.19,7.68-53.85,5.82-14.66-1.86-27.89,6.25-37.26,1.01-9.36-5.24-16.68-5.83-15.42-12.5.2-1.04.34-2.1.42-3.14.31-3.86,1.52-7.52,3.44-10.7.09-.15.19-.3.29-.45,3.12-4.92,7.99-8.62,13.92-10.01,3.51-.81,7.21-.77,11,.74,11.35,4.55,24.73,11.75,32.67,7.02,7.94-4.73,11.91-7.43,29.91-3.61.97.21,1.86.43,2.69.67,14.68,4.13,9.77,12.28,28,7.7,14.69-3.69,21.62-8.47,25.87-8.47,1.32,0,2.38.46,3.34,1.55,1.26,1.44,4.62,5.46,7.94,10.21.69,1,1.39,2.03,2.06,3.07,6.38,9.91,10.8,21.2-3.71,19.26Z" />
          <path
            class="k"
            d="m2096.3,935.95c-17.95,2.16-39.14,13.01-53.8,11.14-14.66-1.86-17.32-1.84-20.01-5.14-2.01-2.46,2.44-4.34,4.84-5.14.82-.28,1.4-.43,1.4-.43,6.31-4.54,10.25-9.9,35.53-10.8,14.99-.53,29.77,2.45,35.58,5.41,4,2.03,3.76,4.06-3.55,4.94Z" />
          <path
            class="k"
            d="m2073.1,586.14c-19.92,4.18-42.48,11.71-51.2,4.47-8.72-7.24-14.64-.53-18.64-1.16-2.07-.33-.79-4.43.94-8.31,1.6-3.61,3.57-7.03,3.57-7.03,16.58-6.14,19.24-6.17,37.87-6.34,10.98-.1,25.46,4.85,31.44,9.78,4.17,3.44,4.2,6.88-3.99,8.59Z" />
          <path
            class="r"
            d="m2206.68,510.87c-4.93-2.75-10.78-3.32-16.15-1.56-5.34,1.75-8.12,2.9-7.62,6.61.71,5.32,18.58,12.92,20.97,9.68s8.96-11.29,4.28-13.91l-1.48-.83Z" />
          <path
            class="k"
            d="m2190.53,509.31c-2.6.85-4.59,1.56-5.9,2.5,2.86,5.17,18.32,11.46,20.53,8.46,1.12-1.52,3.15-4.09,4.52-6.67-.2-.77-.68-1.43-1.52-1.9l-1.48-.83c-4.93-2.75-10.78-3.32-16.15-1.56Z" />
          <path
            class="r"
            d="m2073.1,586.14c-19.92,4.18-42.48,11.71-51.2,4.47-8.72-7.24-14.64-.53-18.64-1.16-2.07-.33-.79-4.43.94-8.31,2.28,1.59,5.42,3.14,9.64,1.56,7.29-2.73,4.65-1.37,11.33,1.89s16.02,5.84,27.31,2.41c11.28-3.43,20.59-4.18,22.56-6.86.74-1.01,1.39-1.92,2.05-2.59,4.17,3.44,4.2,6.88-3.99,8.59Z" />
          <path
            class="r"
            d="m2282.38,694c-21.28,1.53-29.31-3.72-44.58.41s-36.53,6.99-49.87,4.45c-13.33-2.54-19.31-1.15-32.59,1.63-13.28,2.78-29.31-3.72-23.38-9.77,3.22-3.28,5.67-4.2,7.25-4.36.94-.09,1.86-.24,2.78-.44.07.66.45,1.35,1.26,2.04,4.69,3.95,25.99,4.42,31.27-.29s15.94-2.81,21.29-.86,24,5.1,29.29,1.06c5.29-4.04,9.93-6.08,19.27-2.84,9.35,3.24,30,6.38,36.6-.34,6.59-6.72,4.55-11.35,1.2-14.65s-7.36-4.59-6.09-11.26c.14-.75.41-1.45.78-2.12,7.4,2.47,13.6,5.82,14.6,10.62,1.39,6.64,12.21,25.17-9.07,26.7Z" />
          <path
            class="r"
            d="m1999.05,781.13c-3.3,2.69-7.38-6.59-16.7-6.5-9.32.09-13.14,18.75-19.75,22.81-1.03.63-1.76.75-2.26.49,1.52-1.49,3.46-3.55,4.82-5.5,2.57-3.68,6.56-17.03,9.85-20.39,3.3-3.36,7.96-2.74,11.96-2.11,4,.63,9.34,2.58,13.33,1.87,3.99-.7-2.7-4.63-8.05-7.25-5.35-2.61.59-8.66,1.87-13.99.52-2.15.27-4.85-.21-7.29,3.32-2.52,5.69-4.07,6.1-4.08,3.33-.03-1.2,14.65-3.15,19.33s1.4,7.31,6.08,9.93-.57,9.99-3.88,12.68Z" />
          <path
            class="r"
            d="m2249.18,816.2c-2.36,4.22-6.66-5.35-14.54-13.08-7.88-7.74-10.19,1.9-17.46-5.25-5.34-5.23-1.62-10.88.73-13.52.68,3.03,2.07,6.72,4.82,6.69,4.66-.04,9.99.57,14.71,7.18,4.72,6.61,5.42,10.6,8.06,8.58,2.64-2.02,3.27-6.02,1.92-8.67-.53-1.03-1.26-2.76-1.72-4.41.69.23,1.4.52,2.09.86,7.24,3.54,3.77,17.39,1.4,21.61Z" />
          <path
            class="r"
            d="m2291.97,1010.66c-31.95-1.04-30.1-16.36-44.67-8.9-14.57,7.45-8.44,22.7-18.32,34.11-9.88,11.4-25.88,7.56-17.37-7.16s27.61-36.19,13.04-29.4c-14.58,6.79-33.82,12.96-40.5,10.36s-3.39-7.29-3.39-7.29c8.77-7.66,17.55-13.72,26.19-17.34-9.42,6.01-24.12,16.07-14.24,14.57,13.95-2.13,23.25-4.87,31.22-5.61,7.98-.74,16.63-.82,9.42,11.23-7.21,12.04-17.71,28.11-12.4,26.73s11.12-20.73,15.07-25.43c3.95-4.69,9.89-9.41,14.55-10.12,4.65-.71,23.36,7.1,37.99,6.3,14.63-.8,23.21-8.87,17.19-12.14-3.35-1.83-7.13-5.7-9.14-9.03,5.29.16,9.59,1.77,11.78,7,6.12,14.58,15.52,23.15-16.43,22.11Z" />
          <path
            class="r"
            d="m2096.3,935.95c-17.95,2.16-39.14,13.01-53.8,11.14-14.66-1.86-17.32-1.84-20.01-5.14-2.01-2.46,2.44-4.34,4.84-5.14,5.11,3.02,12.18,6.26,16.44,4.27,7.29-3.39,11.96-2.11,27.91-4.25,15.95-2.14,23.92-4.21,25.91-4.9.48-.16,1.29-.52,2.25-.94,4,2.03,3.76,4.06-3.55,4.94Z" />
          <path
            class="r"
            d="m2081.94,1181.62c-3.36-.45-6.45-1.09-9.33-1.85-8.07-2.11-14.47-5.07-20.6-6.93-6.83-2.07-13.31-2.77-21.38.61-17.9,7.48-39.19,7.68-53.85,5.82-14.66-1.86-27.89,6.25-37.26,1.01-9.36-5.24-16.68-5.83-15.42-12.5.2-1.04.34-2.1.42-3.14.31-3.86,1.52-7.52,3.44-10.7.39.38.78.76,1.18,1.13,6.87,6.44,15.58,11.85,22.87,7.79,8.42-4.7,16-3.82,22.7-2.39,3.78.81,7.28,1.79,10.49,2.04.94.08,1.85.09,2.74.02,9.31-.75,16.57-6.81,23.91-4.21,2.16.76,5.93,2.37,10.4,4.08,7.34,2.83,16.56,5.96,23.6,6.15.1,0,.2.01.29,0,3.15.05,5.84-.51,7.71-1.97,3.87-3.04,7.52-1.74,10.84.54,2.88,1.97,5.52,4.68,7.85,5.92.94.51,1.83.77,2.67.66,5.32-.71,5.25-8.03,7.2-12.71.17-.41.4-.78.68-1.12.14-.21.32-.4.5-.58.69,1,1.39,2.03,2.06,3.07,6.38,9.91,10.8,21.2-3.71,19.26Z" />
          <path
            class="o"
            d="m351.4,1229.23h-.03c-.57,8.12-24.67,14.87-54.4,15.14-29.72.28-53.94-6.02-54.66-14.13h-.03l-.07-7.96-.52-55.42-.08-9.09-.07-6.73-.1-11.49-.13-14.02-.2-21.39-.32-34.26,109.13-1.01.62,66.77.86,93.59Z" />
          <path
            class="l"
            d="m351.4,1229.23h-.03c-.57,8.12-24.67,14.87-54.4,15.14-29.72.28-53.94-6.02-54.66-14.13h-.03l-.08-7.96h0c7.97,1.51,27.94,7.33,39.33,8.26,14.65,1.2,59.16-6.53,59.16-6.53,0,0,2.97-38.63-1.28-67.2-3.27,6.68-21.19,11.51-41.32-6.94-18.36,30.31-41.06,25.68-56.41,16.99l-.08-9.09c-8.07-2.11-14.47-5.07-20.6-6.93l-5.67-4.14-.2-.15-15.26-11.16-2.92-2.13-9.52-6.96,16.47-14.82,5-.99,4.92-.97,3.89-.77,5.47-1.07,17.92-3.54,69.75-13.77,4.91-.97.63-.12,5.47-1.08,28.17-5.56.49,52.99.87,93.6Z" />
          <path
            class="g"
            d="m501.74,1107.8c.19,20.63-13.27,37.48-30.06,37.64-10.3.1-19.45-6.13-25.05-15.71-5.41,9.68-14.44,16.07-24.75,16.17-10.3.1-19.45-6.13-25.05-15.71-5.41,9.68-14.44,16.07-24.74,16.17-10.31.1-19.46-6.13-25.05-15.71-5.41,9.68-14.45,16.07-24.75,16.17-10.3.1-19.46-6.13-25.05-15.71-5.41,9.68-14.45,16.07-24.75,16.17-10.3.1-19.45-6.13-25.05-15.71-5.41,9.68-14.44,16.07-24.75,16.17-10.3.1-19.45-6.13-25.04-15.71-5.41,9.68-14.45,16.07-24.75,16.17-10.31.1-19.46-6.13-25.05-15.71-5.41,9.68-14.45,16.07-24.75,16.17-16.79.16-30.56-16.45-30.75-37.07-.04-4.82.66-9.44,1.98-13.69h-.25s.58-1.01.58-1.01c1.66-4.94,4.18-9.35,7.31-12.94l34.78-61.56,24.72-43.74,7.46-13.2,14.38-25.45,10.7-18.94,33.55-59.38,25.61-45.33,4.33-7.66,2.34-4.13,15.01-26.56c1.26-2.24,2.82-4.15,4.58-5.73,2.55-2.29,5.53-3.89,8.69-4.79,9.26-2.65,19.98.72,25.55,10.16l22.07,37.43h0s26.68,45.24,26.68,45.24l3.44,5.84,14.51,24.59,2.86,4.85s0,0,0,0l4.81,8.17,9.09,15.42,33.34,56.54,25.79,43.74,23.91,40.54,2.94,4.99,10.65,18.06c1.52,2.04,2.85,4.29,3.96,6.72l1.73,4.39c1.39,4.22,2.19,8.82,2.24,13.65Z" />
          <path
            class="f"
            d="m480.41,968.26c-4.67,10.6-13.76,17.83-24.28,17.93-9.47.09-17.89-5.63-23.02-14.44-.79,1.4-1.65,2.73-2.59,3.97l25.79,43.74c-9.42.03-17.78-5.67-22.89-14.44-4.97,8.9-13.29,14.78-22.75,14.86-9.47.09-17.89-5.63-23.02-14.44-4.97,8.9-13.29,14.78-22.75,14.86-9.47.09-17.89-5.63-23.02-14.44-4.97,8.9-13.28,14.78-22.75,14.86-9.47.09-17.88-5.63-23.02-14.44-4.97,8.9-13.28,14.78-22.75,14.86-9.47.09-17.89-5.63-23.02-14.44-4.97,8.9-13.28,14.78-22.75,14.86-9.47.09-17.89-5.63-23.02-14.44-4.97,8.9-13.28,14.78-22.75,14.86-9.47.09-17.89-5.63-23.02-14.44-4.84,8.67-12.85,14.47-22.01,14.84l24.72-43.74c-1.1-1.35-2.12-2.81-3.02-4.36-4.97,8.9-13.28,14.78-22.75,14.86-10.52.1-19.75-6.96-24.61-17.48,1.44-3.27,3.3-6.22,5.5-8.73l59.63-105.52,15.99-28.3h0s8.99-15.91,8.99-15.91l63.94-113.15,10.36-18.34c7.8-13.81,27.62-13.99,35.68-.33l10.57,17.92,66.16,112.18,9.32,15.8,16.3,27.63,63.22,107.2c1.39,1.87,2.61,3.94,3.64,6.15Z" />
          <path
            class="g"
            d="m483.75,951.59c.06,6.03-1.16,11.72-3.34,16.67-4.67,10.6-13.76,17.83-24.28,17.93-9.47.09-17.89-5.63-23.02-14.44-.79,1.4-1.65,2.73-2.59,3.97-5.04,6.64-12.18,10.82-20.16,10.89-9.47.09-17.89-5.63-23.02-14.44-4.97,8.9-13.29,14.78-22.75,14.86-9.47.09-17.89-5.63-23.02-14.44-4.97,8.9-13.28,14.78-22.75,14.86-9.47.09-17.88-5.63-23.02-14.44-4.97,8.9-13.28,14.78-22.75,14.86-9.47.09-17.89-5.63-23.02-14.44-1.43,2.57-3.15,4.89-5.09,6.89-1.16,1.2-2.4,2.28-3.72,3.22-4.08,2.98-8.84,4.7-13.94,4.75-9.47.09-17.89-5.63-23.02-14.44-4.97,8.9-13.28,14.78-22.75,14.86-7.8.07-14.88-3.79-20-10.08-1.1-1.35-2.12-2.81-3.02-4.36-4.97,8.9-13.28,14.78-22.75,14.86-10.52.1-19.75-6.96-24.61-17.48-2.27-4.9-3.59-10.56-3.65-16.6-.01-1.58.06-3.15.22-4.67.16-1.55.4-3.07.73-4.55.24-1.14.53-2.26.87-3.36h-.23s.52-.93.52-.93c1.53-4.55,3.84-8.59,6.72-11.9l14.98-26.51,2.33-4.13,20.93-37.03,21.39-37.85,6.6-11.68,13.53-23.93,4.86-8.6,10.02-17.74,2.37-4.19,32.66-57.8,11.95-21.14,2.36-4.18,4.57-8.09,10.36-18.34c7.8-13.81,27.62-13.99,35.68-.33l10.57,17.92,19.88,33.7,10.54,17.88h0l3.67,6.23,32.06,54.37,25.62,43.43,4.27,7.24,2.48,4.2,15.63,26.51,40.84,69.25c1.39,1.88,2.62,3.95,3.64,6.17l1.59,4.04c1.28,3.88,2.01,8.11,2.05,12.54Z" />
          <path
            class="f"
            d="m462.01,812.04h0c-4.42,8.86-12.35,14.8-21.45,14.88-8.64.08-16.31-5.14-21-13.17-1.71,3.06-3.85,5.73-6.32,7.87l22.38,37.95c-6.45-1.6-12.04-6.19-15.75-12.55-1.71,3.06-3.85,5.73-6.32,7.87-4.08,3.53-9.04,5.63-14.43,5.68-8.64.08-16.31-5.14-21-13.17-3.62,6.48-9.19,11.2-15.68,12.88-1.63.43-3.33.66-5.07.67-8.64.08-16.31-5.14-21-13.17-4.54,8.11-12.11,13.47-20.75,13.55-8.64.08-16.31-5.14-21-13.17-4.54,8.11-12.11,13.47-20.75,13.55-8.64.08-16.31-5.14-21-13.17-4.54,8.11-12.11,13.47-20.75,13.55-1.55.01-3.07-.14-4.54-.46-6.75-1.43-12.61-6.13-16.45-12.71-4.54,8.11-12.11,13.47-20.75,13.55-5.22.05-10.09-1.84-14.15-5.11-2.67-2.14-5-4.88-6.85-8.06-3.47,6.2-8.71,10.79-14.85,12.65l21.39-37.85c-2.67-2.14-5-4.88-6.85-8.06-4.54,8.11-12.11,13.47-20.75,13.55-9.1.08-17.14-5.7-21.73-14.48,1.2-2.4,2.65-4.58,4.33-6.49l60.51-107.09h0s16.66-29.48,16.66-29.48l4.89-8.66,62.88-111.28c7.12-12.6,25.2-12.76,32.54-.3l65.53,111.11,4.46,7.55,17.1,28.99,63.93,108.39c.96,1.3,1.82,2.68,2.59,4.15Z" />
          <path
            class="g"
            d="m465.76,795.37c.06,6.11-1.32,11.83-3.75,16.67h0c-4.42,8.86-12.35,14.8-21.45,14.88-4.24.04-8.24-1.19-11.77-3.41-1.32-.83-2.56-1.78-3.73-2.85-2.11-1.94-3.96-4.27-5.49-6.9-1.71,3.06-3.85,5.73-6.32,7.87-4.08,3.53-9.04,5.63-14.43,5.68-.53,0-1.04-.01-1.56-.05-7.99-.52-15.03-5.58-19.43-13.12-4.54,8.11-12.11,13.47-20.75,13.55-8.64.08-16.31-5.14-21-13.17-.1.18-.2.35-.31.53h0c-4.57,7.82-12,12.95-20.44,13.03-8.64.08-16.31-5.14-21-13.17-2.59,4.62-6.15,8.35-10.34,10.72-1.52.86-3.13,1.54-4.8,2.02-1.81.52-3.68.8-5.61.82-8.26.08-15.63-4.69-20.37-12.13-.22-.34-.43-.69-.63-1.04-4.54,8.11-12.11,13.47-20.75,13.55-8.64.08-16.31-5.14-21-13.17-4.16,7.43-10.86,12.55-18.59,13.42h0c-.71.08-1.42.13-2.15.13-5.22.05-10.09-1.84-14.15-5.11-2.67-2.14-5-4.88-6.85-8.06-4.54,8.11-12.11,13.47-20.75,13.55-9.1.08-17.14-5.7-21.73-14.48-2.51-4.79-3.99-10.48-4.05-16.6-.04-4.05.56-7.91,1.66-11.47h-.21s.48-.84.48-.84c1.4-4.15,3.5-7.84,6.13-10.85l43.51-77.01,17-30.08,14.93-26.42,1.73-3.06.67-1.19,22.52-39.86,3.6-6.38,33.35-59.03h0s7.61-13.48,7.61-13.48c.56-.99,1.19-1.9,1.87-2.74,8.02-9.8,23.9-9.04,30.67,2.44l10.97,18.6h0l3.36,5.7,55.65,94.36,17.1,28.99,18.1,30.7s0,0,0,0l23.59,40,1.14,1.93,21.09,35.76c.21.28.42.57.61.87.97,1.4,1.84,2.91,2.58,4.51.04.09.08.17.12.25l1.44,3.68c1.17,3.54,1.84,7.4,1.88,11.44Z" />
          <path
            class="f"
            d="m443.52,655.84c-4.12,7.11-10.86,11.76-18.52,11.83-7.8.07-14.74-4.64-18.98-11.9-2.63,4.72-6.4,8.4-10.84,10.45l18.1,30.7c-2.73-2.02-5.1-4.7-6.95-7.88-2.63,4.72-6.4,8.4-10.84,10.45-2.46,1.14-5.12,1.77-7.91,1.8-7.8.07-14.74-4.64-18.98-11.9-4.1,7.34-10.94,12.18-18.74,12.25-3,.03-5.88-.65-8.52-1.92-4.22-2.02-7.85-5.52-10.45-9.98-2.28,4.09-5.43,7.41-9.11,9.55-2.92,1.7-6.18,2.67-9.63,2.7-7.8.07-14.74-4.64-18.98-11.9-4.1,7.34-10.95,12.18-18.75,12.25-3.28.03-6.41-.79-9.25-2.29-3.91-2.06-7.26-5.41-9.72-9.61-2.36,4.23-5.63,7.62-9.47,9.76-2.83,1.58-5.97,2.46-9.28,2.49-7.8.07-14.74-4.64-18.97-11.9-4.1,7.34-10.95,12.18-18.75,12.25-2.63.02-5.16-.49-7.53-1.47h0c-4.64-1.93-8.64-5.62-11.44-10.43-1.58,2.83-3.57,5.28-5.87,7.24l17-30.08c-4.64-1.93-8.64-5.62-11.44-10.43-4.1,7.34-10.95,12.18-18.75,12.25-7.65.07-14.48-4.46-18.73-11.49.89-1.55,1.9-2.98,3.03-4.27l69.73-123.4,61.23-108.37c6.43-11.38,22.76-11.53,29.4-.27l63.24,107.22,73.21,124.14c.51.69.99,1.41,1.44,2.17Z" />
          <path
            class="g"
            d="m447.77,639.16c.06,6.21-1.52,11.99-4.25,16.68-4.12,7.11-10.86,11.76-18.52,11.83-7.8.07-14.74-4.64-18.98-11.9-2.63,4.72-6.4,8.4-10.84,10.45-2.46,1.14-5.12,1.77-7.91,1.8-4.95.05-9.55-1.83-13.34-5.07-.3-.25-.58-.51-.87-.78-.18-.17-.36-.35-.54-.53-1.6-1.6-3.02-3.45-4.22-5.52-4.1,7.34-10.94,12.18-18.74,12.25-7.8.07-14.74-4.64-18.98-11.9-2.28,4.09-5.43,7.41-9.11,9.55-2.92,1.7-6.18,2.67-9.63,2.7-7.8.07-14.74-4.64-18.98-11.9-4.1,7.34-10.95,12.18-18.75,12.25-3.28.03-6.41-.79-9.25-2.29-3.91-2.06-7.26-5.41-9.72-9.61-2.12,3.81-4.99,6.93-8.34,9.08-1.59,1.03-3.3,1.82-5.1,2.36-1.71.51-3.49.79-5.32.81-7.8.07-14.74-4.64-18.97-11.9-1.24,2.22-2.73,4.21-4.42,5.91-3.91,3.92-8.89,6.29-14.33,6.34-2.63.02-5.17-.49-7.53-1.47-4.64-1.93-8.64-5.62-11.44-10.43-4.1,7.34-10.95,12.18-18.75,12.25-7.65.07-14.48-4.46-18.73-11.49-1.35-2.22-2.44-4.7-3.21-7.36-.85-2.89-1.32-6-1.35-9.24-.03-3.65.51-7.15,1.5-10.37h-.19s.43-.76.43-.76c1.26-3.74,3.16-7.08,5.54-9.81l14.04-24.84,2.51-4.43,53.19-94.13,1.28-2.26,2.28-4.05,34.38-60.83,23.29-41.23c2.21-3.91,5.6-6.5,9.36-7.75,7.16-2.38,15.69.09,20.05,7.48l24.57,41.66,38.66,65.55,11.91,20.19.98,1.65,17.93,30.4,2.76,4.69,24.07,40.8,1.37,2.33,14.19,24.06c1.15,1.55,2.15,3.26,3,5.09l1.31,3.33c1.05,3.2,1.66,6.69,1.69,10.34Z" />
          <path
            class="k"
            d="m329.89,430.71l-7.9-5.72-2.56,11.34-11.43-13.2-.99,1.55-7.54,11.83-12.1-13.2-9.19,13.39-7.08-5.05-7.66-5.46-10.83,4.35,23.29-41.23c2.21-3.91,5.6-6.5,9.36-7.75,7.16-2.38,15.69.09,20.05,7.48l24.57,41.66Z" />
          <path
            class="k"
            d="m451.38,672c-21.28,1.53-29.31-3.72-44.58.41-15.27,4.13-36.53,6.99-49.87,4.45-13.33-2.54-19.31-1.15-32.59,1.63-13.28,2.78-29.31-3.72-23.38-9.77,3.22-3.28,5.67-4.2,7.25-4.36.94-.09,1.86-.24,2.78-.44,2.18-.48,4.31-1.24,6.34-2.18,6.82-3.14,16.5-8.6,19.36-15.3,4.56-10.69,9.77-23.38,19.14-17.48s8.9,26.54,20.16,21.11c11.26-5.43,26.55-6.9,33.23-4.97,6.67,1.93,12.12,15.19,18.04,7.82s-.88-23.28,9.79-20.72c2.96.71,5.97,1.52,8.81,2.47,7.4,2.47,13.6,5.82,14.6,10.62,1.39,6.64,12.21,25.17-9.07,26.7Z" />
          <path
            class="k"
            d="m168.05,759.13c-3.3,2.69-7.38-6.59-16.7-6.5-9.32.09-13.13,18.75-19.75,22.81-1.03.63-1.76.75-2.26.49-2.76-1.49,1.62-15.08,6.02-25.81,3.76-9.17,18.88-22.28,27.53-28.84,3.32-2.52,5.69-4.07,6.1-4.08,3.33-.03-1.2,14.65-3.15,19.33s1.4,7.31,6.08,9.93-.57,9.99-3.88,12.68Z" />
          <path
            class="k"
            d="m460.97,988.66c-31.95-1.04-30.1-16.36-44.67-8.9-14.57,7.45-8.44,22.7-18.32,34.11-9.88,11.4-25.88,7.56-17.37-7.16,8.51-14.72,27.61-36.19,13.04-29.4-14.58,6.79-33.82,12.96-40.5,10.36-6.68-2.6-3.39-7.29-3.39-7.29,8.77-7.66,17.55-13.72,26.19-17.34,5.02-2.1,9.98-3.38,14.87-3.67,13.3-.79,16.49-15.46,25.12-17.53,8.63-2.08,3.45,13.28,18.14,18.46,9.42,3.33,22.06-1.04,31.53-.75,5.29.16,9.59,1.77,11.78,7,6.12,14.58,15.52,23.15-16.43,22.11Z" />
          <path
            class="k"
            d="m250.94,1159.62c-3.36-.45-6.45-1.09-9.33-1.85-8.07-2.11-14.47-5.07-20.6-6.93-6.83-2.07-13.31-2.77-21.38.61-17.9,7.48-39.19,7.68-53.85,5.82-14.66-1.86-27.89,6.25-37.26,1.01-9.36-5.24-16.68-5.83-15.42-12.5.2-1.04.34-2.1.42-3.14.31-3.86,1.52-7.52,3.44-10.7.09-.15.19-.3.29-.45,3.12-4.92,7.99-8.62,13.92-10.01,3.51-.81,7.21-.77,11,.74,11.35,4.55,24.73,11.75,32.67,7.02s11.91-7.43,29.91-3.61c.97.21,1.86.43,2.69.67,14.68,4.13,9.77,12.28,28,7.7,14.69-3.69,21.62-8.47,25.87-8.47,1.32,0,2.38.46,3.34,1.55,1.26,1.44,4.62,5.46,7.94,10.21.69,1,1.39,2.03,2.06,3.07,6.38,9.91,10.8,21.2-3.71,19.26Z" />
          <path
            class="k"
            d="m265.3,913.95c-17.95,2.16-39.14,13.01-53.8,11.14-14.66-1.86-17.32-1.84-20.01-5.14-2.01-2.46,2.44-4.34,4.84-5.14.82-.28,1.4-.43,1.4-.43,6.31-4.54,10.25-9.9,35.53-10.8,14.99-.53,29.77,2.45,35.58,5.41,4,2.03,3.76,4.06-3.55,4.94Z" />
          <path
            class="k"
            d="m242.1,564.14c-19.92,4.18-42.48,11.71-51.2,4.47-8.72-7.24-14.64-.53-18.64-1.16-2.07-.33-.79-4.43.94-8.31,1.6-3.61,3.57-7.03,3.57-7.03,16.58-6.14,19.24-6.17,37.87-6.34,10.98-.1,25.46,4.85,31.44,9.78,4.17,3.44,4.2,6.88-3.99,8.59Z" />
          <path
            class="r"
            d="m375.68,488.87c-4.93-2.75-10.78-3.32-16.15-1.56-5.34,1.75-8.12,2.9-7.62,6.61.71,5.32,18.58,12.92,20.97,9.68s8.96-11.29,4.28-13.91l-1.48-.83Z" />
          <path
            class="k"
            d="m359.53,487.31c-2.6.85-4.59,1.56-5.9,2.5,2.86,5.17,18.32,11.46,20.53,8.46,1.12-1.52,3.15-4.09,4.52-6.67-.2-.77-.68-1.43-1.52-1.9l-1.48-.83c-4.93-2.75-10.78-3.32-16.15-1.56Z" />
          <path
            class="r"
            d="m242.1,564.14c-19.92,4.18-42.48,11.71-51.2,4.47-8.72-7.24-14.64-.53-18.64-1.16-2.07-.33-.79-4.43.94-8.31,2.28,1.59,5.42,3.14,9.64,1.56,7.29-2.73,4.65-1.37,11.33,1.89s16.02,5.84,27.31,2.41c11.28-3.43,20.59-4.18,22.56-6.86.74-1.01,1.39-1.92,2.05-2.59,4.17,3.44,4.2,6.88-3.99,8.59Z" />
          <path
            class="r"
            d="m451.38,672c-21.28,1.53-29.31-3.72-44.58.41-15.27,4.13-36.53,6.99-49.87,4.45-13.33-2.54-19.31-1.15-32.59,1.63-13.28,2.78-29.31-3.72-23.38-9.77,3.22-3.28,5.67-4.2,7.25-4.36.94-.09,1.86-.24,2.78-.44.07.66.45,1.35,1.26,2.04,4.69,3.95,25.99,4.42,31.27-.29s15.94-2.81,21.29-.86,24,5.1,29.29,1.06c5.29-4.04,9.93-6.08,19.27-2.84,9.35,3.24,30,6.38,36.6-.34,6.59-6.72,4.55-11.35,1.2-14.65s-7.36-4.59-6.09-11.26c.14-.75.41-1.45.78-2.12,7.4,2.47,13.6,5.82,14.6,10.62,1.39,6.64,12.21,25.17-9.07,26.7Z" />
          <path
            class="r"
            d="m168.05,759.13c-3.3,2.69-7.38-6.59-16.7-6.5-9.32.09-13.13,18.75-19.75,22.81-1.03.63-1.76.75-2.26.49,1.52-1.49,3.46-3.55,4.82-5.5,2.57-3.68,6.56-17.03,9.85-20.39,3.3-3.36,7.96-2.74,11.96-2.11,4,.63,9.34,2.58,13.33,1.87,3.99-.7-2.7-4.63-8.05-7.25-5.35-2.61.59-8.66,1.87-13.99.52-2.15.27-4.85-.21-7.29,3.32-2.52,5.69-4.07,6.1-4.08,3.33-.03-1.2,14.65-3.15,19.33s1.4,7.31,6.08,9.93-.57,9.99-3.88,12.68Z" />
          <path
            class="r"
            d="m460.97,988.66c-31.95-1.04-30.1-16.36-44.67-8.9-14.57,7.45-8.44,22.7-18.32,34.11-9.88,11.4-25.88,7.56-17.37-7.16,8.51-14.72,27.61-36.19,13.04-29.4-14.58,6.79-33.82,12.96-40.5,10.36-6.68-2.6-3.39-7.29-3.39-7.29,8.77-7.66,17.55-13.72,26.19-17.34-9.42,6.01-24.12,16.07-14.24,14.57,13.95-2.13,23.25-4.87,31.22-5.61,7.98-.74,16.63-.82,9.42,11.23-7.21,12.04-17.71,28.11-12.4,26.73s11.12-20.73,15.07-25.43c3.95-4.69,9.89-9.41,14.55-10.12,4.65-.71,23.36,7.1,37.99,6.3,14.63-.8,23.21-8.87,17.19-12.14-3.35-1.83-7.13-5.7-9.14-9.03,5.29.16,9.59,1.77,11.78,7,6.12,14.58,15.52,23.15-16.43,22.11Z" />
          <path
            class="r"
            d="m265.3,913.95c-17.95,2.16-39.14,13.01-53.8,11.14-14.66-1.86-17.32-1.84-20.01-5.14-2.01-2.46,2.44-4.34,4.84-5.14,5.11,3.02,12.18,6.26,16.44,4.27,7.29-3.39,11.96-2.11,27.91-4.25,15.95-2.14,23.92-4.21,25.91-4.9.48-.16,1.29-.52,2.25-.94,4,2.03,3.76,4.06-3.55,4.94Z" />
          <path
            class="r"
            d="m250.94,1159.62c-3.36-.45-6.45-1.09-9.33-1.85-8.07-2.11-14.47-5.07-20.6-6.93-6.83-2.07-13.31-2.77-21.38.61-17.9,7.48-39.19,7.68-53.85,5.82-14.66-1.86-27.89,6.25-37.26,1.01-9.36-5.24-16.68-5.83-15.42-12.5.2-1.04.34-2.1.42-3.14.31-3.86,1.52-7.52,3.44-10.7.39.38.78.76,1.18,1.13,6.87,6.44,15.58,11.85,22.87,7.79,8.42-4.7,16-3.82,22.7-2.39,3.78.81,7.28,1.79,10.49,2.04.94.08,1.85.09,2.74.02,9.31-.75,16.57-6.81,23.91-4.21,2.16.76,5.93,2.37,10.4,4.08,7.34,2.83,16.56,5.96,23.6,6.15.1,0,.2.01.29,0,3.15.05,5.84-.51,7.71-1.97,3.87-3.04,7.52-1.74,10.84.54,2.88,1.97,5.52,4.68,7.85,5.92.94.51,1.83.77,2.67.66,5.32-.71,5.25-8.03,7.2-12.71.17-.41.4-.78.68-1.12.14-.21.32-.4.5-.58.69,1,1.39,2.03,2.06,3.07,6.38,9.91,10.8,21.2-3.71,19.26Z" />
          <path
            class="o"
            d="m1743.68,1078.18l-.23,25.07-.14,15.65-.1,10.27-.08,8.41-.04,4.92-.06,6.65-.38,40.56-.05,5.83h-.03c-.52,5.93-18.24,10.54-40,10.34-21.76-.2-39.39-5.14-39.81-11.08h-.02l.63-68.49.36-38.8.09-10.07,79.86.74Z" />
          <path
            class="l"
            d="m1782.73,1119.46h-.01s-6.96,5.1-6.96,5.1l-2.14,1.56-11.16,8.16-.16.12-4.12,3.02c-4.49,1.36-9.18,3.53-15.09,5.08l-.06,6.65c-11.23,6.36-27.85,9.75-41.28-12.43-14.74,13.5-27.85,9.97-30.24,5.07-3.12,20.92-.95,49.18-.95,49.18,0,0,32.58,5.66,43.3,4.79,8.34-.68,22.97-4.95,28.79-6.05l-.05,5.83h-.03c-.52,5.93-18.24,10.54-40,10.34-21.76-.2-39.39-5.14-39.81-11.08h-.02l.63-68.49.36-38.8,20.61,4.07,4.01.79.47.09,3.59.71,51.04,10.08,13.12,2.59,4,.79,2.85.56,3.6.71,3.65.72,12.06,10.84Z" />
          <path
            class="g"
            d="m1552.71,1105.93c-.14,15.1,9.71,27.43,22,27.54,7.54.07,14.24-4.48,18.33-11.49,3.96,7.08,10.57,11.76,18.11,11.83,7.54.07,14.24-4.48,18.33-11.49,3.96,7.08,10.57,11.76,18.11,11.83,7.54.07,14.24-4.48,18.33-11.49,3.96,7.08,10.58,11.76,18.11,11.83,7.54.07,14.24-4.48,18.33-11.49,3.96,7.08,10.58,11.76,18.11,11.83,7.54.07,14.24-4.48,18.33-11.49,3.96,7.08,10.57,11.76,18.11,11.83,7.54.07,14.24-4.48,18.32-11.49,3.96,7.08,10.58,11.76,18.11,11.83,7.54.07,14.24-4.48,18.33-11.49,3.96,7.08,10.58,11.76,18.11,11.83,12.29.11,22.36-12.04,22.5-27.13.03-3.53-.49-6.91-1.45-10.02h.19s-.42-.74-.42-.74c-1.22-3.62-3.06-6.84-5.35-9.47l-25.46-45.05-18.09-32.01-5.46-9.66-10.52-18.62-7.83-13.86-24.56-43.46-18.74-33.17-3.17-5.61-1.71-3.03-10.98-19.44c-.92-1.64-2.06-3.03-3.35-4.19-1.87-1.68-4.05-2.85-6.36-3.51-6.78-1.94-14.62.53-18.7,7.43l-16.15,27.39h0s-19.53,33.11-19.53,33.11l-2.52,4.27-10.62,18-2.09,3.55s0,0,0,0l-3.52,5.98-6.65,11.29-24.4,41.38-18.88,32.01-17.5,29.67-2.15,3.65-7.8,13.22c-1.11,1.49-2.08,3.14-2.9,4.92l-1.27,3.21c-1.02,3.09-1.6,6.46-1.64,9.99Z" />
          <path
            class="f"
            d="m1568.32,1003.8c3.42,7.76,10.07,13.05,17.77,13.12,6.93.06,13.09-4.12,16.85-10.57.57,1.03,1.21,2,1.9,2.91l-18.88,32.01c6.89.02,13.01-4.15,16.75-10.57,3.64,6.52,9.72,10.81,16.65,10.88,6.93.06,13.09-4.12,16.85-10.57,3.64,6.52,9.72,10.81,16.65,10.88,6.93.06,13.09-4.12,16.85-10.57,3.64,6.52,9.72,10.81,16.65,10.88,6.93.06,13.08-4.12,16.85-10.57,3.64,6.52,9.72,10.81,16.65,10.88,6.93.06,13.09-4.12,16.85-10.57,3.64,6.52,9.72,10.81,16.65,10.88,6.93.06,13.09-4.12,16.85-10.57,3.64,6.52,9.72,10.81,16.65,10.88s13.09-4.12,16.85-10.57c3.54,6.34,9.4,10.59,16.11,10.86l-18.09-32.01c.81-.99,1.55-2.06,2.21-3.19,3.64,6.52,9.72,10.81,16.65,10.88,7.7.07,14.45-5.1,18.01-12.79-1.05-2.39-2.42-4.55-4.02-6.39l-43.64-77.23-11.7-20.71h0s-6.58-11.65-6.58-11.65l-46.79-82.81-7.58-13.42c-5.71-10.1-20.21-10.24-26.11-.24l-7.73,13.11-48.42,82.1-6.82,11.56-11.93,20.22-46.27,78.46c-1.02,1.37-1.91,2.88-2.66,4.5Z" />
          <path
            class="g"
            d="m1565.88,991.61c-.04,4.42.85,8.58,2.44,12.2,3.42,7.76,10.07,13.05,17.77,13.12,6.93.06,13.09-4.12,16.85-10.57.57,1.03,1.21,2,1.9,2.91,3.69,4.86,8.92,7.92,14.76,7.97,6.93.06,13.09-4.12,16.85-10.57,3.64,6.52,9.72,10.81,16.65,10.88,6.93.06,13.09-4.12,16.85-10.57,3.64,6.52,9.72,10.81,16.65,10.88,6.93.06,13.08-4.12,16.85-10.57,3.64,6.52,9.72,10.81,16.65,10.88,6.93.06,13.09-4.12,16.85-10.57,1.05,1.88,2.3,3.58,3.73,5.05.85.87,1.76,1.67,2.72,2.36,2.98,2.18,6.47,3.44,10.2,3.47,6.93.06,13.09-4.12,16.85-10.57,3.64,6.52,9.72,10.81,16.65,10.88,5.71.05,10.89-2.77,14.64-7.37.81-.99,1.55-2.06,2.21-3.19,3.64,6.52,9.72,10.81,16.65,10.88,7.7.07,14.45-5.1,18.01-12.79,1.66-3.59,2.63-7.73,2.67-12.15.01-1.16-.04-2.3-.16-3.42-.12-1.14-.3-2.25-.53-3.33-.18-.83-.39-1.65-.64-2.46h.17s-.38-.68-.38-.68c-1.12-3.33-2.81-6.29-4.92-8.71l-10.96-19.4-1.71-3.02-15.32-27.1-15.65-27.7-4.83-8.55-9.9-17.52-3.56-6.29-7.34-12.98-1.73-3.07-23.9-42.3-8.74-15.47-1.73-3.06-3.34-5.92-7.58-13.42c-5.71-10.1-20.21-10.24-26.11-.24l-7.73,13.11-14.55,24.66-7.71,13.08h0s-2.69,4.56-2.69,4.56l-23.47,39.79-18.75,31.78-3.12,5.3-1.82,3.08-11.44,19.4-29.89,50.68c-1.02,1.37-1.92,2.89-2.67,4.52l-1.16,2.95c-.94,2.84-1.47,5.93-1.5,9.18Z" />
          <path
            class="f"
            d="m1581.79,889.48h0c3.24,6.49,9.04,10.83,15.7,10.89,6.32.06,11.94-3.76,15.37-9.64,1.25,2.24,2.82,4.19,4.63,5.76l-16.38,27.77c4.72-1.17,8.81-4.53,11.52-9.19,1.25,2.24,2.82,4.19,4.63,5.76,2.99,2.58,6.62,4.12,10.56,4.16,6.32.06,11.94-3.76,15.37-9.64,2.65,4.74,6.72,8.2,11.47,9.43,1.2.31,2.44.48,3.71.49,6.32.06,11.94-3.76,15.37-9.64,3.32,5.94,8.86,9.86,15.19,9.92,6.32.06,11.94-3.76,15.37-9.64,3.32,5.94,8.86,9.86,15.19,9.92,6.32.06,11.94-3.76,15.37-9.64,3.32,5.94,8.86,9.86,15.19,9.92,1.13.01,2.25-.11,3.32-.33,4.94-1.05,9.23-4.48,12.04-9.3,3.32,5.94,8.86,9.86,15.19,9.92,3.82.04,7.38-1.34,10.35-3.74,1.96-1.56,3.66-3.57,5.01-5.9,2.54,4.54,6.37,7.9,10.87,9.26l-15.65-27.7c1.96-1.56,3.66-3.57,5.01-5.9,3.32,5.94,8.86,9.86,15.19,9.92,6.66.06,12.54-4.17,15.9-10.6-.88-1.76-1.94-3.35-3.17-4.75l-44.28-78.37h0s-12.19-21.57-12.19-21.57l-3.58-6.33-46.02-81.44c-5.21-9.22-18.44-9.34-23.81-.22l-47.96,81.31-3.26,5.53-12.51,21.21-46.78,79.33c-.7.95-1.33,1.96-1.89,3.04Z" />
          <path
            class="g"
            d="m1579.04,877.28c-.04,4.48.97,8.66,2.74,12.2h0c3.24,6.49,9.04,10.83,15.7,10.89,3.1.03,6.03-.87,8.61-2.5.96-.6,1.88-1.3,2.73-2.09,1.54-1.42,2.9-3.12,4.02-5.05,1.25,2.24,2.82,4.19,4.63,5.76,2.99,2.58,6.62,4.12,10.56,4.16.38,0,.76,0,1.14-.03,5.85-.38,11-4.09,14.22-9.6,3.32,5.94,8.86,9.86,15.19,9.92s11.94-3.76,15.37-9.64c.07.13.15.26.23.39h0c3.34,5.72,8.78,9.48,14.96,9.53,6.32.06,11.94-3.76,15.37-9.64,1.89,3.38,4.5,6.11,7.57,7.84,1.11.63,2.29,1.13,3.51,1.48,1.32.38,2.69.59,4.1.6,6.04.06,11.44-3.43,14.91-8.88.16-.25.31-.5.46-.76,3.32,5.94,8.86,9.86,15.19,9.92,6.32.06,11.94-3.76,15.37-9.64,3.04,5.44,7.95,9.19,13.61,9.82h0c.52.06,1.04.09,1.57.1,3.82.04,7.38-1.34,10.35-3.74,1.96-1.56,3.66-3.57,5.01-5.9,3.32,5.94,8.86,9.86,15.19,9.92,6.66.06,12.54-4.17,15.9-10.6,1.84-3.51,2.92-7.67,2.96-12.15.03-2.96-.41-5.79-1.22-8.4h.16s-.35-.62-.35-.62c-1.02-3.03-2.56-5.74-4.49-7.94l-31.84-56.36-12.44-22.02-10.92-19.33-1.27-2.24-.49-.87-16.48-29.17-2.64-4.67-24.41-43.2h0s-5.57-9.86-5.57-9.86c-.41-.72-.87-1.39-1.37-2-5.87-7.17-17.49-6.62-22.44,1.78l-8.02,13.61h0s-2.46,4.17-2.46,4.17l-40.73,69.06-12.51,21.21-13.24,22.46s0,0,0,0l-17.27,29.27-.83,1.41-15.44,26.17c-.15.21-.31.42-.45.64-.71,1.03-1.34,2.13-1.89,3.3-.03.06-.06.12-.09.18l-1.06,2.69c-.86,2.59-1.35,5.41-1.37,8.37Z" />
          <path
            class="f"
            d="m1595.32,775.16c3.02,5.2,7.95,8.61,13.55,8.66,5.71.05,10.79-3.4,13.89-8.71,1.93,3.46,4.69,6.15,7.93,7.65l-13.24,22.46c2-1.48,3.73-3.44,5.09-5.77,1.93,3.46,4.69,6.15,7.93,7.65,1.8.83,3.75,1.3,5.79,1.31,5.71.05,10.79-3.4,13.89-8.71,3,5.37,8.01,8.91,13.72,8.97,2.2.02,4.3-.48,6.24-1.4,3.09-1.48,5.74-4.04,7.65-7.31,1.67,3,3.97,5.42,6.67,6.99,2.14,1.25,4.53,1.95,7.05,1.97,5.71.05,10.79-3.4,13.89-8.71,3,5.37,8.01,8.91,13.72,8.97,2.4.02,4.69-.58,6.77-1.68,2.86-1.51,5.32-3.96,7.11-7.03,1.72,3.09,4.12,5.58,6.93,7.14,2.07,1.15,4.37,1.8,6.79,1.83,5.71.05,10.78-3.4,13.88-8.71,3,5.37,8.01,8.91,13.72,8.97,1.93.02,3.78-.36,5.51-1.08h0c3.4-1.41,6.32-4.11,8.37-7.63,1.15,2.07,2.61,3.87,4.29,5.3l-12.44-22.02c3.4-1.41,6.32-4.11,8.37-7.63,3,5.37,8.01,8.91,13.72,8.97,5.6.05,10.6-3.26,13.71-8.41-.65-1.14-1.39-2.18-2.22-3.12l-51.03-90.31-44.81-79.31c-4.71-8.33-16.66-8.44-21.52-.2l-46.28,78.47-53.58,90.85c-.37.51-.73,1.04-1.06,1.59Z" />
          <path
            class="g"
            d="m1592.21,762.96c-.04,4.55,1.11,8.77,3.11,12.21,3.02,5.2,7.95,8.61,13.55,8.66,5.71.05,10.79-3.4,13.89-8.71,1.93,3.46,4.69,6.15,7.93,7.65,1.8.83,3.75,1.3,5.79,1.31,3.62.03,6.99-1.34,9.76-3.71.22-.18.43-.38.64-.57.13-.13.27-.26.4-.39,1.17-1.17,2.21-2.53,3.09-4.04,3,5.37,8.01,8.91,13.72,8.97s10.79-3.4,13.89-8.71c1.67,3,3.97,5.42,6.67,6.99,2.14,1.25,4.53,1.95,7.05,1.97,5.71.05,10.79-3.4,13.89-8.71,3,5.37,8.01,8.91,13.72,8.97,2.4.02,4.69-.58,6.77-1.68,2.86-1.51,5.32-3.96,7.11-7.03,1.55,2.79,3.65,5.07,6.1,6.65,1.17.75,2.42,1.33,3.73,1.73,1.25.38,2.55.58,3.89.59,5.71.05,10.78-3.4,13.88-8.71.91,1.63,2,3.08,3.24,4.33,2.86,2.87,6.5,4.6,10.49,4.64,1.93.02,3.78-.36,5.51-1.08,3.4-1.41,6.32-4.11,8.37-7.63,3,5.37,8.01,8.91,13.72,8.97,5.6.05,10.6-3.26,13.71-8.41.99-1.63,1.79-3.44,2.35-5.39.62-2.12.97-4.39.99-6.76.02-2.67-.37-5.23-1.1-7.59h.14s-.32-.56-.32-.56c-.92-2.74-2.31-5.18-4.05-7.18l-10.27-18.18-1.84-3.24-38.93-68.89-.93-1.65-1.67-2.96-25.16-44.52-17.05-30.17c-1.62-2.86-4.1-4.76-6.85-5.67-5.24-1.74-11.48.07-14.67,5.47l-17.98,30.49-28.3,47.98-8.71,14.78-.72,1.21-13.12,22.25-2.02,3.43-17.61,29.86-1,1.7-10.39,17.61c-.84,1.14-1.58,2.39-2.2,3.72l-.96,2.44c-.77,2.34-1.21,4.89-1.24,7.57Z" />
          <path
            class="k"
            d="m1678.48,610.4l5.78-4.19,1.87,8.3,8.37-9.66.72,1.14,5.52,8.66,8.86-9.66,6.73,9.8,5.18-3.7,5.6-3.99,7.92,3.19-17.05-30.17c-1.62-2.86-4.1-4.76-6.85-5.67-5.24-1.74-11.48.07-14.67,5.47l-17.98,30.49Z" />
          <path
            class="k"
            d="m1589.57,786.99c15.57,1.12,21.45-2.72,32.63.3,11.17,3.03,26.74,5.12,36.49,3.26,9.76-1.86,14.13-.84,23.85,1.19,9.72,2.04,21.45-2.72,17.11-7.15-2.35-2.4-4.15-3.07-5.3-3.19-.69-.06-1.36-.18-2.03-.33-1.6-.35-3.15-.91-4.64-1.6-4.99-2.3-12.08-6.29-14.17-11.2-3.34-7.82-7.15-17.11-14-12.79-6.86,4.32-6.51,19.42-14.75,15.45-8.24-3.97-19.43-5.05-24.32-3.63-4.88,1.42-8.87,11.12-13.2,5.72-4.33-5.4.64-17.04-7.16-15.16-2.17.52-4.37,1.11-6.45,1.81-5.41,1.81-9.95,4.26-10.69,7.78-1.02,4.86-8.94,18.42,6.64,19.54Z" />
          <path
            class="k"
            d="m1613.86,876.42c1.73,3.09,4.87-3.91,10.64-9.57,5.76-5.66,7.46,1.39,12.78-3.84,3.91-3.83,1.19-7.96-.53-9.89-.63-.7-1.12-1.11-1.12-1.11-2.17-2.66-7.91-.07-8.83,3.87-.83,3.57-5.56,2.43-10.38,4.1-.51.17-1.02.38-1.53.63-5.3,2.59-2.76,12.72-1.03,15.82Z" />
          <path
            class="k"
            d="m1796.92,850.76c2.42,1.97,5.4-4.82,12.22-4.76,6.82.06,9.61,13.72,14.46,16.69.75.46,1.29.55,1.66.36,2.02-1.09-1.19-11.04-4.41-18.89-2.75-6.71-13.82-16.31-20.15-21.11-2.43-1.84-4.16-2.98-4.46-2.98-2.43-.02.87,10.72,2.3,14.14,1.43,3.42-1.02,5.35-4.45,7.26s.42,7.31,2.84,9.28Z" />
          <path
            class="k"
            d="m1582.55,1018.73c23.38-.76,22.03-11.97,32.69-6.52,10.66,5.46,6.18,16.62,13.4,24.96,7.23,8.35,18.94,5.53,12.71-5.24-6.23-10.77-20.21-26.48-9.54-21.52,10.67,4.97,24.75,9.48,29.64,7.58,4.89-1.9,2.48-5.33,2.48-5.33-6.42-5.61-12.85-10.04-19.17-12.69-3.67-1.54-7.31-2.47-10.88-2.69-9.73-.58-12.07-11.31-18.39-12.83s-2.52,9.72-13.27,13.51c-6.89,2.43-16.15-.76-23.07-.55-3.87.12-7.02,1.3-8.62,5.13-4.48,10.67-11.36,16.94,12.03,16.18Z" />
          <path
            class="k"
            d="m1840.48,1142.87c-6.85,3.83-16.53-2.1-27.26-.74-10.73,1.36-26.31,1.22-39.41-4.26-5.9-2.47-10.64-1.96-15.63-.45-4.49,1.36-9.18,3.53-15.09,5.08-2.11.55-4.37,1.02-6.83,1.35-10.61,1.42-7.39-6.83-2.73-14.07.49-.77,1.01-1.53,1.52-2.27,2.43-3.48,4.89-6.42,5.81-7.48.7-.8,1.48-1.14,2.45-1.13,3.11.01,8.18,3.5,18.93,6.2,13.33,3.35,9.75-2.61,20.48-5.63h.01c.61-.18,1.26-.34,1.97-.49,13.18-2.8,16.08-.83,21.89,2.64,5.81,3.46,15.6-1.81,23.91-5.14,2.77-1.11,5.48-1.14,8.05-.54,4.33,1.02,7.89,3.72,10.18,7.32.08.11.15.22.22.34,1.41,2.32,2.29,5,2.52,7.82.06.77.16,1.54.3,2.3.93,4.88-4.43,5.32-11.29,9.15Z" />
          <path
            class="k"
            d="m1725.75,964.06c13.13,1.58,28.64,9.52,39.37,8.16,10.73-1.36,12.67-1.34,14.64-3.76,1.47-1.8-1.79-3.18-3.54-3.76-.6-.21-1.02-.31-1.02-.31-4.62-3.32-7.5-7.24-26-7.9-10.97-.39-21.79,1.79-26.04,3.96-2.93,1.49-2.75,2.97,2.6,3.62Z" />
          <path
            class="k"
            d="m1742.73,708.05c14.58,3.06,31.09,8.57,37.47,3.27,6.38-5.3,10.72-.39,13.64-.85,1.52-.24.58-3.24-.69-6.08-1.17-2.65-2.62-5.15-2.62-5.15-12.13-4.5-14.08-4.51-27.72-4.64-8.03-.07-18.64,3.55-23.01,7.16-3.05,2.52-3.07,5.04,2.92,6.29Z" />
          <path
            class="r"
            d="m1644.97,652.96c3.61-2.02,7.89-2.43,11.82-1.14,3.91,1.28,5.94,2.12,5.58,4.84-.52,3.89-13.6,9.46-15.34,7.08-1.74-2.37-6.56-8.26-3.13-10.18l1.08-.61Z" />
          <path
            class="k"
            d="m1656.79,651.82c1.91.62,3.36,1.15,4.32,1.83-2.09,3.78-13.41,8.39-15.02,6.19-.82-1.11-2.31-3-3.31-4.88.15-.56.49-1.04,1.12-1.39l1.08-.61c3.61-2.02,7.89-2.43,11.82-1.14Z" />
          <path
            class="r"
            d="m1742.73,708.05c14.58,3.06,31.09,8.57,37.47,3.27,6.38-5.3,10.72-.39,13.64-.85,1.52-.24.58-3.24-.69-6.08-1.67,1.16-3.97,2.3-7.06,1.14-5.34-2-3.4-1.01-8.29,1.38s-11.73,4.27-19.98,1.76-15.07-3.06-16.51-5.02c-.54-.74-1.01-1.4-1.5-1.89-3.05,2.52-3.07,5.04,2.92,6.29Z" />
          <path
            class="r"
            d="m1589.57,786.99c15.57,1.12,21.45-2.72,32.63.3,11.17,3.03,26.74,5.12,36.49,3.26,9.76-1.86,14.13-.84,23.85,1.19,9.72,2.04,21.45-2.72,17.11-7.15-2.35-2.4-4.15-3.07-5.3-3.19-.69-.06-1.36-.18-2.03-.33-.05.49-.33.99-.92,1.49-3.44,2.89-19.02,3.23-22.89-.21-3.86-3.44-11.67-2.06-15.58-.63-3.91,1.42-17.57,3.73-21.44.78s-7.26-4.45-14.1-2.08c-6.84,2.37-21.96,4.67-26.78-.25-4.82-4.91-3.33-8.31-.87-10.72,2.46-2.41,5.39-3.36,4.46-8.24-.1-.55-.3-1.06-.57-1.55-5.41,1.81-9.95,4.26-10.69,7.78-1.02,4.86-8.94,18.42,6.64,19.54Z" />
          <path
            class="r"
            d="m1796.92,850.76c2.42,1.97,5.4-4.82,12.22-4.76,6.82.06,9.61,13.72,14.46,16.69.75.46,1.29.55,1.66.36-1.11-1.09-2.53-2.59-3.53-4.03-1.88-2.7-4.8-12.46-7.21-14.92-2.41-2.46-5.83-2-8.75-1.54s-6.84,1.88-9.75,1.37c-2.92-.51,1.98-3.39,5.89-5.3s-.43-6.33-1.37-10.24c-.38-1.58-.2-3.55.16-5.34-2.43-1.84-4.16-2.98-4.46-2.98-2.43-.02.87,10.72,2.3,14.14,1.43,3.42-1.02,5.35-4.45,7.26s.42,7.31,2.84,9.28Z" />
          <path
            class="r"
            d="m1613.86,876.42c1.73,3.09,4.87-3.91,10.64-9.57,5.76-5.66,7.46,1.39,12.78-3.84,3.91-3.83,1.19-7.96-.53-9.89-.5,2.22-1.52,4.91-3.53,4.9-3.41-.03-7.31.42-10.76,5.26-3.45,4.84-3.97,7.76-5.9,6.28-1.93-1.48-2.39-4.41-1.4-6.34.39-.75.92-2.02,1.26-3.23-.51.17-1.02.38-1.53.63-5.3,2.59-2.76,12.72-1.03,15.82Z" />
          <path
            class="r"
            d="m1582.55,1018.73c23.38-.76,22.03-11.97,32.69-6.52,10.66,5.46,6.18,16.62,13.4,24.96,7.23,8.35,18.94,5.53,12.71-5.24-6.23-10.77-20.21-26.48-9.54-21.52,10.67,4.97,24.75,9.48,29.64,7.58,4.89-1.9,2.48-5.33,2.48-5.33-6.42-5.61-12.85-10.04-19.17-12.69,6.89,4.4,17.65,11.76,10.42,10.66-10.21-1.56-17.01-3.57-22.85-4.11-5.84-.54-12.17-.6-6.89,8.22,5.28,8.81,12.96,20.57,9.07,19.56-3.89-1.01-8.14-15.17-11.03-18.61-2.89-3.44-7.24-6.89-10.65-7.4s-17.09,5.2-27.8,4.61-16.98-6.49-12.58-8.88c2.45-1.34,5.22-4.17,6.69-6.61-3.87.12-7.02,1.3-8.62,5.13-4.48,10.67-11.36,16.94,12.03,16.18Z" />
          <path
            class="r"
            d="m1725.75,964.06c13.13,1.58,28.64,9.52,39.37,8.16,10.73-1.36,12.67-1.34,14.64-3.76,1.47-1.8-1.79-3.18-3.54-3.76-3.74,2.21-8.91,4.58-12.03,3.13-5.33-2.48-8.75-1.54-20.43-3.11-11.67-1.57-17.5-3.08-18.96-3.58-.35-.12-.95-.38-1.65-.69-2.93,1.49-2.75,2.97,2.6,3.62Z" />
          <path
            class="r"
            d="m1840.48,1142.87c-6.85,3.83-16.53-2.1-27.26-.74-10.73,1.36-26.31,1.22-39.41-4.26-5.9-2.47-10.64-1.96-15.63-.45-4.49,1.36-9.18,3.53-15.09,5.08-2.11.55-4.37,1.02-6.83,1.35-10.61,1.42-7.39-6.83-2.73-14.07.49-.77,1.01-1.53,1.52-2.27.13.13.26.27.37.42.2.25.36.52.49.82,1.43,3.43,1.38,8.78,5.27,9.31.61.08,1.26-.11,1.95-.48,1.71-.91,3.65-2.9,5.76-4.34,2.43-1.67,5.09-2.62,7.92-.4,1.37,1.07,3.34,1.48,5.65,1.44.08.01.16.01.24,0,5.15-.14,11.89-2.43,17.25-4.49,3.27-1.26,6.02-2.43,7.6-2.99,5.38-1.9,10.69,2.53,17.5,3.08.66.05,1.33.04,2.02-.02,2.34-.19,4.9-.9,7.66-1.49,4.91-1.04,10.45-1.68,16.62,1.76,5.32,2.96,11.69-.99,16.72-5.69.3-.28.59-.56.88-.84,1.41,2.32,2.29,5,2.52,7.82.06.77.16,1.54.3,2.3.93,4.88-4.43,5.32-11.29,9.15Z" />
          <path
            class="k"
            d="m2624,1290l-33,275-1293,146-1205-90-132.21-27.22-139.79-28.78,2.4-6.35,98.29-259.89,17.31-45.76,478.29-56.48c42.33-5,85.1-5.04,127.43-.13l212.28,24.61h598.34c35.05,0,70.05-2.75,104.67-8.22l179.83-28.43c39.02-6.17,78.89-4.21,117.12,5.76l121.58,31.69c36.15,9.43,73.38,14.1,110.74,13.89l489.72-2.69,145,57Z" />
          <path
            class="n"
            d="m2560,1534L-39.21,1593.78l-137.39-35.13,98.29-259.89c72.77,26.46,201.31,71.36,230.31,69.24,41-3,244-26,300-12s309,10,396,12,354-16,404-14,372,25,409,2,127-30,188-14,206,33,293,26,359-15,385-17,33,183,33,183Z" />
          <rect class="m" x="-223.5" y="1405" width="2847" height="611" />
          <rect class="j" x="-223.5" y="1405" width="2847" height="27" />
          <polygon class="k" points="716 1639 1457 1652 1013.52 1699.54 582 1699 860.13 1676.13 716 1639" />
          <polygon class="k" points="2037 1477 1662 1497 1821 1497 1971 1509 1916 1533 2145.27 1479.73 2037 1477" />
          <path
            class="k"
            d="m390.66,1491.01c.86-.65,1.92-.96,2.99-.88,9.51.77,57.37,4.36,75.35-.14,10-2.5,13.75-.75,15,1.62,1.29,2.44-.29,5.44-2.98,6.07-12.66,2.95-61.54,14.3-65.02,14.3h-40c-4.19,0-5.98-5.32-2.64-7.86l17.31-13.13Z" />
          <path
            class="k"
            d="m1575,1598.71c0-2.25,1.42-4.25,3.54-4.99,7.85-2.73,27.36-8.94,44.46-9.72,8.27-.38,15.41.24,21.09,1.15,5.15.83,6.07,7.87,1.31,10.03l-18.37,8.35c-.69.31-1.43.47-2.19.47h-44.57c-2.92,0-5.29-2.37-5.29-5.29h0Z" />
          <path
            class="k"
            d="m1458.06,1715.21l141.24-18.72c2.25-.3,4.48.74,5.7,2.66l6.29,9.88c2.48,3.89-.32,8.98-4.93,8.98l-146.77,8.79c-1.04.14-2.09-.01-3.06-.42h0c-5.46-2.34-4.35-10.38,1.53-11.16Z" />
          <path
            class="k"
            d="m520.48,1594h137.81c1.86,0,2.25,2.62.48,3.17l-31.6,9.78c-.11.04-.23.06-.35.07l-111.47,8.96c-.23.02-.47-.01-.69-.09l-21.1-7.74c-1.7-.62-1.25-3.14.56-3.14h32.4c1.61,0,2.23-2.1.88-2.98l-7.79-5.04c-1.35-.88-.73-2.98.88-2.98Z" />
          <path
            class="k"
            d="m1889.89,1605.86c3.87,7.28,4.04,15.9,3.97,24.14-.49,50.89-7.36,101.42-15.3,151.74-1.64,10.35-3.32,20.69-5,31.02-3.43,1.21-7.05,2.25-10.76,3.19h0c-11.27,2.85-23.41,4.85-33.87,8.48-.18.06-.36.12-.54.19-15.8-7.24-31.31-15.1-46.48-23.58-.29-.16-.58-.32-.86-.48-6.44-3.6-12.81-7.33-19.12-11.15-26.65-16.16-52.14-34.21-76.21-54.01-8.47-6.96-17.63-17.36-13.42-27.47,2.44-5.87,8.95-9.24,15.29-9.69,6.34-.44,12.58,1.53,18.56,3.69,33.29,12.03,64.12,30.85,90.05,54.95-30.52-28.89-61.22-58.95-80.66-96.21-4.88-9.34-9.06-19.6-8.11-30.09.95-10.49,8.54-21.04,19.03-22.08,11.79-1.16,21.24,9.14,28.41,18.57,23.4,30.8,45.29,62.74,65.6,95.66-20.72-36.84-32.42-78.74-33.48-121.02-.28-10.86,2.09-24.44,12.52-27.48,6.15-1.78,12.88,1.27,17.21,5.99,4.31,4.72,6.69,10.86,8.86,16.87,12.52,34.62,21.63,70.45,27.16,106.84-4.12-28.88-2.49-58.6,3.51-87.15,1.78-8.45,5.08-18.08,13.26-20.89,7.8-2.68,16.53,2.69,20.4,9.97Z" />
          <path
            class="p"
            d="m1808.7,1579.22c4.31,4.72,6.69,10.86,8.86,16.87,12.52,34.62,21.63,70.45,27.16,106.84-2.32-16.24-2.81-32.75-1.74-49.17-4.77-19.51-10.58-38.77-17.42-57.67-2.18-6.01-4.55-12.15-8.86-16.87-4.32-4.72-11.06-7.77-17.21-5.99-.08.02-.15.05-.22.07,3.56.99,6.91,3.16,9.43,5.92Z" />
          <path
            class="p"
            d="m1746.86,1626.07c23.4,30.8,45.3,62.74,65.6,95.66-7.43-13.21-13.7-27.08-18.74-41.38-12.45-18.45-25.4-36.55-38.86-54.28-7.18-9.43-16.62-19.74-28.41-18.57-.73.07-1.44.2-2.13.36,9.1,2,16.6,10.4,22.55,18.21Z" />
          <path
            class="p"
            d="m1698.14,1700.92c33.29,12.03,64.12,30.85,90.05,54.95-10.1-9.56-20.21-19.24-29.93-29.28-16.37-10.43-33.87-19.08-52.12-25.67-5.98-2.17-12.22-4.13-18.56-3.69-.68.05-1.37.14-2.05.25,4.29.59,8.51,1.96,12.61,3.44Z" />
          <path
            class="p"
            d="m1889.89,1604.86c-3.82-7.17-12.36-12.48-20.08-10.06,5.01,1.44,9.57,5.34,12.08,10.06,3.87,7.28,4.04,15.9,3.97,24.14-.49,50.89-7.36,101.42-15.3,151.74-1.64,10.35-3.32,20.69-5,31.02-3.43,1.21-7.05,2.25-10.76,3.19h0c-9.8,2.48-20.25,4.32-29.69,7.14,1.1.51,2.19,1.02,3.29,1.52.18-.06.36-.12.54-.19,10.46-3.62,22.6-5.63,33.87-8.47h0c3.72-.95,7.33-1.99,10.76-3.2,1.68-10.33,3.36-20.67,5-31.02,7.94-50.32,14.81-100.85,15.3-151.74.07-8.24-.1-16.86-3.97-24.14Z" />
          <path
            class="n"
            d="m2494.63,1476.01v334.37h-663.91c1.54-13.31,3.76-26.5,6.57-39.44,6.3-29.02,16-58.18,29.51-84.97,10.93-21.68,24.36-41.81,40.53-59.06,15.5-16.54,33.52-30.44,54.25-40.52,9.28-4.51,19.11-7.89,29.25-10.17h.01c35.53-8,74.66-2.55,105.64,14.44,25.97,14.25,46.21,36.61,53.8,65.96-1.12-5.8-1.95-11.66-2.49-17.55-.07-.75-.13-1.5-.19-2.25h0c-3.21-41.01,7.73-83.36,32.69-115.61,2.91-3.77,6.02-7.39,9.31-10.86,34.56-36.4,90.53-52.54,137.76-36.27h.01c2.11.72,4.21,1.51,6.29,2.37,43.56,18.02,73.28,66.37,68.39,112.59,12.02-48.71,47.63-90.74,92.58-113.03Z" />
          <path
            class="p"
            d="m2521.63,1548.01v334.37h-663.91c1.54-13.31,3.76-26.5,6.57-39.44,6.3-29.02,16-58.18,29.51-84.97,10.93-21.68,24.36-41.81,40.53-59.06,15.5-16.54,33.52-30.44,54.25-40.52,9.28-4.51,19.11-7.89,29.25-10.17h.01c35.53-8,74.66-2.55,105.64,14.44,25.97,14.25,46.21,36.61,53.8,65.96-1.12-5.8-1.95-11.66-2.49-17.55-.07-.75-.13-1.5-.19-2.25h0c-3.21-41.01,7.73-83.36,32.69-115.61,2.91-3.77,6.02-7.39,9.31-10.86,34.56-36.4,90.53-52.54,137.76-36.27h.01c2.11.72,4.21,1.51,6.29,2.37,43.56,18.02,73.28,66.37,68.39,112.59,12.02-48.71,47.63-90.74,92.58-113.03Z" />
          <path
            class="k"
            d="m2496.63,1588.71v221.67h-379.75c.05-.1.09-.2.14-.31,16.85-37.35,40.66-70.99,72.53-94.62,1.7-1.28,3.43-2.51,5.19-3.72.28-.19.56-.39.84-.58,6.96-4.74,14.29-9.01,22-12.76,69.05-33.6,169.48-4.13,188.7,70.23-9.98-51.49,3.22-108.24,39.32-146.27,14.12-14.87,31.82-26.36,51.03-33.64Z" />
          <path
            class="n"
            d="m2505,1625.33v221.67h-379.75c.05-.1.09-.2.14-.31,16.85-37.35,40.66-70.99,72.53-94.62,1.7-1.28,3.43-2.51,5.19-3.72.28-.19.56-.39.84-.58,6.96-4.74,14.29-9.01,22-12.76,69.05-33.6,169.48-4.13,188.7,70.23-9.98-51.49,3.22-108.24,39.32-146.27,14.12-14.87,31.82-26.36,51.03-33.64Z" />
          <path
            class="n"
            d="m411.42,1642.26c-.91,4.05-2.46,7.97-4.51,11.51-6.43,11.08-16.92,19.13-27.4,26.49-15.07,10.58-30.69,20.36-46.8,29.29-5.52,3.07-11.11,6.03-16.74,8.9-13.92,7.08-28.15,13.53-42.65,19.33l-.67.28h0c-18.39,7.33-37.19,13.63-56.29,18.82,20.56-3.76,41.12-7.57,61.68-11.38.26-.04.52-.09.78-.14,13.66-2.53,27.32-5.05,40.98-7.54,7.67-1.41,15.55-2.8,23.21-1.39.6.11,1.19.24,1.77.39.24.06.48.12.72.19,6.76,1.92,12.97,6.5,15.02,13.14,2.31,7.46-1.18,15.75-6.78,21.18-2.13,2.07-4.52,3.8-7.07,5.32-.23.14-.46.28-.7.4-3.95,2.26-8.25,4.02-12.5,5.68-7.23,2.82-14.51,5.47-21.84,7.96-.24.08-.48.16-.71.24-23.13,7.84-46.73,14.12-70.61,19.35-.53.12-1.06.23-1.6.35h0c-29.22,6.34-58.88,11.12-88.63,15.24-2.04.28-4.08.57-6.12.84-3.12.43-6.25.84-9.37,1.25-15.43,2.04-30.87,3.94-46.28,5.83-121.76,39.08-179.27,23.22-126-63.09.42-4.2.87-8.4,1.33-12.6,4.74-43.03,11.7-85.81,20.81-128.13.82-3.78,1.65-7.57,2.51-11.35,6.32-28.16,13.62-56.11,21.85-83.77,8.58-28.81,19.72-59.4,44.67-76.15,13.09-8.79,31.88-12.31,44.13-2.57.24.18.48.38.71.58,11.34,9.7,11.97,26.77,11.1,41.67-1.85,31.63-6.51,63.09-13.87,93.91h0c-.72,3-1.45,5.98-2.22,8.96-7.91,30.82-18.53,60.95-31.73,89.9,10.74-19.22,21.82-38.03,33.31-56.53,7.43-11.97,15.04-23.82,22.84-35.55,12.6-18.96,25.7-37.63,39.41-56.12,13.09-17.66,27.6-35.58,44.1-50.34,18.96-16.97,40.56-29.72,65.62-33.01,9.59-1.26,19.93-.87,28.11,4.29,16.39,10.35,16.86,34.04,12.62,52.96-6.46,28.79-19.32,55.7-35.85,80.27-7.59,11.31-15.97,22.13-24.86,32.4-1.67,1.94-3.36,3.86-5.08,5.76-.73.82-1.48,1.64-2.23,2.46-9.89,10.86-20.35,21.2-31.13,31.2-15.36,14.24-31.39,27.81-47.49,41.25-2.89,2.41-5.78,4.82-8.67,7.22,3.75-2.41,7.51-4.82,11.27-7.22,15.02-9.59,30.15-19.12,45.42-28.36,16.54-10.04,33.28-19.75,50.27-28.92,29.1-15.71,58.98-29.81,90.05-41.15,19.69-7.18,45.82-11.33,58.07,5.68,5.1,7.07,6.03,16.21,4.07,24.81Z" />
          <path
            class="p"
            d="m301.57,1497.87c-6.46,28.79-19.32,55.7-35.85,80.27-7.59,11.31-15.98,22.13-24.86,32.4-1.67,1.94-3.36,3.86-5.08,5.76-.73.82-1.48,1.64-2.23,2.46-9.89,10.86-20.35,21.2-31.13,31.2-15.36,14.24-31.39,27.81-47.49,41.25-2.89,2.41-5.78,4.82-8.67,7.22,3.75-2.41,7.51-4.82,11.27-7.22,15.02-9.59,30.15-19.12,45.42-28.36,9.68-5.87,19.43-11.61,29.25-17.22,2.48-2.6,4.94-5.22,7.35-7.87.75-.82,1.5-1.63,2.23-2.46,1.72-1.9,3.41-3.83,5.08-5.76,8.89-10.28,17.27-21.09,24.86-32.4,16.53-24.57,29.39-51.47,35.85-80.27,3.31-14.77,3.75-32.45-4.02-44.42.78,8.41-.17,17.35-1.98,25.42Z" />
          <path
            class="p"
            d="m103.39,1479.39c-1.85,31.63-6.51,63.09-13.87,93.91h0c-.72,3-1.45,5.98-2.22,8.96-7.91,30.82-18.53,60.95-31.73,89.9,10.74-19.22,21.82-38.03,33.31-56.53.32-.51.64-1.01.95-1.52,1.21-4.27,2.37-8.55,3.47-12.85.77-2.98,1.5-5.96,2.22-8.96h0c7.36-30.82,12.02-62.28,13.87-93.91.72-12.31.41-26.1-6.12-36,.56,5.64.45,11.47.12,17Z" />
          <path
            class="p"
            d="m354.39,1741.52c-1.2,4.05-3.62,7.86-6.67,10.81-2.13,2.07-4.52,3.8-7.07,5.32-.23.14-.46.28-.7.4-3.95,2.26-8.25,4.02-12.5,5.68-7.23,2.82-14.51,5.47-21.84,7.96-.24.08-.48.16-.71.24-23.13,7.84-46.73,14.12-70.61,19.35-.53.12-1.06.23-1.6.35h0c-29.22,6.34-58.88,11.12-88.63,15.24-2.04.28-4.08.57-6.12.84-3.12.43-6.25.84-9.37,1.25-15.43,2.04-30.87,3.94-46.28,5.83-73.33,23.54-123.34,27.13-139.9,7.43-.82,39.28,54.39,40.95,145.9,11.57,15.41-1.89,30.85-3.79,46.28-5.83,3.13-.41,6.25-.82,9.37-1.25,2.04-.28,4.08-.56,6.12-.84,29.75-4.12,59.4-8.91,88.63-15.24h0c.54-.12,1.07-.23,1.6-.35,23.88-5.23,47.48-11.51,70.61-19.35.23-.08.47-.16.71-.24,7.32-2.49,14.61-5.15,21.84-7.96,4.26-1.66,8.55-3.42,12.5-5.68.23-.13.46-.26.7-.4,2.55-1.51,4.94-3.24,7.07-5.32,5.61-5.43,9.1-13.73,6.78-21.18-1.08-3.47-3.29-6.37-6.12-8.63Z" />
          <path
            class="p"
            d="m407.34,1617.45c-.32-.45-.66-.88-1-1.3-.08,2.37-.39,4.76-.92,7.11-.91,4.05-2.46,7.97-4.51,11.51-6.43,11.08-16.92,19.13-27.4,26.49-15.07,10.58-30.69,20.36-46.8,29.29-5.52,3.07-11.11,6.03-16.74,8.9-13.92,7.08-28.15,13.53-42.65,19.33l-.67.28h0c-18.39,7.33-37.19,13.63-56.29,18.82,20.56-3.76,41.12-7.57,61.68-11.38.26-.04.52-.09.78-.14,13.66-2.53,27.32-5.05,40.98-7.54.76-.14,1.53-.28,2.3-.42,5.6-2.85,11.15-5.8,16.64-8.84,16.1-8.93,31.73-18.71,46.8-29.29,10.48-7.36,20.97-15.41,27.4-26.49,2.05-3.54,3.61-7.47,4.51-11.51,1.96-8.6,1.02-17.74-4.07-24.81Z" />
          <path
            class="k"
            d="m540.98,1809.88c-.11,3.75-.58,7.49-1.45,11.11h-1.04l-32.43-.11-341.45-1.04-8.12-.03c-.43,0-2.38-.44-2.82-.44-.33-1.23-.61-2.48-.86-3.75-.31-1.62-.55-3.26-.72-4.9-.03-.28-.06-.56-.09-.84-.8-8.76.3-17.8,3.07-25.95.09-.28.18-.55.28-.82,2.24-6.29,5.46-12.02,9.59-16.68,11.55-13.06,29.44-16.91,43.92-9.45,10.06-29.86,30.48-55.58,55.4-66,19.91-8.32,43.64-4.21,59.85,11.48,4.07,3.94,7.67,8.61,10.62,13.99,3.48-7.09,11.23-10.72,17.98-10.8,1.58-.02,3.17.21,4.7.67,4.28,1.27,8.23,4.28,11,8.47,0,0,0,0,0,0,.46.71.9,1.45,1.3,2.22.2-.25.4-.5.62-.74,18.16-21.71,46.23-29.72,70.52-20.76,24.58,9.06,44.31,35.58,49.44,66.42,2.03-.9,4.11-1.53,6.21-1.92,8.63-1.57,17.62,1.09,25.24,6.7.31.23.62.45.92.7,2.26,1.76,4.39,3.78,6.34,6.03,2.53,2.92,4.69,6.28,6.45,9.94.16.34.33.67.48,1.02h0c3.51,7.71,5.29,16.64,5.04,25.47Z" />
          <path
            class="n"
            d="m540.98,1855.88c-.11,3.75-.58,7.49-1.45,11.11h-1.04l-32.43-.11-341.45-1.04-8.12-.03c-.43,0-2.38-.44-2.82-.44-.33-1.23-.61-2.48-.86-3.75-.31-1.62-.55-3.26-.72-4.9-.03-.28-.06-.56-.09-.84-.8-8.76.3-17.8,3.07-25.95.09-.28.18-.55.28-.82,2.24-6.29,5.46-12.02,9.59-16.68,11.55-13.06,29.44-16.91,43.92-9.45,10.06-29.86,30.48-55.58,55.4-66,19.91-8.32,43.64-4.21,59.85,11.48,4.07,3.94,7.67,8.61,10.62,13.99,3.48-7.09,11.23-10.72,17.98-10.8,1.58-.02,3.17.21,4.7.67,4.28,1.27,8.23,4.28,11,8.47,0,0,0,0,0,0,.46.71.9,1.45,1.3,2.22.2-.25.4-.5.62-.74,18.16-21.71,46.23-29.72,70.52-20.76,24.58,9.06,44.31,35.58,49.44,66.42,2.03-.9,4.11-1.53,6.21-1.92,8.63-1.57,17.62,1.09,25.24,6.7.31.23.62.45.92.7,2.26,1.76,4.39,3.78,6.34,6.03,2.53,2.92,4.69,6.28,6.45,9.94.16.34.33.67.48,1.02h0c3.51,7.71,5.29,16.64,5.04,25.47Z" />
          <path
            class="n"
            d="m1989.49,366.47c0,2.11-.24,4.16-.69,6.13-.18.82-.41,1.62-.67,2.41h-258.25c-1.47-4.16-2.46-8.31-2.96-12.3-1.8-14.07,2.32-26.27,11.69-30.88,7.16-3.53,15.95-1.93,24.18,3.47,4.91-6.29,12.5-10.37,21.05-10.54,4.86-16.09,17.95-29.25,35.52-33.38,21.52-5.06,43.03,4.97,53.43,23.19,3.87-2.1,8.3-3.29,13.01-3.29,10.18,0,19.05,5.56,23.76,13.8,9.93-11.18,22.55-16.28,32.44-11.79,8.67,3.94,13.18,14.29,12.9,26.78,2.29-.62,4.7-.96,7.19-.96,15.12,0,27.38,12.26,27.38,27.38Z" />
          <path
            class="n"
            d="m791.81,441.33c0,1.67-.19,3.28-.54,4.84-.15.65-.32,1.28-.53,1.9h-203.9c-1.16-3.29-1.94-6.56-2.33-9.71-1.42-11.11,1.83-20.74,9.23-24.38,5.65-2.79,12.59-1.52,19.09,2.74,3.88-4.97,9.87-8.19,16.62-8.32,3.84-12.71,14.17-23.09,28.05-26.35,16.99-3.99,33.97,3.93,42.18,18.31,3.06-1.66,6.55-2.6,10.27-2.6,8.04,0,15.04,4.39,18.76,10.9,7.84-8.83,17.8-12.85,25.61-9.31,6.85,3.11,10.4,11.29,10.19,21.14,1.81-.49,3.71-.76,5.68-.76,11.94,0,21.61,9.68,21.61,21.61Z" />
          <path
            class="n"
            d="m418.47,219.77c0,1.54-.17,3.03-.5,4.47-.13.6-.3,1.18-.49,1.76h-188.51c-1.07-3.04-1.8-6.06-2.16-8.98-1.31-10.27,1.69-19.17,8.53-22.54,5.23-2.58,11.64-1.41,17.65,2.53,3.59-4.59,9.13-7.57,15.37-7.69,3.55-11.75,13.1-21.35,25.93-24.36,15.71-3.69,31.41,3.63,39,16.93,2.82-1.53,6.06-2.4,9.5-2.4,7.43,0,13.91,4.06,17.35,10.08,7.25-8.16,16.46-11.88,23.68-8.61,6.33,2.87,9.62,10.43,9.42,19.55,1.67-.45,3.43-.7,5.25-.7,11.04,0,19.98,8.95,19.98,19.98Z" />
          <circle class="h" cx="1200" cy="354" r="172" />
          <circle class="s" cx="1200" cy="354" r="205" />
          <circle class="n" cx="1200" cy="354" r="138" />
        </g>
      </g>
    </g>
  </g>
</svg>
